<svg width="26" height="22" viewBox="0 0 26 22" fill="none" xmlns="http://www.w3.org/2000/svg">
<path d="M15.6 0H10.4C5.49739 0 3.04609 0 1.52304 1.61091C0.426442 2.77078 0.119401 4.43963 0.0334314 7.21875H25.9666C25.8806 4.43963 25.5736 2.77078 24.477 1.61091C22.9539 0 20.5026 0 15.6 0Z" fill="#ABB7C2"/>
<path fill-rule="evenodd" clip-rule="evenodd" d="M15.6 22H10.4C5.49739 22 3.04609 22 1.52304 20.3891C0 18.7782 0 16.1854 0 11C0 10.3923 0 9.82029 0.00245088 9.28125H25.9975C26 9.82029 26 10.3923 26 11C26 16.1854 26 18.7782 24.477 20.3891C22.9539 22 20.5026 22 15.6 22ZM18.2582 11.3437C18.8208 11.3437 19.3367 11.3436 19.7564 11.4033C20.2185 11.469 20.7069 11.6236 21.1087 12.0485C21.5104 12.4734 21.6566 12.9901 21.7187 13.4788C21.7751 13.9227 21.7751 14.4684 21.775 15.0635V15.1865C21.7751 15.7816 21.7751 16.3273 21.7187 16.7712C21.6566 17.2599 21.5104 17.7766 21.1087 18.2015C20.7069 18.6264 20.2185 18.781 19.7564 18.8467C19.3367 18.9064 18.8208 18.9063 18.2582 18.9063L18.2 18.9062L18.1418 18.9063C17.5792 18.9063 17.0633 18.9064 16.6436 18.8467C16.1815 18.781 15.6931 18.6264 15.2913 18.2015C14.8896 17.7766 14.7434 17.2599 14.6813 16.7712C14.6249 16.3273 14.6249 15.7816 14.625 15.1865L14.625 15.125L14.625 15.0635C14.6249 14.4684 14.6249 13.9227 14.6813 13.4788C14.7434 12.9901 14.8896 12.4734 15.2913 12.0485C15.6931 11.6236 16.1815 11.469 16.6436 11.4033C17.0633 11.3436 17.5792 11.3437 18.1418 11.3437H18.2582ZM4.225 13.0625C4.225 12.493 4.66152 12.0312 5.2 12.0312H7.8C8.33848 12.0312 8.775 12.493 8.775 13.0625C8.775 13.632 8.33848 14.0938 7.8 14.0938H5.2C4.66152 14.0938 4.225 13.632 4.225 13.0625ZM4.225 17.1875C4.225 16.618 4.66152 16.1562 5.2 16.1562H10.4C10.9385 16.1562 11.375 16.618 11.375 17.1875C11.375 17.757 10.9385 18.2188 10.4 18.2188H5.2C4.66152 18.2188 4.225 17.757 4.225 17.1875Z" fill="#ABB7C2"/>
<path d="M16.6703 13.5069L16.6734 13.5051C16.6759 13.5037 16.6802 13.5014 16.6868 13.4986C16.7151 13.4863 16.7779 13.4652 16.9035 13.4474C17.1774 13.4084 17.5596 13.4062 18.2 13.4062C18.8404 13.4062 19.2226 13.4084 19.4965 13.4474C19.6221 13.4652 19.6849 13.4863 19.7132 13.4986C19.7198 13.5014 19.7241 13.5037 19.7266 13.5051L19.7298 13.507L19.7316 13.5103C19.7329 13.513 19.735 13.5175 19.7377 13.5245C19.7493 13.5544 19.7692 13.6209 19.7861 13.7537C19.8229 14.0434 19.825 14.4477 19.825 15.125C19.825 15.8023 19.8229 16.2066 19.7861 16.4963C19.7692 16.6291 19.7493 16.6956 19.7377 16.7255C19.735 16.7325 19.7329 16.737 19.7316 16.7397L19.7298 16.743L19.7266 16.7449C19.7241 16.7463 19.7198 16.7486 19.7132 16.7514C19.6849 16.7637 19.6221 16.7848 19.4965 16.8026C19.2226 16.8416 18.8404 16.8438 18.2 16.8438C17.5596 16.8438 17.1774 16.8416 16.9035 16.8026C16.7779 16.7848 16.7151 16.7637 16.6868 16.7514C16.6802 16.7486 16.6759 16.7463 16.6734 16.7449L16.6702 16.743L16.6684 16.7397C16.6671 16.737 16.665 16.7325 16.6623 16.7255C16.6507 16.6956 16.6308 16.6291 16.6139 16.4963C16.5771 16.2066 16.575 15.8023 16.575 15.125C16.575 14.4477 16.5771 14.0434 16.6139 13.7537C16.6308 13.6209 16.6507 13.5544 16.6623 13.5245C16.665 13.5175 16.6671 13.513 16.6684 13.5103L16.6703 13.5069Z" fill="#ABB7C2"/>
</svg>
