<svg width="18" height="22" viewBox="0 0 18 22" fill="none" xmlns="http://www.w3.org/2000/svg">
<path fill-rule="evenodd" clip-rule="evenodd" d="M10.9091 3.66667C10.9091 1.64162 12.4964 0 14.4545 0C16.4126 0 18 1.64162 18 3.66667C18 5.69171 16.4126 7.33333 14.4545 7.33333C13.4658 7.33333 12.5722 6.91455 11.9299 6.24082L7.02176 9.7125C7.06714 9.94673 7.09091 10.1887 7.09091 10.4359C7.09091 10.9254 6.9978 11.3933 6.82898 11.821L12.2107 15.4944C12.8215 14.9777 13.6031 14.6667 14.4545 14.6667C16.4126 14.6667 18 16.3083 18 18.3333C18 20.3584 16.4126 22 14.4545 22C12.4964 22 10.9091 20.3584 10.9091 18.3333C10.9091 17.8029 11.0184 17.2981 11.2148 16.8422L5.87654 13.1986C5.25384 13.7608 4.43817 14.1026 3.54545 14.1026C1.58735 14.1026 0 12.4609 0 10.4359C0 8.41085 1.58735 6.76923 3.54545 6.76923C4.67143 6.76923 5.67373 7.31198 6.32271 8.1567L11.0795 4.79207C10.9688 4.43695 10.9091 4.05856 10.9091 3.66667Z" fill="#ABB7C2"/>
</svg>
