<svg width="500" height="86" viewBox="0 0 500 86" fill="none" xmlns="http://www.w3.org/2000/svg">
<rect width="500" height="86" rx="10" fill="url(#paint0_linear_1048_6276)"/>
<path d="M195.474 34.5137L189.102 53H185.249L193.276 31.6719H195.737L195.474 34.5137ZM200.806 53L194.419 34.5137L194.141 31.6719H196.616L204.673 53H200.806ZM200.498 45.0898V48.0049H188.896V45.0898H200.498ZM209.99 40.1973V59.0938H206.46V37.1504H209.712L209.99 40.1973ZM220.317 44.9287V45.2363C220.317 46.3887 220.181 47.458 219.907 48.4443C219.644 49.4209 219.248 50.2754 218.721 51.0078C218.203 51.7305 217.563 52.292 216.802 52.6924C216.04 53.0928 215.161 53.293 214.165 53.293C213.179 53.293 212.314 53.1123 211.572 52.751C210.84 52.3799 210.22 51.8574 209.712 51.1836C209.204 50.5098 208.794 49.7188 208.481 48.8105C208.179 47.8926 207.964 46.8867 207.837 45.793V44.6064C207.964 43.4443 208.179 42.3896 208.481 41.4424C208.794 40.4951 209.204 39.6797 209.712 38.9961C210.22 38.3125 210.84 37.7852 211.572 37.4141C212.305 37.043 213.159 36.8574 214.136 36.8574C215.132 36.8574 216.016 37.0527 216.787 37.4434C217.559 37.8242 218.208 38.3711 218.735 39.084C219.263 39.7871 219.658 40.6367 219.922 41.6328C220.186 42.6191 220.317 43.7178 220.317 44.9287ZM216.787 45.2363V44.9287C216.787 44.1963 216.719 43.5176 216.582 42.8926C216.445 42.2578 216.23 41.7012 215.938 41.2227C215.645 40.7441 215.269 40.373 214.81 40.1094C214.36 39.8359 213.818 39.6992 213.184 39.6992C212.559 39.6992 212.021 39.8066 211.572 40.0215C211.123 40.2266 210.747 40.5146 210.444 40.8857C210.142 41.2568 209.907 41.6914 209.741 42.1895C209.575 42.6777 209.458 43.21 209.39 43.7861V46.6279C209.507 47.3311 209.707 47.9756 209.99 48.5615C210.273 49.1475 210.674 49.6162 211.191 49.9678C211.719 50.3096 212.393 50.4805 213.213 50.4805C213.848 50.4805 214.39 50.3438 214.839 50.0703C215.288 49.7969 215.654 49.4209 215.938 48.9424C216.23 48.4541 216.445 47.8926 216.582 47.2578C216.719 46.623 216.787 45.9492 216.787 45.2363ZM226.865 40.1973V59.0938H223.335V37.1504H226.587L226.865 40.1973ZM237.192 44.9287V45.2363C237.192 46.3887 237.056 47.458 236.782 48.4443C236.519 49.4209 236.123 50.2754 235.596 51.0078C235.078 51.7305 234.438 52.292 233.677 52.6924C232.915 53.0928 232.036 53.293 231.04 53.293C230.054 53.293 229.189 53.1123 228.447 52.751C227.715 52.3799 227.095 51.8574 226.587 51.1836C226.079 50.5098 225.669 49.7188 225.356 48.8105C225.054 47.8926 224.839 46.8867 224.712 45.793V44.6064C224.839 43.4443 225.054 42.3896 225.356 41.4424C225.669 40.4951 226.079 39.6797 226.587 38.9961C227.095 38.3125 227.715 37.7852 228.447 37.4141C229.18 37.043 230.034 36.8574 231.011 36.8574C232.007 36.8574 232.891 37.0527 233.662 37.4434C234.434 37.8242 235.083 38.3711 235.61 39.084C236.138 39.7871 236.533 40.6367 236.797 41.6328C237.061 42.6191 237.192 43.7178 237.192 44.9287ZM233.662 45.2363V44.9287C233.662 44.1963 233.594 43.5176 233.457 42.8926C233.32 42.2578 233.105 41.7012 232.812 41.2227C232.52 40.7441 232.144 40.373 231.685 40.1094C231.235 39.8359 230.693 39.6992 230.059 39.6992C229.434 39.6992 228.896 39.8066 228.447 40.0215C227.998 40.2266 227.622 40.5146 227.319 40.8857C227.017 41.2568 226.782 41.6914 226.616 42.1895C226.45 42.6777 226.333 43.21 226.265 43.7861V46.6279C226.382 47.3311 226.582 47.9756 226.865 48.5615C227.148 49.1475 227.549 49.6162 228.066 49.9678C228.594 50.3096 229.268 50.4805 230.088 50.4805C230.723 50.4805 231.265 50.3438 231.714 50.0703C232.163 49.7969 232.529 49.4209 232.812 48.9424C233.105 48.4541 233.32 47.8926 233.457 47.2578C233.594 46.623 233.662 45.9492 233.662 45.2363ZM243.74 40.168V53H240.21V37.1504H243.579L243.74 40.168ZM248.589 37.0479L248.56 40.3291C248.345 40.29 248.11 40.2607 247.856 40.2412C247.612 40.2217 247.368 40.2119 247.124 40.2119C246.519 40.2119 245.986 40.2998 245.527 40.4756C245.068 40.6416 244.683 40.8857 244.37 41.208C244.067 41.5205 243.833 41.9014 243.667 42.3506C243.501 42.7998 243.403 43.3027 243.374 43.8594L242.568 43.918C242.568 42.9219 242.666 41.999 242.861 41.1494C243.057 40.2998 243.35 39.5527 243.74 38.9082C244.141 38.2637 244.639 37.7607 245.234 37.3994C245.84 37.0381 246.538 36.8574 247.329 36.8574C247.544 36.8574 247.773 36.877 248.018 36.916C248.271 36.9551 248.462 36.999 248.589 37.0479ZM249.746 45.251V44.9141C249.746 43.7715 249.912 42.7119 250.244 41.7354C250.576 40.749 251.055 39.8945 251.68 39.1719C252.314 38.4395 253.086 37.873 253.994 37.4727C254.912 37.0625 255.947 36.8574 257.1 36.8574C258.262 36.8574 259.297 37.0625 260.205 37.4727C261.123 37.873 261.899 38.4395 262.534 39.1719C263.169 39.8945 263.652 40.749 263.984 41.7354C264.316 42.7119 264.482 43.7715 264.482 44.9141V45.251C264.482 46.3936 264.316 47.4531 263.984 48.4297C263.652 49.4062 263.169 50.2607 262.534 50.9932C261.899 51.7158 261.128 52.2822 260.22 52.6924C259.312 53.0928 258.281 53.293 257.129 53.293C255.967 53.293 254.927 53.0928 254.009 52.6924C253.101 52.2822 252.329 51.7158 251.694 50.9932C251.06 50.2607 250.576 49.4062 250.244 48.4297C249.912 47.4531 249.746 46.3936 249.746 45.251ZM253.276 44.9141V45.251C253.276 45.9639 253.35 46.6377 253.496 47.2725C253.643 47.9072 253.872 48.4639 254.185 48.9424C254.497 49.4209 254.897 49.7969 255.386 50.0703C255.874 50.3438 256.455 50.4805 257.129 50.4805C257.783 50.4805 258.35 50.3438 258.828 50.0703C259.316 49.7969 259.717 49.4209 260.029 48.9424C260.342 48.4639 260.571 47.9072 260.718 47.2725C260.874 46.6377 260.952 45.9639 260.952 45.251V44.9141C260.952 44.2109 260.874 43.5469 260.718 42.9219C260.571 42.2871 260.337 41.7256 260.015 41.2373C259.702 40.749 259.302 40.3682 258.813 40.0947C258.335 39.8115 257.764 39.6699 257.1 39.6699C256.436 39.6699 255.859 39.8115 255.371 40.0947C254.893 40.3682 254.497 40.749 254.185 41.2373C253.872 41.7256 253.643 42.2871 253.496 42.9219C253.35 43.5469 253.276 44.2109 253.276 44.9141ZM272.363 50.2021L276.245 37.1504H279.907L274.399 53H272.114L272.363 50.2021ZM269.39 37.1504L273.345 50.2607L273.535 53H271.25L265.713 37.1504H269.39ZM288.872 53.293C287.7 53.293 286.641 53.1025 285.693 52.7217C284.756 52.3311 283.955 51.7891 283.291 51.0957C282.637 50.4023 282.134 49.5869 281.782 48.6494C281.431 47.7119 281.255 46.7012 281.255 45.6172V45.0312C281.255 43.791 281.436 42.668 281.797 41.6621C282.158 40.6562 282.661 39.7969 283.306 39.084C283.95 38.3613 284.712 37.8096 285.591 37.4287C286.47 37.0479 287.422 36.8574 288.447 36.8574C289.58 36.8574 290.571 37.0479 291.421 37.4287C292.271 37.8096 292.974 38.3467 293.53 39.04C294.097 39.7236 294.517 40.5391 294.79 41.4863C295.073 42.4336 295.215 43.4785 295.215 44.6211V46.1299H282.969V43.5957H291.729V43.3174C291.709 42.6826 291.582 42.0869 291.348 41.5303C291.123 40.9736 290.776 40.5244 290.308 40.1826C289.839 39.8408 289.214 39.6699 288.433 39.6699C287.847 39.6699 287.324 39.7969 286.865 40.0508C286.416 40.2949 286.04 40.6514 285.737 41.1201C285.435 41.5889 285.2 42.1553 285.034 42.8193C284.878 43.4736 284.8 44.2109 284.8 45.0312V45.6172C284.8 46.3105 284.893 46.9551 285.078 47.5508C285.273 48.1367 285.557 48.6494 285.928 49.0889C286.299 49.5283 286.748 49.875 287.275 50.1289C287.803 50.373 288.403 50.4951 289.077 50.4951C289.927 50.4951 290.684 50.3242 291.348 49.9824C292.012 49.6406 292.588 49.1572 293.076 48.5322L294.937 50.334C294.595 50.832 294.15 51.3105 293.604 51.7695C293.057 52.2188 292.388 52.585 291.597 52.8682C290.815 53.1514 289.907 53.293 288.872 53.293ZM307.637 49.7188V30.5H311.182V53H307.974L307.637 49.7188ZM297.324 45.251V44.9434C297.324 43.7422 297.466 42.6484 297.749 41.6621C298.032 40.666 298.442 39.8115 298.979 39.0986C299.517 38.376 300.171 37.8242 300.942 37.4434C301.714 37.0527 302.583 36.8574 303.55 36.8574C304.507 36.8574 305.347 37.043 306.069 37.4141C306.792 37.7852 307.407 38.3174 307.915 39.0107C308.423 39.6943 308.828 40.5146 309.131 41.4717C309.434 42.4189 309.648 43.4736 309.775 44.6357V45.6172C309.648 46.75 309.434 47.7852 309.131 48.7227C308.828 49.6602 308.423 50.4707 307.915 51.1543C307.407 51.8379 306.787 52.3652 306.055 52.7363C305.332 53.1074 304.487 53.293 303.521 53.293C302.563 53.293 301.699 53.0928 300.928 52.6924C300.166 52.292 299.517 51.7305 298.979 51.0078C298.442 50.2852 298.032 49.4355 297.749 48.459C297.466 47.4727 297.324 46.4033 297.324 45.251ZM300.854 44.9434V45.251C300.854 45.9736 300.918 46.6475 301.045 47.2725C301.182 47.8975 301.392 48.4492 301.675 48.9277C301.958 49.3965 302.324 49.7676 302.773 50.041C303.232 50.3047 303.779 50.4365 304.414 50.4365C305.215 50.4365 305.874 50.2607 306.392 49.9092C306.909 49.5576 307.314 49.084 307.607 48.4883C307.91 47.8828 308.115 47.209 308.223 46.4668V43.8154C308.164 43.2393 308.042 42.7021 307.856 42.2041C307.681 41.7061 307.441 41.2715 307.139 40.9004C306.836 40.5195 306.46 40.2266 306.011 40.0215C305.571 39.8066 305.049 39.6992 304.443 39.6992C303.799 39.6992 303.252 39.8359 302.803 40.1094C302.354 40.3828 301.982 40.7588 301.689 41.2373C301.406 41.7158 301.196 42.2725 301.06 42.9072C300.923 43.542 300.854 44.2207 300.854 44.9434Z" fill="white"/>
<rect width="474" height="83" rx="10" fill="white"/>
<rect x="0.5" y="0.5" width="473" height="82" rx="9.5" stroke="#445A68" stroke-opacity="0.2"/>
<defs>
<linearGradient id="paint0_linear_1048_6276" x1="255.5" y1="5.54551e-07" x2="255.5" y2="86" gradientUnits="userSpaceOnUse">
<stop stop-color="#4DCCD9"/>
<stop offset="1" stop-color="#445A68"/>
</linearGradient>
</defs>
</svg>
