<svg width="500" height="86" viewBox="0 0 500 86" fill="none" xmlns="http://www.w3.org/2000/svg">
<rect width="500" height="86" rx="10" fill="white"/>
<rect x="0.5" y="0.5" width="499" height="85" rx="9.5" stroke="#445A68" stroke-opacity="0.2"/>
<path d="M205.621 35.8148L199.249 54.3011H195.396L203.424 32.973H205.885L205.621 35.8148ZM210.953 54.3011L204.566 35.8148L204.288 32.973H206.764L214.82 54.3011H210.953ZM210.646 46.391V49.306H199.044V46.391H210.646ZM220.138 41.4984V60.3949H216.607V38.4515H219.859L220.138 41.4984ZM230.465 46.2299V46.5375C230.465 47.6898 230.328 48.7592 230.055 49.7455C229.791 50.722 229.396 51.5765 228.868 52.309C228.351 53.0316 227.711 53.5931 226.949 53.9935C226.188 54.3939 225.309 54.5941 224.312 54.5941C223.326 54.5941 222.462 54.4135 221.72 54.0521C220.987 53.681 220.367 53.1586 219.859 52.4847C219.352 51.8109 218.941 51.0199 218.629 50.1117C218.326 49.1937 218.111 48.1879 217.984 47.0941V45.9076C218.111 44.7455 218.326 43.6908 218.629 42.7435C218.941 41.7963 219.352 40.9808 219.859 40.2972C220.367 39.6136 220.987 39.0863 221.72 38.7152C222.452 38.3441 223.307 38.1586 224.283 38.1586C225.279 38.1586 226.163 38.3539 226.935 38.7445C227.706 39.1254 228.355 39.6722 228.883 40.3851C229.41 41.0883 229.806 41.9379 230.069 42.934C230.333 43.9203 230.465 45.0189 230.465 46.2299ZM226.935 46.5375V46.2299C226.935 45.4974 226.866 44.8187 226.729 44.1937C226.593 43.559 226.378 43.0023 226.085 42.5238C225.792 42.0453 225.416 41.6742 224.957 41.4105C224.508 41.1371 223.966 41.0004 223.331 41.0004C222.706 41.0004 222.169 41.1078 221.72 41.3226C221.271 41.5277 220.895 41.8158 220.592 42.1869C220.289 42.558 220.055 42.9926 219.889 43.4906C219.723 43.9789 219.605 44.5111 219.537 45.0873V47.9291C219.654 48.6322 219.854 49.2767 220.138 49.8627C220.421 50.4486 220.821 50.9174 221.339 51.2689C221.866 51.6107 222.54 51.7816 223.36 51.7816C223.995 51.7816 224.537 51.6449 224.986 51.3715C225.436 51.098 225.802 50.722 226.085 50.2435C226.378 49.7552 226.593 49.1937 226.729 48.559C226.866 47.9242 226.935 47.2504 226.935 46.5375ZM237.013 41.4984V60.3949H233.482V38.4515H236.734L237.013 41.4984ZM247.34 46.2299V46.5375C247.34 47.6898 247.203 48.7592 246.93 49.7455C246.666 50.722 246.271 51.5765 245.743 52.309C245.226 53.0316 244.586 53.5931 243.824 53.9935C243.062 54.3939 242.184 54.5941 241.188 54.5941C240.201 54.5941 239.337 54.4135 238.595 54.0521C237.862 53.681 237.242 53.1586 236.734 52.4847C236.227 51.8109 235.816 51.0199 235.504 50.1117C235.201 49.1937 234.986 48.1879 234.859 47.0941V45.9076C234.986 44.7455 235.201 43.6908 235.504 42.7435C235.816 41.7963 236.227 40.9808 236.734 40.2972C237.242 39.6136 237.862 39.0863 238.595 38.7152C239.327 38.3441 240.182 38.1586 241.158 38.1586C242.154 38.1586 243.038 38.3539 243.81 38.7445C244.581 39.1254 245.23 39.6722 245.758 40.3851C246.285 41.0883 246.681 41.9379 246.944 42.934C247.208 43.9203 247.34 45.0189 247.34 46.2299ZM243.81 46.5375V46.2299C243.81 45.4974 243.741 44.8187 243.604 44.1937C243.468 43.559 243.253 43.0023 242.96 42.5238C242.667 42.0453 242.291 41.6742 241.832 41.4105C241.383 41.1371 240.841 41.0004 240.206 41.0004C239.581 41.0004 239.044 41.1078 238.595 41.3226C238.146 41.5277 237.77 41.8158 237.467 42.1869C237.164 42.558 236.93 42.9926 236.764 43.4906C236.598 43.9789 236.48 44.5111 236.412 45.0873V47.9291C236.529 48.6322 236.729 49.2767 237.013 49.8627C237.296 50.4486 237.696 50.9174 238.214 51.2689C238.741 51.6107 239.415 51.7816 240.235 51.7816C240.87 51.7816 241.412 51.6449 241.861 51.3715C242.311 51.098 242.677 50.722 242.96 50.2435C243.253 49.7552 243.468 49.1937 243.604 48.559C243.741 47.9242 243.81 47.2504 243.81 46.5375ZM253.888 41.4691V54.3011H250.357V38.4515H253.727L253.888 41.4691ZM258.736 38.349L258.707 41.6302C258.492 41.5912 258.258 41.5619 258.004 41.5424C257.76 41.5228 257.516 41.5131 257.271 41.5131C256.666 41.5131 256.134 41.601 255.675 41.7767C255.216 41.9427 254.83 42.1869 254.518 42.5092C254.215 42.8217 253.98 43.2025 253.814 43.6517C253.648 44.101 253.551 44.6039 253.521 45.1605L252.716 45.2191C252.716 44.223 252.813 43.3002 253.009 42.4506C253.204 41.601 253.497 40.8539 253.888 40.2094C254.288 39.5648 254.786 39.0619 255.382 38.7006C255.987 38.3392 256.686 38.1586 257.477 38.1586C257.691 38.1586 257.921 38.1781 258.165 38.2172C258.419 38.2562 258.609 38.3002 258.736 38.349ZM259.894 46.5521V46.2152C259.894 45.0726 260.06 44.0131 260.392 43.0365C260.724 42.0502 261.202 41.1957 261.827 40.473C262.462 39.7406 263.233 39.1742 264.142 38.7738C265.06 38.3636 266.095 38.1586 267.247 38.1586C268.409 38.1586 269.444 38.3636 270.353 38.7738C271.271 39.1742 272.047 39.7406 272.682 40.473C273.316 41.1957 273.8 42.0502 274.132 43.0365C274.464 44.0131 274.63 45.0726 274.63 46.2152V46.5521C274.63 47.6947 274.464 48.7543 274.132 49.7308C273.8 50.7074 273.316 51.5619 272.682 52.2943C272.047 53.017 271.275 53.5834 270.367 53.9935C269.459 54.3939 268.429 54.5941 267.276 54.5941C266.114 54.5941 265.074 54.3939 264.156 53.9935C263.248 53.5834 262.477 53.017 261.842 52.2943C261.207 51.5619 260.724 50.7074 260.392 49.7308C260.06 48.7543 259.894 47.6947 259.894 46.5521ZM263.424 46.2152V46.5521C263.424 47.265 263.497 47.9388 263.644 48.5736C263.79 49.2084 264.02 49.765 264.332 50.2435C264.645 50.722 265.045 51.098 265.533 51.3715C266.021 51.6449 266.603 51.7816 267.276 51.7816C267.931 51.7816 268.497 51.6449 268.976 51.3715C269.464 51.098 269.864 50.722 270.177 50.2435C270.489 49.765 270.719 49.2084 270.865 48.5736C271.021 47.9388 271.1 47.265 271.1 46.5521V46.2152C271.1 45.5121 271.021 44.848 270.865 44.223C270.719 43.5883 270.484 43.0267 270.162 42.5385C269.85 42.0502 269.449 41.6693 268.961 41.3959C268.482 41.1127 267.911 40.9711 267.247 40.9711C266.583 40.9711 266.007 41.1127 265.519 41.3959C265.04 41.6693 264.645 42.0502 264.332 42.5385C264.02 43.0267 263.79 43.5883 263.644 44.223C263.497 44.848 263.424 45.5121 263.424 46.2152ZM282.511 51.5033L286.393 38.4515H290.055L284.547 54.3011H282.262L282.511 51.5033ZM279.537 38.4515L283.492 51.5619L283.683 54.3011H281.397L275.86 38.4515H279.537ZM299.02 54.5941C297.848 54.5941 296.788 54.4037 295.841 54.0228C294.903 53.6322 294.103 53.0902 293.438 52.3969C292.784 51.7035 292.281 50.8881 291.93 49.9506C291.578 49.0131 291.402 48.0023 291.402 46.9183V46.3324C291.402 45.0922 291.583 43.9691 291.944 42.9633C292.306 41.9574 292.809 41.098 293.453 40.3851C294.098 39.6625 294.859 39.1107 295.738 38.7299C296.617 38.349 297.569 38.1586 298.595 38.1586C299.728 38.1586 300.719 38.349 301.568 38.7299C302.418 39.1107 303.121 39.6478 303.678 40.3412C304.244 41.0248 304.664 41.8402 304.938 42.7875C305.221 43.7347 305.362 44.7797 305.362 45.9222V47.431H293.116V44.8969H301.876V44.6185C301.856 43.9838 301.729 43.3881 301.495 42.8314C301.271 42.2748 300.924 41.8256 300.455 41.4838C299.986 41.142 299.361 40.9711 298.58 40.9711C297.994 40.9711 297.472 41.098 297.013 41.3519C296.563 41.5961 296.188 41.9525 295.885 42.4213C295.582 42.89 295.348 43.4564 295.182 44.1205C295.025 44.7748 294.947 45.5121 294.947 46.3324V46.9183C294.947 47.6117 295.04 48.2562 295.226 48.8519C295.421 49.4379 295.704 49.9506 296.075 50.39C296.446 50.8295 296.896 51.1761 297.423 51.4301C297.95 51.6742 298.551 51.7963 299.225 51.7963C300.074 51.7963 300.831 51.6254 301.495 51.2836C302.159 50.9418 302.735 50.4584 303.224 49.8334L305.084 51.6351C304.742 52.1332 304.298 52.6117 303.751 53.0707C303.204 53.5199 302.535 53.8861 301.744 54.1693C300.963 54.4525 300.055 54.5941 299.02 54.5941ZM317.784 51.0199V31.8011H321.329V54.3011H318.121L317.784 51.0199ZM307.472 46.5521V46.2445C307.472 45.0433 307.613 43.9496 307.896 42.9633C308.18 41.9672 308.59 41.1127 309.127 40.3998C309.664 39.6771 310.318 39.1254 311.09 38.7445C311.861 38.3539 312.73 38.1586 313.697 38.1586C314.654 38.1586 315.494 38.3441 316.217 38.7152C316.939 39.0863 317.555 39.6185 318.062 40.3119C318.57 40.9955 318.976 41.8158 319.278 42.7728C319.581 43.7201 319.796 44.7748 319.923 45.9369V46.9183C319.796 48.0511 319.581 49.0863 319.278 50.0238C318.976 50.9613 318.57 51.7719 318.062 52.4554C317.555 53.139 316.935 53.6664 316.202 54.0375C315.479 54.4086 314.635 54.5941 313.668 54.5941C312.711 54.5941 311.847 54.3939 311.075 53.9935C310.313 53.5931 309.664 53.0316 309.127 52.309C308.59 51.5863 308.18 50.7367 307.896 49.7601C307.613 48.7738 307.472 47.7045 307.472 46.5521ZM311.002 46.2445V46.5521C311.002 47.2748 311.065 47.9486 311.192 48.5736C311.329 49.1986 311.539 49.7504 311.822 50.2289C312.105 50.6976 312.472 51.0687 312.921 51.3422C313.38 51.6058 313.927 51.7377 314.562 51.7377C315.362 51.7377 316.021 51.5619 316.539 51.2103C317.057 50.8588 317.462 50.3851 317.755 49.7894C318.058 49.184 318.263 48.5101 318.37 47.7679V45.1166C318.312 44.5404 318.189 44.0033 318.004 43.5052C317.828 43.0072 317.589 42.5726 317.286 42.2015C316.983 41.8207 316.607 41.5277 316.158 41.3226C315.719 41.1078 315.196 41.0004 314.591 41.0004C313.946 41.0004 313.399 41.1371 312.95 41.4105C312.501 41.684 312.13 42.0599 311.837 42.5385C311.554 43.017 311.344 43.5736 311.207 44.2084C311.07 44.8431 311.002 45.5219 311.002 46.2445Z" fill="#445D6B"/>
</svg>
