<svg width="518" height="104" viewBox="0 0 518 104" fill="none" xmlns="http://www.w3.org/2000/svg">
<g filter="url(#filter0_d_1048_6276)">
<rect x="9" y="5" width="500" height="86" rx="10" fill="url(#paint0_linear_1048_6276)"/>
</g>
<path d="M204.474 39.5137L198.102 58H194.249L202.276 36.6719H204.737L204.474 39.5137ZM209.806 58L203.419 39.5137L203.141 36.6719H205.616L213.673 58H209.806ZM209.498 50.0898V53.0049H197.896V50.0898H209.498ZM218.99 45.1973V64.0938H215.46V42.1504H218.712L218.99 45.1973ZM229.317 49.9287V50.2363C229.317 51.3887 229.181 52.458 228.907 53.4443C228.644 54.4209 228.248 55.2754 227.721 56.0078C227.203 56.7305 226.563 57.292 225.802 57.6924C225.04 58.0928 224.161 58.293 223.165 58.293C222.179 58.293 221.314 58.1123 220.572 57.751C219.84 57.3799 219.22 56.8574 218.712 56.1836C218.204 55.5098 217.794 54.7188 217.481 53.8105C217.179 52.8926 216.964 51.8867 216.837 50.793V49.6064C216.964 48.4443 217.179 47.3896 217.481 46.4424C217.794 45.4951 218.204 44.6797 218.712 43.9961C219.22 43.3125 219.84 42.7852 220.572 42.4141C221.305 42.043 222.159 41.8574 223.136 41.8574C224.132 41.8574 225.016 42.0527 225.787 42.4434C226.559 42.8242 227.208 43.3711 227.735 44.084C228.263 44.7871 228.658 45.6367 228.922 46.6328C229.186 47.6191 229.317 48.7178 229.317 49.9287ZM225.787 50.2363V49.9287C225.787 49.1963 225.719 48.5176 225.582 47.8926C225.445 47.2578 225.23 46.7012 224.938 46.2227C224.645 45.7441 224.269 45.373 223.81 45.1094C223.36 44.8359 222.818 44.6992 222.184 44.6992C221.559 44.6992 221.021 44.8066 220.572 45.0215C220.123 45.2266 219.747 45.5146 219.444 45.8857C219.142 46.2568 218.907 46.6914 218.741 47.1895C218.575 47.6777 218.458 48.21 218.39 48.7861V51.6279C218.507 52.3311 218.707 52.9756 218.99 53.5615C219.273 54.1475 219.674 54.6162 220.191 54.9678C220.719 55.3096 221.393 55.4805 222.213 55.4805C222.848 55.4805 223.39 55.3438 223.839 55.0703C224.288 54.7969 224.654 54.4209 224.938 53.9424C225.23 53.4541 225.445 52.8926 225.582 52.2578C225.719 51.623 225.787 50.9492 225.787 50.2363ZM235.865 45.1973V64.0938H232.335V42.1504H235.587L235.865 45.1973ZM246.192 49.9287V50.2363C246.192 51.3887 246.056 52.458 245.782 53.4443C245.519 54.4209 245.123 55.2754 244.596 56.0078C244.078 56.7305 243.438 57.292 242.677 57.6924C241.915 58.0928 241.036 58.293 240.04 58.293C239.054 58.293 238.189 58.1123 237.447 57.751C236.715 57.3799 236.095 56.8574 235.587 56.1836C235.079 55.5098 234.669 54.7188 234.356 53.8105C234.054 52.8926 233.839 51.8867 233.712 50.793V49.6064C233.839 48.4443 234.054 47.3896 234.356 46.4424C234.669 45.4951 235.079 44.6797 235.587 43.9961C236.095 43.3125 236.715 42.7852 237.447 42.4141C238.18 42.043 239.034 41.8574 240.011 41.8574C241.007 41.8574 241.891 42.0527 242.662 42.4434C243.434 42.8242 244.083 43.3711 244.61 44.084C245.138 44.7871 245.533 45.6367 245.797 46.6328C246.061 47.6191 246.192 48.7178 246.192 49.9287ZM242.662 50.2363V49.9287C242.662 49.1963 242.594 48.5176 242.457 47.8926C242.32 47.2578 242.105 46.7012 241.812 46.2227C241.52 45.7441 241.144 45.373 240.685 45.1094C240.235 44.8359 239.693 44.6992 239.059 44.6992C238.434 44.6992 237.896 44.8066 237.447 45.0215C236.998 45.2266 236.622 45.5146 236.319 45.8857C236.017 46.2568 235.782 46.6914 235.616 47.1895C235.45 47.6777 235.333 48.21 235.265 48.7861V51.6279C235.382 52.3311 235.582 52.9756 235.865 53.5615C236.148 54.1475 236.549 54.6162 237.066 54.9678C237.594 55.3096 238.268 55.4805 239.088 55.4805C239.723 55.4805 240.265 55.3438 240.714 55.0703C241.163 54.7969 241.529 54.4209 241.812 53.9424C242.105 53.4541 242.32 52.8926 242.457 52.2578C242.594 51.623 242.662 50.9492 242.662 50.2363ZM252.74 45.168V58H249.21V42.1504H252.579L252.74 45.168ZM257.589 42.0479L257.56 45.3291C257.345 45.29 257.11 45.2607 256.856 45.2412C256.612 45.2217 256.368 45.2119 256.124 45.2119C255.519 45.2119 254.986 45.2998 254.527 45.4756C254.068 45.6416 253.683 45.8857 253.37 46.208C253.067 46.5205 252.833 46.9014 252.667 47.3506C252.501 47.7998 252.403 48.3027 252.374 48.8594L251.568 48.918C251.568 47.9219 251.666 46.999 251.861 46.1494C252.057 45.2998 252.35 44.5527 252.74 43.9082C253.141 43.2637 253.639 42.7607 254.234 42.3994C254.84 42.0381 255.538 41.8574 256.329 41.8574C256.544 41.8574 256.773 41.877 257.018 41.916C257.271 41.9551 257.462 41.999 257.589 42.0479ZM258.746 50.251V49.9141C258.746 48.7715 258.912 47.7119 259.244 46.7354C259.576 45.749 260.055 44.8945 260.68 44.1719C261.314 43.4395 262.086 42.873 262.994 42.4727C263.912 42.0625 264.947 41.8574 266.1 41.8574C267.262 41.8574 268.297 42.0625 269.205 42.4727C270.123 42.873 270.899 43.4395 271.534 44.1719C272.169 44.8945 272.652 45.749 272.984 46.7354C273.316 47.7119 273.482 48.7715 273.482 49.9141V50.251C273.482 51.3936 273.316 52.4531 272.984 53.4297C272.652 54.4062 272.169 55.2607 271.534 55.9932C270.899 56.7158 270.128 57.2822 269.22 57.6924C268.312 58.0928 267.281 58.293 266.129 58.293C264.967 58.293 263.927 58.0928 263.009 57.6924C262.101 57.2822 261.329 56.7158 260.694 55.9932C260.06 55.2607 259.576 54.4062 259.244 53.4297C258.912 52.4531 258.746 51.3936 258.746 50.251ZM262.276 49.9141V50.251C262.276 50.9639 262.35 51.6377 262.496 52.2725C262.643 52.9072 262.872 53.4639 263.185 53.9424C263.497 54.4209 263.897 54.7969 264.386 55.0703C264.874 55.3438 265.455 55.4805 266.129 55.4805C266.783 55.4805 267.35 55.3438 267.828 55.0703C268.316 54.7969 268.717 54.4209 269.029 53.9424C269.342 53.4639 269.571 52.9072 269.718 52.2725C269.874 51.6377 269.952 50.9639 269.952 50.251V49.9141C269.952 49.2109 269.874 48.5469 269.718 47.9219C269.571 47.2871 269.337 46.7256 269.015 46.2373C268.702 45.749 268.302 45.3682 267.813 45.0947C267.335 44.8115 266.764 44.6699 266.1 44.6699C265.436 44.6699 264.859 44.8115 264.371 45.0947C263.893 45.3682 263.497 45.749 263.185 46.2373C262.872 46.7256 262.643 47.2871 262.496 47.9219C262.35 48.5469 262.276 49.2109 262.276 49.9141ZM281.363 55.2021L285.245 42.1504H288.907L283.399 58H281.114L281.363 55.2021ZM278.39 42.1504L282.345 55.2607L282.535 58H280.25L274.713 42.1504H278.39ZM297.872 58.293C296.7 58.293 295.641 58.1025 294.693 57.7217C293.756 57.3311 292.955 56.7891 292.291 56.0957C291.637 55.4023 291.134 54.5869 290.782 53.6494C290.431 52.7119 290.255 51.7012 290.255 50.6172V50.0312C290.255 48.791 290.436 47.668 290.797 46.6621C291.158 45.6562 291.661 44.7969 292.306 44.084C292.95 43.3613 293.712 42.8096 294.591 42.4287C295.47 42.0479 296.422 41.8574 297.447 41.8574C298.58 41.8574 299.571 42.0479 300.421 42.4287C301.271 42.8096 301.974 43.3467 302.53 44.04C303.097 44.7236 303.517 45.5391 303.79 46.4863C304.073 47.4336 304.215 48.4785 304.215 49.6211V51.1299H291.969V48.5957H300.729V48.3174C300.709 47.6826 300.582 47.0869 300.348 46.5303C300.123 45.9736 299.776 45.5244 299.308 45.1826C298.839 44.8408 298.214 44.6699 297.433 44.6699C296.847 44.6699 296.324 44.7969 295.865 45.0508C295.416 45.2949 295.04 45.6514 294.737 46.1201C294.435 46.5889 294.2 47.1553 294.034 47.8193C293.878 48.4736 293.8 49.2109 293.8 50.0312V50.6172C293.8 51.3105 293.893 51.9551 294.078 52.5508C294.273 53.1367 294.557 53.6494 294.928 54.0889C295.299 54.5283 295.748 54.875 296.275 55.1289C296.803 55.373 297.403 55.4951 298.077 55.4951C298.927 55.4951 299.684 55.3242 300.348 54.9824C301.012 54.6406 301.588 54.1572 302.076 53.5322L303.937 55.334C303.595 55.832 303.15 56.3105 302.604 56.7695C302.057 57.2188 301.388 57.585 300.597 57.8682C299.815 58.1514 298.907 58.293 297.872 58.293ZM316.637 54.7188V35.5H320.182V58H316.974L316.637 54.7188ZM306.324 50.251V49.9434C306.324 48.7422 306.466 47.6484 306.749 46.6621C307.032 45.666 307.442 44.8115 307.979 44.0986C308.517 43.376 309.171 42.8242 309.942 42.4434C310.714 42.0527 311.583 41.8574 312.55 41.8574C313.507 41.8574 314.347 42.043 315.069 42.4141C315.792 42.7852 316.407 43.3174 316.915 44.0107C317.423 44.6943 317.828 45.5146 318.131 46.4717C318.434 47.4189 318.648 48.4736 318.775 49.6357V50.6172C318.648 51.75 318.434 52.7852 318.131 53.7227C317.828 54.6602 317.423 55.4707 316.915 56.1543C316.407 56.8379 315.787 57.3652 315.055 57.7363C314.332 58.1074 313.487 58.293 312.521 58.293C311.563 58.293 310.699 58.0928 309.928 57.6924C309.166 57.292 308.517 56.7305 307.979 56.0078C307.442 55.2852 307.032 54.4355 306.749 53.459C306.466 52.4727 306.324 51.4033 306.324 50.251ZM309.854 49.9434V50.251C309.854 50.9736 309.918 51.6475 310.045 52.2725C310.182 52.8975 310.392 53.4492 310.675 53.9277C310.958 54.3965 311.324 54.7676 311.773 55.041C312.232 55.3047 312.779 55.4365 313.414 55.4365C314.215 55.4365 314.874 55.2607 315.392 54.9092C315.909 54.5576 316.314 54.084 316.607 53.4883C316.91 52.8828 317.115 52.209 317.223 51.4668V48.8154C317.164 48.2393 317.042 47.7021 316.856 47.2041C316.681 46.7061 316.441 46.2715 316.139 45.9004C315.836 45.5195 315.46 45.2266 315.011 45.0215C314.571 44.8066 314.049 44.6992 313.443 44.6992C312.799 44.6992 312.252 44.8359 311.803 45.1094C311.354 45.3828 310.982 45.7588 310.689 46.2373C310.406 46.7158 310.196 47.2725 310.06 47.9072C309.923 48.542 309.854 49.2207 309.854 49.9434Z" fill="white"/>
<rect x="9" y="5" width="474" height="83" rx="10" fill="white"/>
<rect x="9.5" y="5.5" width="473" height="82" rx="9.5" stroke="#445A68" stroke-opacity="0.2"/>
<defs>
<filter id="filter0_d_1048_6276" x="0" y="0" width="518" height="104" filterUnits="userSpaceOnUse" color-interpolation-filters="sRGB">
<feFlood flood-opacity="0" result="BackgroundImageFix"/>
<feColorMatrix in="SourceAlpha" type="matrix" values="0 0 0 0 0 0 0 0 0 0 0 0 0 0 0 0 0 0 127 0" result="hardAlpha"/>
<feMorphology radius="2" operator="dilate" in="SourceAlpha" result="effect1_dropShadow_1048_6276"/>
<feOffset dy="4"/>
<feGaussianBlur stdDeviation="3.5"/>
<feComposite in2="hardAlpha" operator="out"/>
<feColorMatrix type="matrix" values="0 0 0 0 0 0 0 0 0 0 0 0 0 0 0 0 0 0 0.17 0"/>
<feBlend mode="normal" in2="BackgroundImageFix" result="effect1_dropShadow_1048_6276"/>
<feBlend mode="normal" in="SourceGraphic" in2="effect1_dropShadow_1048_6276" result="shape"/>
</filter>
<linearGradient id="paint0_linear_1048_6276" x1="264.5" y1="5" x2="264.5" y2="91" gradientUnits="userSpaceOnUse">
<stop stop-color="#4DCCD9"/>
<stop offset="1" stop-color="#445A68"/>
</linearGradient>
</defs>
</svg>
