<svg width="154" height="161" viewBox="0 0 154 161" fill="none" xmlns="http://www.w3.org/2000/svg">
<path d="M-0.00012207 155.278C48.8316 155.049 103.615 155.049 152.439 155.278C103.607 155.512 48.8243 155.508 -0.00012207 155.278Z" fill="#263238"/>
<path d="M147.873 0.942871H87.9539C87.1505 0.950243 86.3563 1.12039 85.6168 1.44359C84.8773 1.76678 84.2069 2.2367 83.6441 2.82648C83.0812 3.41625 82.6368 4.11433 82.3364 4.88083C82.0359 5.64732 81.8852 6.4672 81.8929 7.29361V134.132C81.8793 135.8 82.5099 137.406 83.6462 138.597C84.7826 139.787 86.3319 140.466 87.9539 140.482H147.873C149.496 140.467 151.047 139.789 152.184 138.598C153.322 137.408 153.954 135.801 153.941 134.132V7.29361C153.955 5.62388 153.323 4.01692 152.186 2.82602C151.048 1.63512 149.496 0.957766 147.873 0.942871ZM150.147 130.21C150.147 133.549 147.716 136.252 144.718 136.252H91.1124C88.1075 136.252 85.6765 133.549 85.6765 130.21V12.114C85.6765 5.31206 88.1075 4.96989 91.1124 4.96989H101.849C102.474 4.96989 102.982 5.69935 102.982 6.60176V6.97777C102.982 9.09468 104.112 9.1022 105.494 9.1022H130.326C131.723 9.1022 132.841 9.1022 132.841 6.97777V6.60176C132.841 5.69935 133.346 4.96989 133.978 4.96989H144.711C147.709 4.96989 150.14 5.87607 150.14 12.114L150.147 130.21Z" fill="#263238"/>
<path d="M150.132 12.1136V130.21C150.132 133.549 147.701 136.252 144.704 136.252H91.1125C88.1076 136.252 85.6766 133.549 85.6766 130.21V12.1136C85.6766 5.31165 88.1076 4.96948 91.1125 4.96948H101.849C102.474 4.96948 102.982 5.69893 102.982 6.60135V6.97735C102.982 9.09427 104.112 9.10179 105.494 9.10179H130.326C131.723 9.10179 132.841 9.10179 132.841 6.97735V6.60135C132.841 5.69893 133.346 4.96948 133.978 4.96948H144.711C147.701 4.96948 150.132 5.8719 150.132 12.1136Z" fill="white"/>
<path d="M99.9845 7.62067C99.9516 7.65451 99.915 7.68835 99.8821 7.72595L99.8236 7.78611C99.5583 7.51357 99.1987 7.36047 98.8238 7.36047C98.4489 7.36047 98.0893 7.51357 97.824 7.78611L97.7655 7.72595L97.6631 7.62067L97.7911 7.50411C97.9959 7.33372 98.2381 7.21753 98.4966 7.1657C98.5661 7.1657 98.6319 7.1469 98.6977 7.13562H98.8878H99.0267C99.1517 7.15208 99.2744 7.18363 99.3923 7.22962C99.4781 7.26148 99.5612 7.30046 99.6408 7.34618C99.7243 7.39733 99.8038 7.45516 99.8784 7.51915L99.9881 7.62067H99.9845Z" fill="#C7C7C7"/>
<path d="M98.1568 8.12074L97.9922 7.9553C98.1711 7.76799 98.4049 7.64643 98.6576 7.60937C98.8395 7.58198 99.0251 7.59864 99.1996 7.65805C99.3741 7.71745 99.5328 7.81795 99.6629 7.95154L99.4984 8.12074C99.3202 7.9382 99.079 7.83571 98.8276 7.83571C98.5761 7.83571 98.3349 7.9382 98.1568 8.12074Z" fill="#C7C7C7"/>
<path d="M99.341 8.28921L99.1765 8.45841C99.1321 8.4111 99.0786 8.37368 99.0195 8.34845C98.9604 8.32323 98.8969 8.31075 98.8329 8.31177C98.769 8.31097 98.7055 8.32355 98.6464 8.34876C98.5874 8.37397 98.5339 8.41128 98.4893 8.45841L98.3284 8.28921C98.4646 8.15478 98.646 8.07971 98.8347 8.07971C99.0235 8.07971 99.2049 8.15478 99.341 8.28921Z" fill="#C7C7C7"/>
<path d="M98.9829 8.60921C98.9836 8.63976 98.9754 8.66983 98.9594 8.69559C98.9434 8.72136 98.9203 8.74164 98.8929 8.75385C98.8656 8.76606 98.8354 8.76964 98.8061 8.76414C98.7768 8.75864 98.7497 8.74431 98.7284 8.72297C98.7071 8.70163 98.6924 8.67426 98.6863 8.64435C98.6802 8.61444 98.683 8.58335 98.6942 8.55505C98.7054 8.52675 98.7246 8.50252 98.7494 8.48546C98.7741 8.4684 98.8032 8.45928 98.833 8.45928C98.8525 8.45878 98.8719 8.46228 98.8901 8.4696C98.9082 8.47691 98.9248 8.48787 98.9388 8.50184C98.9527 8.51582 98.9638 8.53252 98.9714 8.55096C98.979 8.5694 98.9829 8.5892 98.9829 8.60921Z" fill="#C7C7C7"/>
<path d="M89.8804 7.94005C89.8804 7.85304 89.9055 7.76798 89.9525 7.69564C89.9995 7.62329 90.0663 7.56691 90.1445 7.53361C90.2226 7.50031 90.3086 7.4916 90.3916 7.50858C90.4746 7.52555 90.5508 7.56745 90.6106 7.62897C90.6704 7.6905 90.7111 7.76889 90.7276 7.85422C90.7441 7.93956 90.7357 8.02802 90.7033 8.1084C90.6709 8.18879 90.6161 8.2575 90.5458 8.30584C90.4754 8.35417 90.3927 8.37998 90.3081 8.37998C90.252 8.37998 90.1964 8.3686 90.1445 8.34649C90.0926 8.32438 90.0454 8.29198 90.0057 8.25112C89.966 8.21027 89.9345 8.16178 89.913 8.1084C89.8915 8.05503 89.8804 7.99782 89.8804 7.94005Z" fill="#C7C7C7"/>
<path d="M91.211 7.94005C91.211 7.85304 91.2361 7.76798 91.2831 7.69564C91.3301 7.62329 91.3969 7.56691 91.475 7.53361C91.5532 7.50031 91.6392 7.4916 91.7221 7.50858C91.8051 7.52555 91.8813 7.56745 91.9411 7.62897C92.001 7.6905 92.0417 7.76889 92.0582 7.85422C92.0747 7.93956 92.0662 8.02802 92.0339 8.1084C92.0015 8.18879 91.9467 8.2575 91.8763 8.30584C91.806 8.35417 91.7233 8.37998 91.6387 8.37998C91.5825 8.37998 91.5269 8.3686 91.475 8.34649C91.4231 8.32438 91.376 8.29198 91.3363 8.25112C91.2966 8.21027 91.265 8.16178 91.2436 8.1084C91.2221 8.05503 91.211 7.99782 91.211 7.94005Z" fill="#C7C7C7"/>
<path d="M92.5709 7.94005C92.5709 7.85304 92.5959 7.76798 92.6429 7.69564C92.6899 7.62329 92.7567 7.56691 92.8349 7.53361C92.913 7.50031 92.999 7.4916 93.082 7.50858C93.165 7.52555 93.2412 7.56745 93.301 7.62897C93.3608 7.6905 93.4015 7.76889 93.4181 7.85422C93.4346 7.93956 93.4261 8.02802 93.3937 8.1084C93.3613 8.18879 93.3065 8.2575 93.2362 8.30584C93.1659 8.35417 93.0832 8.37998 92.9986 8.37998C92.9424 8.37998 92.8868 8.3686 92.8349 8.34649C92.783 8.32438 92.7358 8.29198 92.6961 8.25112C92.6564 8.21027 92.6249 8.16178 92.6034 8.1084C92.5819 8.05503 92.5709 7.99782 92.5709 7.94005Z" fill="#C7C7C7"/>
<path d="M93.9198 7.94003C93.9198 7.85287 93.9449 7.76766 93.9921 7.69524C94.0393 7.62281 94.1063 7.56643 94.1846 7.53325C94.263 7.50006 94.3492 7.49157 94.4323 7.50885C94.5153 7.52614 94.5915 7.56841 94.6512 7.63031C94.7109 7.69221 94.7513 7.77095 94.7674 7.85654C94.7835 7.94212 94.7745 8.03069 94.7416 8.11101C94.7086 8.19133 94.6532 8.25977 94.5824 8.30765C94.5116 8.35554 94.4286 8.38071 94.3438 8.37996C94.2878 8.37996 94.2324 8.36856 94.1807 8.3464C94.129 8.32425 94.0821 8.29178 94.0426 8.25088C94.0032 8.20998 93.9721 8.16146 93.951 8.1081C93.9299 8.05475 93.9193 7.99763 93.9198 7.94003Z" fill="#C7C7C7"/>
<path d="M95.2652 7.94003C95.2652 7.85287 95.2904 7.76766 95.3376 7.69524C95.3847 7.62281 95.4517 7.56643 95.5301 7.53325C95.6085 7.50006 95.6947 7.49157 95.7777 7.50885C95.8608 7.52614 95.937 7.56841 95.9966 7.63031C96.0563 7.69221 96.0968 7.77095 96.1129 7.85654C96.1289 7.94212 96.1199 8.03069 96.087 8.11101C96.0541 8.19133 95.9987 8.25977 95.9279 8.30765C95.8571 8.35554 95.774 8.38071 95.6893 8.37996C95.6333 8.37996 95.5778 8.36856 95.5261 8.3464C95.4745 8.32425 95.4275 8.29178 95.3881 8.25088C95.3487 8.20998 95.3175 8.16146 95.2964 8.1081C95.2753 8.05475 95.2647 7.99763 95.2652 7.94003Z" fill="#C7C7C7"/>
<path d="M145.314 8.90294H141.838V7.24475H145.314V8.90294ZM142.024 8.7187H145.15V7.42523H142.024V8.7187Z" fill="#C7C7C7"/>
<path d="M144.353 7.52637H142.112V8.62054H144.353V7.52637Z" fill="#C7C7C7"/>
<path d="M145.614 7.62817H145.303V8.51555H145.614V7.62817Z" fill="#C7C7C7"/>
<path d="M121.293 6.4736H114.523C114.411 6.4736 114.305 6.42805 114.226 6.34695C114.147 6.26586 114.103 6.15588 114.103 6.0412C114.104 5.92717 114.148 5.81815 114.227 5.73787C114.306 5.65759 114.412 5.61254 114.523 5.61255H121.293C121.404 5.61254 121.51 5.65759 121.589 5.73787C121.668 5.81815 121.713 5.92717 121.714 6.0412C121.714 6.15588 121.669 6.26586 121.59 6.34695C121.512 6.42805 121.405 6.4736 121.293 6.4736Z" fill="white"/>
<path d="M94.0587 129.299H93.7443V130.788H93.1521V130.032H92.1103V130.788H91.5217V129.299H91.2073L92.633 127.784L94.0587 129.299Z" fill="#EBEBEB"/>
<path d="M145.117 127.784H141.68V128.288H145.117V127.784Z" fill="#EBEBEB"/>
<path d="M145.117 129.036H141.68V129.54H145.117V129.036Z" fill="#EBEBEB"/>
<path d="M145.117 130.285H141.68V130.789H145.117V130.285Z" fill="#EBEBEB"/>
<path d="M119.173 129.341L118.197 130.412L117.217 129.341L117.393 129.172L118.197 130.055L119.001 129.172L119.173 129.341Z" fill="#EBEBEB"/>
<path d="M118.197 131.522C117.845 131.523 117.501 131.416 117.209 131.216C116.916 131.016 116.688 130.73 116.553 130.397C116.418 130.063 116.382 129.695 116.45 129.341C116.518 128.986 116.687 128.66 116.936 128.404C117.184 128.148 117.501 127.974 117.845 127.903C118.19 127.832 118.547 127.868 118.872 128.006C119.197 128.144 119.475 128.378 119.67 128.679C119.866 128.98 119.97 129.333 119.97 129.695C119.969 130.178 119.782 130.642 119.45 130.984C119.118 131.327 118.667 131.52 118.197 131.522ZM118.197 128.112C117.891 128.111 117.593 128.203 117.338 128.378C117.084 128.552 116.886 128.799 116.769 129.09C116.651 129.38 116.621 129.699 116.68 130.007C116.739 130.315 116.886 130.598 117.102 130.82C117.318 131.043 117.594 131.194 117.893 131.255C118.193 131.316 118.503 131.284 118.785 131.164C119.067 131.043 119.308 130.839 119.477 130.578C119.647 130.316 119.737 130.009 119.736 129.695C119.735 129.275 119.572 128.873 119.284 128.576C118.996 128.28 118.605 128.113 118.197 128.112Z" fill="#EBEBEB"/>
<path d="M146.725 13.7687H89.0909V31.0725H146.725V13.7687Z" fill="url(#paint0_linear_191_15239)"/>
<path d="M92.37 19.3293L90.4654 17.4907L92.37 15.6558L92.6661 15.9791L91.0978 17.4907L92.6661 19.0022L92.37 19.3293Z" fill="white"/>
<path d="M145.354 16.3477C145.354 16.4221 145.333 16.4947 145.293 16.5566C145.253 16.6184 145.196 16.6666 145.129 16.6951C145.062 16.7235 144.989 16.731 144.918 16.7165C144.847 16.702 144.782 16.6661 144.73 16.6136C144.679 16.561 144.644 16.494 144.63 16.421C144.616 16.3481 144.624 16.2725 144.651 16.2038C144.679 16.1351 144.726 16.0764 144.786 16.035C144.846 15.9937 144.917 15.9717 144.989 15.9717C145.086 15.9717 145.179 16.0113 145.247 16.0818C145.316 16.1523 145.354 16.248 145.354 16.3477Z" fill="white"/>
<path d="M145.354 17.7199C145.354 17.7942 145.333 17.8669 145.293 17.9288C145.253 17.9906 145.196 18.0388 145.129 18.0673C145.062 18.0957 144.989 18.1032 144.918 18.0887C144.847 18.0741 144.782 18.0383 144.73 17.9858C144.679 17.9332 144.644 17.8662 144.63 17.7932C144.616 17.7203 144.624 17.6447 144.651 17.576C144.679 17.5073 144.726 17.4486 144.786 17.4072C144.846 17.3659 144.917 17.3439 144.989 17.3439C145.086 17.3439 145.179 17.3835 145.247 17.454C145.316 17.5245 145.354 17.6202 145.354 17.7199Z" fill="white"/>
<path d="M145.354 19.0891C145.354 19.1635 145.333 19.2362 145.293 19.298C145.253 19.3599 145.196 19.4081 145.129 19.4365C145.062 19.465 144.989 19.4724 144.918 19.4579C144.847 19.4434 144.782 19.4076 144.73 19.355C144.679 19.3024 144.644 19.2354 144.63 19.1625C144.616 19.0896 144.624 19.014 144.651 18.9452C144.679 18.8765 144.726 18.8178 144.786 18.7765C144.846 18.7352 144.917 18.7131 144.989 18.7131C145.086 18.7131 145.179 18.7527 145.247 18.8233C145.316 18.8938 145.354 18.9894 145.354 19.0891Z" fill="white"/>
<path d="M95.2652 17.4902C101.896 17.2383 108.575 17.2383 115.21 17.4902C108.575 17.7421 101.896 17.7421 95.2652 17.4902Z" fill="white"/>
<path d="M95.2652 19.3293C99.7433 19.2056 104.671 19.2056 109.157 19.3293C104.678 19.453 99.7506 19.4493 95.2652 19.3293Z" fill="white"/>
<path d="M101.86 25.6497C112.14 25.5334 123.673 25.5334 133.949 25.6497C123.673 25.7659 112.14 25.7659 101.86 25.6497Z" fill="white"/>
<path d="M91.7156 45.2886C100.811 45.2212 109.91 45.2362 119.005 45.2099C128.1 45.1837 137.199 45.2099 146.298 45.2886C137.199 45.3524 128.104 45.3374 119.005 45.3636C109.906 45.3898 100.811 45.3524 91.7156 45.2886Z" fill="#455A64"/>
<path d="M91.7156 51.5949C100.811 51.5312 109.91 51.5461 119.005 51.5199C128.1 51.4937 137.199 51.5199 146.298 51.5949C137.199 51.6623 128.104 51.6474 119.005 51.6736C109.906 51.6998 100.811 51.6773 91.7156 51.5949Z" fill="#455A64"/>
<path d="M91.7156 57.9339C100.811 57.8701 109.91 57.8851 119.005 57.8589C128.1 57.8327 137.199 57.8589 146.298 57.9339C137.199 58.0013 128.104 57.9863 119.005 58.0126C109.906 58.0388 100.811 57.9863 91.7156 57.9339Z" fill="#455A64"/>
<path d="M91.7156 64.258C100.811 64.1942 109.91 64.2092 119.005 64.183C128.1 64.1568 137.199 64.183 146.298 64.258C137.199 64.3254 128.104 64.3067 119.005 64.3367C109.91 64.3067 100.811 64.3254 91.7156 64.258Z" fill="#455A64"/>
<path d="M91.7156 70.5821C100.811 70.5146 109.91 70.5333 119.005 70.5071C128.1 70.4809 137.199 70.5071 146.298 70.5821C137.199 70.6495 128.104 70.6308 119.005 70.6608C109.91 70.6308 100.811 70.6495 91.7156 70.5821Z" fill="#455A64"/>
<path d="M102.704 41.1749C102.785 47.0857 102.763 52.9928 102.799 58.9036C102.766 64.8107 102.799 70.7215 102.704 76.6285C102.624 70.7215 102.646 64.8107 102.613 58.9036C102.646 52.9928 102.624 47.082 102.704 41.1749Z" fill="#455A64"/>
<path d="M112.143 41.1749C112.223 47.0857 112.201 52.9928 112.238 58.9036C112.201 64.8107 112.238 70.7215 112.143 76.6285C112.063 70.7215 112.084 64.8107 112.052 58.9036C112.084 52.9928 112.048 47.082 112.143 41.1749Z" fill="#455A64"/>
<path d="M121.582 41.1749C121.662 47.0857 121.64 52.9928 121.673 58.9036C121.64 64.8107 121.673 70.7215 121.582 76.6285C121.501 70.7215 121.523 64.8107 121.487 58.9036C121.523 52.9928 121.501 47.082 121.582 41.1749Z" fill="#455A64"/>
<path d="M131.021 41.1749C131.101 47.0857 131.079 52.9928 131.112 58.9036C131.079 64.8107 131.112 70.7215 131.021 76.6285C130.94 70.7215 130.958 64.8107 130.926 58.9036C130.962 52.9928 130.94 47.082 131.021 41.1749Z" fill="#455A64"/>
<path d="M140.46 41.1749C140.54 47.0857 140.518 52.9928 140.551 58.9036C140.518 64.8107 140.551 70.7215 140.46 76.6285C140.379 70.7215 140.397 64.8107 140.365 58.9036C140.397 52.9928 140.379 47.082 140.46 41.1749Z" fill="#455A64"/>
<path opacity="0.5" d="M93.0901 65.9956C94.7571 65.9956 95.7514 59.5735 98.1093 59.5735C100.467 59.5735 100.719 64.2585 102.704 64.2585C104.689 64.2585 104.631 56.0277 107.3 56.0277C109.968 56.0277 109.35 59.3666 112.143 59.3666C114.936 59.3666 113.876 51.5946 116.8 51.5946C119.725 51.5946 118.541 62.2807 121.582 62.2807C123.508 62.2807 124.251 58.8966 126.55 58.8966C128.071 58.8966 128.966 60.5924 130.955 60.5924C132.944 60.5924 133.379 54.065 135.864 54.065C138.35 54.065 138.632 57.9265 140.46 57.9265C142.287 57.9265 142.942 51.6021 146.309 51.6021V76.6216H93.0901V65.9956Z" fill="url(#paint1_linear_191_15239)"/>
<path opacity="0.3" d="M93.0901 65.9956C94.7571 65.9956 95.7514 59.5735 98.1093 59.5735C100.467 59.5735 100.719 64.2585 102.704 64.2585C104.689 64.2585 104.631 56.0277 107.3 56.0277C109.968 56.0277 109.35 59.3666 112.143 59.3666C114.936 59.3666 113.876 51.5946 116.8 51.5946C119.725 51.5946 118.541 62.2807 121.582 62.2807C123.508 62.2807 124.251 58.8966 126.55 58.8966C128.071 58.8966 128.966 60.5924 130.955 60.5924C132.944 60.5924 133.379 54.065 135.864 54.065C138.35 54.065 138.632 57.9265 140.46 57.9265C142.287 57.9265 142.942 51.6021 146.309 51.6021V76.6216H93.0901V65.9956Z" fill="url(#paint2_linear_191_15239)"/>
<path d="M93.0901 66.3037V65.687C93.5946 65.687 94.2892 64.183 94.7973 63.0926C95.6674 61.2125 96.5703 59.2648 98.1093 59.2648C99.5715 59.2648 100.321 60.6899 100.968 61.9458C101.476 62.9309 101.999 63.9499 102.704 63.9499C103.326 63.9499 103.863 61.9721 104.258 60.5282C104.901 58.1631 105.567 55.7191 107.3 55.7191C108.846 55.7191 109.453 56.6779 109.986 57.5239C110.52 58.3699 110.955 59.058 112.143 59.058C113.218 59.058 113.638 57.2457 114.044 55.4935C114.523 53.433 115.017 51.301 116.8 51.301C118.584 51.301 119.023 53.9857 119.502 56.8283C119.889 59.1257 120.368 61.9871 121.582 61.9871C122.313 61.9871 122.898 61.2802 123.527 60.5357C124.287 59.6258 125.154 58.5918 126.55 58.5918C127.387 58.5918 128.041 59.0129 128.674 59.4228C129.306 59.8326 130.023 60.2913 130.955 60.2913C131.646 60.2913 132.275 58.7384 132.783 57.4901C133.514 55.6589 134.293 53.7639 135.868 53.7639C137.444 53.7639 138.2 54.9972 138.88 56.0838C139.378 56.8772 139.845 57.6254 140.463 57.6254C140.99 57.6254 141.582 56.426 142.108 55.3694C143.004 53.5571 144.119 51.3048 146.301 51.3048V51.9252C144.62 51.9252 143.655 53.8804 142.799 55.6025C142.068 57.0802 141.49 58.2346 140.463 58.2346C139.436 58.2346 138.822 57.3209 138.219 56.3545C137.616 55.3882 136.976 54.373 135.868 54.373C134.83 54.373 134.121 56.1289 133.492 57.6781C132.79 59.404 132.187 60.8967 130.959 60.8967C129.73 60.8967 128.948 60.3665 128.221 59.9003C127.639 59.5243 127.124 59.2009 126.554 59.2009C125.548 59.2009 124.835 60.0507 124.141 60.8779C123.446 61.7051 122.701 62.5925 121.582 62.5925C119.721 62.5925 119.253 59.8288 118.76 56.9035C118.394 54.6776 117.919 51.9102 116.8 51.9102C115.682 51.9102 115.177 53.8691 114.779 55.5988C114.293 57.6894 113.836 59.6634 112.143 59.6634C110.451 59.6634 109.877 58.6745 109.325 57.7834C108.828 56.9938 108.393 56.3094 107.3 56.3094C106.206 56.3094 105.512 58.7083 104.986 60.641C104.393 62.8181 103.922 64.5402 102.704 64.5402C101.487 64.5402 100.913 63.3859 100.281 62.1601C99.6958 61.0321 99.0927 59.8552 98.1093 59.8552C97.1259 59.8552 96.2047 61.7577 95.4955 63.2843C94.7205 64.9839 94.1101 66.3037 93.0901 66.3037Z" fill="url(#paint3_linear_191_15239)"/>
<path opacity="0.5" d="M121.582 62.2957V76.6291H112.143V59.3666C114.936 59.3666 113.876 51.5946 116.8 51.5946C119.725 51.5946 118.54 62.2957 121.582 62.2957Z" fill="url(#paint4_linear_191_15239)"/>
<path d="M116.797 52.9479C117.622 52.9479 118.292 52.2594 118.292 51.4101C118.292 50.5607 117.622 49.8722 116.797 49.8722C115.971 49.8722 115.302 50.5607 115.302 51.4101C115.302 52.2594 115.971 52.9479 116.797 52.9479Z" fill="#263238"/>
<path d="M117.652 51.4104C117.652 51.5844 117.602 51.7545 117.508 51.8992C117.414 52.0439 117.28 52.1567 117.124 52.2233C116.968 52.2898 116.796 52.3073 116.63 52.2733C116.464 52.2394 116.311 52.1556 116.192 52.0325C116.072 51.9095 115.991 51.7527 115.958 51.582C115.925 51.4113 115.942 51.2344 116.006 51.0737C116.071 50.9129 116.181 50.7755 116.321 50.6788C116.462 50.5821 116.627 50.5305 116.797 50.5305C117.023 50.5305 117.241 50.6232 117.401 50.7882C117.562 50.9532 117.652 51.177 117.652 51.4104Z" fill="url(#paint5_linear_191_15239)"/>
<path d="M119.491 45.1422H114.066V48.2555H119.491V45.1422Z" fill="url(#paint6_linear_191_15239)"/>
<path d="M116.062 48.256H117.491L116.778 49.3126L116.062 48.256Z" fill="url(#paint7_linear_191_15239)"/>
<path d="M115.078 46.2928C116.223 46.2289 117.37 46.2289 118.515 46.2928C117.37 46.353 116.223 46.353 115.078 46.2928Z" fill="white"/>
<path d="M115.078 46.8944C116.223 46.8305 117.37 46.8305 118.515 46.8944C117.37 46.9564 116.223 46.9564 115.078 46.8944Z" fill="white"/>
<path d="M93.0901 41.559C93.1522 47.4059 93.2034 53.249 93.2071 59.0959L93.2655 76.629L93.0901 76.4862L119.692 76.52L132.995 76.5501L146.298 76.629L132.995 76.708L119.692 76.7381L93.0901 76.7757H92.9146V76.629L92.9731 59.0959C92.9768 53.249 93.0389 47.4059 93.0901 41.559Z" fill="#455A64"/>
<path d="M95.9378 79.2528C97.1943 79.0578 98.4722 79.0578 99.7287 79.2528C98.4719 79.444 97.1946 79.444 95.9378 79.2528Z" fill="#DBDBDB"/>
<path d="M89.0909 45.2883C89.6503 45.0935 90.2569 45.0935 90.8163 45.2883C90.2563 45.4795 89.6509 45.4795 89.0909 45.2883Z" fill="#DBDBDB"/>
<path d="M89.0909 51.5939C89.6509 51.4026 90.2563 51.4026 90.8163 51.5939C90.2569 51.7886 89.6503 51.7886 89.0909 51.5939Z" fill="#DBDBDB"/>
<path d="M89.0909 57.9338C89.6509 57.7426 90.2563 57.7426 90.8163 57.9338C90.2569 58.1286 89.6503 58.1286 89.0909 57.9338Z" fill="#DBDBDB"/>
<path d="M89.0909 64.2578C89.6509 64.0666 90.2563 64.0666 90.8163 64.2578C90.2569 64.4526 89.6503 64.4526 89.0909 64.2578Z" fill="#DBDBDB"/>
<path d="M89.0909 70.582C89.6506 70.3889 90.2566 70.3889 90.8163 70.582C90.2566 70.7751 89.6506 70.7751 89.0909 70.582Z" fill="#DBDBDB"/>
<path d="M105.238 79.2527C106.493 79.0578 107.77 79.0578 109.025 79.2527C107.769 79.4439 106.493 79.4439 105.238 79.2527Z" fill="#DBDBDB"/>
<path d="M114.534 79.2528C115.79 79.0578 117.068 79.0578 118.325 79.2528C117.068 79.444 115.791 79.444 114.534 79.2528Z" fill="#DBDBDB"/>
<path d="M123.83 79.2528C125.087 79.0578 126.365 79.0578 127.621 79.2528C126.364 79.444 125.087 79.444 123.83 79.2528Z" fill="#DBDBDB"/>
<path d="M133.126 79.2528C134.383 79.0578 135.661 79.0578 136.917 79.2528C135.66 79.444 134.383 79.444 133.126 79.2528Z" fill="#DBDBDB"/>
<path d="M142.426 79.2528C143.683 79.0578 144.96 79.0578 146.217 79.2528C144.96 79.444 143.683 79.444 142.426 79.2528Z" fill="#DBDBDB"/>
<path d="M89.1385 35.482C94.4903 35.2264 99.8823 35.2264 105.223 35.482C99.8677 35.7377 94.4757 35.7377 89.1385 35.482Z" fill="#DBDBDB"/>
<path d="M89.1385 37.2232C92.5762 36.9637 96.0279 36.9637 99.4656 37.2232C96.0277 37.4789 92.5764 37.4789 89.1385 37.2232Z" fill="#DBDBDB"/>
<path d="M135.971 37.223C139.41 37.0318 142.858 37.0318 146.298 37.223C142.858 37.4104 139.41 37.4104 135.971 37.223Z" fill="url(#paint8_linear_191_15239)"/>
<path d="M89.4966 85.0592C94.907 84.8035 100.365 84.8035 105.779 85.0592C100.361 85.3149 94.907 85.3149 89.4966 85.0592Z" fill="#263238"/>
<path d="M134 85.0584C138.097 84.871 142.196 84.871 146.298 85.0584C142.201 85.2483 138.102 85.2483 134 85.0584Z" fill="url(#paint9_linear_191_15239)"/>
<path d="M100.58 90.3227C104.842 90.0656 109.114 90.0656 113.375 90.3227C109.114 90.578 104.842 90.578 100.58 90.3227Z" fill="#263238"/>
<path d="M100.58 92.2513C104.154 91.9956 107.74 91.9956 111.313 92.2513C107.74 92.507 104.154 92.507 100.58 92.2513Z" fill="#263238"/>
<path d="M146.298 98.4522C146.17 98.3244 89.2408 98.8282 89.3724 98.4522V88.1797V88.0369H89.5113L117.897 88.0669C127.376 88.0895 136.855 88.0669 146.338 88.1271C146.338 88.1609 146.283 98.3996 146.298 98.4409V98.4522ZM146.298 98.4522L146.257 88.1797C137.049 88.3527 127.288 88.2136 117.897 88.2775C118.025 88.176 88.8423 88.552 89.6319 88.1797V98.4522C88.8569 98.1025 146.484 98.5613 146.312 98.4522H146.298Z" fill="#DBDBDB"/>
<path d="M98.2042 89.6572H90.9661V97.1021H98.2042V89.6572Z" fill="url(#paint10_linear_191_15239)"/>
<path d="M144.634 93.38C144.634 94.2836 144.315 95.1565 143.735 95.8357C143.156 96.5149 142.356 96.9542 141.485 97.0715C140.614 97.1888 139.731 96.9762 139.001 96.4733C138.271 95.9704 137.744 95.2115 137.518 94.3383C137.292 93.4651 137.382 92.5371 137.773 91.7274C138.163 90.9178 138.826 90.2817 139.638 89.938C140.451 89.5942 141.357 89.5662 142.188 89.8591C143.019 90.152 143.719 90.7459 144.155 91.53C144.469 92.0932 144.634 92.7309 144.634 93.38Z" fill="#455A64"/>
<path d="M144.155 91.5297L141.015 93.3797V89.6572C141.652 89.6577 142.278 89.831 142.83 90.1598C143.381 90.4886 143.838 90.9611 144.155 91.5297Z" fill="url(#paint11_linear_191_15239)"/>
<path d="M141.015 95.956C142.398 95.956 143.519 94.8028 143.519 93.3803C143.519 91.9578 142.398 90.8047 141.015 90.8047C139.632 90.8047 138.511 91.9578 138.511 93.3803C138.511 94.8028 139.632 95.956 141.015 95.956Z" fill="white"/>
<path d="M100.58 103.525C104.842 103.269 109.114 103.269 113.375 103.525C109.114 103.78 104.842 103.78 100.58 103.525Z" fill="#263238"/>
<path d="M100.58 105.461C104.154 105.206 107.74 105.206 111.313 105.461C107.74 105.717 104.154 105.717 100.58 105.461Z" fill="#263238"/>
<path d="M146.298 111.661C146.17 111.534 89.2408 112.037 89.3724 111.661V101.389V101.246H89.5113L117.912 101.287C127.391 101.31 136.87 101.287 146.352 101.348C146.352 101.381 146.298 111.62 146.312 111.661H146.298ZM146.298 111.661L146.257 101.389C137.049 101.562 127.288 101.423 117.897 101.487C118.025 101.385 88.8423 101.761 89.6319 101.389V111.661C88.8569 111.312 146.484 111.771 146.312 111.661H146.298Z" fill="#DBDBDB"/>
<path d="M98.2042 102.867H90.9661V110.312H98.2042V102.867Z" fill="#455A64"/>
<path d="M144.634 106.589C144.634 107.493 144.315 108.366 143.735 109.045C143.156 109.724 142.356 110.163 141.485 110.281C140.614 110.398 139.731 110.185 139.001 109.682C138.271 109.179 137.744 108.421 137.518 107.547C137.292 106.674 137.382 105.746 137.773 104.937C138.163 104.127 138.826 103.491 139.638 103.147C140.451 102.803 141.357 102.775 142.188 103.068C143.019 103.361 143.719 103.955 144.155 104.739C144.469 105.302 144.634 105.94 144.634 106.589Z" fill="#455A64"/>
<path d="M144.634 106.59C144.634 106.772 144.62 106.954 144.594 107.135L141.015 106.59V102.867C141.975 102.867 142.896 103.259 143.574 103.957C144.253 104.656 144.634 105.602 144.634 106.59Z" fill="url(#paint12_linear_191_15239)"/>
<path d="M143.516 106.589C143.516 107.099 143.37 107.597 143.095 108.022C142.82 108.446 142.429 108.776 141.971 108.972C141.514 109.167 141.01 109.219 140.524 109.119C140.038 109.02 139.591 108.775 139.241 108.414C138.89 108.054 138.652 107.595 138.555 107.095C138.459 106.595 138.509 106.076 138.699 105.606C138.889 105.135 139.21 104.733 139.623 104.45C140.035 104.167 140.52 104.017 141.015 104.017C141.678 104.018 142.313 104.29 142.782 104.772C143.251 105.254 143.515 105.907 143.516 106.589Z" fill="white"/>
<path d="M100.58 116.733C104.842 116.478 109.114 116.478 113.375 116.733C109.114 116.989 104.842 116.989 100.58 116.733Z" fill="#263238"/>
<path d="M100.58 118.669C104.154 118.414 107.74 118.414 111.313 118.669C107.74 118.925 104.154 118.925 100.58 118.669Z" fill="#263238"/>
<path d="M146.298 124.87C146.17 124.742 89.2408 125.246 89.3724 124.87V114.598V114.455H89.5113L117.912 114.496C127.391 114.519 136.87 114.496 146.352 114.556C146.352 114.59 146.298 124.829 146.312 124.87H146.298ZM146.298 124.87L146.257 114.598C137.049 114.771 127.288 114.632 117.897 114.696C118.025 114.594 88.8423 114.97 89.6319 114.598V124.87C88.8569 124.521 146.484 124.979 146.312 124.87H146.298Z" fill="#DBDBDB"/>
<path d="M98.2042 116.075H90.9661V123.52H98.2042V116.075Z" fill="url(#paint13_linear_191_15239)"/>
<path d="M144.634 119.798C144.635 120.55 144.413 121.285 143.998 121.906C143.584 122.526 142.996 123.003 142.313 123.272C141.899 123.437 141.459 123.521 141.015 123.52C140.299 123.52 139.6 123.302 139.004 122.893C138.409 122.484 137.945 121.902 137.672 121.222C137.398 120.542 137.326 119.794 137.466 119.071C137.605 118.349 137.95 117.686 138.456 117.165C138.962 116.645 139.607 116.29 140.309 116.147C141.011 116.003 141.739 116.077 142.4 116.359C143.061 116.64 143.627 117.117 144.024 117.73C144.422 118.342 144.634 119.061 144.634 119.798Z" fill="#455A64"/>
<path d="M144.634 119.798C144.635 120.55 144.413 121.285 143.998 121.906C143.584 122.526 142.996 123.003 142.313 123.272L141.015 119.798V116.075C141.975 116.075 142.896 116.467 143.574 117.165C144.253 117.864 144.634 118.81 144.634 119.798Z" fill="url(#paint14_linear_191_15239)"/>
<path d="M143.516 119.798C143.516 120.308 143.37 120.807 143.095 121.231C142.82 121.655 142.429 121.986 141.971 122.181C141.514 122.376 141.01 122.428 140.524 122.329C140.038 122.229 139.591 121.984 139.241 121.623C138.89 121.263 138.652 120.804 138.555 120.304C138.459 119.804 138.509 119.286 138.699 118.815C138.889 118.344 139.21 117.942 139.623 117.659C140.035 117.376 140.52 117.226 141.015 117.227C141.678 117.228 142.313 117.499 142.782 117.981C143.251 118.463 143.515 119.117 143.516 119.798Z" fill="white"/>
<path d="M151.894 121.257C147.376 127.555 142.66 134.861 141.512 142.761C141.51 142.774 141.51 142.788 141.512 142.802C141.515 142.815 141.52 142.828 141.528 142.84C141.535 142.851 141.545 142.861 141.556 142.869C141.567 142.877 141.58 142.882 141.593 142.885C141.606 142.887 141.62 142.887 141.633 142.885C141.646 142.882 141.659 142.877 141.67 142.869C141.681 142.861 141.691 142.852 141.698 142.84C141.706 142.829 141.711 142.816 141.713 142.802C142.232 140.648 142.899 138.534 143.709 136.478C146.681 135.635 149.602 134.944 151.16 131.909C152.753 128.792 152.552 124.724 152.256 121.325C152.216 121.155 151.975 121.155 151.894 121.257Z" fill="url(#paint15_linear_191_15239)"/>
<path d="M143.746 136.417C145.775 131.729 148.385 127.017 151.697 123.167C151.719 123.141 151.755 123.167 151.733 123.204C149.562 125.949 147.913 128.942 146.305 131.984C147.804 130.42 149.441 129.021 150.86 127.363C150.889 127.329 150.933 127.363 150.907 127.408C149.496 129.145 147.961 131.037 146.126 132.323C145.632 133.255 145.139 134.203 144.634 135.128C144.759 135.056 144.886 134.992 145 134.928C145.022 134.928 145.044 134.951 145.022 134.962C144.879 135.037 144.74 135.113 144.598 135.177C144.36 135.62 144.122 136.064 143.867 136.504C143.852 136.602 143.702 136.515 143.746 136.417Z" fill="#263238"/>
<path d="M145.256 134.782C146.471 134.082 147.631 133.285 148.725 132.398C148.754 132.376 148.798 132.417 148.769 132.443C147.709 133.386 146.547 134.199 145.307 134.868C145.301 134.872 145.295 134.874 145.289 134.875C145.282 134.876 145.276 134.876 145.27 134.874C145.263 134.873 145.257 134.87 145.252 134.866C145.247 134.862 145.243 134.857 145.239 134.852C145.236 134.846 145.234 134.84 145.233 134.833C145.232 134.826 145.232 134.82 145.233 134.813C145.235 134.807 145.238 134.801 145.242 134.795C145.245 134.79 145.25 134.785 145.256 134.782Z" fill="#263238"/>
<path d="M140.979 141.587C140.979 141.681 141.147 141.681 141.143 141.587C141.169 138.985 141.143 136.372 141.183 133.759C141.83 132.416 143.223 131.672 144.188 130.593C144.884 129.807 145.489 128.94 145.991 128.01C147.158 125.79 147.871 123.349 148.085 120.835C148.352 118.053 147.325 108.875 146.184 109.179C145.592 109.341 143.68 113.891 143.172 115.395C142.349 117.88 141.747 120.438 141.373 123.035C140.449 129.141 140.525 135.443 140.979 141.587Z" fill="url(#paint16_linear_191_15239)"/>
<path d="M140.96 130.367C141.099 127.077 141.82 123.753 142.496 120.561C143.227 117.124 144.071 113.886 145.786 110.818C145.815 110.762 145.899 110.818 145.87 110.871C144.723 113.256 143.835 115.764 143.223 118.35C143.337 118.162 143.476 117.974 143.589 117.812C143.636 117.744 143.746 117.812 143.702 117.88C143.548 118.157 143.366 118.418 143.161 118.658C143.158 118.66 143.154 118.661 143.15 118.661C143.146 118.661 143.143 118.66 143.139 118.658C142.547 121.117 142.123 123.629 141.761 126.137C141.787 126.107 141.812 126.073 141.841 126.043C141.871 126.013 141.889 126.043 141.878 126.069C141.834 126.156 141.783 126.234 141.732 126.321C141.549 127.592 141.366 128.863 141.209 130.122C143.402 128.186 145.292 125.9 146.356 123.087C146.356 123.087 146.382 123.087 146.374 123.087C145.336 126.005 143.699 128.6 141.173 130.371C141.129 130.709 141.081 131.047 141.034 131.386C141.034 131.453 140.917 131.438 140.917 131.367C140.917 131.07 140.917 130.769 140.942 130.468C140.937 130.46 140.933 130.452 140.931 130.442C140.929 130.433 140.929 130.423 140.93 130.414C140.932 130.404 140.936 130.395 140.941 130.387C140.946 130.379 140.953 130.372 140.96 130.367Z" fill="#263238"/>
<path d="M141.999 125.599C143.684 123.013 145.256 120.505 146.488 117.647C146.491 117.639 146.496 117.633 146.503 117.63C146.511 117.627 146.519 117.627 146.526 117.63C146.533 117.633 146.539 117.639 146.542 117.646C146.545 117.654 146.545 117.662 146.543 117.669C145.504 120.508 144.049 123.385 142.083 125.667C142.073 125.675 142.061 125.679 142.049 125.68C142.036 125.68 142.024 125.675 142.015 125.668C142.005 125.66 141.998 125.649 141.995 125.636C141.992 125.624 141.993 125.611 141.999 125.599Z" fill="#263238"/>
<path d="M144.236 117.019C144.934 115.748 145.669 114.515 146.327 113.222C146.345 113.184 146.393 113.222 146.378 113.252C145.839 114.603 145.156 115.888 144.342 117.083C144.332 117.095 144.319 117.103 144.305 117.106C144.29 117.109 144.275 117.106 144.262 117.098C144.249 117.09 144.24 117.078 144.235 117.064C144.23 117.049 144.23 117.034 144.236 117.019Z" fill="#263238"/>
<path d="M143.962 117.561V117.585C143.962 117.585 143.951 117.561 143.962 117.561Z" fill="#263238"/>
<path d="M139.268 134.063C139.233 135.792 139.035 137.514 138.676 139.203C138.701 139.387 138.727 139.579 138.756 139.763C139.272 137.902 139.57 135.985 139.644 134.052C139.66 134.025 139.668 133.994 139.668 133.963C139.668 133.932 139.66 133.902 139.644 133.875C139.722 131.277 139.539 128.678 139.1 126.118C138.317 121.335 136.607 116.748 133.364 113.168C133.337 113.143 133.305 113.124 133.27 113.114C133.235 113.104 133.198 113.103 133.163 113.11C133.127 113.117 133.093 113.133 133.065 113.157C133.036 113.18 133.014 113.21 132.998 113.244C131.69 116.665 132.147 120.764 133.262 124.148C133.864 125.995 134.726 127.742 135.821 129.333C136.947 130.95 138.369 132.307 139.268 134.063Z" fill="url(#paint17_linear_191_15239)"/>
<path d="M133.744 114.763C136.815 119.892 138.953 125.972 139.228 132.029C139.228 132.134 139.056 132.165 139.041 132.052C138.968 131.51 138.888 130.969 138.804 130.431C137.531 129.179 136.226 127.859 135.316 126.295C135.316 126.265 135.342 126.235 135.36 126.258C136.411 127.589 137.538 128.856 138.734 130.051C138.515 128.713 138.253 127.394 137.948 126.096C137.864 126.002 137.784 125.9 137.703 125.803C137.623 125.705 137.74 125.645 137.795 125.709L137.868 125.795C137.436 124.015 136.9 122.263 136.263 120.55C135.481 119.591 134.607 118.76 134.037 117.606C134.037 117.579 134.059 117.557 134.077 117.579C134.534 118.241 134.98 118.907 135.499 119.519C135.704 119.764 135.934 119.993 136.146 120.23C135.433 118.371 134.588 116.569 133.616 114.838C133.58 114.763 133.697 114.692 133.744 114.763Z" fill="#263238"/>
<path d="M134.366 121.095C135.356 122.467 136.49 123.78 137.411 125.201C137.436 125.238 137.382 125.28 137.349 125.25C136.161 124.122 135.155 122.542 134.296 121.132C134.271 121.087 134.347 121.054 134.366 121.095Z" fill="#263238"/>
<path d="M137.55 125.516L137.594 125.56C137.623 125.59 137.575 125.635 137.546 125.605L137.506 125.564C137.477 125.534 137.52 125.486 137.55 125.516Z" fill="#263238"/>
<path d="M128.93 124.625C129.294 127.489 130.416 130.194 132.172 132.446C132.896 133.331 133.791 134.049 134.801 134.556C135.938 135.135 137.129 135.804 138.31 136.278C138.868 137.745 139.283 139.265 139.549 140.816C139.59 140.685 139.626 140.546 139.663 140.414C138.91 133.736 134.706 128.006 129.332 124.362C129.29 124.335 129.241 124.32 129.191 124.32C129.141 124.32 129.092 124.335 129.05 124.362C129.007 124.39 128.974 124.429 128.952 124.476C128.931 124.523 128.923 124.574 128.93 124.625Z" fill="url(#paint18_linear_191_15239)"/>
<path d="M130.787 126.599C130.75 126.561 130.787 126.494 130.842 126.524C133.796 128.783 136.151 131.768 137.692 135.206C137.729 135.296 137.608 135.379 137.557 135.285C137.308 134.837 137.053 134.397 136.793 133.969C135.568 133.732 134.406 132.841 133.503 131.998C133.477 131.976 133.503 131.938 133.539 131.961C134.008 132.403 134.528 132.782 135.089 133.089C135.59 133.348 136.128 133.514 136.65 133.721C136.193 132.969 135.722 132.269 135.228 131.577C133.898 131.054 132.651 130.329 131.529 129.427C131.492 129.4 131.529 129.344 131.562 129.366C132.672 130.054 133.817 130.682 134.991 131.246C134.24 130.231 133.432 129.261 132.571 128.344C132.154 128.118 131.73 127.893 131.328 127.648C131.324 127.646 131.32 127.644 131.317 127.641C131.314 127.637 131.311 127.634 131.31 127.629C131.308 127.625 131.307 127.621 131.307 127.616C131.307 127.612 131.308 127.607 131.31 127.603C131.311 127.599 131.314 127.595 131.317 127.592C131.32 127.589 131.324 127.586 131.328 127.584C131.332 127.583 131.336 127.582 131.341 127.582C131.345 127.582 131.349 127.582 131.353 127.584C131.689 127.705 132.009 127.867 132.308 128.065C131.821 127.58 131.324 127.084 130.787 126.599Z" fill="#263238"/>
<path d="M130.904 128.905C130.976 128.949 131.044 128.999 131.109 129.055C131.13 129.074 131.109 129.1 131.083 129.092C131.008 129.055 130.936 129.012 130.867 128.965C130.831 128.942 130.864 128.879 130.904 128.905Z" fill="#263238"/>
<path d="M148.052 155.277H133.324L134.512 141.481L134.775 138.439H146.601L146.864 141.481L148.052 155.277Z" fill="#455A64"/>
<path d="M146.864 141.481H134.512L134.775 138.439H146.601L146.864 141.481Z" fill="#263238"/>
<path d="M147.307 136.315H134.07V139.327H147.307V136.315Z" fill="#455A64"/>
<path d="M79.2901 22.424C79.2922 24.8257 78.6446 27.1806 77.42 29.2254C76.1953 31.2702 74.4418 32.9243 72.3555 34.0028C70.2692 35.0812 67.9323 35.5414 65.6063 35.332C63.2802 35.1225 61.0567 34.2517 59.1842 32.8168L53.0172 34.4374L55.5761 28.5304C54.6723 26.7945 54.1652 24.8694 54.0935 22.9016C54.0218 20.9338 54.3873 18.9751 55.1623 17.1744C55.9373 15.3738 57.1014 13.7787 58.5659 12.5104C60.0305 11.2421 61.7569 10.3341 63.614 9.85539C65.471 9.37668 67.4098 9.3399 69.2827 9.74784C71.1557 10.1558 72.9136 10.9977 74.4226 12.2096C75.9316 13.4214 77.152 14.9713 77.9911 16.7413C78.8301 18.5113 79.2656 20.4548 79.2645 22.424H79.2901Z" fill="white"/>
<path d="M79.2901 22.4243C79.2894 24.8329 78.6398 27.1942 77.4134 29.246C76.187 31.2978 74.4318 32.9599 72.3426 34.0478C70.2534 35.1356 67.912 35.6067 65.5782 35.4088C63.2445 35.2108 61.0098 34.3514 59.1221 32.9262L59.2318 32.9487L53.0721 34.5956L52.7504 34.6821L52.8856 34.37L55.4446 28.4555V28.6172C54.5224 26.8608 54.0093 24.9082 53.9458 22.9131C53.6825 16.8519 57.8609 11.1329 63.6149 9.77549C71.4781 7.70746 79.3596 14.092 79.2901 22.4243ZM79.2901 22.4243C79.3157 14.1184 71.4817 7.8165 63.666 9.97478C58.0912 11.3622 54.0006 17.0211 54.2894 22.8981C54.3643 24.8365 54.8642 26.7324 55.7516 28.4442L55.7918 28.5231L55.7589 28.6059L53.1927 34.5054L53.0099 34.276L59.1842 32.6893H59.2427C61.098 34.1345 63.3083 35.0187 65.6254 35.2426C67.9424 35.4664 70.2742 35.021 72.3586 33.9565C74.443 32.8919 76.1974 31.2504 77.4245 29.2165C78.6516 27.1825 79.3027 24.8369 79.3047 22.4431L79.2901 22.4243Z" fill="#263238"/>
<path d="M64.6605 30.1282L59.0199 24.2512L60.9135 22.3261L64.2109 25.759L71.0578 14.7157L73.3024 16.1896L64.6605 30.1282Z" fill="url(#paint19_linear_191_15239)"/>
<path d="M60.1384 70.9586C61.0557 70.8208 61.9156 70.4165 62.6172 69.7932C63.3188 69.17 63.8328 68.3537 64.0989 67.4403C64.3649 66.5269 64.372 65.5544 64.1192 64.637C63.8664 63.7196 63.3642 62.8955 62.6717 62.2616C64.6092 61.7728 66.2542 60.3553 66.3712 58.1256C66.4955 55.8131 64.8724 54.0572 62.7521 53.6135C62.7521 53.6135 62.7302 53.636 62.7521 53.6436C64.6348 54.2677 66.1628 55.9635 66.0203 58.0955C65.8996 59.9191 64.7664 61.0358 63.3224 61.645C63.8846 61.1528 64.3424 60.547 64.6675 59.8653C64.9927 59.1836 65.1781 58.4404 65.2124 57.6819C65.2249 56.8339 64.9927 56.0012 64.545 55.289C64.0973 54.5769 63.4543 54.0173 62.6973 53.6812C63.4504 51.9064 63.6551 49.7406 62.6681 48.011C62.2676 47.2864 61.6706 46.6974 60.95 46.3162C60.2293 45.9349 59.4164 45.7777 58.6103 45.864C58.8256 44.9525 58.7762 43.996 58.4681 43.1131C58.1601 42.2302 57.607 41.4596 56.8774 40.8968C56.1477 40.3341 55.2736 40.0038 54.3633 39.947C53.453 39.8903 52.5465 40.1094 51.7561 40.5774C51.8468 39.907 51.7716 39.2239 51.5375 38.5914C51.3034 37.9589 50.9179 37.3973 50.4167 36.9587C49.9156 36.5201 49.315 36.2186 48.6705 36.0822C48.026 35.9457 47.3584 35.9787 46.7296 36.1781C46.7015 35.66 46.5291 35.1611 46.2328 34.7411C45.9366 34.321 45.5291 33.9975 45.059 33.8092C43.9623 33.328 42.7559 33.5912 41.6848 34.0386C41.3848 33.5934 40.9809 33.2327 40.5102 32.9896C40.0395 32.7466 39.517 32.6289 38.9907 32.6474C38.3136 32.6953 37.6751 32.9894 37.1896 33.4772C36.704 33.9649 36.403 34.6144 36.3403 35.3095C34.5125 34.8545 32.4654 34.6252 30.7546 35.5727C29.3472 36.3548 28.2907 37.9228 28.4808 39.5922C27.6851 39.5055 26.8806 39.5933 26.1204 39.8498C25.3601 40.1063 24.6614 40.5258 24.0704 41.0804C23.4793 41.6351 23.0093 42.3124 22.6914 43.0676C22.3734 43.8228 22.2148 44.6388 22.226 45.4617C21.542 45.6 20.9054 45.9209 20.3799 46.3921C19.8544 46.8633 19.4586 47.4682 19.2321 48.1464C18.8817 49.0661 18.7561 50.0603 18.8665 51.0416C18.2622 51.2106 17.7251 51.5711 17.3313 52.0719C16.9376 52.5727 16.7073 53.1884 16.6731 53.8316C16.5964 55.1175 17.2069 56.1478 18.0477 56.9938C18.1232 57.3341 18.1232 57.6875 18.0477 58.0278C17.8677 58.8889 17.8984 59.7826 18.137 60.6285C18.3756 61.4744 18.8147 62.2462 19.4148 62.8745C19.1752 63.3281 19.0324 63.829 18.9958 64.3439C18.9593 64.8587 19.0298 65.3757 19.2028 65.8603C19.3757 66.3449 19.6471 66.786 19.9989 67.1542C20.3506 67.5224 20.7746 67.8093 21.2427 67.9957C21.0437 69.0479 21.2549 70.1384 21.8308 71.0318C22.4066 71.9252 23.301 72.5499 24.3207 72.771C24.2218 73.6182 24.3013 74.4774 24.5536 75.2903C24.8058 76.1032 25.2251 76.8507 25.7829 77.4823C26.6639 78.4524 28.0494 79.1443 29.285 78.648C29.2631 79.6933 30.2976 80.434 31.281 80.528C31.655 80.55 32.0302 80.5285 32.3996 80.4641C32.8346 80.3964 33.3793 80.1934 33.818 80.2911C34.2566 80.3889 34.5966 80.8363 34.9512 81.1108C35.2075 81.3079 35.4831 81.4768 35.7737 81.6147C36.8685 82.1081 38.0942 82.2031 39.2485 81.8839C40.4028 81.5647 41.4169 80.8503 42.1235 79.8587C43.498 80.9115 45.3332 80.5205 46.7515 79.6857C47.2036 79.4025 47.6316 79.0805 48.031 78.7232C48.3695 78.3815 48.8023 78.1556 49.2702 78.0764C49.5773 78.0388 49.8954 78.0764 50.2061 78.0388C51.2589 77.9223 51.9717 77.174 52.5895 76.3581C56.3768 79.0164 60.6246 75.2526 60.1384 70.9586ZM17.0826 54.4445C17.0224 53.7759 17.166 53.1046 17.4935 52.5238C17.8211 51.943 18.3163 51.4815 18.9104 51.2033C18.9104 51.3048 18.9469 51.3687 18.9469 51.3687C18.9469 51.3687 18.6216 51.6658 18.479 51.8275C18.2241 52.1261 18.0134 52.4619 17.8539 52.8239C17.5129 53.5809 17.3984 54.425 17.5249 55.2491C17.5893 55.6124 17.6973 55.9661 17.8466 56.3019C17.8466 56.3471 17.8758 56.3884 17.8941 56.4298C17.45 55.8581 17.169 55.1708 17.0826 54.4445ZM39.5975 33.546C38.9783 33.5007 38.3606 33.652 37.8277 33.9795C37.2949 34.307 36.8727 34.7949 36.6182 35.3772L36.5195 35.3509C36.8594 34.0649 37.5138 32.9858 39.0126 32.9181C39.4753 32.9022 39.9339 33.0116 40.3426 33.2353C40.7512 33.459 41.0956 33.7892 41.3412 34.1928H41.3229C40.8182 33.8149 40.2202 33.5908 39.5975 33.546ZM52.7138 76.1851C52.7232 76.1732 52.7318 76.1607 52.7394 76.1475C54.0809 76.628 55.5515 76.5519 56.8393 75.9356C58.1272 75.3193 59.1309 74.2111 59.6376 72.8462C58.7237 75.9445 56.1903 78.0764 52.7138 76.1851Z" fill="#263238"/>
<path d="M41.1657 93.6359C48.5719 109.936 61.1253 131.988 66.8866 132.917C70.3667 133.474 76.2522 133.959 80.723 129.623C90.4835 120.167 97.1733 106.657 100.88 99.7196C102.562 96.5687 83.7462 82.5512 81.3811 85.5254C75.8355 92.4815 69.5807 105.965 68.5535 105.924C64.759 105.766 59.1293 96.2641 49.9355 87.4543C38.8626 76.8359 38.0035 86.6722 41.1657 93.6359Z" fill="#AD6359"/>
<path d="M98.1972 104.13C102.847 99.028 108.952 91.4251 108.967 88.2253C108.967 84.8713 108.575 73.0647 107.621 70.3537C106.667 67.6427 101.56 60.649 99.2134 59.7278C97.3381 58.9758 96.3365 61.3747 98.5152 65.7063C100.953 70.5493 100.208 72.5045 100.321 74.0574C100.438 75.6667 97.817 82.51 95.6199 83.0815C94.3222 83.4237 91.6317 83.4087 91.0212 81.0022C90.4107 78.5958 91.0212 76.4225 90.1183 72.2263C89.4091 68.9625 86.7587 66.9359 85.6657 67.5074C84.5727 68.0789 85.4793 70.0304 84.7591 74.9185C84.3095 77.9679 83.8708 80.1562 80.3358 84.6119C77.2432 88.5111 77.0458 93.9105 77.0458 93.9105L98.1972 104.13Z" fill="#AD6359"/>
<path d="M109.182 80.7018C109.054 78.8631 110.279 73.2907 109.855 70.8617C109.431 68.4327 106.66 59.4913 104.006 58.7618C100.683 57.8481 101.67 65.1163 102.375 68.2334C103.081 71.3505 101.143 76.968 101.143 76.968L105.717 78.9684L109.182 80.7018Z" fill="#AD6359"/>
<path d="M100.489 78.2495C101.308 75.4219 102.317 72.5492 102.364 69.5788C102.222 67.4506 101.809 65.3562 101.71 63.213C101.681 61.9421 101.604 60.5546 102.229 59.4041C102.336 59.2151 102.482 59.0536 102.658 58.9318C102.834 58.8099 103.035 58.731 103.245 58.7009C103.046 58.7486 102.859 58.8406 102.698 58.9705C102.537 59.1005 102.406 59.2651 102.313 59.4529C101.791 60.611 101.915 61.9459 101.992 63.1942C102.131 64.8862 102.401 66.5783 102.613 68.274C103.041 71.722 101.681 75.0948 100.489 78.2495Z" fill="#263238"/>
<path d="M109.029 82.3027C109.394 80.5129 112.059 75.5646 112.319 73.1206C112.578 70.6766 112.341 61.3328 110.023 59.8476C107.098 57.9676 106.097 65.2057 105.932 68.3904C105.768 71.5752 102.408 76.3467 102.408 76.3467L106.217 79.618L109.029 82.3027Z" fill="#AD6359"/>
<path d="M101.425 77.3701C102.968 74.9185 104.715 72.482 105.537 69.6544C105.976 67.5902 106.144 65.477 106.634 63.409C106.949 62.1907 107.245 60.8446 108.151 59.9309C108.303 59.7806 108.487 59.6685 108.688 59.6032C108.889 59.538 109.102 59.5215 109.31 59.5549C109.107 59.5388 108.903 59.57 108.713 59.6461C108.523 59.7223 108.352 59.8415 108.213 59.9949C107.406 60.9499 107.164 62.2509 106.901 63.4616C106.579 65.1161 106.386 66.793 106.13 68.4738C105.618 71.8766 103.41 74.7117 101.425 77.3626V77.3701Z" fill="#263238"/>
<path d="M102.05 81.6748C99.915 83.4947 96.932 84.1715 94.2269 84.3557C92.1596 84.4322 90.133 84.9684 88.2865 85.9274C87.6691 86.2469 87.0698 86.6022 86.4916 86.9915C88.6772 85.1594 91.3806 84.1041 94.1976 83.9835C96.9137 83.7879 99.7359 83.2314 102.046 81.671L102.05 81.6748Z" fill="#263238"/>
<path d="M108.802 60.7021L99.1291 87.6542C98.9901 88.0216 98.7328 88.3288 98.4001 88.5245C98.0675 88.7202 97.6796 88.7926 97.3013 88.7296L84.1594 86.0374C83.9902 86.0061 83.8301 85.9358 83.691 85.8318C83.552 85.7278 83.4376 85.5929 83.3563 85.437C83.2751 85.2812 83.2292 85.1085 83.2221 84.9318C83.2149 84.7551 83.2466 84.5791 83.3149 84.4168L92.9877 57.4685C93.1243 57.0992 93.381 56.7899 93.7142 56.5932C94.0474 56.3964 94.4365 56.3244 94.8155 56.3893L107.957 59.0815C108.127 59.1129 108.287 59.1832 108.426 59.2871C108.565 59.3911 108.679 59.5261 108.76 59.6819C108.842 59.8378 108.888 60.0105 108.895 60.1871C108.902 60.3638 108.87 60.5399 108.802 60.7021Z" fill="#37474F"/>
<path d="M107.15 58.9156L93.9893 56.2272C93.6108 56.162 93.222 56.2335 92.8889 56.4295C92.5558 56.6255 92.2988 56.934 92.1615 57.3026L82.4888 84.2509C82.4205 84.4132 82.3887 84.5892 82.3959 84.7659C82.4031 84.9426 82.449 85.1153 82.5302 85.2711C82.6114 85.427 82.7258 85.5619 82.8649 85.6659C83.0039 85.7699 83.164 85.8402 83.3332 85.8715L96.4934 88.5637C96.8719 88.6281 97.2603 88.5564 97.5933 88.3605C97.9263 88.1646 98.1834 87.8565 98.3212 87.4883L107.994 60.54C108.063 60.3775 108.095 60.2011 108.088 60.024C108.082 59.8468 108.036 59.6736 107.955 59.5173C107.873 59.361 107.759 59.2256 107.619 59.1214C107.48 59.0172 107.319 58.9469 107.15 58.9156ZM97.7912 86.4844C97.6736 86.8255 97.4456 87.1147 97.1455 87.3036C96.8454 87.4925 96.4913 87.5697 96.1425 87.5222L84.3824 85.1157C84.2269 85.0811 84.0811 85.0107 83.9558 84.91C83.8304 84.8093 83.7288 84.6807 83.6586 84.534C83.5883 84.3872 83.5511 84.226 83.5498 84.0624C83.5486 83.8988 83.5832 83.737 83.6512 83.5892L92.6733 58.4945C93.1924 57.0469 93.77 57.0883 94.4097 57.2236L96.7639 57.7049C96.9028 57.7312 96.9577 57.9117 96.8882 58.1035L96.859 58.1862C96.6981 58.6336 96.9431 58.6863 97.2465 58.7502L102.693 59.8782C103 59.9384 103.245 59.9873 103.424 59.5398L103.454 59.4571C103.523 59.2616 103.688 59.13 103.819 59.16L106.173 59.6413C106.831 59.7767 107.296 60.0775 106.821 61.401L97.7912 86.4844Z" fill="#263238"/>
<path d="M106.799 61.3897L97.7913 86.4844C97.6737 86.8255 97.4458 87.1147 97.1456 87.3036C96.8455 87.4925 96.4914 87.5697 96.1426 87.5222L84.3825 85.1157C84.227 85.081 84.0812 85.0107 83.9559 84.91C83.8306 84.8093 83.729 84.6807 83.6587 84.5339C83.5884 84.3872 83.5512 84.226 83.55 84.0624C83.5487 83.8988 83.5834 83.737 83.6514 83.5891L92.6734 58.4945C93.1925 57.0469 93.7701 57.0882 94.4098 57.2236L96.7641 57.7049C96.903 57.7312 96.9578 57.9117 96.8883 58.1035L96.8591 58.1862C96.6983 58.6336 96.9432 58.6863 97.2466 58.7502L102.693 59.8782C103.001 59.9384 103.245 59.9872 103.425 59.5398L103.454 59.4571C103.523 59.2616 103.688 59.1299 103.819 59.16L106.174 59.6413C106.81 59.7654 107.274 60.0662 106.799 61.3897Z" fill="white"/>
<path d="M96.1426 58.1855H96.1097C96.0909 58.1498 96.0643 58.119 96.032 58.0956C95.9996 58.0721 95.9624 58.0567 95.9233 58.0506C95.8366 58.0361 95.7478 58.052 95.671 58.0956V58.0693L95.7076 58.0468L95.7917 58.0206C95.8245 58.0169 95.8575 58.0169 95.8903 58.0206H95.9744H96.0037C96.0296 58.0279 96.0542 58.0393 96.0768 58.0543L96.1243 58.0918C96.1385 58.1064 96.1508 58.1228 96.1609 58.1405L96.1791 58.1668L96.1426 58.1855Z" fill="#C7C7C7"/>
<path d="M95.7003 58.2082L95.6783 58.1672C95.7298 58.1348 95.7898 58.1192 95.8502 58.1225C95.8897 58.1241 95.9282 58.1358 95.9621 58.1567C95.996 58.1775 96.0241 58.2068 96.0439 58.2417L95.9964 58.2678C95.983 58.2441 95.9645 58.2237 95.9424 58.2082C95.9203 58.1928 95.895 58.1826 95.8684 58.1784C95.8107 58.1681 95.7512 58.1786 95.7003 58.2082Z" fill="#C7C7C7"/>
<path d="M95.9634 58.2983L95.9158 58.3244C95.9089 58.3131 95.8998 58.3034 95.8892 58.2957C95.8785 58.288 95.8664 58.2826 95.8537 58.2797C95.8254 58.2688 95.7942 58.2688 95.766 58.2797L95.744 58.2387C95.762 58.2269 95.7822 58.2191 95.8033 58.2158C95.8244 58.2124 95.846 58.2135 95.8666 58.2192C95.8873 58.2248 95.9065 58.2347 95.9232 58.2483C95.9398 58.262 95.9535 58.279 95.9634 58.2983Z" fill="#C7C7C7"/>
<path d="M95.8429 58.3631C95.839 58.3713 95.8326 58.3779 95.8247 58.382C95.8168 58.3861 95.8077 58.3874 95.799 58.3856C95.7951 58.3848 95.7915 58.3831 95.7882 58.3807C95.785 58.3783 95.7822 58.3752 95.7802 58.3717C95.7781 58.3682 95.7768 58.3643 95.7763 58.3602C95.7757 58.3561 95.776 58.352 95.7771 58.348C95.7809 58.3395 95.7871 58.3324 95.795 58.3277C95.8028 58.323 95.8119 58.3209 95.821 58.3217C95.8253 58.3225 95.8294 58.3243 95.833 58.3269C95.8366 58.3295 95.8395 58.333 95.8417 58.3369C95.8438 58.3409 95.845 58.3453 95.8452 58.3499C95.8454 58.3544 95.8446 58.3589 95.8429 58.3631Z" fill="#C7C7C7"/>
<path d="M93.8981 57.799C93.9084 57.7738 93.9265 57.7528 93.9496 57.7392C93.9728 57.7256 93.9996 57.7203 94.0261 57.7241C94.0377 57.7265 94.0487 57.7315 94.0582 57.7388C94.0678 57.746 94.0756 57.7554 94.0812 57.7661C94.0868 57.7769 94.09 57.7888 94.0906 57.8009C94.0912 57.8131 94.0891 57.8253 94.0845 57.8365C94.0754 57.8626 94.0575 57.8845 94.0341 57.8983C94.0106 57.912 93.9831 57.9167 93.9566 57.9115C93.9449 57.9091 93.934 57.9041 93.9244 57.8968C93.9149 57.8895 93.907 57.8802 93.9014 57.8694C93.8958 57.8587 93.8926 57.8468 93.8921 57.8346C93.8915 57.8225 93.8936 57.8103 93.8981 57.799Z" fill="#C7C7C7"/>
<path d="M94.194 57.8589C94.2037 57.8332 94.2217 57.8118 94.245 57.7981C94.2683 57.7845 94.2955 57.7795 94.322 57.7839C94.3336 57.7863 94.3446 57.7913 94.3541 57.7986C94.3637 57.8059 94.3715 57.8152 94.3771 57.826C94.3827 57.8367 94.3859 57.8486 94.3865 57.8608C94.3871 57.873 94.385 57.8851 94.3804 57.8964C94.3707 57.922 94.3527 57.9435 94.3294 57.9571C94.3061 57.9708 94.279 57.9758 94.2525 57.9713C94.2408 57.969 94.2299 57.9639 94.2203 57.9567C94.2108 57.9494 94.2029 57.94 94.1973 57.9293C94.1917 57.9185 94.1885 57.9066 94.188 57.8945C94.1874 57.8823 94.1895 57.8702 94.194 57.8589Z" fill="#C7C7C7"/>
<path d="M94.5013 57.9191C94.5114 57.8945 94.5289 57.874 94.5513 57.8605C94.5737 57.847 94.5997 57.8412 94.6256 57.8441C94.6376 57.846 94.6489 57.8507 94.6589 57.8578C94.6689 57.8648 94.6772 57.8741 94.6832 57.8849C94.6891 57.8958 94.6926 57.9078 94.6934 57.9202C94.6942 57.9326 94.6923 57.9451 94.6877 57.9566C94.678 57.9822 94.66 58.0037 94.6367 58.0173C94.6134 58.031 94.5863 58.036 94.5598 58.0315C94.5478 58.0298 94.5363 58.0252 94.5264 58.0181C94.5164 58.011 94.5083 58.0016 94.5026 57.9906C94.4969 57.9796 94.4938 57.9674 94.4935 57.955C94.4933 57.9426 94.496 57.9303 94.5013 57.9191Z" fill="#C7C7C7"/>
<path d="M94.7826 57.9864C94.793 57.9614 94.8112 57.9408 94.8345 57.9279C94.8577 57.9149 94.8845 57.9104 94.9106 57.9151C94.9225 57.9171 94.9339 57.9217 94.9439 57.9288C94.9539 57.9359 94.9622 57.9452 94.9681 57.956C94.9741 57.9668 94.9776 57.9788 94.9784 57.9913C94.9792 58.0037 94.9773 58.0161 94.9727 58.0276C94.9619 58.0521 94.9435 58.0724 94.9204 58.0852C94.8973 58.0981 94.8707 58.1029 94.8448 58.0988C94.8328 58.0969 94.8214 58.0922 94.8114 58.0852C94.8015 58.0781 94.7932 58.0688 94.7872 58.058C94.7812 58.0472 94.7777 58.0351 94.7769 58.0227C94.7761 58.0103 94.7781 57.9979 94.7826 57.9864Z" fill="#C7C7C7"/>
<path d="M95.0788 58.0396C95.0891 58.0146 95.1074 57.994 95.1306 57.9811C95.1538 57.9682 95.1807 57.9637 95.2067 57.9684C95.2187 57.9701 95.2302 57.9747 95.2401 57.9818C95.2501 57.9889 95.2582 57.9983 95.2639 58.0093C95.2696 58.0203 95.2727 58.0325 95.2729 58.0449C95.2732 58.0573 95.2705 58.0696 95.2652 58.0808C95.2549 58.1058 95.2366 58.1264 95.2133 58.1393C95.1901 58.1523 95.1633 58.1567 95.1373 58.152C95.1256 58.1497 95.1146 58.1446 95.1051 58.1374C95.0955 58.1301 95.0877 58.1207 95.0821 58.11C95.0765 58.0992 95.0733 58.0873 95.0727 58.0752C95.0722 58.063 95.0742 58.0508 95.0788 58.0396Z" fill="#C7C7C7"/>
<path d="M105.984 60.4953L105.22 60.3373L105.348 59.9839L106.108 60.1418L105.984 60.4953ZM105.274 60.3073L105.958 60.4464L106.057 60.1719L105.369 60.0328L105.274 60.3073Z" fill="#C7C7C7"/>
<path d="M105.881 60.1598L105.388 60.0582L105.304 60.2914L105.797 60.3891L105.881 60.1598Z" fill="#C7C7C7"/>
<path d="M106.082 60.4269L106.013 60.4119L106.079 60.2245L106.148 60.2357L106.082 60.4269Z" fill="#C7C7C7"/>
<path d="M100.902 58.8971L99.4142 58.5925C99.4026 58.5906 99.3917 58.586 99.3821 58.5791C99.3726 58.5722 99.3647 58.5632 99.359 58.5527C99.3534 58.5422 99.3502 58.5305 99.3496 58.5185C99.349 58.5065 99.3511 58.4945 99.3557 58.4835C99.3659 58.4592 99.3836 58.439 99.406 58.4261C99.4285 58.4131 99.4545 58.4082 99.48 58.412L100.968 58.7166C100.979 58.7185 100.99 58.723 101 58.73C101.009 58.7369 101.017 58.7459 101.023 58.7564C101.029 58.7669 101.032 58.7786 101.032 58.7906C101.033 58.8026 101.031 58.8146 101.026 58.8256C101.017 58.8504 100.999 58.8709 100.976 58.8839C100.954 58.8969 100.928 58.9016 100.902 58.8971Z" fill="white"/>
<path d="M85.5595 83.769L85.49 83.7578L85.3767 84.0736L85.2488 84.0473L85.3072 83.8856L85.0769 83.8367L85.0185 83.9984L84.8905 83.9721L85.0038 83.6562L84.9344 83.6412L85.3621 83.3855L85.5595 83.769Z" fill="#EBEBEB"/>
<path d="M96.8372 85.8519L96.0841 85.6944L96.1243 85.5895L96.8774 85.7432L96.8372 85.8519Z" fill="#EBEBEB"/>
<path d="M96.7419 86.115L95.9889 85.9613L96.0291 85.8563L96.7822 86.0063L96.7419 86.115Z" fill="#EBEBEB"/>
<path d="M96.647 86.3815L95.8939 86.2278L95.9341 86.1191L96.6872 86.2728L96.647 86.3815Z" fill="#EBEBEB"/>
<path d="M91.0684 84.9083L90.7723 85.092L90.6371 84.8183L90.6883 84.7921L90.7979 85.0133L91.0429 84.8633L91.0684 84.9083Z" fill="#EBEBEB"/>
<path d="M90.6846 85.3262C90.6355 85.3178 90.5889 85.298 90.5484 85.2684C90.5078 85.2388 90.4743 85.2001 90.4503 85.1552C90.4264 85.1103 90.4127 85.0604 90.4102 85.0093C90.4077 84.9582 90.4166 84.9071 90.436 84.86C90.4765 84.7538 90.5513 84.6651 90.6478 84.609C90.7444 84.5528 90.8568 84.5326 90.9661 84.5517C91.0152 84.5601 91.0618 84.5799 91.1024 84.6095C91.143 84.6391 91.1765 84.6779 91.2004 84.7228C91.2243 84.7676 91.2381 84.8175 91.2405 84.8686C91.243 84.9198 91.2342 84.9708 91.2147 85.0179C91.1742 85.1242 91.0995 85.2128 91.0029 85.269C90.9064 85.3251 90.794 85.3453 90.6846 85.3262ZM90.9442 84.6043C90.8497 84.5874 90.7525 84.6047 90.6691 84.6534C90.5857 84.7021 90.5214 84.7792 90.4872 84.8713C90.4707 84.9123 90.4633 84.9566 90.4656 85.0009C90.4679 85.0452 90.4799 85.0885 90.5006 85.1274C90.5213 85.1664 90.5502 85.2001 90.5852 85.226C90.6202 85.252 90.6604 85.2695 90.7029 85.2774C90.7982 85.2936 90.8961 85.2755 90.98 85.2262C91.0639 85.1769 91.1287 85.0993 91.1635 85.0066C91.1801 84.9656 91.1874 84.9213 91.1848 84.8769C91.1823 84.8326 91.17 84.7894 91.1489 84.7507C91.1278 84.7119 91.0984 84.6786 91.0629 84.6533C91.0274 84.6279 90.9868 84.6112 90.9442 84.6043Z" fill="#EBEBEB"/>
<path d="M93.5763 60.3292L93.2985 59.8555L93.8578 59.5509L93.898 59.6299L93.4374 59.8818L93.664 60.2728L93.5763 60.3292Z" fill="#DBDBDB"/>
<path d="M105.428 62.0774C105.419 62.0998 105.403 62.1183 105.382 62.13C105.362 62.1416 105.338 62.1455 105.314 62.1412C105.304 62.1399 105.294 62.1361 105.285 62.13C105.276 62.1239 105.269 62.1157 105.264 62.1061C105.259 62.0966 105.256 62.0859 105.256 62.075C105.256 62.0641 105.259 62.0534 105.263 62.0437C105.271 62.0216 105.287 62.0032 105.307 61.9916C105.327 61.9799 105.35 61.9758 105.373 61.98C105.383 61.9815 105.393 61.9854 105.402 61.9914C105.411 61.9975 105.418 62.0055 105.424 62.0149C105.429 62.0243 105.432 62.0349 105.433 62.0457C105.434 62.0565 105.432 62.0674 105.428 62.0774Z" fill="#DBDBDB"/>
<path d="M105.322 62.3674C105.314 62.3898 105.298 62.4086 105.279 62.4209C105.259 62.4331 105.235 62.4381 105.212 62.4349C105.202 62.4329 105.191 62.4285 105.183 62.4221C105.174 62.4156 105.167 62.4072 105.161 62.3976C105.156 62.3879 105.153 62.3771 105.152 62.3661C105.152 62.3551 105.153 62.344 105.157 62.3337C105.167 62.3117 105.183 62.2936 105.203 62.2821C105.224 62.2705 105.248 62.2663 105.271 62.27C105.281 62.2719 105.29 62.2762 105.299 62.2825C105.307 62.2887 105.314 62.2968 105.319 62.3062C105.324 62.3155 105.327 62.3259 105.327 62.3365C105.328 62.3471 105.326 62.3576 105.322 62.3674Z" fill="#DBDBDB"/>
<path d="M105.216 62.6605C105.208 62.6825 105.192 62.701 105.172 62.7126C105.152 62.7243 105.129 62.7284 105.106 62.7242C105.096 62.7227 105.086 62.7188 105.077 62.7127C105.068 62.7067 105.061 62.6986 105.056 62.6892C105.05 62.6798 105.047 62.6693 105.046 62.6585C105.046 62.6476 105.047 62.6368 105.051 62.6267C105.06 62.6044 105.076 62.5858 105.097 62.5742C105.118 62.5626 105.142 62.5586 105.165 62.563C105.175 62.5643 105.185 62.5681 105.194 62.5742C105.203 62.5803 105.21 62.5885 105.215 62.598C105.22 62.6076 105.223 62.6183 105.223 62.6292C105.223 62.64 105.221 62.6508 105.216 62.6605Z" fill="#DBDBDB"/>
<path d="M96.859 60.6187C98.504 60.8931 100.149 61.2278 101.743 61.6188C100.098 61.3481 98.4529 61.0135 96.859 60.6187Z" fill="#DBDBDB"/>
<path d="M92.2567 61.8857C93.4451 62.064 94.6237 62.305 95.788 62.6077C94.5997 62.4294 93.421 62.1884 92.2567 61.8857Z" fill="#DBDBDB"/>
<path d="M101.546 65.2135C102.355 65.3153 103.155 65.4799 103.94 65.7061C103.131 65.6058 102.33 65.4411 101.546 65.2135Z" fill="#DBDBDB"/>
<path d="M101.447 65.4805C102.256 65.5808 103.057 65.7455 103.841 65.973C103.032 65.8716 102.232 65.707 101.447 65.4805Z" fill="#DBDBDB"/>
<path d="M92.1251 62.2542C92.8903 62.3471 93.647 62.503 94.3879 62.7204C93.6228 62.6274 92.8661 62.4715 92.1251 62.2542Z" fill="#DBDBDB"/>
<path d="M97.0894 64.3794L94.8668 67.6319L93.58 71.2152C93.1252 71.1368 92.6935 70.9535 92.3175 70.679C91.9414 70.4044 91.6308 70.0458 91.4088 69.63C91.1868 69.2143 91.0593 68.7522 91.0358 68.2785C91.0124 67.8047 91.0936 67.3317 91.2733 66.8949C91.6464 65.9168 92.3346 65.1001 93.2229 64.5813C94.1112 64.0626 95.1458 63.8731 96.1535 64.0448C96.4795 64.1093 96.7947 64.2221 97.0894 64.3794Z" fill="url(#paint20_linear_191_15239)"/>
<path d="M95.9634 70.9514C95.2108 71.2758 94.3824 71.3673 93.58 71.2146L94.8667 67.6312L95.9634 70.9514Z" fill="#263238"/>
<path d="M98.4603 68.3649C98.2392 68.95 97.903 69.4818 97.4727 69.9269C97.0424 70.3721 96.5274 70.721 95.9598 70.9518L94.8632 67.6317L98.4712 65.9509C98.7604 66.7288 98.7565 67.5898 98.4603 68.3649Z" fill="#37474F"/>
<path d="M98.9574 65.7705L94.8156 67.6994L97.3745 63.9731C98.0929 64.3599 98.654 64.997 98.9574 65.7705Z" fill="#C7C7C7"/>
<path d="M96.6617 67.996C96.4751 68.4854 96.1307 68.894 95.6861 69.1535C95.2416 69.4129 94.7239 69.5074 94.2197 69.4211C93.9926 69.3817 93.777 69.2901 93.5891 69.1529C93.4013 69.0158 93.246 68.8368 93.1349 68.6292C93.0238 68.4216 92.9597 68.1909 92.9476 67.9543C92.9354 67.7177 92.9754 67.4813 93.0646 67.2628C93.2512 66.7734 93.5956 66.3648 94.0401 66.1054C94.4847 65.8459 95.0023 65.7515 95.5065 65.8377C95.7344 65.8757 95.9508 65.9666 96.1395 66.1034C96.3281 66.2402 96.484 66.4194 96.5953 66.6274C96.7066 66.8354 96.7705 67.0667 96.782 67.3038C96.7935 67.541 96.7523 67.7777 96.6617 67.996Z" fill="white"/>
<path d="M101.063 65.4658L100.679 65.3868L100.814 65.0033L101.202 65.0823L101.063 65.4658Z" fill="url(#paint21_linear_191_15239)"/>
<path d="M101.183 66.2249C101.993 66.3252 102.793 66.4898 103.578 66.7174C102.769 66.616 101.968 66.4514 101.183 66.2249Z" fill="#DBDBDB"/>
<path d="M101.081 66.4926C101.89 66.5934 102.691 66.7568 103.476 66.9814C102.667 66.8812 101.866 66.7178 101.081 66.4926Z" fill="#DBDBDB"/>
<path d="M100.701 66.4766L100.314 66.3977L100.453 66.0104L100.84 66.0931L100.701 66.4766Z" fill="#263238"/>
<path d="M100.818 67.2363C101.629 67.3362 102.43 67.5009 103.216 67.7289C102.406 67.6271 101.604 67.4625 100.818 67.2363Z" fill="#DBDBDB"/>
<path d="M100.716 67.5038C101.525 67.6039 102.325 67.7673 103.11 67.9926C102.301 67.8917 101.501 67.7283 100.716 67.5038Z" fill="#DBDBDB"/>
<path d="M100.339 67.4885L99.9515 67.4095L100.09 67.0222L100.478 67.1012L100.339 67.4885Z" fill="#37474F"/>
<path d="M100.456 68.2483C101.265 68.3484 102.066 68.5118 102.851 68.7371C102.042 68.6362 101.241 68.4728 100.456 68.2483Z" fill="#DBDBDB"/>
<path d="M100.35 68.5144C101.159 68.6145 101.959 68.778 102.744 69.0032C101.935 68.9023 101.135 68.7389 100.35 68.5144Z" fill="#DBDBDB"/>
<path d="M99.9772 68.4997L99.5897 68.4207L99.7286 68.0334L100.116 68.1124L99.9772 68.4997Z" fill="#C7C7C7"/>
<path d="M92.889 84.2541L92.0409 84.0811L95.0093 75.8165L95.8537 75.9895L92.889 84.2541Z" fill="#EBEBEB"/>
<path d="M88.8348 71.6472C91.1159 72.0495 93.4994 72.5383 95.7403 73.061C93.4592 72.6549 91.0721 72.1699 88.8348 71.6472Z" fill="#263238"/>
<path d="M88.6703 72.1055C89.968 72.3085 91.2548 72.5717 92.5087 72.8913C91.2109 72.692 89.9242 72.4288 88.6703 72.1055Z" fill="#263238"/>
<path d="M98.599 73.6467C99.5068 73.7838 100.407 73.9683 101.297 74.1995C100.389 74.0616 99.4888 73.8771 98.599 73.6467Z" fill="url(#paint22_linear_191_15239)"/>
<path d="M87.2045 79.2988L86.9303 79.2424L88.5424 74.7454L88.8202 74.8018L87.2045 79.2988Z" fill="url(#paint23_linear_191_15239)"/>
<path d="M86.0275 82.5809L85.7496 82.5208L86.7878 79.6293L87.0657 79.6894L86.0275 82.5809Z" fill="#455A64"/>
<path d="M89.2042 77.7156L88.9301 77.6555L89.8769 75.0197L90.1547 75.0761L89.2042 77.7156Z" fill="url(#paint24_linear_191_15239)"/>
<path d="M87.3617 82.8516L87.0839 82.7952L88.791 78.0463L89.0652 78.1027L87.3617 82.8516Z" fill="#455A64"/>
<path d="M91.0502 76.5609L90.7723 76.5045L91.211 75.29L91.4852 75.3464L91.0502 76.5609Z" fill="url(#paint25_linear_191_15239)"/>
<path d="M88.6962 83.1259L88.4183 83.0695L90.6336 76.8917L90.9115 76.9519L88.6962 83.1259Z" fill="#455A64"/>
<path d="M91.6205 78.9643L91.3427 78.9079L92.5417 75.5652L92.8195 75.6216L91.6205 78.9643Z" fill="url(#paint26_linear_191_15239)"/>
<path d="M90.0267 83.397L89.7526 83.3406L91.2038 79.2986L91.4817 79.355L90.0267 83.397Z" fill="#455A64"/>
<path d="M93.2071 78.5313L92.9293 78.4749L93.8761 75.8353L94.1539 75.8955L93.2071 78.5313Z" fill="url(#paint27_linear_191_15239)"/>
<path d="M91.361 83.6714L91.0831 83.615L92.7903 78.8661L93.0645 78.9225L91.361 83.6714Z" fill="#455A64"/>
<path d="M93.4191 81.9234L93.1449 81.867L95.2103 76.1104L95.4845 76.1668L93.4191 81.9234Z" fill="url(#paint28_linear_191_15239)"/>
<path d="M92.6952 83.9464L92.4174 83.89L93.0023 82.2544L93.2801 82.3108L92.6952 83.9464Z" fill="#455A64"/>
<path d="M95.9415 78.8852L95.6637 78.8288L96.541 76.3848L96.8189 76.4412L95.9415 78.8852Z" fill="url(#paint29_linear_191_15239)"/>
<path d="M94.026 84.2171L93.7518 84.1607L95.5248 79.2162L95.8026 79.2726L94.026 84.2171Z" fill="#455A64"/>
<path d="M95.6747 83.6111L95.3969 83.5547L97.8754 76.655L98.1532 76.7152L95.6747 83.6111Z" fill="url(#paint30_linear_191_15239)"/>
<path d="M95.3602 84.4905L95.0824 84.4341L95.2579 83.9453L95.5357 84.0017L95.3602 84.4905Z" fill="#455A64"/>
<path d="M98.9537 78.464L98.6796 78.4076L99.2096 76.9299L99.4838 76.9863L98.9537 78.464Z" fill="url(#paint31_linear_191_15239)"/>
<path d="M96.6945 84.7657L96.4166 84.7055L98.5369 78.7947L98.8147 78.8548L96.6945 84.7657Z" fill="#455A64"/>
<path d="M89.8075 73.4629C90.6178 73.5647 91.4194 73.7293 92.2056 73.9555C91.395 73.8556 90.5932 73.6909 89.8075 73.4629Z" fill="#DBDBDB"/>
<path d="M89.7123 73.7302C90.5217 73.8298 91.3223 73.9945 92.1067 74.2228C91.2977 74.1207 90.4973 73.956 89.7123 73.7302Z" fill="#DBDBDB"/>
<path d="M89.3285 73.7155L88.941 73.6366L89.08 73.2531L89.4674 73.332L89.3285 73.7155Z" fill="url(#paint32_linear_191_15239)"/>
<path d="M93.8065 74.2827C94.6171 74.3826 95.4189 74.5473 96.2046 74.7753C95.394 74.6754 94.5922 74.5107 93.8065 74.2827Z" fill="#DBDBDB"/>
<path d="M93.7115 74.5499C94.5206 74.6501 95.3211 74.8135 96.106 75.0387C95.297 74.9379 94.4966 74.7745 93.7115 74.5499Z" fill="#DBDBDB"/>
<path d="M93.3278 74.5349L92.9403 74.4559L93.0792 74.0724L93.4667 74.1514L93.3278 74.5349Z" fill="#455A64"/>
<path d="M108.272 90.4474C109.003 88.8268 111.533 82.4497 111.675 79.75C111.818 77.0503 111.035 66.7515 108.385 65.2023C105.033 63.2546 104.309 71.256 104.305 74.7679C104.302 78.2798 101.253 82.006 101.253 82.006L106.144 86.4542L108.272 90.4474Z" fill="#AD6359"/>
<path d="M104.737 69.2664C104.778 70.4346 104.761 71.6043 104.686 72.7708C104.691 73.8805 104.615 74.9891 104.459 76.0871C104.223 77.1514 103.816 78.1679 103.256 79.0952C102.989 79.5577 102.701 80.0014 102.394 80.4375C102.086 80.8737 101.681 81.3625 101.359 81.8438C101.326 81.8927 101.242 81.8438 101.275 81.7912C101.831 80.8833 102.328 79.9387 102.763 78.9636C103.233 77.9625 103.58 76.9054 103.797 75.8164C104.221 73.6506 104.185 71.4096 104.591 69.2401C104.598 69.1536 104.737 69.1799 104.737 69.2664Z" fill="#263238"/>
<path d="M104.448 76.0842C104.412 73.6251 103.786 63.4091 108.074 64.9206C110.465 66.3494 111.116 71.6887 111.394 74.3207C110.933 71.8617 110.107 66.5299 107.925 65.2289C104.229 63.9919 104.671 73.8319 104.448 76.0692V76.0842Z" fill="#263238"/>
<path d="M76.8591 91.0753L98.0616 109.056C98.0616 109.056 86.7767 126.785 79.1255 131.789C75.5138 134.147 68.1879 134.158 65.746 133.218C63.4649 132.346 50.6629 119.208 41.0852 95.5573C33.6607 77.1631 45.5158 81.6751 49.9574 86.4391C54.7463 91.5716 67.3801 104.736 68.0746 104.521C68.7692 104.307 76.8591 91.0753 76.8591 91.0753Z" fill="url(#paint33_linear_191_15239)"/>
<path d="M74.1028 97.5727C77.3015 100.137 80.4197 102.799 83.5197 105.469C85.0404 106.781 90.8821 112.237 92.5673 113.775C92.6331 113.839 92.476 114.015 92.4028 113.959C90.7469 112.647 84.5689 107.3 83.0701 105.961C80.0176 103.232 76.9835 100.483 74.0297 97.6404C73.9785 97.6028 74.048 97.5276 74.1028 97.5727Z" fill="#263238"/>
<path opacity="0.1" d="M76.9541 132.812C73.1267 134.124 67.7749 133.996 65.7606 133.218C63.4795 132.342 50.6776 119.204 41.0962 95.5611C37.0165 85.4879 38.7383 82.2881 41.8639 82.2505C46.3786 88.7028 65.1574 115.696 76.9541 132.812Z" fill="black"/>
<path d="M62.9897 155.267H6.98206C9.72377 141.621 21.6703 92.4737 31.4125 85.2055C37.4041 80.731 45.3039 83.833 46.6637 85.7431C52.1874 93.5866 61.3849 142.716 62.9897 155.267Z" fill="#EBEBEB"/>
<path d="M47.5851 87.1987C47.5851 87.1724 47.5413 87.1799 47.5413 87.1987C47.8154 89.5976 48.2724 95.1663 44.0099 95.0948C42.2955 95.0685 40.6943 94.2225 39.3527 93.3765C38.0024 92.5165 36.7473 91.5079 35.6093 90.3684C34.3221 89.1588 33.1394 87.8366 32.0744 86.4166C32.0305 86.3565 31.9281 86.4166 31.972 86.4881C33.0431 87.8943 33.9497 89.3683 35.178 90.6768C36.37 91.9778 37.7305 93.1039 39.2211 94.0232C40.6541 94.888 42.3539 95.7265 44.1671 95.6739C44.9204 95.687 45.6575 95.4481 46.2674 94.993C46.8772 94.538 47.3269 93.8915 47.5486 93.1509C48.1298 91.2558 48.0019 89.0825 47.5851 87.1987Z" fill="#263238"/>
<path d="M33.2001 83.2883C33.2001 83.2883 36.9142 103.675 37.6161 111.244C38.318 118.813 36.0844 155.267 36.0844 155.267H6.03528C6.03528 155.267 15.1378 110.44 24.0684 93.0758C29.0656 83.3861 33.2001 83.2883 33.2001 83.2883Z" fill="url(#paint34_linear_191_15239)"/>
<path d="M46.0094 84.6832C46.0094 84.6832 52.0083 107.744 52.4031 110.195C52.7979 112.647 54.7902 155.466 54.7902 155.466L64.6055 155.395C64.6055 155.395 54.2894 90.8497 46.0094 84.6832Z" fill="url(#paint35_linear_191_15239)"/>
<path d="M23.8016 91.5339C11.1531 109.048 -2.97581 144.092 1.37803 150.142C6.23268 156.91 23.8235 132.357 23.5713 131.112C23.3812 130.168 27.9178 109.473 31.4454 94.384C34.9731 79.2949 26.9271 87.2023 23.8016 91.5339Z" fill="#AD6359"/>
<path d="M23.7139 131.116C24.0538 128.924 30.3415 101.588 32.0304 92.9852C33.7193 84.3822 30.7692 82.2277 23.765 90.8946C16.7609 99.5615 2.60269 127.172 0.409318 141.084C-1.70728 154.462 4.70832 153.533 12.3668 146.397C18.6362 140.542 23.7139 131.116 23.7139 131.116Z" fill="url(#paint36_linear_191_15239)"/>
<path d="M23.7137 131.116C25.5342 120.505 27.8495 110.002 30.6594 99.6066C28.8438 110.215 26.5286 120.718 23.7137 131.116Z" fill="#263238"/>
<path d="M30.9996 101.16C30.9114 102.593 30.3754 103.958 29.4716 105.052C29.9029 103.732 30.4513 102.439 30.9996 101.16Z" fill="#263238"/>
<path d="M1.37817 150.142C5.36645 154.549 14.5384 154.169 37.6967 155.451C40.9027 155.628 48.2029 132.695 44.7886 132.327C40.4896 131.861 23.7067 131.011 22.4893 131.105C12.0562 131.924 -1.32698 147.156 1.37817 150.142Z" fill="#AD6359"/>
<path d="M40.7381 133.147C40.7381 133.147 49.263 130.315 54.1908 130.251C60.7892 130.169 66.5175 132.884 68.8498 134.181C73.7228 136.873 83.6916 146.848 81.3995 150.304C79.3268 153.428 69.6358 142.705 69.6358 142.705C69.6358 142.705 81.2716 151.962 78.0985 155.256C74.9255 158.55 64.368 145.442 64.368 145.442C64.368 145.442 76.1135 155.218 72.3227 158.095C69.4567 160.257 59.2392 148.939 59.2392 148.939C59.2392 148.939 69.2775 157.425 66.4261 159.779C63.2714 162.385 53.2074 152.545 53.2074 152.545C44.9713 157.279 39.1662 156.064 35.1378 154.699C34.1617 154.369 40.7381 133.147 40.7381 133.147Z" fill="#AD6359"/>
<path d="M65.8117 139.238C67.2155 140.275 68.6448 141.313 69.9572 142.475C71.2696 143.637 72.5381 144.848 73.7371 146.13C76.6799 149.273 78.0434 151.713 77.9447 151.574C75.5722 148.228 70.9442 143.994 69.6319 142.832C68.3195 141.67 67.0729 140.448 65.7679 139.286C65.735 139.256 65.7788 139.204 65.8117 139.238Z" fill="#263238"/>
<path d="M61.6482 144.028C63.3846 145.43 65.1613 146.758 66.8392 148.243C68.5171 149.728 69.9684 151.251 71.5366 152.86C71.6573 152.98 71.5367 153.007 71.427 152.89C69.8002 151.364 68.1808 150.085 66.5358 148.581C64.8907 147.077 63.3042 145.505 61.6117 144.069C61.6007 144.047 61.6226 144.005 61.6482 144.028Z" fill="#263238"/>
<path d="M57.3565 147.476C60.1202 149.48 62.5183 152.007 64.814 154.545C64.931 154.669 64.7921 154.688 64.6678 154.568C62.2331 152.169 60.3359 150.27 57.2871 147.574C57.2396 147.536 57.2981 147.439 57.3565 147.476Z" fill="#263238"/>
<path d="M42.1272 131.631L25.4723 157.113C25.4723 157.113 4.85461 155.289 1.19168 150.446C-1.22102 147.258 11.8953 131.033 23.469 131.029L42.1272 131.631Z" fill="url(#paint37_linear_191_15239)"/>
<path d="M10.422 136.671C12.0634 135.039 16.7828 131.113 23.4725 131.008C23.531 131.008 23.5456 131.106 23.4725 131.113C18.4972 131.685 12.173 135.317 10.4622 136.753C10.4403 136.784 10.3891 136.712 10.422 136.671Z" fill="#263238"/>
<path d="M19.5611 154.109C21.2463 151.206 23.0814 148.398 24.9238 145.596C26.7663 142.795 28.6051 139.983 30.5169 137.226C31.6136 135.67 32.6664 134.106 33.807 132.586C33.8362 132.545 33.9093 132.586 33.8838 132.632C32.2022 135.531 30.3744 138.351 28.5539 141.159C26.7334 143.968 24.8727 146.773 22.9937 149.556C21.9336 151.124 20.8405 152.677 19.7036 154.196C19.6415 154.271 19.5026 154.192 19.5611 154.109Z" fill="#263238"/>
<path d="M42.1235 131.334C40.8588 131.135 39.5825 131.025 38.3034 131.003C37.0239 130.943 35.7444 130.905 34.465 130.879C31.906 130.83 26.5286 130.424 21.9299 131.101C21.8787 131.101 22.1748 131.326 22.226 131.315C24.3974 130.875 40.526 131.815 41.8274 131.725C41.7856 131.818 41.7514 131.915 41.725 132.014C41.725 132.082 41.7835 132.157 41.8457 132.101C41.9919 131.966 42.0869 131.811 42.2112 131.665C42.237 131.641 42.2558 131.61 42.2656 131.576C42.2754 131.542 42.2758 131.506 42.2667 131.471C42.2576 131.437 42.2394 131.406 42.2141 131.382C42.1888 131.357 42.1574 131.341 42.1235 131.334Z" fill="#263238"/>
<path d="M6.40076 153.492C8.44059 153.928 11.2993 154.782 13.3464 155.331C10.9393 155.173 8.58288 154.549 6.40076 153.492Z" fill="#263238"/>
<path d="M43.6113 93.1092C40.5771 93.4852 34.8013 89.1987 33.1636 84.6114C33.0502 84.2956 33.9312 81.2988 34.8342 77.6027C35.3715 75.3466 35.9309 72.8462 36.2599 70.5187C36.3293 70.0412 49.9465 76.2566 49.9465 76.2566C49.9465 76.2566 47.8372 80.9266 47.2706 84.9912C47.2274 85.3125 47.2127 85.6372 47.2267 85.9613C47.2267 86.0064 47.2267 86.059 47.2267 86.123C47.2486 87.9804 46.8575 92.6993 43.6113 93.1092Z" fill="#AD6359"/>
<path d="M47.2303 85.9616C47.2303 86.0068 47.2303 86.0669 47.2303 86.1233C46.74 86.1117 46.2513 86.0627 45.7681 85.9767C37.4369 84.4952 36.8009 73.3955 36.7716 70.6018C39.2428 71.3538 49.9574 76.2419 49.9574 76.2419C49.9574 76.2419 47.8481 80.9157 47.2778 84.9803C47.2343 85.3054 47.2184 85.6337 47.2303 85.9616Z" fill="#263238"/>
<path d="M36.2672 51.9709C34.1286 56.9868 35.0827 72.3392 38.296 76.1218C42.9533 81.6115 51.438 83.108 56.1866 77.1483C60.7927 71.3691 59.2061 51.3844 55.5396 47.8537C50.1329 42.661 39.4256 44.5711 36.2672 51.9709Z" fill="#AD6359"/>
<path d="M49.3983 63.4242C49.3983 63.3866 49.3215 63.4769 49.3251 63.522C49.3909 64.556 49.2996 65.7517 48.4003 66.1277C48.371 66.1277 48.3783 66.1916 48.4003 66.1841C49.5152 65.9848 49.6249 64.3793 49.3983 63.4242Z" fill="#263238"/>
<path d="M48.4625 62.3788C46.8394 62.3111 46.8284 65.6538 48.3309 65.7178C49.8333 65.7817 49.8224 62.4352 48.4625 62.3788Z" fill="#263238"/>
<path d="M55.2288 63.6271C55.2288 63.5857 55.3056 63.6759 55.3056 63.7173C55.269 64.7513 55.397 65.947 56.3072 66.2929C56.3365 66.2929 56.3328 66.3569 56.3072 66.3493C55.1886 66.1764 55.0204 64.5934 55.2288 63.6271Z" fill="#263238"/>
<path d="M56.1173 62.5406C57.7367 62.4203 57.8537 65.763 56.3513 65.8721C54.8488 65.9811 54.772 62.6384 56.1173 62.5406Z" fill="#263238"/>
<path d="M47.1865 60.8409C47.6122 60.7157 48.0308 60.5664 48.4404 60.3934C48.9193 60.2129 49.3214 60.1227 49.6395 59.679C49.7158 59.544 49.7469 59.3869 49.7277 59.2319C49.7085 59.0769 49.6403 58.9328 49.5334 58.8217C49.0472 58.378 48.4039 58.4457 47.8153 58.6337C47.2096 58.8011 46.6875 59.1972 46.3531 59.7429C46.2807 59.8726 46.2475 60.0215 46.2578 60.1706C46.2681 60.3198 46.3214 60.4624 46.4108 60.5802C46.5003 60.698 46.6219 60.7858 46.76 60.8322C46.8982 60.8786 47.0467 60.8817 47.1865 60.8409Z" fill="#263238"/>
<path d="M57.3968 60.8598C56.9605 60.7685 56.5297 60.6517 56.1063 60.5101C55.6092 60.371 55.2034 60.3108 54.8525 59.8972C54.7661 59.7682 54.7236 59.6135 54.7315 59.4571C54.7395 59.3007 54.7974 59.1514 54.8963 59.0324C55.3496 58.5511 55.993 58.5661 56.5962 58.709C57.2063 58.8343 57.7495 59.188 58.1206 59.7017C58.199 59.8234 58.2412 59.9659 58.2422 60.1118C58.2432 60.2578 58.2028 60.4009 58.1261 60.5237C58.0493 60.6465 57.9395 60.7436 57.81 60.8033C57.6805 60.863 57.5369 60.8826 57.3968 60.8598Z" fill="#263238"/>
<path d="M48.4405 73.0268C48.6817 73.2712 48.923 73.6059 49.2886 73.636C49.6679 73.6339 50.0422 73.5467 50.3853 73.3803C50.4182 73.3803 50.4511 73.4028 50.4291 73.4329C50.2846 73.6361 50.0895 73.7954 49.8643 73.894C49.6391 73.9926 49.3922 74.0269 49.1497 73.9932C48.9456 73.9345 48.7624 73.8163 48.6223 73.6528C48.4822 73.4893 48.3911 73.2876 48.36 73.072C48.3198 73.0268 48.3966 73.0005 48.4405 73.0268Z" fill="#263238"/>
<path d="M49.5004 69.9403C49.7552 70.351 50.0896 70.7032 50.4827 70.975C50.8759 71.2467 51.3193 71.4321 51.7852 71.5195C52.191 71.5999 52.6058 71.6201 53.0171 71.5797C53.0971 71.5806 53.1768 71.5718 53.2548 71.5534C53.3285 71.5471 53.4018 71.5358 53.4741 71.5195C53.5278 71.5092 53.5767 71.4813 53.6136 71.44C53.6505 71.3986 53.6734 71.3461 53.6788 71.2902C53.6806 71.2551 53.6806 71.22 53.6788 71.1849V71.0834C53.7007 70.2862 53.6313 69.0755 53.6313 69.0755C53.9128 69.2222 55.3567 69.8952 55.3348 69.4778C55.1484 66.0261 54.94 62.1908 54.0444 58.7955C54.041 58.7706 54.0281 58.7481 54.0086 58.7329C53.989 58.7177 53.9644 58.7112 53.9402 58.7147C53.9159 58.7182 53.8941 58.7314 53.8793 58.7515C53.8646 58.7716 53.8582 58.7969 53.8616 58.8218C53.9128 62.1457 54.5342 65.4395 54.6366 68.7747C54.1234 68.5287 53.5797 68.3566 53.0208 68.2633C52.9111 68.2972 53.1963 70.6058 53.1597 70.9631C53.1615 70.9755 53.1615 70.9882 53.1597 71.0007C51.8547 71.1699 50.875 70.76 49.6138 69.8538C49.537 69.7862 49.442 69.8576 49.5004 69.9403Z" fill="#263238"/>
<path d="M52.5638 71.1737C52.1359 71.7418 51.5732 72.1872 50.9297 72.4671C50.5741 72.6088 50.1842 72.6325 49.8148 72.5348C49.0105 72.313 48.9959 71.5534 49.1458 70.9067C49.2293 70.5622 49.352 70.229 49.5114 69.9141C50.3722 70.658 51.4418 71.0994 52.5638 71.1737Z" fill="#263238"/>
<path d="M50.9297 72.4668C50.5741 72.6085 50.1842 72.6321 49.8148 72.5345C49.0105 72.3126 48.9959 71.5531 49.1458 70.9064C50.0085 71.0004 50.8566 71.6057 50.9297 72.4668Z" fill="#FF9BBC"/>
<path d="M58.6031 53.6445C58.1645 52.3473 57.5796 52.0841 57.5796 52.0841C57.5796 52.0841 57.5796 50.5612 56.2562 48.6098C54.8598 46.5681 53.3317 46.3011 53.3317 46.3011C53.3317 46.3011 52.0669 44.8272 49.1717 44.2669C48.5063 44.1391 46.4921 44.1052 45.8816 44.3647C45.1505 44.6617 44.4194 44.2707 43.6553 44.2556C42.9603 44.2423 42.2703 44.3794 41.6301 44.658C41.0881 44.8893 40.5867 45.2107 40.1459 45.6093C39.8865 45.8539 39.6423 46.1151 39.4148 46.3913C39.0787 46.7834 38.6288 47.0537 38.1317 47.1622C37.5557 47.3462 37.0242 47.6538 36.5724 48.0647C36.1206 48.4757 35.7587 48.9806 35.5106 49.546C35.192 50.2539 35.0202 51.0222 35.0062 51.8021C34.9696 52.7759 33.9789 53.2309 33.6061 54.0581C33.3238 54.7162 33.2363 55.4452 33.3547 56.1541C33.473 56.863 33.7919 57.5203 34.2714 58.0438C33.0358 58.9537 32.5752 60.9879 33.2368 62.5934C33.7486 63.8343 34.8197 64.387 35.9018 64.6916C36.1013 64.7473 36.3059 64.7813 36.5123 64.7931C38.7276 65.1691 40.899 62.6649 40.113 59.9576V59.9351C41.3282 59.5445 42.3918 58.7679 43.1509 57.7166C43.9916 56.5886 44.2658 55.0846 44.2768 53.5806C47.0587 55.3854 50.9154 53.6069 51.4089 49.9333C52.2022 50.8282 54.476 52.3398 55.5251 52.0014C55.9784 55.3027 58.084 56.5134 58.6397 56.5134C58.7128 56.536 59.1003 55.126 58.6031 53.6445ZM38.7276 63.8343C39.371 63.1462 39.8571 62.1723 40.0875 60.108C40.2305 60.7979 40.1784 61.5154 39.9374 62.1757C39.6964 62.8361 39.2766 63.4116 38.7276 63.8343ZM47.501 53.7648C48.352 53.4916 49.1263 53.0112 49.7582 52.3645C50.3902 51.7177 50.8611 50.9237 51.1311 50.0499C50.6339 52.2984 49.2155 53.4753 47.512 53.7648H47.501Z" fill="#263238"/>
<path d="M48.075 68.2068C47.3186 68.1131 46.603 67.8029 46.0096 67.3114C45.4163 66.8199 44.969 66.167 44.7187 65.4269C44.4684 64.6868 44.4251 63.8893 44.5938 63.1251C44.7625 62.361 45.1364 61.6609 45.6729 61.1046C46.2095 60.5483 46.887 60.1581 47.6286 59.9784C48.3701 59.7988 49.1458 59.8368 49.8673 60.0883C50.5888 60.3398 51.2272 60.7946 51.7098 61.401C52.1924 62.0073 52.4998 62.7408 52.597 63.518C52.676 64.1498 52.6137 64.7918 52.415 65.395C52.2162 65.9983 51.8862 66.5469 51.4501 66.9992C51.0139 67.4514 50.4832 67.7952 49.8983 68.0045C49.3134 68.2138 48.6898 68.283 48.075 68.2068ZM48.9925 60.4573C48.7013 60.4179 48.4064 60.4179 48.1152 60.4573C47.2265 60.5721 46.4139 61.031 45.8426 61.7404C45.2713 62.4499 44.9844 63.3567 45.0404 64.2761C45.0963 65.1955 45.4908 66.0584 46.1435 66.6891C46.7963 67.3199 47.6582 67.671 48.5538 67.671C49.4495 67.671 50.3114 67.3199 50.9642 66.6891C51.6169 66.0584 52.0114 65.1955 52.0673 64.2761C52.1232 63.3567 51.8364 62.4499 51.2651 61.7404C50.6938 61.031 49.8811 60.5721 48.9925 60.4573Z" fill="url(#paint38_linear_191_15239)"/>
<path d="M57.3968 68.1993C55.8505 68.0038 54.6441 66.2027 54.6514 64.0181C54.6382 62.9748 54.9424 61.9533 55.5214 61.0965C55.7475 60.7129 56.066 60.3956 56.446 60.1754C56.8261 59.9553 57.2549 59.8396 57.691 59.8396C58.1272 59.8396 58.5561 59.9553 58.9361 60.1754C59.3161 60.3956 59.6346 60.7129 59.8607 61.0965C60.4339 61.9576 60.7293 62.9823 60.7051 64.0256C60.7051 66.3305 59.3306 68.203 57.6636 68.1955C57.5796 68.2143 57.4845 68.2068 57.3968 68.1993ZM57.9013 60.4197C57.8318 60.416 57.7623 60.416 57.6929 60.4197C57.3458 60.4344 57.0072 60.5346 56.7057 60.7119C56.4041 60.8892 56.1484 61.1385 55.9601 61.4387C55.4485 62.2004 55.1814 63.1075 55.1961 64.0331C55.1961 66.0297 56.2928 67.6616 57.6636 67.6654C59.0345 67.6691 60.1531 66.0523 60.1641 64.0557C60.1902 63.1312 59.9346 62.2214 59.433 61.4537C59.2629 61.1801 59.0385 60.9466 58.7745 60.7684C58.5106 60.5902 58.213 60.4714 57.9013 60.4197Z" fill="url(#paint39_linear_191_15239)"/>
<path d="M52.4616 64.0034L52.0961 63.5748C52.7175 63.0446 54.1469 62.3339 55.1339 63.4319L54.7354 63.8079C53.8544 62.8265 52.5055 63.9545 52.4616 64.0034Z" fill="url(#paint40_linear_191_15239)"/>
<path d="M34.3225 64.9994L33.8436 64.7399C33.9606 64.5106 35.0244 62.4839 36.2381 62.2809C37.3749 62.1004 44.646 62.8336 44.9713 62.8637L44.9165 63.4202C42.8291 63.2096 37.2031 62.6907 36.3258 62.8336C35.5216 62.9614 34.6077 64.4429 34.3225 64.9994Z" fill="url(#paint41_linear_191_15239)"/>
<path d="M38.5446 64.8449C38.5446 64.8449 35.6933 59.6409 33.4268 60.6411C31.1603 61.6413 32.9844 68.9471 35.4154 70.1653C35.7166 70.3438 36.0497 70.4577 36.3948 70.5002C36.7399 70.5428 37.0898 70.5131 37.4234 70.413C37.757 70.3129 38.0676 70.1444 38.3363 69.9177C38.605 69.691 38.8263 69.4107 38.987 69.0937L38.5446 64.8449Z" fill="#AD6359"/>
<path d="M34.0044 62.7249C33.9968 62.7249 33.9893 62.7273 33.9831 62.732C33.9769 62.7366 33.9722 62.7431 33.9698 62.7506C33.9673 62.758 33.9673 62.7661 33.9696 62.7737C33.9718 62.7812 33.9764 62.7878 33.9825 62.7925C35.6824 63.7062 36.4537 65.4847 36.9399 67.3046C36.4793 66.5789 35.7957 66.1352 34.8599 66.6917C34.8087 66.7218 34.8599 66.8008 34.8964 66.7932C35.2184 66.7244 35.5532 66.7598 35.855 66.8944C36.1567 67.029 36.4105 67.2564 36.5817 67.5452C36.8665 68.0279 37.0994 68.5411 37.2762 69.0756C37.342 69.2448 37.6418 69.1884 37.5943 68.9929V68.9515C37.8392 66.6353 36.4025 63.1986 34.0044 62.7249Z" fill="#263238"/>
<defs>
<linearGradient id="paint0_linear_191_15239" x1="89.0909" y1="22.4206" x2="146.725" y2="22.4206" gradientUnits="userSpaceOnUse">
<stop stop-color="#076B75"/>
<stop offset="1" stop-color="#13BECF"/>
</linearGradient>
<linearGradient id="paint1_linear_191_15239" x1="93.0901" y1="64.1081" x2="146.309" y2="64.1081" gradientUnits="userSpaceOnUse">
<stop stop-color="#076B75"/>
<stop offset="1" stop-color="#13BECF"/>
</linearGradient>
<linearGradient id="paint2_linear_191_15239" x1="93.0901" y1="64.1081" x2="146.309" y2="64.1081" gradientUnits="userSpaceOnUse">
<stop stop-color="#076B75"/>
<stop offset="1" stop-color="#13BECF"/>
</linearGradient>
<linearGradient id="paint3_linear_191_15239" x1="93.0901" y1="58.8023" x2="146.301" y2="58.8023" gradientUnits="userSpaceOnUse">
<stop stop-color="#076B75"/>
<stop offset="1" stop-color="#13BECF"/>
</linearGradient>
<linearGradient id="paint4_linear_191_15239" x1="112.143" y1="64.1118" x2="121.582" y2="64.1118" gradientUnits="userSpaceOnUse">
<stop stop-color="#076B75"/>
<stop offset="1" stop-color="#13BECF"/>
</linearGradient>
<linearGradient id="paint5_linear_191_15239" x1="115.941" y1="51.4104" x2="117.652" y2="51.4104" gradientUnits="userSpaceOnUse">
<stop stop-color="#076B75"/>
<stop offset="1" stop-color="#13BECF"/>
</linearGradient>
<linearGradient id="paint6_linear_191_15239" x1="114.066" y1="46.6989" x2="119.491" y2="46.6989" gradientUnits="userSpaceOnUse">
<stop stop-color="#076B75"/>
<stop offset="1" stop-color="#13BECF"/>
</linearGradient>
<linearGradient id="paint7_linear_191_15239" x1="116.062" y1="48.7843" x2="117.491" y2="48.7843" gradientUnits="userSpaceOnUse">
<stop stop-color="#076B75"/>
<stop offset="1" stop-color="#13BECF"/>
</linearGradient>
<linearGradient id="paint8_linear_191_15239" x1="135.971" y1="37.2216" x2="146.298" y2="37.2216" gradientUnits="userSpaceOnUse">
<stop stop-color="#076B75"/>
<stop offset="1" stop-color="#13BECF"/>
</linearGradient>
<linearGradient id="paint9_linear_191_15239" x1="134" y1="85.0594" x2="146.298" y2="85.0594" gradientUnits="userSpaceOnUse">
<stop stop-color="#076B75"/>
<stop offset="1" stop-color="#13BECF"/>
</linearGradient>
<linearGradient id="paint10_linear_191_15239" x1="90.9661" y1="93.3797" x2="98.2042" y2="93.3797" gradientUnits="userSpaceOnUse">
<stop stop-color="#076B75"/>
<stop offset="1" stop-color="#13BECF"/>
</linearGradient>
<linearGradient id="paint11_linear_191_15239" x1="141.015" y1="91.5185" x2="144.155" y2="91.5185" gradientUnits="userSpaceOnUse">
<stop stop-color="#076B75"/>
<stop offset="1" stop-color="#13BECF"/>
</linearGradient>
<linearGradient id="paint12_linear_191_15239" x1="141.015" y1="105.001" x2="144.634" y2="105.001" gradientUnits="userSpaceOnUse">
<stop stop-color="#076B75"/>
<stop offset="1" stop-color="#13BECF"/>
</linearGradient>
<linearGradient id="paint13_linear_191_15239" x1="90.9661" y1="119.798" x2="98.2042" y2="119.798" gradientUnits="userSpaceOnUse">
<stop stop-color="#076B75"/>
<stop offset="1" stop-color="#13BECF"/>
</linearGradient>
<linearGradient id="paint14_linear_191_15239" x1="141.015" y1="119.674" x2="144.634" y2="119.674" gradientUnits="userSpaceOnUse">
<stop stop-color="#076B75"/>
<stop offset="1" stop-color="#13BECF"/>
</linearGradient>
<linearGradient id="paint15_linear_191_15239" x1="141.51" y1="132.037" x2="152.46" y2="132.037" gradientUnits="userSpaceOnUse">
<stop stop-color="#076B75"/>
<stop offset="1" stop-color="#13BECF"/>
</linearGradient>
<linearGradient id="paint16_linear_191_15239" x1="140.652" y1="125.415" x2="148.128" y2="125.415" gradientUnits="userSpaceOnUse">
<stop stop-color="#076B75"/>
<stop offset="1" stop-color="#13BECF"/>
</linearGradient>
<linearGradient id="paint17_linear_191_15239" x1="132.202" y1="126.434" x2="139.668" y2="126.434" gradientUnits="userSpaceOnUse">
<stop stop-color="#076B75"/>
<stop offset="1" stop-color="#13BECF"/>
</linearGradient>
<linearGradient id="paint18_linear_191_15239" x1="128.928" y1="132.568" x2="139.663" y2="132.568" gradientUnits="userSpaceOnUse">
<stop stop-color="#076B75"/>
<stop offset="1" stop-color="#13BECF"/>
</linearGradient>
<linearGradient id="paint19_linear_191_15239" x1="59.0199" y1="22.4219" x2="73.3024" y2="22.4219" gradientUnits="userSpaceOnUse">
<stop stop-color="#076B75"/>
<stop offset="1" stop-color="#13BECF"/>
</linearGradient>
<linearGradient id="paint20_linear_191_15239" x1="91.0319" y1="67.5992" x2="97.0894" y2="67.5992" gradientUnits="userSpaceOnUse">
<stop stop-color="#076B75"/>
<stop offset="1" stop-color="#13BECF"/>
</linearGradient>
<linearGradient id="paint21_linear_191_15239" x1="100.679" y1="65.2345" x2="101.202" y2="65.2345" gradientUnits="userSpaceOnUse">
<stop stop-color="#076B75"/>
<stop offset="1" stop-color="#13BECF"/>
</linearGradient>
<linearGradient id="paint22_linear_191_15239" x1="98.599" y1="73.9231" x2="101.297" y2="73.9231" gradientUnits="userSpaceOnUse">
<stop stop-color="#076B75"/>
<stop offset="1" stop-color="#13BECF"/>
</linearGradient>
<linearGradient id="paint23_linear_191_15239" x1="86.9303" y1="77.0221" x2="88.8202" y2="77.0221" gradientUnits="userSpaceOnUse">
<stop stop-color="#076B75"/>
<stop offset="1" stop-color="#13BECF"/>
</linearGradient>
<linearGradient id="paint24_linear_191_15239" x1="88.9301" y1="76.3676" x2="90.1547" y2="76.3676" gradientUnits="userSpaceOnUse">
<stop stop-color="#076B75"/>
<stop offset="1" stop-color="#13BECF"/>
</linearGradient>
<linearGradient id="paint25_linear_191_15239" x1="90.7723" y1="75.9255" x2="91.4852" y2="75.9255" gradientUnits="userSpaceOnUse">
<stop stop-color="#076B75"/>
<stop offset="1" stop-color="#13BECF"/>
</linearGradient>
<linearGradient id="paint26_linear_191_15239" x1="91.3427" y1="77.2647" x2="92.8195" y2="77.2647" gradientUnits="userSpaceOnUse">
<stop stop-color="#076B75"/>
<stop offset="1" stop-color="#13BECF"/>
</linearGradient>
<linearGradient id="paint27_linear_191_15239" x1="92.9293" y1="77.1833" x2="94.1539" y2="77.1833" gradientUnits="userSpaceOnUse">
<stop stop-color="#076B75"/>
<stop offset="1" stop-color="#13BECF"/>
</linearGradient>
<linearGradient id="paint28_linear_191_15239" x1="93.1449" y1="79.0169" x2="95.4845" y2="79.0169" gradientUnits="userSpaceOnUse">
<stop stop-color="#076B75"/>
<stop offset="1" stop-color="#13BECF"/>
</linearGradient>
<linearGradient id="paint29_linear_191_15239" x1="95.6637" y1="77.635" x2="96.8189" y2="77.635" gradientUnits="userSpaceOnUse">
<stop stop-color="#076B75"/>
<stop offset="1" stop-color="#13BECF"/>
</linearGradient>
<linearGradient id="paint30_linear_191_15239" x1="95.3969" y1="80.1331" x2="98.1532" y2="80.1331" gradientUnits="userSpaceOnUse">
<stop stop-color="#076B75"/>
<stop offset="1" stop-color="#13BECF"/>
</linearGradient>
<linearGradient id="paint31_linear_191_15239" x1="98.6796" y1="77.697" x2="99.4838" y2="77.697" gradientUnits="userSpaceOnUse">
<stop stop-color="#076B75"/>
<stop offset="1" stop-color="#13BECF"/>
</linearGradient>
<linearGradient id="paint32_linear_191_15239" x1="88.941" y1="73.4843" x2="89.4674" y2="73.4843" gradientUnits="userSpaceOnUse">
<stop stop-color="#076B75"/>
<stop offset="1" stop-color="#13BECF"/>
</linearGradient>
<linearGradient id="paint33_linear_191_15239" x1="38.6971" y1="108.013" x2="98.0616" y2="108.013" gradientUnits="userSpaceOnUse">
<stop stop-color="#076B75"/>
<stop offset="1" stop-color="#13BECF"/>
</linearGradient>
<linearGradient id="paint34_linear_191_15239" x1="6.03528" y1="119.278" x2="37.7526" y2="119.278" gradientUnits="userSpaceOnUse">
<stop stop-color="#076B75"/>
<stop offset="1" stop-color="#13BECF"/>
</linearGradient>
<linearGradient id="paint35_linear_191_15239" x1="46.0094" y1="120.075" x2="64.6055" y2="120.075" gradientUnits="userSpaceOnUse">
<stop stop-color="#076B75"/>
<stop offset="1" stop-color="#13BECF"/>
</linearGradient>
<linearGradient id="paint36_linear_191_15239" x1="0.000366211" y1="118.445" x2="32.4951" y2="118.445" gradientUnits="userSpaceOnUse">
<stop stop-color="#076B75"/>
<stop offset="1" stop-color="#13BECF"/>
</linearGradient>
<linearGradient id="paint37_linear_191_15239" x1="0.901978" y1="144.071" x2="42.1272" y2="144.071" gradientUnits="userSpaceOnUse">
<stop stop-color="#076B75"/>
<stop offset="1" stop-color="#13BECF"/>
</linearGradient>
<linearGradient id="paint38_linear_191_15239" x1="44.4928" y1="64.0519" x2="52.6302" y2="64.0519" gradientUnits="userSpaceOnUse">
<stop stop-color="#076B75"/>
<stop offset="1" stop-color="#13BECF"/>
</linearGradient>
<linearGradient id="paint39_linear_191_15239" x1="54.651" y1="64.0235" x2="60.7065" y2="64.0235" gradientUnits="userSpaceOnUse">
<stop stop-color="#076B75"/>
<stop offset="1" stop-color="#13BECF"/>
</linearGradient>
<linearGradient id="paint40_linear_191_15239" x1="52.0961" y1="63.429" x2="55.1339" y2="63.429" gradientUnits="userSpaceOnUse">
<stop stop-color="#076B75"/>
<stop offset="1" stop-color="#13BECF"/>
</linearGradient>
<linearGradient id="paint41_linear_191_15239" x1="33.8436" y1="63.6259" x2="44.9713" y2="63.6259" gradientUnits="userSpaceOnUse">
<stop stop-color="#076B75"/>
<stop offset="1" stop-color="#13BECF"/>
</linearGradient>
</defs>
</svg>
