<svg width="898" height="898" viewBox="0 0 898 898" fill="none" xmlns="http://www.w3.org/2000/svg">
<g clip-path="url(#clip0_259_1973)">
<path d="M557.398 579.871H882.905V393.16H557.398V579.871ZM884.916 581.882H555.387V391.149H884.916V581.882Z" fill="#E1E1E1"/>
<path d="M816.942 499.226H599.482V492.847H816.942V499.226Z" fill="#F0F0F0"/>
<path d="M831.92 523.582H599.484V516.621H831.92V523.582Z" fill="#F0F0F0"/>
<path d="M831.92 547.631H599.484V540.671H831.92V547.631Z" fill="#F0F0F0"/>
<path d="M675.484 474.869H599.484V458.32H675.484V474.869Z" fill="#F0F0F0"/>
<path d="M883.91 422.519H556.392V392.155H883.91V422.519Z" fill="#E1E1E1"/>
<mask id="mask0_259_1973" style="mask-type:luminance" maskUnits="userSpaceOnUse" x="-54" y="-54" width="1006" height="1006">
<path d="M-54 -54H951.5V951.5H-54V-54Z" fill="white"/>
</mask>
<g mask="url(#mask0_259_1973)">
<path d="M858.708 417.98C858.29 417.58 862.511 412.492 868.134 406.612C873.756 400.731 878.655 396.291 879.074 396.691C879.492 397.092 875.271 402.181 869.646 408.06C864.025 413.938 859.126 418.38 858.708 417.98Z" fill="white"/>
<path d="M879.073 417.98C878.655 418.38 873.756 413.938 868.136 408.06C862.509 402.181 858.29 397.092 858.708 396.691C859.126 396.291 864.023 400.731 869.648 406.612C875.271 412.492 879.492 417.58 879.073 417.98Z" fill="white"/>
<path d="M479.372 203.205H151.852V14.4823H479.372V203.205Z" fill="#E7E7E7"/>
<path d="M412.404 121.552H194.946V115.173H412.404V121.552Z" fill="#F0F0F0"/>
<path d="M427.382 145.908H194.946V138.95H427.382V145.908Z" fill="#F0F0F0"/>
<path d="M427.382 169.957H194.946V162.999H427.382V169.957Z" fill="#F0F0F0"/>
<path d="M270.944 97.1968H194.946V80.6483H270.944V97.1968Z" fill="#F0F0F0"/>
<path d="M479.372 44.8444H151.852V14.4822H479.372V44.8444Z" fill="#E1E1E1"/>
<path d="M453.047 40.1635C452.629 39.7634 456.85 34.6735 462.473 28.7954C468.095 22.9152 472.994 18.4749 473.412 18.8751C473.831 19.2733 469.61 24.3631 463.985 30.2433C458.364 36.1214 453.465 40.5637 453.047 40.1635Z" fill="white"/>
<path d="M473.412 40.1635C472.994 40.5637 468.095 36.1214 462.475 30.2433C456.848 24.3631 452.629 19.2733 453.047 18.8751C453.465 18.4749 458.362 22.9152 463.987 28.7954C469.61 34.6735 473.831 39.7634 473.412 40.1635Z" fill="white"/>
<path d="M27.8096 363.059H353.317V176.348H27.8096V363.059ZM355.328 365.07H25.7986V174.337H355.328V365.07Z" fill="#E1E1E1"/>
<path d="M287.354 282.414H69.8939V276.035H287.354V282.414Z" fill="#F0F0F0"/>
<path d="M302.332 306.767H69.8939V299.809H302.332V306.767Z" fill="#F0F0F0"/>
<path d="M302.332 330.817H69.8939V323.859H302.332V330.817Z" fill="#F0F0F0"/>
<path d="M145.894 258.059H69.8939V241.508H145.894V258.059Z" fill="#F0F0F0"/>
<path d="M354.322 205.707H26.804V175.342H354.322V205.707Z" fill="#E1E1E1"/>
<path d="M735.633 754.985H348.909V408.779H735.633V754.985Z" fill="#E7E7E7"/>
<path d="M368.349 614.457H65.4153V299.717H368.349V614.457Z" fill="#F0F0F0"/>
<path d="M368.349 334.01H65.4153V299.717H368.349V334.01Z" fill="#E1E1E1"/>
<path d="M90.4319 316.513C90.4319 320.185 87.5843 323.161 84.0711 323.161C80.5578 323.161 77.7103 320.185 77.7103 316.513C77.7103 312.841 80.5578 309.865 84.0711 309.865C87.5843 309.865 90.4319 312.841 90.4319 316.513Z" fill="white"/>
<path d="M116.23 316.513C116.23 320.185 113.383 323.161 109.87 323.161C106.358 323.161 103.511 320.185 103.511 316.513C103.511 312.841 106.358 309.865 109.87 309.865C113.383 309.865 116.23 312.841 116.23 316.513Z" fill="white"/>
<path d="M142.029 316.513C142.029 320.185 139.181 323.161 135.668 323.161C132.157 323.161 129.309 320.185 129.309 316.513C129.309 312.841 132.157 309.865 135.668 309.865C139.181 309.865 142.029 312.841 142.029 316.513Z" fill="white"/>
<path d="M841.669 468.749H454.945V83.3191H841.669V468.749Z" fill="#F0F0F0"/>
<path d="M841.669 128.466H454.945V83.3191H841.669V128.466Z" fill="#E1E1E1"/>
<path d="M487.88 105.43C487.88 110.264 484.132 114.183 479.506 114.183C474.883 114.183 471.135 110.264 471.135 105.43C471.135 100.595 474.883 96.6777 479.506 96.6777C484.132 96.6777 487.88 100.595 487.88 105.43Z" fill="white"/>
<path d="M519.392 99.5096C522.809 102.928 522.93 108.35 519.66 111.618C516.39 114.888 510.968 114.767 507.55 111.35C504.133 107.932 504.012 102.51 507.282 99.2401C510.552 95.9702 515.974 96.0909 519.392 99.5096Z" fill="white"/>
<path d="M555.809 105.43C555.809 110.264 552.06 114.183 547.435 114.183C542.809 114.183 539.063 110.264 539.063 105.43C539.063 100.595 542.809 96.6777 547.435 96.6777C552.06 96.6777 555.809 100.595 555.809 105.43Z" fill="white"/>
</g>
<mask id="mask1_259_1973" style="mask-type:luminance" maskUnits="userSpaceOnUse" x="-54" y="-54" width="1006" height="1006">
<path d="M-54 -54H951.5V951.5H-54V-54Z" fill="white"/>
</mask>
<g mask="url(#mask1_259_1973)">
<path d="M668.686 210.194C595.049 145.93 495.36 210.176 398.522 345.621C301.686 481.068 255.608 424.1 173.225 483.75C90.8421 543.397 68.9383 787.918 359.006 764.15C649.071 740.384 861.216 378.209 668.686 210.194Z" fill="#F0F0F0"/>
</g>
<mask id="mask2_259_1973" style="mask-type:luminance" maskUnits="userSpaceOnUse" x="-54" y="-54" width="1006" height="1006">
<path d="M-54 -54H951.5V951.5H-54V-54Z" fill="white"/>
</mask>
<g mask="url(#mask2_259_1973)">
<path d="M758.128 857.246C758.128 857.536 618.486 857.771 446.268 857.771C273.991 857.771 134.379 857.536 134.379 857.246C134.379 856.957 273.991 856.721 446.268 856.721C618.486 856.721 758.128 856.957 758.128 857.246Z" fill="#1A2E35"/>
</g>
<mask id="mask3_259_1973" style="mask-type:luminance" maskUnits="userSpaceOnUse" x="-54" y="-54" width="1006" height="1006">
<path d="M-54 -54H951.5V951.5H-54V-54Z" fill="white"/>
</mask>
<g mask="url(#mask3_259_1973)">
<path d="M622.058 611.062C590.992 589.357 583.943 549.07 585.172 512.856C585.377 506.811 584.713 500.438 587.587 495.135C590.465 489.832 597.174 486.207 602.585 488.755C607.076 490.866 609.03 496.089 611.542 500.408C614.884 506.154 619.862 510.908 625.72 513.948C629.569 515.945 634.333 517.168 638.132 515.073C643.346 512.195 643.962 504.991 643.923 498.978C643.853 487.771 643.785 476.566 643.714 465.363C643.676 459.352 643.658 453.212 645.528 447.505C647.398 441.8 651.529 436.499 657.248 434.896C662.97 433.295 670.04 436.593 671.249 442.477C671.752 444.927 671.253 447.469 671.42 449.964C671.587 452.46 672.749 455.221 675.12 455.917C677.519 456.621 679.924 454.915 681.722 453.156C687.928 447.087 692.139 439.266 696.075 431.489C700.01 423.713 703.829 415.751 709.46 409.129C715.091 402.509 722.879 397.262 731.488 396.773C740.1 396.287 749.274 401.602 751.45 410.054C753.632 418.53 748.687 427.129 743.305 433.991C735.321 444.171 725.878 453.172 715.362 460.625C713.468 461.97 711.415 463.424 710.689 465.65C709.384 469.66 713.182 473.64 717.138 474.957C721.62 476.449 726.483 475.985 731.171 476.536C735.858 477.089 740.936 479.156 742.71 483.586C745.173 489.732 740.033 496.173 734.976 500.392C724.85 508.84 713.287 515.513 700.951 520.032C696.529 521.651 691.876 523.07 688.308 526.177C684.743 529.286 682.591 534.688 684.745 538.923C686.9 543.162 692.431 544.518 697.064 543.657C701.695 542.8 705.842 540.284 710.256 538.619C718.52 535.5 729.188 536.069 734.481 543.21C737.96 547.904 738.266 554.44 736.506 560.034C734.748 565.629 731.181 570.449 727.392 574.894C714.15 590.429 697.197 602.937 678.03 609.583C658.865 616.228 641.106 618.028 622.058 611.062Z" fill="#00ADEB"/>
<path d="M742.763 401.808C742.777 401.822 742.578 402.017 742.18 402.379C741.736 402.775 741.144 403.302 740.394 403.971C738.82 405.363 736.499 407.416 733.581 410.141C727.737 415.573 719.53 423.746 710.617 434.927C706.143 440.499 701.495 446.808 696.627 453.671C691.77 460.547 686.626 467.925 681.51 475.885C676.394 483.84 671.272 492.367 666.677 501.579C664.36 506.174 662.293 510.985 660.185 515.89C658.088 520.79 655.96 525.766 653.806 530.799C645.264 550.959 637.749 570.448 632.379 588.654C626.98 606.843 623.766 623.701 622.36 637.985C620.918 652.278 621.214 663.941 621.797 671.943C622.111 675.945 622.417 679.052 622.7 681.148C622.815 682.153 622.907 682.945 622.978 683.539C623.034 684.078 623.054 684.357 623.036 684.361C623.016 684.363 622.96 684.092 622.865 683.557C622.771 682.967 622.642 682.179 622.479 681.18C622.125 679.09 621.747 675.987 621.367 671.979C620.651 663.968 620.235 652.264 621.582 637.909C622.895 623.563 626.04 606.622 631.406 588.36C636.735 570.084 644.24 550.535 652.791 530.359C654.947 525.323 657.078 520.346 659.178 515.443C661.283 510.552 663.373 505.702 665.712 501.085C670.345 491.828 675.507 483.281 680.659 475.322C685.812 467.356 690.99 459.986 695.883 453.13C700.791 446.281 705.487 439.982 710.012 434.426C719.029 423.275 727.353 415.159 733.293 409.819C736.26 407.139 738.627 405.136 740.251 403.798C741.034 403.165 741.645 402.666 742.108 402.29C742.53 401.956 742.751 401.793 742.763 401.808Z" fill="#1A2E35"/>
<path d="M666.027 501.042C665.953 501.054 665.747 500.141 665.44 498.478C665.124 496.815 664.746 494.397 664.324 491.403C663.473 485.416 662.582 477.111 661.633 467.949C660.686 458.781 659.678 450.511 658.739 444.555C658.277 441.576 657.88 439.167 657.585 437.506C657.297 435.843 657.175 434.914 657.249 434.896C657.323 434.88 657.589 435.777 658.005 437.416C658.431 439.053 658.946 441.448 659.507 444.42C660.648 450.363 661.784 458.654 662.731 467.828C663.644 476.872 664.47 485.054 665.1 491.304C665.402 494.128 665.659 496.505 665.866 498.413C666.041 500.093 666.103 501.03 666.027 501.042Z" fill="#1A2E35"/>
<path d="M743.325 486.596C743.327 486.672 742.227 486.801 740.242 486.966C738.257 487.141 735.387 487.382 731.85 487.792C724.769 488.557 715.028 489.954 704.346 491.967C693.665 494 684.077 496.251 677.189 498.079C673.736 498.967 670.965 499.764 669.042 500.301C667.124 500.848 666.052 501.115 666.026 501.043C666.004 500.966 667.031 500.56 668.916 499.884C670.802 499.219 673.549 498.306 676.984 497.314C683.837 495.285 693.43 492.906 704.144 490.865C714.857 488.848 724.655 487.567 731.776 487.004C735.333 486.694 738.223 486.572 740.22 486.531C742.217 486.499 743.321 486.517 743.325 486.596Z" fill="#1A2E35"/>
<path d="M632.356 586.937C632.32 586.954 632.141 586.63 631.825 585.994C631.469 585.238 631.033 584.315 630.504 583.199C629.368 580.766 627.813 577.2 625.951 572.772C622.223 563.918 617.457 551.524 612.381 537.777C607.303 524.023 602.658 511.601 599.12 502.683C597.385 498.345 595.957 494.779 594.897 492.127C594.443 490.977 594.071 490.029 593.765 489.249C593.518 488.587 593.403 488.232 593.437 488.213C593.473 488.199 593.654 488.523 593.968 489.159C594.326 489.915 594.762 490.836 595.289 491.954C596.428 494.387 597.98 497.951 599.842 502.379C603.573 511.233 608.339 523.629 613.415 537.38C618.49 551.13 623.136 563.549 626.675 572.472C628.411 576.806 629.836 580.374 630.896 583.024C631.351 584.174 631.725 585.126 632.03 585.902C632.278 586.565 632.392 586.921 632.356 586.937Z" fill="#1A2E35"/>
<path d="M735.073 553.833C735.083 553.871 734.731 554.014 734.053 554.253C733.251 554.522 732.265 554.852 731.071 555.252C728.316 556.145 724.595 557.352 720.071 558.818C710.784 561.83 698.004 566.136 683.891 570.914C669.771 575.696 656.939 579.889 647.588 582.709C642.912 584.122 639.118 585.224 636.481 585.934C635.26 586.254 634.255 586.517 633.439 586.733C632.739 586.903 632.367 586.974 632.357 586.938C632.347 586.899 632.698 586.757 633.376 586.515C634.177 586.248 635.162 585.918 636.358 585.518C639.114 584.625 642.832 583.42 647.357 581.952C656.643 578.942 669.423 574.634 683.543 569.854C697.658 565.074 710.486 560.881 719.839 558.062C724.515 556.648 728.31 555.546 730.948 554.836C732.169 554.516 733.172 554.251 733.991 554.038C734.691 553.867 735.061 553.794 735.073 553.833Z" fill="#1A2E35"/>
</g>
<mask id="mask4_259_1973" style="mask-type:luminance" maskUnits="userSpaceOnUse" x="-54" y="-54" width="1006" height="1006">
<path d="M-54 -54H951.5V951.5H-54V-54Z" fill="white"/>
</mask>
<g mask="url(#mask4_259_1973)">
<path d="M671.708 158.292L679.071 180.781C679.38 181.733 678.837 182.704 677.918 183.034L667.618 186.718C666.83 186.999 665.82 186.583 665.51 185.632L658.148 163.143C650.17 162.807 642.764 157.518 639.993 149.058C636.433 138.18 642.004 126.287 652.443 122.555C662.876 118.822 674.246 124.654 677.808 135.532C680.577 143.992 677.824 152.915 671.708 158.292ZM611.36 80.1589C606.884 66.4801 613.872 51.5424 626.959 46.8628C640.035 42.1852 654.321 49.5113 658.8 63.1901L663.23 76.7221L615.79 93.6929L611.36 80.1589ZM693.17 66.0135L682.807 69.7198L678.375 56.1878C670.204 31.2273 644.119 17.8722 620.263 26.4049C596.392 34.9456 583.63 62.1946 591.803 87.1552L596.233 100.689L585.836 104.408C577.75 107.301 573.376 116.618 576.143 125.079L604.973 213.142C607.787 221.729 616.711 226.31 624.796 223.419L732.131 185.022C740.346 182.084 744.726 172.745 741.912 164.156L713.083 76.0927C710.314 67.6324 701.385 63.0735 693.17 66.0135Z" fill="#00ADEB"/>
<path d="M682.354 69.4775C682.453 69.7489 663.149 76.9765 639.245 85.6157C615.332 94.261 595.871 101.044 595.773 100.773C595.674 100.501 614.974 93.2756 638.889 84.6324C662.791 75.9911 682.256 69.206 682.354 69.4775Z" fill="#1A2E35"/>
<path d="M705.147 73.1835C705.165 73.1774 705.244 73.3564 705.378 73.7103C705.531 74.1206 705.724 74.6394 705.964 75.2849C706.48 76.751 707.2 78.7921 708.113 81.3823C709.962 86.7637 712.59 94.4256 715.83 103.861C719.057 113.387 722.89 124.693 727.144 137.242C729.245 143.544 731.542 150.09 733.744 157.004C734.761 160.477 735.606 164.191 735.252 168.038C735.073 169.949 734.554 171.869 733.623 173.605C732.676 175.33 731.355 176.848 729.824 178.085C726.731 180.557 723.114 181.999 719.616 183.296C716.107 184.557 712.646 185.799 709.25 187.018C702.452 189.451 695.897 191.798 689.648 194.035C677.164 198.481 665.915 202.485 656.439 205.859C647.029 209.169 639.389 211.858 634.02 213.744C631.424 214.635 629.377 215.335 627.909 215.84C627.253 216.051 626.726 216.222 626.31 216.359C625.946 216.469 625.757 216.519 625.753 216.501C625.747 216.485 625.922 216.403 626.272 216.258C626.68 216.097 627.195 215.894 627.836 215.641C629.29 215.092 631.313 214.33 633.881 213.362C639.224 211.397 646.826 208.604 656.189 205.161C665.641 201.729 676.866 197.652 689.323 193.128C695.563 190.871 702.113 188.506 708.902 186.053C712.298 184.828 715.751 183.581 719.258 182.318C722.725 181.031 726.247 179.608 729.163 177.271C730.609 176.104 731.829 174.697 732.704 173.108C733.561 171.507 734.043 169.736 734.214 167.94C734.554 164.326 733.758 160.714 732.758 157.294C730.592 150.448 728.3 143.842 726.229 137.55C722.056 124.975 718.295 113.643 715.126 104.097C712.021 94.6167 709.497 86.9206 707.725 81.511C706.891 78.8947 706.235 76.8334 705.765 75.3533C705.563 74.6917 705.405 74.1628 705.278 73.7425C705.175 73.3785 705.129 73.1895 705.147 73.1835Z" fill="#1A2E35"/>
<path d="M648.529 45.4504C648.477 45.5388 647.461 44.9094 645.484 44.113C643.503 43.3569 640.507 42.4741 636.706 42.3534C632.931 42.2147 628.338 42.7999 623.753 44.8008C619.184 46.7816 614.684 50.2928 611.46 55.073C608.176 59.835 606.738 65.3472 606.736 70.3425C606.692 75.362 607.76 79.8344 608.781 83.5025C609.843 87.1746 610.927 90.0885 611.639 92.1116C612.363 94.1347 612.751 95.2588 612.681 95.287C612.616 95.3111 612.099 94.2412 611.259 92.2604C610.428 90.2776 609.236 87.3978 608.073 83.7137C606.947 80.0355 605.781 75.5088 605.769 70.3365C605.715 65.1944 607.187 59.4147 610.593 54.4858C613.936 49.5307 618.619 45.9169 623.369 43.916C628.137 41.8929 632.873 41.3761 636.742 41.6134C640.636 41.8346 643.678 42.8521 645.643 43.739C646.618 44.2156 647.362 44.6057 647.829 44.9335C648.31 45.2432 648.549 45.4182 648.529 45.4504Z" fill="#1A2E35"/>
<path d="M649.442 124.142C649.43 124.115 649.778 123.943 650.462 123.635C651.139 123.317 652.175 122.915 653.565 122.517C654.94 122.086 656.706 121.771 658.789 121.65C660.869 121.545 663.314 121.761 665.844 122.702C670.982 124.508 675.718 129.76 678.045 136.718C679.161 140.234 679.261 144.316 678.137 148.266C676.939 152.195 674.738 155.968 671.561 159.137L671.692 158.604C674.364 165.932 677.272 173.912 680.301 182.209L680.484 182.714L679.975 182.885C678.517 183.374 676.953 183.899 675.376 184.427C671.989 185.562 668.649 186.68 665.371 187.778L664.877 187.943L664.714 187.446C661.959 179.108 658.94 171.249 656.748 163.734L657.182 164.076C653.066 163.803 649.366 162.073 646.42 159.821C643.461 157.546 641.195 154.725 639.667 151.753C638.164 148.774 637.408 145.609 637.535 142.695C637.609 139.781 638.281 137.147 639.222 134.925C641.098 130.44 643.894 127.621 645.965 126.082C648.073 124.542 649.442 124.142 649.442 124.142C649.49 124.232 648.165 124.737 646.152 126.328C644.179 127.916 641.515 130.74 639.761 135.144C638.007 139.441 637.249 145.619 640.38 151.385C641.883 154.232 644.097 156.943 646.96 159.113C649.81 161.261 653.364 162.88 657.235 163.117L657.575 163.137L657.669 163.459C659.885 170.92 662.922 178.748 665.701 187.12L665.041 186.79C668.317 185.69 671.658 184.57 675.044 183.434C676.621 182.907 678.183 182.382 679.643 181.894L679.316 182.567C676.309 174.26 673.419 166.276 670.767 158.94L670.658 158.644L670.897 158.407C673.906 155.433 676.098 151.747 677.252 148.004C678.35 144.23 678.286 140.35 677.244 136.964C675.046 130.209 670.527 125.073 665.627 123.271C663.207 122.326 660.838 122.068 658.803 122.123C656.766 122.195 655.021 122.454 653.647 122.832C650.884 123.542 649.478 124.228 649.442 124.142Z" fill="#1A2E35"/>
</g>
<mask id="mask5_259_1973" style="mask-type:luminance" maskUnits="userSpaceOnUse" x="-54" y="-54" width="1006" height="1006">
<path d="M-54 -54H951.5V951.5H-54V-54Z" fill="white"/>
</mask>
<g mask="url(#mask5_259_1973)">
<path d="M587.291 704.785L386.43 703.856C362.272 703.746 342.777 684.076 342.878 659.918L345.008 156.357C345.11 132.185 364.792 112.676 388.962 112.787L589.825 113.716C613.981 113.827 633.478 133.496 633.375 157.654L631.246 661.217C631.145 685.387 611.464 704.898 587.291 704.785Z" fill="#375A64"/>
<path d="M589.538 131.094L550.595 130.915C545.372 130.891 541.119 135.297 541.097 140.757L541.065 147.82C541.045 153.28 536.791 157.688 531.569 157.662L455.659 157.312C450.437 157.288 446.222 152.841 446.244 147.384L446.274 140.319C446.296 134.859 442.081 130.413 436.858 130.389L423.164 130.326L389.077 130.169C372.15 130.091 358.365 143.754 358.295 160.682L356.217 652.195C356.145 669.115 369.798 682.891 386.718 682.969L587.177 683.894C604.104 683.973 617.889 670.31 617.961 653.381L620.039 161.867C620.109 144.948 606.456 131.173 589.538 131.094Z" fill="white"/>
<path d="M562.56 618.326L413.497 617.638C411.954 617.63 410.709 615.951 410.719 613.885L410.884 574.888C410.892 572.823 412.151 571.156 413.694 571.162L562.757 571.852C564.3 571.86 565.545 573.539 565.535 575.604L565.37 614.597C565.364 616.665 564.105 618.334 562.56 618.326Z" fill="#00ADEB"/>
<path d="M457.305 592.856C456.742 592.854 456.201 592.761 455.682 592.578C455.171 592.388 454.775 592.148 454.495 591.858L454.811 591.243C455.077 591.504 455.434 591.726 455.88 591.908C456.334 592.083 456.81 592.172 457.308 592.175C457.784 592.177 458.17 592.121 458.466 592.007C458.77 591.885 458.991 591.724 459.129 591.523C459.274 591.321 459.347 591.098 459.348 590.853C459.349 590.557 459.264 590.318 459.091 590.137C458.926 589.956 458.706 589.814 458.433 589.712C458.159 589.603 457.856 589.507 457.525 589.427C457.193 589.346 456.862 589.261 456.53 589.173C456.199 589.078 455.893 588.954 455.612 588.801C455.338 588.648 455.115 588.449 454.943 588.202C454.778 587.949 454.697 587.62 454.699 587.216C454.7 586.841 454.799 586.499 454.995 586.19C455.199 585.873 455.506 585.622 455.918 585.436C456.33 585.243 456.857 585.148 457.5 585.151C457.925 585.153 458.347 585.217 458.765 585.341C459.183 585.459 459.543 585.623 459.845 585.833L459.572 586.471C459.248 586.253 458.903 586.092 458.535 585.99C458.175 585.887 457.825 585.835 457.486 585.833C457.031 585.831 456.656 585.891 456.36 586.012C456.063 586.133 455.842 586.298 455.697 586.507C455.559 586.708 455.49 586.939 455.489 587.198C455.487 587.494 455.569 587.733 455.735 587.914C455.907 588.095 456.13 588.237 456.404 588.339C456.685 588.441 456.991 588.533 457.323 588.614C457.654 588.695 457.982 588.783 458.306 588.878C458.638 588.973 458.94 589.098 459.214 589.25C459.495 589.396 459.718 589.592 459.882 589.838C460.055 590.084 460.14 590.405 460.138 590.802C460.137 591.17 460.034 591.512 459.831 591.829C459.627 592.138 459.316 592.389 458.897 592.582C458.485 592.768 457.954 592.859 457.305 592.856ZM461.875 592.813L461.907 585.237L462.708 585.24L462.676 592.816L461.875 592.813ZM465.14 592.828L465.172 585.252L465.833 585.255L471.032 591.859L470.686 591.858L470.714 585.277L471.504 585.281L471.472 592.857L470.811 592.854L465.623 586.25L465.969 586.251L465.941 592.831L465.14 592.828ZM477.267 592.949C476.689 592.946 476.156 592.85 475.666 592.66C475.183 592.463 474.763 592.19 474.403 591.842C474.051 591.494 473.775 591.085 473.575 590.615C473.382 590.146 473.287 589.633 473.289 589.077C473.292 588.522 473.391 588.01 473.588 587.542C473.792 587.074 474.075 586.667 474.437 586.323C474.8 585.978 475.223 585.713 475.707 585.528C476.199 585.335 476.733 585.24 477.31 585.243C477.887 585.246 478.414 585.338 478.889 585.521C479.372 585.703 479.782 585.98 480.119 586.349L479.619 586.855C479.303 586.536 478.954 586.308 478.572 586.169C478.191 586.03 477.78 585.959 477.339 585.957C476.871 585.955 476.437 586.033 476.04 586.189C475.65 586.339 475.306 586.558 475.009 586.845C474.719 587.125 474.49 587.456 474.323 587.837C474.162 588.212 474.081 588.626 474.079 589.081C474.078 589.528 474.155 589.944 474.312 590.327C474.477 590.71 474.702 591.046 474.99 591.336C475.284 591.619 475.626 591.841 476.015 592.001C476.411 592.155 476.84 592.232 477.302 592.234C477.735 592.236 478.143 592.173 478.526 592.045C478.916 591.917 479.274 591.699 479.6 591.39L480.052 591.998C479.69 592.314 479.267 592.554 478.783 592.718C478.299 592.874 477.793 592.951 477.267 592.949ZM479.284 591.897L479.296 589.105L480.064 589.109L480.052 591.998L479.284 591.897ZM488.199 592.999C487.232 592.995 486.472 592.713 485.919 592.155C485.366 591.597 485.092 590.773 485.096 589.684L485.115 585.344L485.915 585.348L485.897 589.655C485.893 590.55 486.093 591.211 486.495 591.638C486.897 592.066 487.466 592.281 488.202 592.285C488.945 592.288 489.52 592.078 489.926 591.654C490.331 591.23 490.536 590.571 490.54 589.677L490.558 585.369L491.338 585.373L491.319 589.713C491.315 590.802 491.033 591.623 490.475 592.176C489.925 592.729 489.166 593.004 488.199 592.999ZM493.719 592.96L493.751 585.384L496.586 585.397C497.229 585.4 497.78 585.507 498.241 585.719C498.702 585.923 499.054 586.22 499.298 586.611C499.549 586.994 499.673 587.46 499.671 588.009C499.668 588.543 499.54 589.004 499.286 589.392C499.039 589.774 498.684 590.068 498.222 590.275C497.759 590.482 497.207 590.584 496.564 590.581L494.173 590.57L494.531 590.193L494.52 592.963L493.719 592.96ZM494.531 590.258L494.176 589.867L496.546 589.877C497.303 589.881 497.878 589.721 498.269 589.398C498.667 589.068 498.867 588.604 498.87 588.005C498.872 587.399 498.676 586.929 498.281 586.595C497.892 586.262 497.319 586.093 496.562 586.09L494.192 586.079L494.55 585.701L494.531 590.258Z" fill="#E9E9E4"/>
<path d="M443.15 285.031L391.435 284.792L391.475 275.304L443.19 275.544L443.15 285.031Z" fill="#00ADEB"/>
<mask id="mask6_259_1973" style="mask-type:luminance" maskUnits="userSpaceOnUse" x="391" y="275" width="53" height="11">
<path d="M391.435 275.303H443.191V285.03H391.435V275.303Z" fill="white"/>
</mask>
<g mask="url(#mask6_259_1973)">
<g opacity="0.100006">
<path d="M443.15 285.031L391.435 284.792L391.475 275.304L443.19 275.543L443.15 285.031Z" fill="black"/>
</g>
</g>
<path d="M594.86 333.773C594.852 333.732 595.292 333.797 596.041 333.495C596.744 333.222 597.861 332.365 597.989 330.79C597.983 327.583 597.973 322.921 597.961 316.934C597.961 313.922 597.959 310.576 597.957 306.918C597.959 306.001 597.959 305.066 597.959 304.11C597.985 303.135 597.983 302.228 597.396 301.476C596.867 300.732 595.962 300.255 595.017 300.251C593.985 300.249 592.936 300.247 591.868 300.245C583.311 300.229 573.576 300.209 562.819 300.189C519.739 300.028 460.284 299.809 394.618 299.565C393.752 299.557 392.905 299.982 392.402 300.686C391.843 301.395 391.867 302.236 391.879 303.314C391.871 305.355 391.863 307.388 391.853 309.417C391.835 313.471 391.819 317.502 391.801 321.499C391.791 323.5 391.783 325.491 391.773 327.476C391.805 328.427 391.68 329.566 391.857 330.304C392.056 331.112 392.668 331.796 393.426 332.117C393.822 332.278 394.192 332.335 394.671 332.331L396.143 332.339L399.079 332.351C401.031 332.361 402.976 332.371 404.911 332.381C420.399 332.463 435.337 332.544 449.571 332.618C478.025 332.791 503.653 332.948 525.189 333.079C546.684 333.25 564.094 333.386 576.168 333.481C582.157 333.551 586.82 333.606 590.028 333.644C591.584 333.674 592.781 333.696 593.631 333.712C594.444 333.734 594.86 333.773 594.86 333.773C594.86 333.773 594.444 333.807 593.631 333.819C592.781 333.829 591.584 333.841 590.028 333.855C586.818 333.863 582.155 333.875 576.166 333.889C564.09 333.873 546.682 333.849 525.187 333.821C503.651 333.752 478.021 333.672 449.565 333.583C435.333 333.527 420.395 333.469 404.907 333.407C402.972 333.398 401.027 333.392 399.075 333.382L396.139 333.37L394.667 333.364C394.164 333.374 393.541 333.296 393.026 333.071C391.972 332.628 391.133 331.685 390.854 330.567C390.695 330 390.731 329.423 390.729 328.958L390.735 327.472C390.743 325.487 390.751 323.494 390.759 321.495C390.775 317.495 390.791 313.467 390.808 309.413C390.816 307.384 390.826 305.351 390.832 303.31C390.848 302.787 390.804 302.329 390.884 301.703C390.974 301.116 391.202 300.549 391.556 300.07C392.245 299.099 393.432 298.504 394.622 298.518C460.288 298.88 519.741 299.209 562.821 299.449C573.58 299.527 583.315 299.598 591.872 299.66C592.94 299.668 593.989 299.676 595.021 299.686C596.149 299.696 597.219 300.275 597.834 301.16C598.524 302.027 598.518 303.213 598.48 304.112C598.472 305.068 598.466 306.003 598.458 306.918C598.424 310.578 598.395 313.924 598.369 316.936C598.295 322.929 598.239 327.597 598.198 330.806C598.023 332.483 596.821 333.344 596.077 333.596C595.292 333.871 594.86 333.773 594.86 333.773Z" fill="#E1E1E1"/>
<path d="M499.919 321.11L405.315 320.674L405.353 311.803L499.957 312.24L499.919 321.11Z" fill="#00ADEB"/>
<mask id="mask7_259_1973" style="mask-type:luminance" maskUnits="userSpaceOnUse" x="405" y="311" width="95" height="11">
<path d="M405.315 311.803H499.955V321.11H405.315V311.803Z" fill="white"/>
</mask>
<g mask="url(#mask7_259_1973)">
<g opacity="0.199997">
<path d="M499.919 321.11L405.315 320.674L405.353 311.803L499.957 312.24L499.919 321.11Z" fill="white"/>
</g>
</g>
<path d="M442.784 371.632L391.069 371.393L391.109 361.905L442.824 362.142L442.784 371.632Z" fill="#00ADEB"/>
<mask id="mask8_259_1973" style="mask-type:luminance" maskUnits="userSpaceOnUse" x="391" y="361" width="52" height="11">
<path d="M391.067 361.905H442.824V371.632H391.067V361.905Z" fill="white"/>
</mask>
<g mask="url(#mask8_259_1973)">
<g opacity="0.100006">
<path d="M442.783 371.632L391.068 371.393L391.109 361.905L442.824 362.142L442.783 371.632Z" fill="black"/>
</g>
</g>
<path d="M593.533 420.368C593.529 420.332 593.955 420.37 594.725 420.143C595.455 419.903 596.632 419.3 597.271 417.864C597.615 417.156 597.651 416.298 597.619 415.314C597.615 414.337 597.611 413.273 597.607 412.119C597.603 409.804 597.597 407.142 597.593 404.147C597.593 401.145 597.591 397.811 597.591 394.165V391.369C597.633 390.408 597.516 389.517 597.004 388.715C596.519 387.926 595.735 387.301 594.818 387.02C593.917 386.736 592.841 386.891 591.779 386.847C583.252 386.83 573.549 386.81 562.829 386.79C519.9 386.631 460.651 386.412 395.213 386.169C393.395 386.125 391.716 387.607 391.541 389.407C391.481 391.319 391.511 393.433 391.489 395.428C391.471 399.468 391.455 403.484 391.437 407.467C391.429 409.46 391.419 411.445 391.411 413.424C391.443 414.411 391.302 415.443 391.537 416.231C391.764 417.062 392.295 417.806 393.005 418.293C393.741 418.789 394.54 418.972 395.505 418.936L398.431 418.95C400.378 418.96 402.314 418.97 404.245 418.98C419.677 419.063 434.565 419.141 448.748 419.216C477.103 419.389 502.643 419.545 524.105 419.676C545.526 419.845 562.873 419.984 574.905 420.076C580.873 420.149 585.521 420.201 588.716 420.239C590.269 420.269 591.461 420.292 592.31 420.308C593.118 420.33 593.533 420.368 593.533 420.368C593.533 420.368 593.118 420.402 592.308 420.414C591.461 420.424 590.267 420.436 588.714 420.45C585.521 420.458 580.871 420.47 574.903 420.487C562.871 420.468 545.522 420.446 524.101 420.416C502.639 420.35 477.101 420.269 448.742 420.181C434.561 420.125 419.673 420.066 404.239 420.006C402.31 419.998 400.372 419.99 398.425 419.982L395.501 419.97C394.518 420.022 393.309 419.783 392.42 419.149C391.511 418.524 390.829 417.575 390.538 416.505C390.238 415.379 390.417 414.399 390.373 413.418C390.379 411.441 390.387 409.456 390.395 407.463C390.411 403.478 390.427 399.464 390.443 395.421C390.467 393.376 390.427 391.432 390.502 389.282C390.725 386.967 392.885 385.063 395.217 385.123C460.655 385.483 519.904 385.811 562.833 386.05C573.553 386.129 583.254 386.199 591.781 386.261C592.833 386.318 593.897 386.147 594.984 386.481C596.034 386.81 596.923 387.528 597.466 388.431C598.043 389.314 598.168 390.442 598.11 391.371C598.102 392.323 598.098 393.254 598.089 394.167C598.057 397.813 598.025 401.147 598.001 404.149C597.969 407.144 597.941 409.806 597.919 412.121C597.904 413.273 597.892 414.339 597.88 415.316C597.898 416.274 597.842 417.227 597.464 417.951C596.756 419.445 595.513 420.032 594.753 420.245C593.955 420.444 593.533 420.368 593.533 420.368Z" fill="#E1E1E1"/>
<path d="M442.403 461.951L390.688 461.714L390.726 452.224L442.443 452.461L442.403 461.951Z" fill="#00ADEB"/>
<mask id="mask9_259_1973" style="mask-type:luminance" maskUnits="userSpaceOnUse" x="390" y="452" width="53" height="10">
<path d="M390.687 452.225H442.443V461.95H390.687V452.225Z" fill="white"/>
</mask>
<g mask="url(#mask9_259_1973)">
<g opacity="0.100006">
<path d="M442.403 461.951L390.688 461.714L390.726 452.224L442.443 452.462L442.403 461.951Z" fill="black"/>
</g>
</g>
<path d="M593.149 510.688C593.147 510.652 593.574 510.69 594.342 510.465C595.074 510.226 596.248 509.62 596.888 508.185C597.232 507.477 597.268 506.618 597.236 505.635C597.232 504.657 597.228 503.593 597.224 502.439C597.22 500.124 597.216 497.462 597.212 494.47C597.21 491.465 597.21 488.131 597.208 484.485C597.208 483.574 597.21 482.641 597.21 481.688C597.25 480.728 597.135 479.837 596.622 479.035C596.136 478.247 595.354 477.621 594.436 477.34C593.536 477.056 592.46 477.211 591.396 477.167C582.871 477.149 573.168 477.131 562.447 477.111C519.517 476.952 460.27 476.73 394.832 476.489C393.012 476.445 391.335 477.927 391.16 479.727C391.1 481.639 391.128 483.751 391.108 485.748C391.09 489.786 391.074 493.804 391.056 497.788C391.046 499.781 391.038 501.765 391.029 503.744C391.062 504.73 390.921 505.761 391.154 506.55C391.381 507.382 391.912 508.126 392.622 508.613C393.36 509.11 394.159 509.295 395.124 509.256L398.048 509.27C399.995 509.281 401.933 509.291 403.862 509.301C419.294 509.383 434.182 509.462 448.365 509.536C476.72 509.711 502.26 509.866 523.722 509.996C545.143 510.165 562.49 510.304 574.522 510.397C580.49 510.469 585.14 510.523 588.333 510.562C589.886 510.59 591.08 510.612 591.927 510.63C592.735 510.65 593.149 510.688 593.149 510.688C593.149 510.688 592.735 510.722 591.927 510.734C591.078 510.743 589.886 510.755 588.333 510.771C585.138 510.779 580.488 510.791 574.52 510.807C562.488 510.789 545.141 510.767 523.718 510.736C502.256 510.67 476.718 510.59 448.361 510.501C434.178 510.445 419.29 510.389 403.858 510.326C401.927 510.318 399.991 510.31 398.044 510.302L395.118 510.29C394.134 510.342 392.926 510.103 392.039 509.47C391.128 508.844 390.448 507.893 390.155 506.825C389.855 505.699 390.034 504.718 389.99 503.738C389.998 501.761 390.006 499.775 390.014 497.784C390.03 493.798 390.046 489.782 390.062 485.742C390.084 483.695 390.046 481.752 390.121 479.602C390.344 477.288 392.504 475.383 394.836 475.443C460.274 475.803 519.521 476.131 562.451 476.371C573.17 476.449 582.873 476.519 591.4 476.582C592.452 476.636 593.515 476.467 594.603 476.801C595.651 477.131 596.54 477.851 597.085 478.752C597.662 479.636 597.787 480.763 597.729 481.692C597.72 482.643 597.714 483.576 597.706 484.487C597.674 488.133 597.644 491.467 597.62 494.47C597.588 497.464 597.56 500.126 597.537 502.441C597.523 503.593 597.509 504.659 597.497 505.635C597.515 506.596 597.459 507.547 597.081 508.273C596.375 509.765 595.13 510.354 594.372 510.566C593.574 510.763 593.149 510.688 593.149 510.688Z" fill="#E1E1E1"/>
<path d="M499.553 407.711L404.95 407.275L404.986 398.404L499.592 398.841L499.553 407.711Z" fill="#00ADEB"/>
<mask id="mask10_259_1973" style="mask-type:luminance" maskUnits="userSpaceOnUse" x="404" y="398" width="96" height="10">
<path d="M404.949 398.405H499.591V407.712H404.949V398.405Z" fill="white"/>
</mask>
<g mask="url(#mask10_259_1973)">
<g opacity="0.199997">
<path d="M499.553 407.711L404.95 407.275L404.986 398.404L499.591 398.841L499.553 407.711Z" fill="white"/>
</g>
</g>
<path d="M413.581 494.272C413.571 496.708 411.711 498.672 409.426 498.664C407.142 498.652 405.3 496.667 405.31 494.232C405.32 491.799 407.18 489.83 409.465 489.842C411.747 489.852 413.591 491.835 413.581 494.272Z" fill="#00ADEB"/>
<path d="M426.397 494.331C426.387 496.767 424.527 498.731 422.243 498.723C419.958 498.713 418.116 496.728 418.126 494.291C418.136 491.858 419.996 489.891 422.281 489.901C424.563 489.911 426.407 491.894 426.397 494.331Z" fill="#00ADEB"/>
<path d="M439.213 494.39C439.203 496.826 437.342 498.792 435.058 498.782C432.773 498.772 430.931 496.788 430.941 494.35C430.951 491.917 432.812 489.95 435.096 489.96C437.379 489.97 439.223 491.953 439.213 494.39Z" fill="#00ADEB"/>
<path d="M452.028 494.449C452.018 496.884 450.157 498.851 447.875 498.841C445.59 498.831 443.746 496.846 443.756 494.409C443.766 491.975 445.627 490.009 447.911 490.019C450.196 490.031 452.04 492.014 452.028 494.449Z" fill="#00ADEB"/>
<path d="M464.844 494.508C464.834 496.945 462.974 498.91 460.691 498.9C458.407 498.89 456.563 496.905 456.573 494.47C456.585 492.035 458.443 490.068 460.727 490.078C463.012 490.09 464.854 492.073 464.844 494.508Z" fill="#00ADEB"/>
<path d="M477.66 494.567C477.65 497.004 475.79 498.969 473.505 498.959C471.221 498.949 469.379 496.964 469.389 494.529C469.399 492.093 471.257 490.127 473.542 490.137C475.828 490.149 477.67 492.132 477.66 494.567Z" fill="#00ADEB"/>
<path d="M490.477 494.626C490.464 497.063 488.604 499.028 486.322 499.02C484.037 499.008 482.195 497.023 482.205 494.588C482.215 492.152 484.073 490.186 486.358 490.198C488.642 490.208 490.487 492.191 490.477 494.626Z" fill="#00ADEB"/>
<path d="M503.291 494.685C503.28 497.122 501.42 499.087 499.138 499.079C496.853 499.067 495.009 497.084 495.021 494.647C495.031 492.214 496.89 490.245 499.174 490.257C501.459 490.267 503.303 492.25 503.291 494.685Z" fill="#00ADEB"/>
<path d="M516.107 494.746C516.097 497.181 514.237 499.146 511.954 499.138C509.67 499.128 507.826 497.143 507.836 494.706C507.848 492.272 509.706 490.305 511.99 490.316C514.275 490.326 516.119 492.308 516.107 494.746Z" fill="#00ADEB"/>
<mask id="mask11_259_1973" style="mask-type:luminance" maskUnits="userSpaceOnUse" x="405" y="489" width="112" height="11">
<path d="M405.309 489.842H516.108V499.137H405.309V489.842Z" fill="white"/>
</mask>
<g mask="url(#mask11_259_1973)">
<g opacity="0.199997">
<path d="M413.581 494.272C413.571 496.708 411.711 498.672 409.426 498.664C407.142 498.652 405.3 496.667 405.31 494.232C405.32 491.799 407.18 489.83 409.465 489.842C411.747 489.852 413.591 491.835 413.581 494.272Z" fill="white"/>
<path d="M426.397 494.331C426.387 496.767 424.527 498.731 422.243 498.723C419.958 498.713 418.116 496.728 418.126 494.291C418.136 491.858 419.996 489.891 422.281 489.901C424.563 489.911 426.407 491.894 426.397 494.331Z" fill="white"/>
<path d="M439.213 494.39C439.203 496.826 437.342 498.792 435.058 498.782C432.773 498.772 430.931 496.787 430.941 494.35C430.951 491.917 432.812 489.95 435.096 489.96C437.379 489.97 439.223 491.953 439.213 494.39Z" fill="white"/>
<path d="M452.028 494.449C452.018 496.884 450.157 498.851 447.875 498.841C445.59 498.831 443.746 496.846 443.756 494.409C443.766 491.975 445.627 490.008 447.911 490.019C450.196 490.031 452.04 492.013 452.028 494.449Z" fill="white"/>
<path d="M464.844 494.508C464.834 496.945 462.974 498.91 460.691 498.9C458.407 498.89 456.563 496.905 456.573 494.47C456.585 492.034 458.443 490.068 460.727 490.078C463.012 490.09 464.854 492.073 464.844 494.508Z" fill="white"/>
<path d="M477.66 494.567C477.65 497.004 475.79 498.969 473.505 498.959C471.221 498.949 469.379 496.964 469.389 494.529C469.399 492.093 471.257 490.127 473.542 490.137C475.828 490.149 477.67 492.131 477.66 494.567Z" fill="white"/>
<path d="M490.477 494.626C490.464 497.063 488.604 499.028 486.322 499.02C484.037 499.008 482.195 497.023 482.205 494.588C482.215 492.152 484.073 490.186 486.358 490.198C488.642 490.208 490.487 492.191 490.477 494.626Z" fill="white"/>
<path d="M503.291 494.685C503.28 497.122 501.42 499.087 499.138 499.079C496.853 499.067 495.009 497.084 495.021 494.647C495.031 492.213 496.89 490.245 499.174 490.257C501.459 490.267 503.303 492.25 503.291 494.685Z" fill="white"/>
<path d="M516.107 494.746C516.097 497.181 514.237 499.146 511.954 499.138C509.67 499.128 507.826 497.143 507.836 494.705C507.848 492.272 509.706 490.305 511.99 490.315C514.275 490.325 516.119 492.308 516.107 494.746Z" fill="white"/>
</g>
</g>
<path d="M497.906 204.424C500.613 203.29 502.537 200.499 502.553 197.211C502.569 192.903 499.309 189.394 495.269 189.376C491.233 189.358 487.943 192.835 487.925 197.143C487.911 200.461 489.85 203.286 492.585 204.424C481.331 206.12 481.842 218.353 481.842 218.353L508.455 218.475C508.455 218.475 509.063 206.11 497.906 204.424Z" fill="#00ADEB"/>
<mask id="mask12_259_1973" style="mask-type:luminance" maskUnits="userSpaceOnUse" x="481" y="189" width="28" height="30">
<path d="M481.838 189.375H508.462V218.474H481.838V189.375Z" fill="white"/>
</mask>
<g mask="url(#mask12_259_1973)">
<g opacity="0.100006">
<path d="M497.906 204.424C500.613 203.29 502.537 200.499 502.553 197.211C502.569 192.903 499.309 189.394 495.269 189.376C491.233 189.358 487.943 192.835 487.925 197.142C487.911 200.46 489.85 203.286 492.585 204.424C481.331 206.119 481.842 218.352 481.842 218.352L508.455 218.475C508.455 218.475 509.063 206.109 497.906 204.424Z" fill="black"/>
</g>
</g>
<path d="M541.105 237.83L446.202 237.391L446.25 226.045L541.151 226.482L541.105 237.83Z" fill="#00ADEB"/>
<mask id="mask13_259_1973" style="mask-type:luminance" maskUnits="userSpaceOnUse" x="446" y="226" width="96" height="12">
<path d="M446.201 226.044H541.153V237.83H446.201V226.044Z" fill="white"/>
</mask>
<g mask="url(#mask13_259_1973)">
<g opacity="0.199997">
<path d="M541.105 237.83L446.201 237.391L446.25 226.045L541.151 226.482L541.105 237.83Z" fill="white"/>
</g>
</g>
</g>
<mask id="mask14_259_1973" style="mask-type:luminance" maskUnits="userSpaceOnUse" x="-54" y="-54" width="1006" height="1006">
<path d="M-54 -54H951.5V951.5H-54V-54Z" fill="white"/>
</mask>
<g mask="url(#mask14_259_1973)">
<path d="M192.278 285.209C192.278 285.229 191.961 285.263 191.345 285.314C190.68 285.362 189.771 285.428 188.606 285.513C187.398 285.535 185.93 285.796 184.194 286.102C183.333 286.277 182.38 286.347 181.407 286.635C180.428 286.906 179.39 287.194 178.29 287.5C173.95 288.869 168.723 291.043 163.461 294.854C158.212 298.637 152.961 304.044 148.869 311.097C146.717 314.564 145.157 318.568 143.755 322.777C142.615 327.06 141.603 331.611 141.529 336.405C141.313 338.796 141.555 341.228 141.657 343.695C141.722 344.93 141.989 346.154 142.146 347.397C142.315 348.642 142.498 349.895 142.85 351.122C143.869 356.121 145.905 361.022 148.481 365.717C153.631 375.147 162.286 383.267 172.975 387.975C178.324 390.334 184.234 391.607 190.247 391.854C196.266 392.235 202.432 391.269 208.278 389.258L210.046 388.609L210.279 388.524L210.49 388.631C219.143 393.025 227.63 397.332 235.853 401.507L235.099 402.151C232.392 393.745 229.765 385.594 227.248 377.775L227.149 377.474L227.374 377.251C233.765 370.85 238.22 363.073 240.689 355.111C243.165 347.126 243.589 338.993 242.622 331.541C241.657 324.072 239.213 317.281 235.959 311.565C232.706 305.834 228.659 301.176 224.507 297.543C220.306 293.933 215.948 291.487 212.047 289.615C208.049 287.942 204.485 286.87 201.523 286.299C200.041 286.048 198.726 285.822 197.577 285.627C196.437 285.547 195.468 285.481 194.665 285.424C193.917 285.366 193.328 285.322 192.884 285.288C192.483 285.251 192.278 285.225 192.278 285.209C192.278 285.195 192.483 285.191 192.886 285.197C193.332 285.209 193.923 285.225 194.675 285.247C195.482 285.279 196.459 285.32 197.606 285.366C198.764 285.539 200.093 285.736 201.587 285.959C204.58 286.482 208.189 287.512 212.25 289.155C216.211 290.999 220.642 293.432 224.925 297.052C229.16 300.696 233.293 305.387 236.629 311.181C239.965 316.959 242.483 323.842 243.497 331.426C244.51 338.991 244.112 347.259 241.618 355.395C239.129 363.507 234.612 371.445 228.106 377.983L228.233 377.458C230.763 385.272 233.401 393.419 236.122 401.821L236.518 403.05L235.368 402.464C227.141 398.294 218.653 393.992 209.997 389.604L210.442 389.624L208.634 390.288C202.659 392.343 196.353 393.329 190.203 392.936C184.059 392.681 178.014 391.372 172.552 388.955C161.635 384.134 152.83 375.827 147.606 366.21C144.992 361.418 142.938 356.423 141.917 351.333C141.563 350.082 141.38 348.809 141.211 347.542C141.056 346.277 140.791 345.032 140.728 343.777C140.634 341.266 140.4 338.794 140.626 336.367C140.724 331.496 141.768 326.875 142.95 322.533C144.394 318.264 146.001 314.212 148.203 310.707C152.398 303.578 157.759 298.138 163.107 294.359C168.464 290.55 173.773 288.411 178.169 287.093C179.281 286.802 180.335 286.528 181.324 286.271C182.308 285.997 183.271 285.941 184.142 285.784C185.893 285.509 187.374 285.279 188.59 285.294C189.761 285.255 190.674 285.225 191.343 285.203C191.961 285.189 192.278 285.191 192.278 285.209Z" fill="#00ADEB"/>
<path d="M203.746 332.163H200.03L191.92 320.859V313.44C191.92 313.44 186.174 313.088 186.85 322.802C187.528 332.517 186.796 330.043 186.796 330.043C186.796 330.043 174.597 330.089 173.583 331.149C172.847 331.919 172.513 344.036 172.387 350.606C172.322 353.914 174.351 356.991 177.428 357.773C177.865 357.885 178.307 357.95 178.739 357.95C181.782 357.95 197.327 355.476 197.327 355.476H203.746V332.163Z" fill="#00ADEB"/>
<path d="M214.385 330.126L212.099 355.545H205.734V330.637L214.385 330.126Z" fill="#00ADEB"/>
</g>
<mask id="mask15_259_1973" style="mask-type:luminance" maskUnits="userSpaceOnUse" x="-54" y="-54" width="1006" height="1006">
<path d="M-54 -54.0001H951.5V951.5H-54V-54.0001Z" fill="white"/>
</mask>
<g mask="url(#mask15_259_1973)">
<path d="M290.183 847.613V830.407L259.352 830.202L259.097 856.194L261.009 856.337C269.514 856.886 304.286 857.686 309.985 855.923C316.34 853.954 290.183 847.613 290.183 847.613Z" fill="#00ADEB"/>
<path d="M310.715 854.308C310.715 854.6 299.181 854.833 284.96 854.833C270.732 854.833 259.203 854.6 259.203 854.308C259.203 854.018 270.732 853.785 284.96 853.785C299.181 853.785 310.715 854.018 310.715 854.308Z" fill="#1A2E35"/>
<path d="M290.725 851.125C290.472 850.992 290.689 850.081 291.353 849.186C292.012 848.287 292.819 847.811 293.02 848.012C293.227 848.221 292.803 848.977 292.195 849.808C291.584 850.634 290.983 851.262 290.725 851.125Z" fill="#1A2E35"/>
<path d="M292.692 852.258C292.425 852.158 292.563 851.138 293.169 850.066C293.772 848.99 294.574 848.347 294.798 848.524C295.029 848.703 294.641 849.581 294.082 850.581C293.519 851.576 292.966 852.365 292.692 852.258Z" fill="#1A2E35"/>
<path d="M268.49 854.232C268.37 854.316 267.911 853.864 267.243 853.106C266.572 852.356 265.693 851.294 264.541 850.399C263.394 849.504 262.135 849.057 261.204 848.941C260.267 848.816 259.652 848.961 259.6 848.81C259.545 848.698 260.118 848.267 261.228 848.201C262.324 848.126 263.871 848.543 265.178 849.568C266.479 850.584 267.312 851.794 267.841 852.671C268.368 853.556 268.607 854.151 268.49 854.232Z" fill="#1A2E35"/>
<path d="M290.819 847.89C290.97 848.134 290.441 848.731 289.562 849.053C288.683 849.378 287.891 849.266 287.848 848.982C287.802 848.693 288.43 848.357 289.2 848.071C289.972 847.788 290.666 847.641 290.819 847.89Z" fill="#1A2E35"/>
<path d="M290.335 846.227C290.363 846.517 289.541 846.764 288.501 846.776C287.46 846.79 286.631 846.567 286.651 846.277C286.671 845.99 287.492 845.745 288.487 845.73C289.479 845.716 290.307 845.94 290.335 846.227Z" fill="#1A2E35"/>
<path d="M366.101 847.613V830.407L335.271 830.202L335.015 855.931L336.928 856.072C345.432 856.621 380.207 857.687 385.904 855.923C392.259 853.954 366.101 847.613 366.101 847.613Z" fill="#00ADEB"/>
<path d="M386.633 854.348C386.633 854.637 375.102 854.872 360.878 854.872C346.65 854.872 335.121 854.637 335.121 854.348C335.121 854.058 346.65 853.823 360.878 853.823C375.102 853.823 386.633 854.058 386.633 854.348Z" fill="#1A2E35"/>
<path d="M366.645 851.125C366.391 850.992 366.608 850.081 367.272 849.186C367.932 848.287 368.738 847.811 368.939 848.012C369.146 848.221 368.722 848.977 368.115 849.808C367.503 850.634 366.902 851.262 366.645 851.125Z" fill="#1A2E35"/>
<path d="M368.611 852.258C368.344 852.158 368.483 851.138 369.088 850.066C369.691 848.99 370.494 848.347 370.717 848.524C370.948 848.703 370.56 849.581 370.001 850.581C369.436 851.576 368.885 852.365 368.611 852.258Z" fill="#1A2E35"/>
<path d="M344.409 854.232C344.288 854.316 343.829 853.864 343.162 853.106C342.492 852.356 341.611 851.294 340.459 850.399C339.315 849.504 338.054 849.057 337.123 848.941C336.186 848.816 335.57 848.961 335.518 848.81C335.464 848.698 336.037 848.267 337.147 848.201C338.243 848.126 339.789 848.543 341.099 849.568C342.4 850.584 343.23 851.794 343.761 852.671C344.286 853.556 344.525 854.151 344.409 854.232Z" fill="#1A2E35"/>
<path d="M366.738 847.89C366.889 848.134 366.36 848.731 365.481 849.053C364.6 849.378 363.81 849.266 363.768 848.982C363.721 848.693 364.347 848.357 365.117 848.071C365.891 847.788 366.585 847.641 366.738 847.89Z" fill="#1A2E35"/>
<path d="M366.254 846.227C366.282 846.517 365.459 846.764 364.42 846.776C363.378 846.79 362.552 846.567 362.57 846.277C362.592 845.99 363.412 845.745 364.406 845.73C365.399 845.716 366.226 845.94 366.254 846.227Z" fill="#1A2E35"/>
<path d="M479.675 337.028C478.871 336.199 476.892 336.589 476.892 336.589C476.892 336.589 477.238 334.24 476.872 333.102C476.51 331.966 473.974 332.185 473.974 332.185C473.974 332.185 473.817 331.091 474.038 329.326C474.097 328.885 473.851 328.557 473.449 328.314C472.251 327.588 469.662 327.624 469.662 327.624C468.108 326.514 474.39 317.73 476.719 314.917C479.022 312.14 478.634 309.915 476.556 309.917C475.14 309.921 467.808 318.364 465.568 321.199C463.332 324.033 457.333 331.918 457.128 325.625C456.925 319.333 454.395 314.573 452.816 313.76C451.236 312.95 449.53 314.852 450.405 316.6C451.111 318.012 451.559 320.733 451.813 322.79C452.02 324.487 451.952 326.208 451.579 327.878C450.53 332.591 449.404 335.652 448.873 336.959L448.718 336.873C448.718 336.873 404.824 378.961 401.66 381.965C398.813 384.668 341.777 378.768 330.35 377.555C327.227 377.205 322.602 376.578 318.594 376.753C313.639 376.97 312.756 377.674 307.795 377.74C292.606 377.943 279.946 379.424 270.525 381.018C259.134 382.945 249.795 391.051 246.27 402.053C234.737 438.046 208.646 523.254 203.997 571.122C200.335 578.008 196.242 586.05 194.579 590.575C191.348 599.373 192.132 599.674 193.222 599.875C196.144 600.416 199.49 584.616 200.741 588.429C201.992 592.242 194.402 607.278 197.481 607.718C201.495 608.291 204.695 591.687 205.069 590.299C205.433 588.954 207.458 589.408 207.053 590.641C206.472 592.413 200.813 611.175 204.749 611.776C206.931 612.11 207.166 608.137 207.166 608.137C207.166 608.137 211.166 590.192 213.014 590.538C214.892 590.888 212.897 601.504 211.972 605.036C211.057 608.525 212.346 610.379 214.227 609.5C215.512 608.901 218.601 598.152 219.435 594.639C220.27 591.126 222.383 581.447 225.223 587.065C228.062 592.684 232.362 595.934 234.136 596.004C235.911 596.073 236.655 593.631 235.125 592.413C233.886 591.431 232.334 589.153 231.238 587.393C230.333 585.943 229.669 584.352 229.303 582.683C227.889 576.248 227.902 572.508 227.902 572.508L227.574 570.438C232.076 548.132 245.057 482.684 263.703 440.872L271.381 456.672L274.714 468.37L254.252 518.923L341.555 517.772L328.54 467.62L344.353 415.326V415.324C361.466 415.706 405.421 416.344 412.807 413.041C422.016 408.927 469.674 348.85 469.674 348.85C472.894 346.286 476.166 343.527 478.581 341.122C478.581 341.122 481.421 338.823 479.675 337.028Z" fill="#FFBF9D"/>
<path d="M250.449 481.704C252.977 473.058 265.992 430.309 265.992 430.309C265.992 430.309 272.379 465.161 270.7 469.358C268.765 474.197 265.21 479.731 265.21 479.731C250.449 502.21 252.386 513.445 252.386 513.445L341.556 510.726C341.773 498.254 334.391 469.262 332.848 464.644C331.304 460.025 336.424 444.864 336.424 444.864C336.424 444.864 346.501 434.63 346.111 429.363C345.324 418.753 344.353 415.325 344.353 415.325L398.612 417.322L396.907 380.508L318.914 372.703C316.215 380.383 291.655 376.621 291.655 376.621C265.14 377.492 263.535 382.368 252.478 390.929C241.422 399.49 223.212 473.016 223.212 473.016L250.449 481.704Z" fill="#00ADEB"/>
<path d="M303.184 473.008C303.182 473.146 301.388 473.265 298.484 473.245C295.583 473.227 291.573 473.048 287.162 472.605C282.752 472.159 278.787 471.538 275.939 470.977C273.089 470.417 271.354 469.947 271.382 469.808C271.408 469.661 273.19 469.877 276.058 470.247C278.925 470.619 282.883 471.121 287.267 471.562C291.651 472.002 295.631 472.298 298.515 472.505C301.398 472.714 303.186 472.857 303.184 473.008Z" fill="#1A2E35"/>
<path d="M309.289 465.423C309.327 465.55 307.487 466.25 304.42 467.082C301.355 467.913 297.052 468.832 292.231 469.407C287.411 469.978 283.009 470.095 279.836 470.002C276.658 469.912 274.707 469.66 274.713 469.53C274.722 469.375 276.68 469.361 279.834 469.262C282.985 469.164 287.335 468.932 292.109 468.367C296.879 467.798 301.16 467.004 304.249 466.362C307.338 465.719 309.246 465.274 309.289 465.423Z" fill="#1A2E35"/>
<path d="M339.283 431.597C339.422 431.627 339.193 433.364 338.674 436.145C338.155 438.927 337.338 442.748 336.311 446.938C335.283 451.131 334.237 454.898 333.411 457.603C332.584 460.31 331.985 461.957 331.846 461.918C331.706 461.878 332.053 460.163 332.697 457.41C333.457 454.273 334.33 450.669 335.295 446.689C336.281 442.717 337.173 439.12 337.95 435.985C338.654 433.25 339.14 431.566 339.283 431.597Z" fill="#1A2E35"/>
<path d="M251.385 476.582C251.309 476.862 245.159 475.428 237.65 473.379C230.139 471.33 224.114 469.443 224.19 469.164C224.267 468.884 230.414 470.32 237.925 472.367C245.435 474.416 251.462 476.303 251.385 476.582Z" fill="#1A2E35"/>
<path d="M345.335 414.854C345.335 414.902 344.508 414.988 343.026 414.842C341.552 414.689 339.394 414.347 336.894 413.38C334.393 412.443 331.549 410.876 328.893 408.507C326.234 406.148 323.861 402.902 322.347 399.081C320.808 395.267 320.304 391.289 320.545 387.747C320.778 384.212 321.713 381.017 323.298 378.778C324.863 376.51 326.94 375.41 328.386 375.03C329.12 374.837 329.709 374.791 330.103 374.801C330.499 374.811 330.705 374.853 330.703 374.885C330.709 374.986 329.87 374.937 328.509 375.418C327.173 375.897 325.295 377.025 323.911 379.191C321.174 383.494 320.41 391.351 323.32 398.693C324.778 402.365 327.02 405.485 329.542 407.793C332.062 410.112 334.773 411.694 337.17 412.692C342.002 414.697 345.371 414.631 345.335 414.854Z" fill="#1A2E35"/>
<path d="M392.21 416.588C391.921 416.588 391.703 408.29 391.724 398.056C391.744 387.818 391.995 379.525 392.285 379.525C392.574 379.525 392.791 387.822 392.771 398.058C392.751 408.292 392.5 416.588 392.21 416.588Z" fill="#1A2E35"/>
<path d="M318.434 374.946C318.653 370.458 319.123 365.388 319.123 365.388C319.123 365.388 330.22 364.163 330.894 352.7C331.567 341.236 330.894 314.801 330.894 314.801L310.683 304.509L288.448 322.053L291.818 379.37L312.276 380.671C315.5 380.877 318.269 378.306 318.434 374.946Z" fill="#FFBF9D"/>
<path d="M320.434 343.631C320.466 343.639 320.468 343.844 320.259 344.124C320.054 344.393 319.605 344.699 318.982 344.687C317.693 344.625 316.454 343.201 315.995 341.463C315.768 340.58 315.768 339.686 315.941 338.915C316.078 338.155 316.516 337.395 317.148 337.188C317.449 337.075 317.763 337.087 318.002 337.208C318.238 337.325 318.381 337.506 318.457 337.669C318.606 338.01 318.489 338.218 318.461 338.201C318.415 338.197 318.427 338.01 318.258 337.795C318.101 337.576 317.723 337.377 317.305 337.594C316.878 337.787 316.585 338.332 316.478 339.03C316.351 339.724 316.368 340.516 316.571 341.302C316.973 342.861 318.053 344.134 319.012 344.251C319.489 344.311 319.883 344.128 320.096 343.953C320.313 343.774 320.392 343.613 320.434 343.631Z" fill="#FF9A6C"/>
<path d="M337.787 308.612C336.24 303.334 330.631 300.713 325.519 299.265C317.745 297.061 309.319 296.086 301.721 298.883C294.124 301.68 284.988 306.601 284.99 314.995C280.505 314.627 277.943 318.557 276.161 323.425C275.11 326.299 274.42 329.503 274.255 332.674L274.182 332.65C273.605 343.636 270.545 358.773 263.422 366.897C259.488 371.384 253.825 374.485 251.533 380.071C249.54 384.928 250.571 390.667 248.687 395.57C247.024 399.898 243.342 402.971 240.701 406.735C234.952 414.936 234.56 426.521 238.785 435.673C243.01 444.825 251.382 451.522 260.675 454.591C269.967 457.66 280.091 457.322 289.549 454.86C296.531 453.04 303.324 450.032 308.888 445.278C314.453 440.522 318.722 433.91 319.995 426.531C321.411 418.316 319.112 409.975 317.421 401.816C312.07 376.003 313.598 374.662 320.351 350.719C320.502 350.298 320.596 349.858 320.713 349.424C320.804 349.106 320.888 348.802 320.981 348.476L320.966 348.47C321.154 347.533 321.278 346.58 321.282 345.607C319.328 346.377 316.965 345.866 315.466 344.35C313.968 342.834 313.409 340.388 314.093 338.331C314.877 335.964 317.049 334.381 319.279 333.444C321.509 332.505 323.909 332.041 326.099 330.999C330.742 328.791 333.96 324.204 336.152 319.399C337.686 316.033 338.83 312.176 337.787 308.612Z" fill="#1A2E35"/>
<path d="M321.227 344.121C321.297 344.091 321.688 344.839 322.285 346.108C322.882 347.379 323.685 349.171 324.573 351.23L324.742 351.62L324.316 351.657C323.644 351.713 322.967 351.771 322.269 351.832C320.865 351.924 319.695 352.091 318.335 352.077C318.12 352.039 317.881 351.842 317.816 351.62C317.744 351.403 317.764 351.22 317.786 351.061C317.845 350.746 317.913 350.512 317.975 350.245L318.331 348.821C318.776 347.084 319.091 346.02 319.176 346.038C319.26 346.058 319.097 347.158 318.764 348.918L318.484 350.358C318.379 350.842 318.205 351.57 318.466 351.514C319.467 351.47 320.893 351.303 322.216 351.206C322.916 351.15 323.594 351.098 324.264 351.043L324.006 351.47C323.146 349.4 322.416 347.576 321.919 346.265C321.422 344.954 321.157 344.152 321.227 344.121Z" fill="#00ADEB"/>
<path d="M252.386 513.446L341.554 510.725L380.337 662.232L373.193 836.02H325.997L331.847 665.932L297.354 560.463L302.668 842.759L255.021 843.461L249.999 578.113C249.79 570.739 247.363 554.1 248.268 546.784L252.386 513.446Z" fill="#1A2E35"/>
<path d="M309.23 562.605C309.212 562.744 307.538 562.662 304.856 562.346C302.173 562.03 298.483 561.465 294.441 560.653C290.399 559.838 286.775 558.933 284.179 558.187C281.582 557.441 280.008 556.872 280.046 556.735C280.124 556.446 286.6 558.014 294.648 559.627C302.69 561.252 309.268 562.308 309.23 562.605Z" fill="#375A64"/>
<path d="M372.765 826.49C372.765 826.782 362.08 827.015 348.902 827.015C335.72 827.015 325.038 826.782 325.038 826.49C325.038 826.2 335.72 825.967 348.902 825.967C362.08 825.967 372.765 826.2 372.765 826.49Z" fill="#375A64"/>
<path d="M302.241 835.426C302.241 835.717 291.877 835.951 279.091 835.951C266.303 835.951 255.94 835.717 255.94 835.426C255.94 835.136 266.303 834.903 279.091 834.903C291.877 834.903 302.241 835.136 302.241 835.426Z" fill="#375A64"/>
<path d="M296.103 834.703C295.814 834.707 294.561 773.022 293.304 696.943C292.047 620.837 291.265 559.156 291.552 559.154C291.842 559.15 293.095 620.821 294.352 696.925C295.609 773.004 296.393 834.697 296.103 834.703Z" fill="#375A64"/>
<path d="M366.427 826.49C366.409 826.49 366.402 826.211 366.404 825.67C366.417 825.076 366.431 824.278 366.449 823.26C366.511 821.084 366.602 817.977 366.718 814C366.998 805.905 367.402 794.286 367.899 779.951C369.001 751.16 370.519 711.475 372.194 667.639C372.21 667.235 372.226 666.829 372.242 666.457L372.257 666.605C361.689 624.288 352.136 586.041 345.213 558.307C341.814 544.492 339.061 533.3 337.142 525.502C336.221 521.669 335.503 518.67 335.001 516.575C334.775 515.589 334.6 514.821 334.47 514.246C334.355 513.721 334.305 513.45 334.323 513.446C334.339 513.442 334.424 513.705 334.572 514.222C334.727 514.787 334.936 515.551 335.204 516.523C335.753 518.608 336.535 521.59 337.537 525.403C339.529 533.18 342.393 544.345 345.926 558.128C352.931 585.84 362.588 624.063 373.272 666.35L373.292 666.422L373.288 666.499C373.274 666.871 373.256 667.275 373.242 667.681C371.446 711.511 369.819 751.192 368.639 779.982C368.001 794.31 367.484 805.922 367.124 814.016C366.925 817.988 366.768 821.095 366.66 823.266C366.598 824.284 366.549 825.082 366.511 825.674C366.473 826.215 366.445 826.492 366.427 826.49Z" fill="#375A64"/>
<path d="M351.044 662.92C351.092 663.205 346.424 664.243 340.616 665.24C336.281 665.986 332.536 666.497 330.901 666.59L330.897 666.182C331.44 666.33 331.732 666.447 331.722 666.519C331.71 666.592 331.396 666.614 330.835 666.59L329.614 666.537L330.831 666.182C332.404 665.723 336.104 664.955 340.44 664.211C346.247 663.213 350.995 662.632 351.044 662.92Z" fill="#375A64"/>
<path d="M350.142 668.701C350.102 668.993 345.913 668.669 340.755 668.273C335.597 667.867 331.408 667.537 331.414 667.241C331.42 666.958 335.645 666.819 340.837 667.229C346.026 667.629 350.18 668.42 350.142 668.701Z" fill="#375A64"/>
<mask id="mask16_259_1973" style="mask-type:luminance" maskUnits="userSpaceOnUse" x="251" y="510" width="91" height="12">
<path d="M251.99 510.725H341.554V521.629H251.99V510.725Z" fill="white"/>
</mask>
<g mask="url(#mask16_259_1973)">
<g opacity="0.199997">
<path d="M251.991 516.647C254.146 519.682 257.221 520.745 260.793 521.331C264.366 521.916 268.01 521.526 271.608 521.127C294.624 518.573 319.013 516.217 341.555 510.727C312.377 512.361 281.564 511.81 252.387 513.445C252.387 513.445 252.137 515.452 252.079 515.935" fill="black"/>
</g>
</g>
<mask id="mask17_259_1973" style="mask-type:luminance" maskUnits="userSpaceOnUse" x="282" y="557" width="17" height="65">
<path d="M282.067 557.774H298.505V621.587H282.067V557.774Z" fill="white"/>
</mask>
<g mask="url(#mask17_259_1973)">
<g opacity="0.199997">
<path d="M282.067 557.774L298.505 621.587L297.354 560.463L282.067 557.774Z" fill="black"/>
</g>
</g>
</g>
<rect x="441" y="579" width="85" height="32" fill="#00ADEB"/>
</g>
<defs>
<clipPath id="clip0_259_1973">
<rect width="898" height="898" fill="white"/>
</clipPath>
</defs>
</svg>
