<svg width="840" height="840" viewBox="0 0 840 840" fill="none" xmlns="http://www.w3.org/2000/svg">
<g clip-path="url(#clip0_932_8560)">
<path d="M521.397 542.419H825.88V367.767H521.397V542.419ZM827.761 544.3H519.516V365.886H827.761V544.3Z" fill="#E1E1E1"/>
<path d="M764.178 466.982H560.764V461.015H764.178V466.982Z" fill="#F0F0F0"/>
<path d="M778.189 489.764H560.766V483.254H778.189V489.764Z" fill="#F0F0F0"/>
<path d="M778.189 512.26H560.766V505.75H778.189V512.26Z" fill="#F0F0F0"/>
<path d="M631.857 444.198H560.766V428.719H631.857V444.198Z" fill="#F0F0F0"/>
<path d="M826.821 395.229H520.457V366.826H826.821V395.229Z" fill="#E1E1E1"/>
<mask id="mask0_932_8560" style="mask-type:luminance" maskUnits="userSpaceOnUse" x="-51" y="-51" width="942" height="942">
<path d="M-50.5117 -50.5122H890.045V890.045H-50.5117V-50.5122Z" fill="white"/>
</mask>
<g mask="url(#mask0_932_8560)">
<path d="M803.245 390.983C802.854 390.609 806.803 385.85 812.062 380.349C817.322 374.849 821.904 370.696 822.296 371.07C822.687 371.444 818.738 376.205 813.477 381.704C808.219 387.202 803.637 391.358 803.245 390.983Z" fill="white"/>
<path d="M822.296 390.983C821.904 391.358 817.322 387.202 812.064 381.704C806.801 376.205 802.854 371.444 803.246 371.07C803.637 370.696 808.217 374.849 813.479 380.349C818.738 385.85 822.687 390.609 822.296 390.983Z" fill="white"/>
<path d="M448.411 190.08H142.045V13.547H448.411V190.08Z" fill="#E7E7E7"/>
<path d="M385.768 113.702H182.355V107.735H385.768V113.702Z" fill="#F0F0F0"/>
<path d="M399.779 136.484H182.355V129.975H399.779V136.484Z" fill="#F0F0F0"/>
<path d="M399.779 158.98H182.355V152.471H399.779V158.98Z" fill="#F0F0F0"/>
<path d="M253.445 90.9189H182.355V75.4393H253.445V90.9189Z" fill="#F0F0F0"/>
<path d="M448.411 41.948H142.045V13.5469H448.411V41.948Z" fill="#E1E1E1"/>
<path d="M423.787 37.5696C423.395 37.1952 427.344 32.4341 432.603 26.9357C437.863 21.4353 442.445 17.2818 442.837 17.6561C443.228 18.0286 439.279 22.7897 434.018 28.2901C428.76 33.7885 424.178 37.9439 423.787 37.5696Z" fill="white"/>
<path d="M442.837 37.5696C442.445 37.9439 437.863 33.7885 432.605 28.2901C427.342 22.7897 423.395 18.0286 423.787 17.6561C424.178 17.2818 428.758 21.4353 434.02 26.9357C439.279 32.4341 443.228 37.1952 442.837 37.5696Z" fill="white"/>
<path d="M26.0139 339.61H330.497V164.958H26.0139V339.61ZM332.378 341.491H24.1328V163.077H332.378V341.491Z" fill="#E1E1E1"/>
<path d="M268.795 264.174H65.3809V258.207H268.795V264.174Z" fill="#F0F0F0"/>
<path d="M282.806 286.954H65.3809V280.445H282.806V286.954Z" fill="#F0F0F0"/>
<path d="M282.806 309.45H65.3809V302.941H282.806V309.45Z" fill="#F0F0F0"/>
<path d="M136.472 241.392H65.3809V225.91H136.472V241.392Z" fill="#F0F0F0"/>
<path d="M331.437 192.42H25.0723V164.017H331.437V192.42Z" fill="#E1E1E1"/>
<path d="M688.119 706.222H326.373V382.377H688.119V706.222Z" fill="#E7E7E7"/>
<path d="M344.559 574.77H61.1914V280.359H344.559V574.77Z" fill="#F0F0F0"/>
<path d="M344.559 312.437H61.1914V280.359H344.559V312.437Z" fill="#E1E1E1"/>
<path d="M84.5914 296.07C84.5914 299.505 81.9277 302.289 78.6414 302.289C75.3551 302.289 72.6914 299.505 72.6914 296.07C72.6914 292.635 75.3551 289.851 78.6414 289.851C81.9277 289.851 84.5914 292.635 84.5914 296.07Z" fill="white"/>
<path d="M108.724 296.07C108.724 299.505 106.061 302.289 102.774 302.289C99.4898 302.289 96.8262 299.505 96.8262 296.07C96.8262 292.635 99.4898 289.851 102.774 289.851C106.061 289.851 108.724 292.635 108.724 296.07Z" fill="white"/>
<path d="M132.855 296.07C132.855 299.505 130.191 302.289 126.905 302.289C123.621 302.289 120.957 299.505 120.957 296.07C120.957 292.635 123.621 289.851 126.905 289.851C130.191 289.851 132.855 292.635 132.855 296.07Z" fill="white"/>
<path d="M787.307 438.474H425.561V77.9378H787.307V438.474Z" fill="#F0F0F0"/>
<path d="M787.307 120.169H425.561V77.9377H787.307V120.169Z" fill="#E1E1E1"/>
<path d="M456.369 98.6201C456.369 103.142 452.863 106.809 448.536 106.809C444.211 106.809 440.705 103.142 440.705 98.6201C440.705 94.0979 444.211 90.4335 448.536 90.4335C452.863 90.4335 456.369 94.0979 456.369 98.6201Z" fill="white"/>
<path d="M485.845 93.0825C489.041 96.2804 489.154 101.352 486.096 104.409C483.037 107.467 477.965 107.355 474.768 104.159C471.571 100.961 471.459 95.8891 474.517 92.8305C477.576 89.7718 482.648 89.8846 485.845 93.0825Z" fill="white"/>
<path d="M519.91 98.6201C519.91 103.142 516.404 106.809 512.077 106.809C507.751 106.809 504.246 103.142 504.246 98.6201C504.246 94.0979 507.751 90.4335 512.077 90.4335C516.404 90.4335 519.91 94.0979 519.91 98.6201Z" fill="white"/>
</g>
<mask id="mask1_932_8560" style="mask-type:luminance" maskUnits="userSpaceOnUse" x="-51" y="-51" width="942" height="942">
<path d="M-50.5117 -50.5122H890.045V890.045H-50.5117V-50.5122Z" fill="white"/>
</mask>
<g mask="url(#mask1_932_8560)">
<path d="M625.497 196.618C556.616 136.505 463.365 196.601 372.782 323.298C282.2 449.996 239.098 396.708 162.036 452.506C84.9744 508.3 64.4853 737.028 335.818 714.795C607.148 692.564 805.591 353.781 625.497 196.618Z" fill="#F0F0F0"/>
</g>
<mask id="mask2_932_8560" style="mask-type:luminance" maskUnits="userSpaceOnUse" x="-51" y="-51" width="942" height="942">
<path d="M-50.5117 -50.5122H890.045V890.045H-50.5117V-50.5122Z" fill="white"/>
</mask>
<g mask="url(#mask2_932_8560)">
<path d="M709.164 801.878C709.164 802.149 578.541 802.369 417.446 802.369C256.296 802.369 125.701 802.149 125.701 801.878C125.701 801.608 256.296 801.387 417.446 801.387C578.541 801.387 709.164 801.608 709.164 801.878Z" fill="#475966"/>
</g>
<mask id="mask3_932_8560" style="mask-type:luminance" maskUnits="userSpaceOnUse" x="-51" y="-51" width="942" height="942">
<path d="M-50.5117 -50.5122H890.045V890.045H-50.5117V-50.5122Z" fill="white"/>
</mask>
<g mask="url(#mask3_932_8560)">
<path d="M581.88 571.594C552.82 551.291 546.227 513.607 547.376 479.732C547.568 474.077 546.948 468.116 549.636 463.156C552.328 458.195 558.603 454.804 563.665 457.187C567.866 459.162 569.694 464.047 572.043 468.088C575.17 473.462 579.826 477.909 585.305 480.753C588.906 482.621 593.362 483.765 596.916 481.805C601.793 479.113 602.369 472.375 602.333 466.75C602.267 456.267 602.203 445.785 602.138 435.306C602.102 429.683 602.085 423.94 603.834 418.601C605.584 413.265 609.448 408.306 614.798 406.807C620.149 405.31 626.763 408.395 627.894 413.899C628.364 416.19 627.898 418.568 628.054 420.902C628.21 423.237 629.297 425.819 631.515 426.47C633.759 427.129 636.009 425.533 637.691 423.887C643.496 418.21 647.435 410.895 651.116 403.62C654.798 396.346 658.37 388.899 663.637 382.704C668.904 376.512 676.19 371.604 684.243 371.147C692.298 370.691 700.879 375.663 702.915 383.57C704.956 391.498 700.33 399.542 695.296 405.96C687.828 415.483 678.994 423.902 669.158 430.874C667.386 432.132 665.465 433.492 664.786 435.575C663.565 439.326 667.119 443.048 670.819 444.281C675.012 445.676 679.561 445.242 683.946 445.757C688.33 446.275 693.08 448.208 694.739 452.352C697.044 458.101 692.236 464.126 687.505 468.073C678.033 475.975 667.217 482.217 655.678 486.444C651.541 487.958 647.188 489.286 643.851 492.193C640.516 495.101 638.503 500.153 640.518 504.115C642.535 508.08 647.708 509.348 652.042 508.543C656.374 507.742 660.253 505.389 664.382 503.831C672.111 500.913 682.091 501.446 687.042 508.126C690.296 512.516 690.582 518.63 688.936 523.863C687.292 529.096 683.955 533.605 680.411 537.762C668.024 552.294 652.166 563.995 634.237 570.212C616.31 576.427 599.698 578.11 581.88 571.594Z" fill="url(#paint0_linear_932_8560)"/>
<path d="M694.79 375.856C694.803 375.869 694.617 376.051 694.244 376.39C693.828 376.76 693.275 377.253 692.574 377.88C691.101 379.181 688.93 381.102 686.201 383.651C680.734 388.732 673.057 396.377 664.72 406.836C660.535 412.048 656.187 417.949 651.633 424.369C647.09 430.801 642.278 437.703 637.493 445.148C632.707 452.59 627.916 460.566 623.618 469.183C621.451 473.482 619.517 477.981 617.545 482.569C615.583 487.154 613.593 491.807 611.578 496.516C603.588 515.374 596.558 533.604 591.535 550.634C586.484 567.648 583.478 583.418 582.163 596.779C580.815 610.148 581.091 621.059 581.637 628.544C581.93 632.287 582.216 635.193 582.481 637.154C582.589 638.094 582.675 638.835 582.741 639.39C582.794 639.894 582.812 640.156 582.796 640.16C582.777 640.161 582.724 639.907 582.636 639.407C582.547 638.856 582.427 638.119 582.274 637.184C581.943 635.229 581.59 632.327 581.234 628.578C580.565 621.083 580.175 610.135 581.435 596.708C582.664 583.288 585.606 567.441 590.625 550.359C595.61 533.263 602.63 514.977 610.629 496.104C612.645 491.394 614.639 486.738 616.603 482.152C618.572 477.577 620.527 473.04 622.715 468.72C627.049 460.062 631.878 452.067 636.697 444.622C641.516 437.17 646.36 430.276 650.937 423.863C655.529 417.456 659.921 411.565 664.154 406.367C672.589 395.936 680.375 388.344 685.932 383.35C688.706 380.842 690.92 378.969 692.44 377.718C693.172 377.125 693.744 376.659 694.176 376.307C694.572 375.995 694.778 375.842 694.79 375.856Z" fill="#475966"/>
<path d="M623.01 468.68C622.941 468.692 622.749 467.838 622.461 466.282C622.166 464.726 621.812 462.465 621.417 459.664C620.621 454.064 619.788 446.295 618.9 437.725C618.014 429.149 617.072 421.414 616.193 415.842C615.76 413.056 615.39 410.802 615.113 409.248C614.844 407.693 614.73 406.824 614.799 406.807C614.869 406.792 615.117 407.631 615.507 409.164C615.905 410.695 616.387 412.935 616.912 415.716C617.978 421.274 619.041 429.03 619.927 437.612C620.781 446.071 621.554 453.725 622.143 459.572C622.425 462.213 622.666 464.437 622.86 466.222C623.023 467.792 623.082 468.669 623.01 468.68Z" fill="#475966"/>
<path d="M695.315 455.168C695.316 455.239 694.287 455.359 692.431 455.514C690.574 455.677 687.89 455.903 684.581 456.287C677.957 457.002 668.845 458.309 658.853 460.192C648.862 462.094 639.893 464.199 633.45 465.909C630.22 466.74 627.628 467.485 625.83 467.987C624.035 468.499 623.033 468.749 623.008 468.681C622.987 468.61 623.949 468.23 625.711 467.598C627.476 466.975 630.045 466.121 633.258 465.194C639.669 463.296 648.642 461.071 658.665 459.161C668.685 457.274 677.85 456.076 684.511 455.549C687.839 455.26 690.542 455.145 692.41 455.107C694.278 455.077 695.311 455.094 695.315 455.168Z" fill="#475966"/>
<path d="M591.512 549.028C591.479 549.043 591.311 548.74 591.016 548.146C590.683 547.439 590.275 546.575 589.78 545.531C588.717 543.255 587.263 539.92 585.521 535.778C582.033 527.495 577.575 515.902 572.827 503.043C568.077 490.178 563.732 478.558 560.423 470.215C558.8 466.158 557.464 462.822 556.473 460.341C556.048 459.265 555.7 458.379 555.414 457.649C555.182 457.031 555.075 456.698 555.107 456.681C555.141 456.667 555.31 456.97 555.604 457.565C555.939 458.272 556.347 459.134 556.84 460.18C557.904 462.456 559.357 465.789 561.098 469.931C564.588 478.214 569.046 489.809 573.794 502.672C578.542 515.533 582.887 527.151 586.198 535.497C587.822 539.551 589.155 542.888 590.147 545.368C590.572 546.444 590.922 547.333 591.208 548.06C591.439 548.68 591.546 549.013 591.512 549.028Z" fill="#475966"/>
<path d="M687.596 518.062C687.605 518.097 687.276 518.231 686.642 518.455C685.891 518.707 684.97 519.015 683.852 519.39C681.275 520.225 677.795 521.354 673.563 522.725C664.876 525.543 652.921 529.57 639.719 534.04C626.512 538.513 614.509 542.435 605.761 545.072C601.388 546.395 597.838 547.426 595.372 548.09C594.23 548.389 593.29 548.635 592.526 548.837C591.871 548.996 591.523 549.062 591.514 549.028C591.504 548.993 591.834 548.859 592.468 548.633C593.216 548.383 594.138 548.075 595.257 547.7C597.834 546.865 601.313 545.738 605.545 544.365C614.232 541.549 626.187 537.52 639.394 533.048C652.598 528.577 664.597 524.655 673.346 522.018C677.72 520.695 681.27 519.664 683.738 519C684.879 518.701 685.818 518.453 686.584 518.253C687.238 518.094 687.584 518.026 687.596 518.062Z" fill="#475966"/>
</g>
<mask id="mask4_932_8560" style="mask-type:luminance" maskUnits="userSpaceOnUse" x="-51" y="-51" width="942" height="942">
<path d="M-50.5117 -50.5122H890.045V890.045H-50.5117V-50.5122Z" fill="white"/>
</mask>
<g mask="url(#mask4_932_8560)">
<path d="M628.324 148.069L635.211 169.105C635.501 169.995 634.993 170.903 634.133 171.212L624.498 174.658C623.761 174.922 622.816 174.532 622.527 173.642L615.64 152.606C608.177 152.292 601.249 147.344 598.657 139.431C595.328 129.256 600.538 118.131 610.303 114.639C620.062 111.148 630.698 116.603 634.03 126.778C636.62 134.692 634.045 143.039 628.324 148.069ZM571.874 74.9818C567.686 62.1864 574.223 48.2135 586.466 43.8362C598.697 39.4607 612.06 46.3136 616.249 59.1089L620.393 71.7669L576.018 87.6416L571.874 74.9818ZM648.4 61.75L638.706 65.2169L634.56 52.5589C626.917 29.2105 602.517 16.718 580.202 24.6996C557.873 32.6887 545.935 58.1777 553.58 81.5261L557.724 94.186L547.999 97.6642C540.435 100.371 536.343 109.086 538.932 117L565.899 199.376C568.531 207.408 576.879 211.694 584.442 208.989L684.844 173.072C692.529 170.324 696.626 161.588 693.994 153.554L667.026 71.1781C664.436 63.2643 656.084 58.9998 648.4 61.75Z" fill="url(#paint1_linear_932_8560)"/>
<path d="M638.283 64.9902C638.375 65.2442 620.318 72.0049 597.957 80.0862C575.589 88.1731 557.385 94.5181 557.293 94.2641C557.201 94.0102 575.254 87.2513 597.624 79.1663C619.983 71.0832 638.191 64.7363 638.283 64.9902Z" fill="#475966"/>
<path d="M659.603 68.4568C659.62 68.4511 659.693 68.6185 659.819 68.9496C659.962 69.3334 660.142 69.8187 660.366 70.4225C660.85 71.7939 661.523 73.7032 662.377 76.1261C664.106 81.1599 666.565 88.327 669.595 97.1532C672.614 106.064 676.2 116.64 680.178 128.378C682.144 134.273 684.292 140.396 686.352 146.863C687.304 150.112 688.094 153.587 687.763 157.185C687.595 158.972 687.11 160.769 686.239 162.392C685.353 164.006 684.117 165.426 682.686 166.583C679.793 168.895 676.408 170.244 673.137 171.457C669.855 172.637 666.617 173.799 663.44 174.939C657.082 177.215 650.949 179.411 645.105 181.502C633.427 185.661 622.904 189.407 614.04 192.563C605.238 195.66 598.092 198.175 593.069 199.939C590.641 200.772 588.726 201.427 587.353 201.899C586.739 202.097 586.247 202.257 585.857 202.385C585.517 202.488 585.34 202.535 585.336 202.518C585.33 202.503 585.494 202.426 585.821 202.291C586.203 202.14 586.685 201.95 587.285 201.713C588.645 201.199 590.537 200.487 592.94 199.582C597.938 197.744 605.048 195.131 613.807 191.911C622.648 188.699 633.148 184.886 644.8 180.654C650.637 178.543 656.764 176.331 663.115 174.036C666.292 172.891 669.522 171.724 672.802 170.543C676.045 169.339 679.339 168.007 682.067 165.821C683.419 164.73 684.561 163.414 685.38 161.927C686.181 160.43 686.632 158.773 686.792 157.093C687.11 153.713 686.365 150.334 685.43 147.134C683.404 140.731 681.26 134.552 679.322 128.666C675.419 116.903 671.901 106.303 668.937 97.3733C666.032 88.5057 663.671 81.3067 662.014 76.2465C661.234 73.7991 660.62 71.871 660.18 70.4865C659.992 69.8676 659.843 69.3729 659.725 68.9797C659.629 68.6393 659.586 68.4624 659.603 68.4568Z" fill="#475966"/>
<path d="M606.642 42.5149C606.593 42.5977 605.643 42.0089 603.794 41.264C601.941 40.5567 599.138 39.7309 595.583 39.618C592.052 39.4882 587.756 40.0356 583.467 41.9073C579.193 43.7602 574.983 47.0447 571.967 51.5161C568.896 55.9705 567.551 61.1267 567.549 65.7994C567.507 70.4946 568.506 74.6782 569.462 78.1094C570.455 81.5443 571.469 84.27 572.135 86.1624C572.812 88.0548 573.175 89.1063 573.109 89.1327C573.049 89.1553 572.566 88.1545 571.779 86.3016C571.002 84.4468 569.887 81.7531 568.8 78.3069C567.746 74.8663 566.655 70.6319 566.644 65.7937C566.593 60.9837 567.97 55.5774 571.157 50.9668C574.283 46.3317 578.664 42.9513 583.107 41.0796C587.568 39.1872 591.998 38.7038 595.617 38.9258C599.259 39.1327 602.105 40.0845 603.943 40.9141C604.855 41.3599 605.551 41.7249 605.988 42.0315C606.437 42.3212 606.661 42.4848 606.642 42.5149Z" fill="#475966"/>
<path d="M607.497 116.124C607.485 116.099 607.811 115.938 608.45 115.65C609.084 115.352 610.053 114.976 611.353 114.604C612.64 114.201 614.291 113.906 616.24 113.793C618.185 113.695 620.473 113.896 622.839 114.777C627.645 116.466 632.075 121.38 634.252 127.888C635.296 131.176 635.39 134.995 634.338 138.69C633.217 142.365 631.159 145.894 628.187 148.859L628.309 148.36C630.809 155.215 633.529 162.679 636.362 170.441L636.534 170.913L636.058 171.073C634.694 171.53 633.23 172.021 631.755 172.516C628.588 173.577 625.463 174.623 622.397 175.65L621.934 175.804L621.782 175.339C619.205 167.54 616.381 160.189 614.331 153.159L614.737 153.479C610.886 153.223 607.425 151.605 604.669 149.498C601.902 147.371 599.782 144.732 598.352 141.951C596.947 139.166 596.24 136.205 596.359 133.479C596.428 130.753 597.056 128.289 597.937 126.21C599.692 122.015 602.307 119.378 604.244 117.939C606.216 116.498 607.497 116.124 607.497 116.124C607.542 116.208 606.302 116.681 604.419 118.169C602.574 119.655 600.081 122.296 598.441 126.415C596.801 130.435 596.091 136.214 599.02 141.607C600.425 144.271 602.497 146.807 605.175 148.836C607.841 150.845 611.165 152.36 614.786 152.582L615.104 152.6L615.192 152.901C617.265 159.88 620.106 167.204 622.705 175.035L622.088 174.726C625.153 173.697 628.277 172.649 631.445 171.586C632.92 171.094 634.382 170.603 635.747 170.146L635.441 170.776C632.628 163.005 629.925 155.537 627.444 148.675L627.342 148.398L627.566 148.176C630.38 145.394 632.431 141.946 633.511 138.445C634.538 134.914 634.477 131.286 633.503 128.118C631.447 121.799 627.22 116.995 622.636 115.309C620.373 114.425 618.157 114.184 616.253 114.235C614.348 114.303 612.715 114.545 611.43 114.899C608.845 115.563 607.53 116.205 607.497 116.124Z" fill="#475966"/>
</g>
<mask id="mask5_932_8560" style="mask-type:luminance" maskUnits="userSpaceOnUse" x="-51" y="-51" width="942" height="942">
<path d="M-50.5117 -50.5122H890.045V890.045H-50.5117V-50.5122Z" fill="white"/>
</mask>
<g mask="url(#mask5_932_8560)">
<path d="M549.36 659.265L361.472 658.396C338.874 658.292 320.639 639.893 320.733 617.295L322.725 146.259C322.821 123.648 341.231 105.399 363.84 105.502L551.73 106.371C574.326 106.475 592.564 124.874 592.468 147.472L590.476 618.51C590.382 641.119 571.971 659.37 549.36 659.265Z" fill="#475966"/>
<path d="M551.462 122.627L515.034 122.46C510.149 122.437 506.171 126.559 506.15 131.666L506.12 138.273C506.101 143.38 502.122 147.503 497.237 147.479L426.231 147.151C421.345 147.129 417.402 142.97 417.423 137.864L417.451 131.256C417.472 126.149 413.529 121.99 408.644 121.967L395.834 121.909L363.949 121.762C348.115 121.689 335.22 134.469 335.154 150.304L333.211 610.071C333.143 625.899 345.914 638.784 361.742 638.858L549.254 639.723C565.087 639.796 577.982 627.016 578.05 611.181L579.993 151.412C580.059 135.586 567.288 122.701 551.462 122.627Z" fill="white"/>
<path d="M526.227 578.389L386.791 577.746C385.348 577.739 384.184 576.168 384.193 574.236L384.348 537.757C384.355 535.826 385.533 534.266 386.976 534.272L526.412 534.917C527.854 534.924 529.019 536.495 529.009 538.427L528.855 574.902C528.849 576.836 527.672 578.397 526.227 578.389Z" fill="url(#paint2_linear_932_8560)"/>
<path d="M427.981 555.216C427.418 555.213 426.878 555.121 426.359 554.938C425.847 554.748 425.452 554.508 425.171 554.218L425.488 553.603C425.754 553.864 426.11 554.085 426.557 554.268C427.01 554.443 427.486 554.532 427.984 554.534C428.46 554.536 428.846 554.481 429.143 554.366C429.446 554.245 429.667 554.084 429.805 553.882C429.95 553.681 430.023 553.458 430.024 553.212C430.026 552.917 429.94 552.678 429.768 552.497C429.602 552.316 429.383 552.174 429.109 552.072C428.835 551.962 428.533 551.867 428.201 551.786C427.87 551.705 427.538 551.621 427.207 551.533C426.875 551.437 426.569 551.313 426.288 551.161C426.015 551.008 425.792 550.808 425.62 550.562C425.455 550.309 425.373 549.98 425.375 549.576C425.377 549.201 425.475 548.859 425.672 548.549C425.875 548.233 426.183 547.982 426.595 547.796C427.007 547.603 427.534 547.508 428.176 547.511C428.602 547.513 429.024 547.576 429.442 547.701C429.86 547.818 430.22 547.982 430.522 548.193L430.248 548.83C429.925 548.612 429.579 548.452 429.212 548.349C428.851 548.247 428.501 548.194 428.162 548.193C427.708 548.191 427.332 548.25 427.036 548.372C426.74 548.493 426.519 548.658 426.374 548.866C426.236 549.068 426.166 549.298 426.165 549.558C426.164 549.854 426.246 550.092 426.411 550.274C426.583 550.455 426.807 550.597 427.08 550.699C427.361 550.801 427.668 550.893 427.999 550.974C428.331 551.055 428.659 551.143 428.983 551.238C429.314 551.333 429.617 551.457 429.89 551.61C430.171 551.756 430.394 551.952 430.559 552.198C430.731 552.444 430.816 552.765 430.815 553.162C430.813 553.53 430.711 553.872 430.507 554.189C430.304 554.498 429.993 554.749 429.573 554.942C429.161 555.128 428.63 555.219 427.981 555.216ZM432.551 555.172L432.583 547.596L433.384 547.6L433.352 555.176L432.551 555.172ZM435.817 555.187L435.849 547.612L436.509 547.615L441.709 554.219L441.362 554.217L441.39 547.637L442.18 547.641L442.148 555.217L441.488 555.214L436.299 548.609L436.646 548.611L436.618 555.191L435.817 555.187ZM447.943 555.308C447.366 555.306 446.832 555.209 446.343 555.02C445.86 554.823 445.439 554.55 445.08 554.202C444.728 553.854 444.452 553.445 444.252 552.975C444.059 552.505 443.963 551.993 443.966 551.437C443.968 550.881 444.068 550.37 444.265 549.902C444.469 549.434 444.752 549.027 445.114 548.683C445.476 548.338 445.899 548.073 446.384 547.888C446.875 547.695 447.409 547.6 447.986 547.603C448.564 547.605 449.09 547.698 449.565 547.881C450.048 548.063 450.458 548.339 450.796 548.709L450.296 549.215C449.98 548.896 449.631 548.667 449.249 548.528C448.867 548.39 448.456 548.319 448.016 548.317C447.547 548.315 447.114 548.392 446.716 548.549C446.326 548.699 445.982 548.917 445.685 549.205C445.395 549.485 445.167 549.816 444.999 550.197C444.839 550.572 444.758 550.986 444.756 551.441C444.754 551.888 444.832 552.303 444.989 552.686C445.153 553.07 445.379 553.406 445.666 553.696C445.961 553.979 446.303 554.2 446.692 554.361C447.088 554.514 447.517 554.592 447.979 554.594C448.411 554.596 448.819 554.533 449.202 554.405C449.593 554.277 449.951 554.059 450.277 553.75L450.729 554.358C450.366 554.674 449.943 554.914 449.459 555.077C448.975 555.234 448.47 555.311 447.943 555.308ZM449.961 554.257L449.972 551.465L450.741 551.468L450.729 554.358L449.961 554.257ZM458.876 555.359C457.909 555.354 457.149 555.073 456.596 554.515C456.042 553.957 455.768 553.133 455.773 552.044L455.791 547.704L456.592 547.707L456.574 552.015C456.57 552.909 456.769 553.571 457.171 553.998C457.574 554.426 458.143 554.641 458.879 554.645C459.622 554.648 460.196 554.438 460.602 554.014C461.008 553.59 461.213 552.931 461.217 552.036L461.235 547.729L462.014 547.732L461.996 552.072C461.991 553.162 461.71 553.983 461.152 554.536C460.601 555.089 459.842 555.363 458.876 555.359ZM464.395 555.319L464.427 547.744L467.263 547.757C467.905 547.76 468.457 547.867 468.917 548.078C469.378 548.282 469.731 548.58 469.974 548.971C470.225 549.354 470.349 549.82 470.347 550.368C470.345 550.902 470.217 551.364 469.962 551.752C469.716 552.133 469.361 552.427 468.898 552.635C468.435 552.842 467.883 552.944 467.241 552.941L464.849 552.93L465.208 552.553L465.196 555.323L464.395 555.319ZM465.208 552.618L464.852 552.226L467.222 552.237C467.98 552.241 468.554 552.081 468.945 551.758C469.343 551.428 469.544 550.964 469.546 550.365C469.549 549.759 469.352 549.289 468.957 548.955C468.569 548.621 467.996 548.453 467.238 548.449L464.868 548.438L465.227 548.061L465.208 552.618Z" fill="#E9E9E4"/>
<path d="M414.529 266.622L366.154 266.398L366.192 257.523L414.567 257.747L414.529 266.622Z" fill="url(#paint3_linear_932_8560)"/>
<mask id="mask6_932_8560" style="mask-type:luminance" maskUnits="userSpaceOnUse" x="366" y="257" width="49" height="10">
<path d="M366.154 257.522H414.567V266.621H366.154V257.522Z" fill="white"/>
</mask>
<g mask="url(#mask6_932_8560)">
<g opacity="0.100006">
<path d="M414.529 266.621L366.154 266.397L366.192 257.522L414.567 257.746L414.529 266.621Z" fill="#475966"/>
</g>
</g>
<path d="M556.441 312.215C556.433 312.177 556.845 312.237 557.545 311.955C558.203 311.699 559.247 310.898 559.368 309.425C559.362 306.425 559.353 302.064 559.342 296.464C559.342 293.646 559.34 290.516 559.338 287.094C559.34 286.237 559.34 285.362 559.34 284.468C559.364 283.556 559.362 282.708 558.813 282.004C558.318 281.308 557.472 280.862 556.588 280.859C555.623 280.857 554.641 280.855 553.642 280.853C545.638 280.838 536.531 280.819 526.469 280.8C486.172 280.65 430.556 280.445 369.132 280.217C368.322 280.21 367.53 280.607 367.059 281.265C366.536 281.929 366.559 282.715 366.57 283.724C366.563 285.633 366.555 287.535 366.546 289.433C366.529 293.225 366.514 296.995 366.497 300.734C366.487 302.606 366.48 304.468 366.471 306.325C366.501 307.215 366.384 308.28 366.55 308.97C366.736 309.726 367.308 310.366 368.017 310.667C368.387 310.817 368.734 310.87 369.181 310.866L370.558 310.874L373.305 310.885C375.131 310.894 376.95 310.904 378.76 310.913C393.248 310.99 407.221 311.066 420.536 311.135C447.152 311.297 471.125 311.444 491.27 311.566C511.377 311.726 527.662 311.854 538.956 311.942C544.558 312.008 548.92 312.059 551.921 312.094C553.376 312.123 554.496 312.143 555.291 312.158C556.051 312.179 556.441 312.215 556.441 312.215C556.441 312.215 556.051 312.247 555.291 312.258C554.496 312.268 553.376 312.279 551.921 312.292C548.918 312.3 544.556 312.311 538.954 312.324C527.658 312.309 511.375 312.286 491.268 312.26C471.123 312.196 447.148 312.121 420.53 312.038C407.217 311.985 393.245 311.931 378.756 311.873C376.946 311.865 375.127 311.859 373.301 311.85L370.554 311.839L369.177 311.833C368.707 311.842 368.124 311.769 367.642 311.558C366.657 311.145 365.872 310.262 365.611 309.216C365.462 308.686 365.496 308.146 365.494 307.711L365.5 306.321C365.507 304.465 365.515 302.601 365.522 300.731C365.538 296.989 365.553 293.221 365.568 289.429C365.575 287.531 365.585 285.629 365.59 283.72C365.605 283.231 365.564 282.802 365.639 282.217C365.724 281.667 365.936 281.137 366.267 280.689C366.913 279.781 368.022 279.224 369.136 279.237C430.56 279.576 486.174 279.884 526.471 280.108C536.535 280.181 545.641 280.247 553.645 280.306C554.644 280.313 555.626 280.321 556.591 280.33C557.647 280.339 558.647 280.881 559.223 281.709C559.868 282.52 559.863 283.629 559.827 284.47C559.819 285.364 559.814 286.239 559.806 287.094C559.774 290.518 559.748 293.648 559.723 296.466C559.654 302.072 559.601 306.438 559.563 309.44C559.4 311.009 558.275 311.814 557.579 312.049C556.845 312.307 556.441 312.215 556.441 312.215Z" fill="#E1E1E1"/>
<path d="M467.63 300.371L379.137 299.962L379.172 291.665L467.666 292.073L467.63 300.371Z" fill="url(#paint4_linear_932_8560)"/>
<mask id="mask7_932_8560" style="mask-type:luminance" maskUnits="userSpaceOnUse" x="379" y="291" width="89" height="10">
<path d="M379.137 291.664H467.664V300.37H379.137V291.664Z" fill="white"/>
</mask>
<g mask="url(#mask7_932_8560)">
<g opacity="0.199997">
<path d="M467.63 300.371L379.137 299.962L379.172 291.665L467.666 292.073L467.63 300.371Z" fill="white"/>
</g>
</g>
<path d="M414.185 347.629L365.811 347.405L365.848 338.53L414.223 338.752L414.185 347.629Z" fill="url(#paint5_linear_932_8560)"/>
<mask id="mask8_932_8560" style="mask-type:luminance" maskUnits="userSpaceOnUse" x="365" y="338" width="50" height="10">
<path d="M365.811 338.53H414.225V347.629H365.811V338.53Z" fill="white"/>
</mask>
<g mask="url(#mask8_932_8560)">
<g opacity="0.100006">
<path d="M414.187 347.629L365.812 347.405L365.85 338.53L414.225 338.752L414.187 347.629Z" fill="#475966"/>
</g>
</g>
<path d="M555.199 393.217C555.195 393.183 555.594 393.219 556.314 393.006C556.997 392.783 558.098 392.218 558.696 390.875C559.018 390.213 559.051 389.41 559.021 388.49C559.018 387.576 559.014 386.581 559.01 385.501C559.006 383.336 559.001 380.845 558.997 378.044C558.997 375.236 558.995 372.117 558.995 368.706V366.091C559.035 365.192 558.925 364.359 558.446 363.608C557.992 362.871 557.259 362.286 556.401 362.023C555.558 361.757 554.552 361.902 553.559 361.861C545.583 361.846 536.506 361.827 526.478 361.808C486.322 361.66 430.9 361.455 369.689 361.227C367.988 361.186 366.418 362.572 366.254 364.256C366.197 366.044 366.226 368.022 366.205 369.888C366.188 373.667 366.173 377.423 366.156 381.15C366.149 383.014 366.139 384.871 366.132 386.722C366.162 387.645 366.03 388.61 366.25 389.348C366.463 390.125 366.959 390.821 367.623 391.276C368.312 391.74 369.059 391.912 369.962 391.878L372.699 391.891C374.52 391.9 376.331 391.91 378.137 391.919C392.573 391.996 406.499 392.07 419.766 392.139C446.29 392.301 470.18 392.448 490.255 392.57C510.293 392.728 526.519 392.858 537.774 392.944C543.357 393.012 547.705 393.061 550.694 393.097C552.146 393.125 553.261 393.146 554.055 393.161C554.811 393.181 555.199 393.217 555.199 393.217C555.199 393.217 554.811 393.249 554.053 393.26C553.261 393.27 552.144 393.281 550.692 393.294C547.705 393.302 543.355 393.313 537.772 393.328C526.518 393.311 510.289 393.291 490.252 393.262C470.176 393.2 446.288 393.125 419.76 393.042C406.495 392.99 392.569 392.935 378.131 392.879C376.327 392.871 374.514 392.863 372.693 392.856L369.958 392.845C369.038 392.894 367.907 392.67 367.076 392.077C366.226 391.492 365.588 390.604 365.315 389.604C365.035 388.55 365.202 387.634 365.161 386.716C365.167 384.867 365.174 383.01 365.182 381.146C365.197 377.418 365.212 373.663 365.227 369.882C365.249 367.969 365.212 366.15 365.281 364.139C365.49 361.974 367.51 360.192 369.693 360.249C430.904 360.585 486.326 360.892 526.482 361.116C536.51 361.189 545.585 361.255 553.561 361.313C554.544 361.366 555.539 361.206 556.557 361.518C557.539 361.827 558.371 362.499 558.878 363.343C559.418 364.169 559.535 365.224 559.48 366.093C559.473 366.983 559.469 367.854 559.462 368.708C559.431 372.119 559.401 375.237 559.379 378.046C559.349 380.847 559.322 383.338 559.302 385.503C559.289 386.581 559.277 387.578 559.266 388.492C559.283 389.387 559.23 390.279 558.877 390.956C558.214 392.354 557.052 392.903 556.341 393.102C555.594 393.289 555.199 393.217 555.199 393.217Z" fill="#E1E1E1"/>
<path d="M413.83 432.115L365.455 431.893L365.491 423.016L413.868 423.238L413.83 432.115Z" fill="url(#paint6_linear_932_8560)"/>
<mask id="mask9_932_8560" style="mask-type:luminance" maskUnits="userSpaceOnUse" x="365" y="423" width="49" height="10">
<path d="M365.455 423.016H413.868V432.114H365.455V423.016Z" fill="white"/>
</mask>
<g mask="url(#mask9_932_8560)">
<g opacity="0.100006">
<path d="M413.83 432.115L365.455 431.893L365.491 423.016L413.868 423.238L413.83 432.115Z" fill="#475966"/>
</g>
</g>
<path d="M554.84 477.704C554.838 477.67 555.237 477.706 555.955 477.495C556.64 477.271 557.738 476.705 558.337 475.362C558.658 474.7 558.692 473.897 558.662 472.977C558.658 472.062 558.654 471.067 558.651 469.988C558.647 467.822 558.643 465.332 558.639 462.533C558.638 459.722 558.638 456.604 558.636 453.193C558.636 452.341 558.638 451.468 558.638 450.576C558.675 449.679 558.568 448.846 558.088 448.095C557.633 447.358 556.901 446.773 556.044 446.509C555.201 446.244 554.194 446.389 553.199 446.348C545.225 446.331 536.149 446.314 526.121 446.295C485.962 446.146 430.543 445.939 369.331 445.714C367.629 445.672 366.06 447.059 365.896 448.742C365.84 450.531 365.866 452.506 365.847 454.374C365.831 458.152 365.816 461.91 365.799 465.637C365.789 467.501 365.782 469.357 365.774 471.208C365.804 472.13 365.673 473.095 365.891 473.833C366.103 474.611 366.6 475.307 367.264 475.763C367.954 476.227 368.701 476.4 369.604 476.365L372.339 476.378C374.16 476.387 375.974 476.397 377.778 476.406C392.213 476.483 406.139 476.556 419.407 476.626C445.93 476.79 469.821 476.935 489.896 477.057C509.934 477.215 526.16 477.345 537.415 477.431C542.998 477.499 547.347 477.55 550.334 477.585C551.787 477.612 552.904 477.632 553.696 477.649C554.452 477.668 554.84 477.704 554.84 477.704C554.84 477.704 554.452 477.736 553.696 477.747C552.902 477.755 551.787 477.766 550.334 477.781C547.345 477.789 542.996 477.8 537.413 477.815C526.158 477.798 509.932 477.777 489.892 477.749C469.817 477.687 445.929 477.612 419.403 477.529C406.135 477.476 392.209 477.424 377.774 477.365C375.968 477.358 374.156 477.35 372.335 477.343L369.598 477.331C368.679 477.38 367.548 477.157 366.718 476.564C365.866 475.979 365.23 475.089 364.956 474.09C364.676 473.037 364.843 472.119 364.802 471.203C364.809 469.354 364.817 467.495 364.824 465.633C364.839 461.904 364.854 458.148 364.869 454.369C364.89 452.454 364.854 450.637 364.924 448.626C365.133 446.461 367.153 444.679 369.335 444.736C430.547 445.072 485.966 445.379 526.124 445.603C536.151 445.676 545.227 445.742 553.203 445.8C554.187 445.851 555.182 445.693 556.2 446.005C557.18 446.314 558.011 446.987 558.521 447.83C559.061 448.658 559.177 449.711 559.123 450.58C559.115 451.47 559.11 452.343 559.102 453.195C559.072 456.605 559.044 459.724 559.021 462.533C558.991 465.334 558.965 467.824 558.944 469.99C558.931 471.067 558.918 472.064 558.907 472.977C558.924 473.876 558.871 474.766 558.517 475.445C557.857 476.841 556.693 477.392 555.983 477.589C555.237 477.774 554.84 477.704 554.84 477.704Z" fill="#E1E1E1"/>
<path d="M467.288 381.378L378.795 380.97L378.829 372.672L467.324 373.08L467.288 381.378Z" fill="url(#paint7_linear_932_8560)"/>
<mask id="mask10_932_8560" style="mask-type:luminance" maskUnits="userSpaceOnUse" x="378" y="372" width="90" height="10">
<path d="M378.795 372.673H467.324V381.378H378.795V372.673Z" fill="white"/>
</mask>
<g mask="url(#mask10_932_8560)">
<g opacity="0.199997">
<path d="M467.288 381.378L378.795 380.97L378.829 372.672L467.324 373.081L467.288 381.378Z" fill="white"/>
</g>
</g>
<path d="M386.87 462.348C386.86 464.626 385.12 466.464 382.983 466.457C380.847 466.445 379.123 464.589 379.133 462.311C379.142 460.035 380.882 458.193 383.019 458.204C385.154 458.214 386.879 460.069 386.87 462.348Z" fill="url(#paint8_linear_932_8560)"/>
<path d="M398.858 462.404C398.849 464.682 397.109 466.519 394.972 466.512C392.835 466.503 391.112 464.646 391.121 462.366C391.131 460.09 392.871 458.25 395.008 458.259C397.143 458.269 398.868 460.124 398.858 462.404Z" fill="url(#paint9_linear_932_8560)"/>
<path d="M410.844 462.459C410.835 464.737 409.095 466.577 406.958 466.567C404.821 466.558 403.098 464.701 403.107 462.421C403.117 460.145 404.857 458.305 406.994 458.315C409.129 458.324 410.854 460.179 410.844 462.459Z" fill="url(#paint10_linear_932_8560)"/>
<path d="M422.833 462.513C422.823 464.791 421.083 466.631 418.948 466.622C416.811 466.612 415.086 464.756 415.096 462.476C415.105 460.2 416.845 458.36 418.982 458.369C421.119 458.381 422.844 460.235 422.833 462.513Z" fill="url(#paint11_linear_932_8560)"/>
<path d="M434.821 462.569C434.812 464.849 433.072 466.687 430.937 466.677C428.8 466.668 427.075 464.811 427.084 462.533C427.095 460.255 428.833 458.415 430.97 458.425C433.107 458.436 434.83 460.291 434.821 462.569Z" fill="url(#paint12_linear_932_8560)"/>
<path d="M446.809 462.624C446.8 464.904 445.06 466.742 442.923 466.732C440.786 466.723 439.063 464.866 439.072 462.588C439.082 460.31 440.82 458.471 442.957 458.48C445.096 458.491 446.819 460.346 446.809 462.624Z" fill="url(#paint13_linear_932_8560)"/>
<path d="M458.798 462.679C458.786 464.959 457.046 466.797 454.911 466.789C452.774 466.778 451.051 464.921 451.061 462.643C451.07 460.365 452.808 458.526 454.945 458.537C457.082 458.546 458.807 460.401 458.798 462.679Z" fill="url(#paint14_linear_932_8560)"/>
<path d="M470.784 462.734C470.775 465.014 469.035 466.852 466.9 466.845C464.763 466.833 463.038 464.979 463.049 462.699C463.058 460.423 464.796 458.581 466.933 458.592C469.07 458.602 470.795 460.456 470.784 462.734Z" fill="url(#paint15_linear_932_8560)"/>
<path d="M482.774 462.791C482.765 465.069 481.025 466.907 478.89 466.9C476.753 466.89 475.028 465.034 475.037 462.754C475.048 460.478 476.787 458.638 478.924 458.647C481.06 458.657 482.785 460.511 482.774 462.791Z" fill="url(#paint16_linear_932_8560)"/>
<mask id="mask11_932_8560" style="mask-type:luminance" maskUnits="userSpaceOnUse" x="379" y="458" width="104" height="9">
<path d="M379.133 458.205H482.775V466.899H379.133V458.205Z" fill="white"/>
</mask>
<g mask="url(#mask11_932_8560)">
<g opacity="0.199997">
<path d="M386.87 462.348C386.86 464.626 385.12 466.464 382.983 466.457C380.847 466.445 379.123 464.589 379.133 462.311C379.142 460.035 380.882 458.193 383.019 458.204C385.154 458.214 386.879 460.069 386.87 462.348Z" fill="white"/>
<path d="M398.858 462.403C398.849 464.681 397.109 466.519 394.972 466.512C392.835 466.502 391.112 464.646 391.121 462.366C391.131 460.09 392.871 458.25 395.008 458.259C397.143 458.269 398.868 460.123 398.858 462.403Z" fill="white"/>
<path d="M410.846 462.459C410.837 464.737 409.097 466.577 406.96 466.567C404.823 466.558 403.1 464.701 403.109 462.421C403.119 460.145 404.859 458.305 406.996 458.315C409.131 458.324 410.856 460.179 410.846 462.459Z" fill="white"/>
<path d="M422.833 462.513C422.823 464.791 421.083 466.631 418.948 466.622C416.811 466.612 415.086 464.756 415.096 462.476C415.105 460.2 416.845 458.36 418.982 458.369C421.119 458.381 422.844 460.235 422.833 462.513Z" fill="white"/>
<path d="M434.821 462.569C434.812 464.849 433.072 466.687 430.937 466.677C428.8 466.668 427.075 464.811 427.084 462.533C427.095 460.255 428.833 458.415 430.97 458.425C433.107 458.436 434.83 460.291 434.821 462.569Z" fill="white"/>
<path d="M446.809 462.624C446.8 464.904 445.06 466.742 442.923 466.732C440.786 466.723 439.063 464.866 439.072 462.588C439.082 460.31 440.82 458.47 442.957 458.48C445.096 458.491 446.819 460.346 446.809 462.624Z" fill="white"/>
<path d="M458.8 462.679C458.788 464.959 457.048 466.797 454.913 466.789C452.776 466.778 451.053 464.921 451.063 462.643C451.072 460.365 452.81 458.526 454.947 458.537C457.084 458.546 458.809 460.401 458.8 462.679Z" fill="white"/>
<path d="M470.786 462.734C470.777 465.014 469.037 466.852 466.901 466.845C464.765 466.833 463.04 464.979 463.051 462.699C463.06 460.423 464.798 458.581 466.935 458.592C469.072 458.602 470.797 460.456 470.786 462.734Z" fill="white"/>
<path d="M482.774 462.791C482.765 465.069 481.025 466.907 478.89 466.899C476.753 466.89 475.028 465.033 475.037 462.753C475.048 460.477 476.787 458.638 478.924 458.647C481.06 458.656 482.785 460.511 482.774 462.791Z" fill="white"/>
</g>
</g>
<path d="M465.748 191.221C468.28 190.16 470.081 187.549 470.096 184.474C470.111 180.444 467.061 177.162 463.282 177.145C459.507 177.128 456.429 180.38 456.412 184.41C456.399 187.513 458.213 190.156 460.771 191.221C450.244 192.807 450.722 204.25 450.722 204.25L475.617 204.365C475.617 204.365 476.185 192.798 465.748 191.221Z" fill="url(#paint17_linear_932_8560)"/>
<mask id="mask12_932_8560" style="mask-type:luminance" maskUnits="userSpaceOnUse" x="450" y="177" width="26" height="28">
<path d="M450.719 177.144H475.623V204.364H450.719V177.144Z" fill="white"/>
</mask>
<g mask="url(#mask12_932_8560)">
<g opacity="0.100006">
<path d="M465.748 191.221C468.28 190.16 470.081 187.549 470.096 184.473C470.111 180.444 467.061 177.161 463.282 177.145C459.507 177.128 456.429 180.38 456.412 184.409C456.399 187.513 458.213 190.156 460.771 191.221C450.244 192.807 450.722 204.25 450.722 204.25L475.617 204.364C475.617 204.364 476.185 192.797 465.748 191.221Z" fill="#475966"/>
</g>
</g>
<path d="M506.157 222.469L417.383 222.059L417.428 211.445L506.2 211.854L506.157 222.469Z" fill="url(#paint18_linear_932_8560)"/>
<mask id="mask13_932_8560" style="mask-type:luminance" maskUnits="userSpaceOnUse" x="417" y="211" width="90" height="12">
<path d="M417.383 211.444H506.202V222.469H417.383V211.444Z" fill="white"/>
</mask>
<g mask="url(#mask13_932_8560)">
<g opacity="0.199997">
<path d="M506.157 222.469L417.383 222.058L417.428 211.445L506.2 211.853L506.157 222.469Z" fill="white"/>
</g>
</g>
</g>
<mask id="mask14_932_8560" style="mask-type:luminance" maskUnits="userSpaceOnUse" x="-51" y="-51" width="942" height="942">
<path d="M-50.5117 -50.5122H890.045V890.045H-50.5117V-50.5122Z" fill="white"/>
</mask>
<g mask="url(#mask14_932_8560)">
<path d="M179.861 266.788C179.861 266.807 179.563 266.839 178.988 266.886C178.365 266.931 177.515 266.993 176.426 267.072C175.295 267.093 173.922 267.337 172.298 267.623C171.493 267.787 170.602 267.853 169.691 268.122C168.775 268.376 167.804 268.645 166.775 268.931C162.716 270.212 157.827 272.245 152.904 275.81C147.994 279.348 143.083 284.407 139.255 291.004C137.242 294.247 135.782 297.992 134.471 301.929C133.404 305.936 132.458 310.193 132.389 314.677C132.187 316.914 132.413 319.188 132.509 321.497C132.569 322.652 132.819 323.797 132.966 324.96C133.124 326.124 133.295 327.296 133.625 328.443C134.578 333.12 136.482 337.704 138.892 342.097C143.709 350.917 151.806 358.513 161.804 362.917C166.807 365.123 172.336 366.314 177.961 366.545C183.591 366.901 189.358 365.998 194.827 364.117L196.48 363.509L196.698 363.43L196.896 363.53C204.99 367.64 212.929 371.67 220.621 375.575L219.915 376.177C217.383 368.314 214.926 360.69 212.571 353.376L212.479 353.094L212.69 352.885C218.668 346.897 222.835 339.623 225.145 332.176C227.46 324.706 227.857 317.098 226.952 310.127C226.049 303.141 223.764 296.788 220.72 291.442C217.677 286.081 213.892 281.724 210.007 278.325C206.078 274.948 202.001 272.661 198.352 270.91C194.612 269.345 191.279 268.342 188.508 267.808C187.122 267.573 185.891 267.362 184.817 267.179C183.751 267.104 182.844 267.042 182.093 266.989C181.394 266.935 180.842 266.893 180.427 266.861C180.052 266.828 179.861 266.803 179.861 266.788C179.861 266.775 180.052 266.771 180.429 266.777C180.846 266.788 181.399 266.803 182.103 266.824C182.857 266.854 183.771 266.892 184.844 266.935C185.927 267.097 187.171 267.281 188.568 267.49C191.367 267.979 194.744 268.942 198.542 270.479C202.248 272.204 206.392 274.48 210.399 277.866C214.36 281.275 218.226 285.663 221.347 291.083C224.467 296.487 226.823 302.926 227.771 310.02C228.719 317.097 228.346 324.83 226.014 332.441C223.685 340.029 219.46 347.454 213.375 353.569L213.493 353.079C215.859 360.389 218.327 368.009 220.873 375.868L221.243 377.018L220.167 376.47C212.472 372.569 204.531 368.545 196.435 364.44L196.851 364.459L195.16 365.08C189.571 367.003 183.672 367.924 177.919 367.557C172.172 367.319 166.518 366.094 161.409 363.833C151.196 359.324 142.961 351.553 138.073 342.557C135.628 338.075 133.707 333.402 132.752 328.641C132.421 327.471 132.249 326.28 132.091 325.095C131.947 323.912 131.698 322.747 131.64 321.574C131.552 319.224 131.333 316.912 131.544 314.642C131.636 310.086 132.612 305.763 133.719 301.702C135.069 297.708 136.572 293.918 138.632 290.639C142.556 283.97 147.571 278.882 152.573 275.347C157.584 271.784 162.55 269.783 166.663 268.551C167.703 268.278 168.689 268.022 169.614 267.781C170.534 267.525 171.435 267.473 172.25 267.326C173.888 267.068 175.272 266.854 176.411 266.867C177.505 266.831 178.359 266.803 178.986 266.782C179.563 266.769 179.861 266.771 179.861 266.788Z" fill="url(#paint19_linear_932_8560)"/>
<path d="M190.587 310.709H187.111L179.525 300.135V293.196C179.525 293.196 174.15 292.867 174.782 301.952C175.416 311.04 174.732 308.726 174.732 308.726C174.732 308.726 163.321 308.77 162.373 309.761C161.684 310.481 161.372 321.815 161.253 327.961C161.193 331.055 163.091 333.933 165.969 334.665C166.378 334.77 166.791 334.831 167.196 334.831C170.042 334.831 184.583 332.517 184.583 332.517H190.587V310.709Z" fill="url(#paint20_linear_932_8560)"/>
<path d="M200.54 308.804L198.401 332.582H192.447V309.282L200.54 308.804Z" fill="url(#paint21_linear_932_8560)"/>
</g>
<mask id="mask15_932_8560" style="mask-type:luminance" maskUnits="userSpaceOnUse" x="-51" y="-51" width="942" height="942">
<path d="M-50.5117 -50.5122H890.045V890.045H-50.5117V-50.5122Z" fill="white"/>
</mask>
<g mask="url(#mask15_932_8560)">
<path d="M271.442 792.868V776.773L242.602 776.581L242.363 800.894L244.152 801.028C252.107 801.542 284.634 802.29 289.965 800.641C295.909 798.799 271.442 792.868 271.442 792.868Z" fill="url(#paint22_linear_932_8560)"/>
<path d="M290.648 799.13C290.648 799.403 279.86 799.621 266.556 799.621C253.247 799.621 242.463 799.403 242.463 799.13C242.463 798.859 253.247 798.641 266.556 798.641C279.86 798.641 290.648 798.859 290.648 799.13Z" fill="#475966"/>
<path d="M271.95 796.152C271.713 796.028 271.916 795.176 272.537 794.339C273.154 793.498 273.908 793.052 274.096 793.241C274.29 793.436 273.893 794.143 273.325 794.92C272.753 795.693 272.19 796.28 271.95 796.152Z" fill="#475966"/>
<path d="M273.79 797.213C273.539 797.118 273.669 796.165 274.235 795.162C274.8 794.156 275.55 793.554 275.759 793.719C275.975 793.887 275.612 794.709 275.089 795.644C274.563 796.575 274.045 797.312 273.79 797.213Z" fill="#475966"/>
<path d="M251.15 799.059C251.037 799.138 250.608 798.714 249.984 798.005C249.355 797.304 248.533 796.31 247.455 795.473C246.383 794.636 245.205 794.219 244.335 794.109C243.458 793.993 242.882 794.128 242.833 793.987C242.783 793.882 243.319 793.479 244.357 793.417C245.382 793.348 246.829 793.737 248.052 794.696C249.269 795.646 250.047 796.779 250.542 797.599C251.035 798.427 251.259 798.983 251.15 799.059Z" fill="#475966"/>
<path d="M272.037 793.127C272.178 793.354 271.683 793.913 270.861 794.214C270.039 794.519 269.298 794.414 269.258 794.148C269.215 793.877 269.802 793.563 270.522 793.296C271.245 793.031 271.894 792.894 272.037 793.127Z" fill="#475966"/>
<path d="M271.585 791.571C271.612 791.842 270.842 792.073 269.87 792.085C268.895 792.098 268.12 791.889 268.139 791.618C268.158 791.349 268.925 791.12 269.856 791.106C270.784 791.093 271.559 791.302 271.585 791.571Z" fill="#475966"/>
<path d="M342.457 792.868V776.773L313.618 776.581L313.379 800.648L315.168 800.78C323.123 801.293 355.651 802.29 360.981 800.641C366.925 798.799 342.457 792.868 342.457 792.868Z" fill="url(#paint23_linear_932_8560)"/>
<path d="M361.663 799.167C361.663 799.438 350.877 799.658 337.572 799.658C324.263 799.658 313.479 799.438 313.479 799.167C313.479 798.896 324.263 798.676 337.572 798.676C350.877 798.676 361.663 798.896 361.663 799.167Z" fill="#475966"/>
<path d="M342.965 796.152C342.728 796.028 342.931 795.176 343.552 794.339C344.169 793.498 344.924 793.052 345.112 793.241C345.305 793.436 344.908 794.143 344.34 794.92C343.769 795.693 343.206 796.28 342.965 796.152Z" fill="#475966"/>
<path d="M344.805 797.213C344.555 797.118 344.685 796.165 345.251 795.162C345.815 794.156 346.566 793.554 346.775 793.719C346.991 793.887 346.628 794.709 346.105 795.644C345.576 796.575 345.061 797.312 344.805 797.213Z" fill="#475966"/>
<path d="M322.165 799.059C322.053 799.138 321.624 798.714 320.999 798.005C320.373 797.304 319.549 796.31 318.471 795.473C317.401 794.636 316.221 794.219 315.35 794.109C314.474 793.993 313.898 794.128 313.849 793.987C313.798 793.882 314.334 793.479 315.373 793.417C316.398 793.348 317.844 793.737 319.069 794.696C320.286 795.646 321.063 796.779 321.56 797.599C322.051 798.427 322.275 798.983 322.165 799.059Z" fill="#475966"/>
<path d="M343.052 793.127C343.193 793.354 342.698 793.913 341.876 794.214C341.053 794.519 340.313 794.414 340.274 794.148C340.23 793.877 340.816 793.563 341.536 793.296C342.26 793.031 342.909 792.894 343.052 793.127Z" fill="#475966"/>
<path d="M342.599 791.571C342.625 791.842 341.856 792.073 340.883 792.085C339.909 792.098 339.136 791.889 339.153 791.618C339.173 791.349 339.941 791.12 340.87 791.106C341.799 791.093 342.572 791.302 342.599 791.571Z" fill="#475966"/>
<path d="M448.695 315.26C447.943 314.485 446.092 314.85 446.092 314.85C446.092 314.85 446.415 312.653 446.073 311.588C445.734 310.525 443.362 310.73 443.362 310.73C443.362 310.73 443.216 309.707 443.423 308.055C443.477 307.643 443.248 307.337 442.871 307.109C441.75 306.43 439.329 306.464 439.329 306.464C437.875 305.425 443.752 297.209 445.93 294.577C448.084 291.979 447.721 289.899 445.778 289.9C444.453 289.904 437.595 297.801 435.499 300.453C433.408 303.104 427.796 310.48 427.604 304.594C427.414 298.708 425.048 294.255 423.571 293.495C422.093 292.737 420.497 294.517 421.316 296.151C421.976 297.472 422.395 300.017 422.632 301.941C422.826 303.529 422.762 305.139 422.414 306.701C421.432 311.11 420.379 313.973 419.882 315.196L419.737 315.115C419.737 315.115 378.678 354.485 375.719 357.295C373.056 359.823 319.703 354.304 309.015 353.17C306.093 352.843 301.767 352.256 298.018 352.419C293.383 352.622 292.557 353.281 287.916 353.343C273.708 353.533 261.867 354.917 253.053 356.409C242.399 358.211 233.663 365.794 230.365 376.086C219.577 409.754 195.171 489.458 190.822 534.235C187.397 540.675 183.569 548.198 182.013 552.431C178.99 560.66 179.724 560.943 180.743 561.131C183.477 561.637 186.607 546.857 187.777 550.423C188.947 553.99 181.848 568.055 184.728 568.467C188.482 569.003 191.475 553.471 191.825 552.173C192.165 550.914 194.06 551.339 193.682 552.493C193.138 554.15 187.845 571.701 191.526 572.263C193.567 572.575 193.787 568.858 193.787 568.858C193.787 568.858 197.529 552.073 199.257 552.397C201.014 552.724 199.148 562.654 198.283 565.958C197.427 569.221 198.633 570.956 200.392 570.134C201.594 569.573 204.483 559.519 205.264 556.232C206.044 552.946 208.021 543.892 210.678 549.148C213.334 554.404 217.356 557.444 219.015 557.51C220.676 557.573 221.372 555.29 219.94 554.15C218.781 553.232 217.329 551.101 216.304 549.455C215.457 548.098 214.837 546.61 214.494 545.049C213.172 539.029 213.183 535.531 213.183 535.531L212.877 533.595C217.088 512.73 229.231 451.509 246.673 412.397L253.855 427.177L256.972 438.119L237.831 485.406L319.496 484.33L307.322 437.417L322.113 388.501V388.499C338.121 388.856 379.237 389.453 386.146 386.364C394.76 382.515 439.341 326.319 439.341 326.319C442.352 323.92 445.413 321.339 447.672 319.09C447.672 319.09 450.328 316.94 448.695 315.26Z" fill="#FFBF9D"/>
<path d="M234.275 450.591C236.639 442.505 248.814 402.516 248.814 402.516C248.814 402.516 254.788 435.117 253.218 439.043C251.408 443.569 248.082 448.746 248.082 448.746C234.275 469.773 236.086 480.283 236.086 480.283L319.497 477.74C319.7 466.073 312.794 438.953 311.352 434.634C309.907 430.313 314.696 416.131 314.696 416.131C314.696 416.131 324.123 406.558 323.758 401.632C323.022 391.707 322.114 388.5 322.114 388.5L372.868 390.368L371.273 355.932L298.317 348.631C295.793 355.815 272.819 352.296 272.819 352.296C248.016 353.11 246.515 357.672 236.173 365.68C225.83 373.688 208.797 442.465 208.797 442.465L234.275 450.591Z" fill="url(#paint24_linear_932_8560)"/>
<path d="M283.604 442.457C283.602 442.587 281.924 442.698 279.208 442.679C276.493 442.662 272.742 442.495 268.617 442.081C264.492 441.663 260.782 441.082 258.118 440.557C255.453 440.034 253.829 439.594 253.856 439.464C253.88 439.327 255.547 439.528 258.229 439.874C260.912 440.222 264.614 440.693 268.715 441.105C272.816 441.517 276.538 441.793 279.236 441.987C281.933 442.182 283.606 442.316 283.604 442.457Z" fill="#475966"/>
<path d="M289.313 435.362C289.349 435.481 287.627 436.136 284.759 436.914C281.892 437.691 277.866 438.551 273.357 439.089C268.848 439.623 264.73 439.732 261.762 439.646C258.79 439.561 256.965 439.326 256.971 439.204C256.978 439.059 258.81 439.046 261.76 438.954C264.708 438.861 268.777 438.645 273.242 438.116C277.704 437.584 281.709 436.841 284.599 436.241C287.488 435.639 289.273 435.223 289.313 435.362Z" fill="#475966"/>
<path d="M317.37 403.721C317.5 403.749 317.286 405.374 316.8 407.976C316.315 410.577 315.551 414.151 314.59 418.072C313.629 421.994 312.65 425.517 311.877 428.047C311.104 430.579 310.544 432.12 310.414 432.084C310.282 432.046 310.608 430.442 311.209 427.867C311.921 424.932 312.737 421.561 313.64 417.838C314.562 414.123 315.397 410.758 316.123 407.825C316.781 405.267 317.237 403.692 317.37 403.721Z" fill="#475966"/>
<path d="M235.15 445.801C235.078 446.062 229.326 444.721 222.302 442.804C215.276 440.887 209.64 439.123 209.712 438.861C209.783 438.6 215.534 439.943 222.56 441.858C229.584 443.775 235.221 445.539 235.15 445.801Z" fill="#475966"/>
<path d="M323.031 388.059C323.031 388.104 322.258 388.185 320.872 388.048C319.493 387.905 317.474 387.585 315.136 386.68C312.796 385.804 310.136 384.338 307.651 382.122C305.164 379.916 302.945 376.88 301.528 373.306C300.089 369.737 299.617 366.016 299.843 362.704C300.061 359.397 300.936 356.408 302.418 354.314C303.881 352.192 305.825 351.163 307.177 350.807C307.864 350.627 308.415 350.584 308.784 350.593C309.154 350.602 309.346 350.642 309.344 350.672C309.35 350.766 308.565 350.721 307.292 351.171C306.043 351.618 304.286 352.674 302.992 354.7C300.432 358.725 299.717 366.075 302.439 372.943C303.802 376.377 305.9 379.295 308.259 381.455C310.616 383.624 313.152 385.104 315.394 386.037C319.914 387.912 323.065 387.85 323.031 388.059Z" fill="#475966"/>
<path d="M366.88 389.681C366.609 389.681 366.406 381.92 366.425 372.347C366.444 362.77 366.679 355.012 366.95 355.012C367.221 355.012 367.424 362.774 367.405 372.349C367.386 381.922 367.151 389.681 366.88 389.681Z" fill="#475966"/>
<path d="M297.868 350.729C298.073 346.53 298.513 341.788 298.513 341.788C298.513 341.788 308.893 340.642 309.523 329.92C310.153 319.196 309.523 294.469 309.523 294.469L290.618 284.841L269.818 301.252L272.971 354.867L292.108 356.084C295.123 356.276 297.713 353.872 297.868 350.729Z" fill="#FFBF9D"/>
<path d="M299.74 321.437C299.77 321.444 299.772 321.636 299.576 321.898C299.384 322.15 298.965 322.436 298.382 322.424C297.176 322.366 296.017 321.034 295.588 319.409C295.376 318.583 295.376 317.746 295.538 317.025C295.665 316.314 296.076 315.603 296.666 315.41C296.948 315.304 297.242 315.316 297.466 315.428C297.686 315.537 297.819 315.707 297.891 315.859C298.03 316.179 297.921 316.373 297.895 316.358C297.851 316.354 297.863 316.179 297.705 315.978C297.558 315.773 297.204 315.586 296.813 315.79C296.414 315.97 296.139 316.48 296.04 317.133C295.921 317.782 295.936 318.523 296.126 319.258C296.503 320.716 297.513 321.907 298.41 322.016C298.856 322.072 299.224 321.901 299.424 321.738C299.627 321.57 299.7 321.42 299.74 321.437Z" fill="#FF9A6C"/>
<path d="M315.972 288.68C314.525 283.742 309.279 281.291 304.497 279.936C297.225 277.875 289.343 276.962 282.236 279.579C275.129 282.196 266.583 286.799 266.585 294.65C262.39 294.306 259.993 297.982 258.327 302.536C257.343 305.224 256.698 308.221 256.544 311.187L256.476 311.165C255.936 321.441 253.073 335.6 246.41 343.2C242.73 347.397 237.433 350.298 235.289 355.523C233.425 360.066 234.39 365.435 232.627 370.021C231.071 374.069 227.627 376.944 225.157 380.465C219.779 388.136 219.412 398.973 223.364 407.534C227.317 416.095 235.148 422.359 243.84 425.23C252.533 428.1 262.003 427.784 270.849 425.482C277.381 423.78 283.735 420.965 288.94 416.518C294.145 412.07 298.139 405.885 299.33 398.983C300.654 391.298 298.504 383.496 296.922 375.864C291.916 351.718 293.346 350.463 299.662 328.067C299.804 327.673 299.892 327.261 300.001 326.855C300.086 326.558 300.165 326.274 300.251 325.969L300.238 325.964C300.413 325.087 300.53 324.195 300.533 323.285C298.705 324.005 296.495 323.527 295.093 322.109C293.692 320.691 293.169 318.403 293.808 316.479C294.542 314.265 296.574 312.784 298.66 311.908C300.746 311.029 302.99 310.595 305.039 309.62C309.382 307.555 312.392 303.264 314.442 298.77C315.878 295.621 316.948 292.013 315.972 288.68Z" fill="#475966"/>
<path d="M300.482 321.895C300.548 321.867 300.913 322.567 301.471 323.754C302.03 324.943 302.781 326.619 303.612 328.545L303.77 328.91L303.371 328.944C302.743 328.997 302.109 329.051 301.456 329.108C300.143 329.194 299.048 329.35 297.777 329.337C297.576 329.301 297.352 329.117 297.291 328.91C297.224 328.707 297.243 328.536 297.263 328.387C297.318 328.092 297.382 327.874 297.44 327.623L297.773 326.292C298.189 324.666 298.484 323.671 298.563 323.688C298.642 323.707 298.49 324.736 298.178 326.382L297.916 327.729C297.818 328.182 297.655 328.863 297.899 328.81C298.836 328.769 300.17 328.613 301.407 328.523C302.062 328.47 302.696 328.421 303.322 328.37L303.082 328.769C302.276 326.833 301.594 325.127 301.129 323.901C300.664 322.674 300.416 321.924 300.482 321.895Z" fill="url(#paint25_linear_932_8560)"/>
<path d="M236.086 480.283L319.495 477.738L355.772 619.459L349.09 782.023H304.942L310.414 622.921L278.149 524.264L283.119 788.327L238.55 788.984L233.853 540.774C233.657 533.876 231.387 518.312 232.233 511.468L236.086 480.283Z" fill="#475966"/>
<path d="M289.258 526.268C289.241 526.398 287.676 526.321 285.167 526.025C282.658 525.73 279.206 525.201 275.425 524.441C271.644 523.679 268.254 522.833 265.825 522.135C263.397 521.437 261.924 520.905 261.96 520.777C262.033 520.506 268.09 521.973 275.618 523.482C283.141 525.002 289.294 525.989 289.258 526.268Z" fill="#475966"/>
<path d="M348.689 773.109C348.689 773.382 338.695 773.6 326.368 773.6C314.037 773.6 304.045 773.382 304.045 773.109C304.045 772.838 314.037 772.62 326.368 772.62C338.695 772.62 348.689 772.838 348.689 773.109Z" fill="#475966"/>
<path d="M282.721 781.467C282.721 781.74 273.026 781.958 261.066 781.958C249.104 781.958 239.41 781.74 239.41 781.467C239.41 781.196 249.104 780.978 261.066 780.978C273.026 780.978 282.721 781.196 282.721 781.467Z" fill="#475966"/>
<path d="M276.981 780.791C276.71 780.795 275.538 723.094 274.362 651.929C273.186 580.739 272.455 523.041 272.724 523.039C272.995 523.035 274.166 580.724 275.342 651.912C276.518 723.077 277.251 780.786 276.981 780.791Z" fill="#475966"/>
<path d="M342.762 773.109C342.745 773.109 342.739 772.847 342.741 772.341C342.753 771.786 342.766 771.04 342.783 770.088C342.841 768.052 342.926 765.146 343.035 761.425C343.296 753.854 343.674 742.985 344.139 729.576C345.17 702.644 346.59 665.522 348.157 624.518C348.172 624.14 348.187 623.76 348.202 623.412L348.215 623.551C338.33 583.967 329.395 548.19 322.918 522.247C319.739 509.324 317.164 498.856 315.369 491.561C314.508 487.975 313.836 485.17 313.366 483.21C313.155 482.289 312.991 481.57 312.869 481.032C312.762 480.541 312.715 480.287 312.732 480.283C312.747 480.28 312.826 480.526 312.965 481.009C313.11 481.538 313.306 482.253 313.556 483.161C314.069 485.112 314.801 487.902 315.738 491.468C317.602 498.743 320.281 509.187 323.586 522.08C330.138 548.002 339.171 583.756 349.165 623.312L349.184 623.38L349.18 623.451C349.167 623.799 349.15 624.177 349.137 624.557C347.457 665.556 345.935 702.674 344.831 729.604C344.235 743.007 343.752 753.869 343.415 761.44C343.229 765.155 343.082 768.062 342.98 770.093C342.922 771.045 342.877 771.792 342.841 772.345C342.805 772.851 342.779 773.111 342.762 773.109Z" fill="#475966"/>
<path d="M328.371 620.103C328.417 620.37 324.05 621.341 318.618 622.274C314.562 622.972 311.059 623.45 309.53 623.536L309.526 623.154C310.034 623.293 310.307 623.403 310.298 623.47C310.286 623.538 309.993 623.559 309.468 623.536L308.326 623.487L309.464 623.154C310.935 622.725 314.397 622.007 318.452 621.311C323.885 620.378 328.326 619.834 328.371 620.103Z" fill="#475966"/>
<path d="M327.529 625.511C327.491 625.784 323.573 625.481 318.748 625.11C313.922 624.731 310.004 624.422 310.01 624.145C310.015 623.88 313.968 623.75 318.825 624.134C323.678 624.509 327.564 625.248 327.529 625.511Z" fill="#475966"/>
<mask id="mask16_932_8560" style="mask-type:luminance" maskUnits="userSpaceOnUse" x="235" y="477" width="85" height="11">
<path d="M235.717 477.738H319.496V487.938H235.717V477.738Z" fill="white"/>
</mask>
<g mask="url(#mask16_932_8560)">
<g opacity="0.199997">
<path d="M235.717 483.278C237.733 486.116 240.61 487.111 243.95 487.659C247.293 488.206 250.702 487.841 254.067 487.469C275.596 485.08 298.411 482.875 319.496 477.74C292.203 479.269 263.381 478.754 236.087 480.283C236.087 480.283 235.854 482.16 235.8 482.612" fill="#475966"/>
</g>
</g>
<mask id="mask17_932_8560" style="mask-type:luminance" maskUnits="userSpaceOnUse" x="263" y="521" width="17" height="61">
<path d="M263.85 521.749H279.226V581.44H263.85V521.749Z" fill="white"/>
</mask>
<g mask="url(#mask17_932_8560)">
<g opacity="0.199997">
<path d="M263.85 521.749L279.226 581.44L278.15 524.264L263.85 521.749Z" fill="#475966"/>
</g>
</g>
</g>
<rect x="384" y="534" width="145" height="44" rx="3" fill="url(#paint26_linear_932_8560)"/>
</g>
<defs>
<linearGradient id="paint0_linear_932_8560" x1="625.331" y1="575.746" x2="625.331" y2="371.118" gradientUnits="userSpaceOnUse">
<stop stop-color="#13BECF"/>
<stop offset="1" stop-color="#455869"/>
</linearGradient>
<linearGradient id="paint1_linear_932_8560" x1="616.473" y1="209.799" x2="616.473" y2="22.2893" gradientUnits="userSpaceOnUse">
<stop stop-color="#13BECF"/>
<stop offset="1" stop-color="#455869"/>
</linearGradient>
<linearGradient id="paint2_linear_932_8560" x1="456.601" y1="578.39" x2="456.601" y2="534.272" gradientUnits="userSpaceOnUse">
<stop stop-color="#13BECF"/>
<stop offset="1" stop-color="#455869"/>
</linearGradient>
<linearGradient id="paint3_linear_932_8560" x1="390.361" y1="266.622" x2="390.361" y2="257.523" gradientUnits="userSpaceOnUse">
<stop stop-color="#13BECF"/>
<stop offset="1" stop-color="#455869"/>
</linearGradient>
<linearGradient id="paint4_linear_932_8560" x1="423.401" y1="300.371" x2="423.401" y2="291.665" gradientUnits="userSpaceOnUse">
<stop stop-color="#13BECF"/>
<stop offset="1" stop-color="#455869"/>
</linearGradient>
<linearGradient id="paint5_linear_932_8560" x1="390.017" y1="347.629" x2="390.017" y2="338.53" gradientUnits="userSpaceOnUse">
<stop stop-color="#13BECF"/>
<stop offset="1" stop-color="#455869"/>
</linearGradient>
<linearGradient id="paint6_linear_932_8560" x1="389.661" y1="432.115" x2="389.661" y2="423.016" gradientUnits="userSpaceOnUse">
<stop stop-color="#13BECF"/>
<stop offset="1" stop-color="#455869"/>
</linearGradient>
<linearGradient id="paint7_linear_932_8560" x1="423.059" y1="381.378" x2="423.059" y2="372.672" gradientUnits="userSpaceOnUse">
<stop stop-color="#13BECF"/>
<stop offset="1" stop-color="#455869"/>
</linearGradient>
<linearGradient id="paint8_linear_932_8560" x1="383.001" y1="466.457" x2="383.001" y2="458.204" gradientUnits="userSpaceOnUse">
<stop stop-color="#13BECF"/>
<stop offset="1" stop-color="#455869"/>
</linearGradient>
<linearGradient id="paint9_linear_932_8560" x1="394.99" y1="466.512" x2="394.99" y2="458.259" gradientUnits="userSpaceOnUse">
<stop stop-color="#13BECF"/>
<stop offset="1" stop-color="#455869"/>
</linearGradient>
<linearGradient id="paint10_linear_932_8560" x1="406.976" y1="466.567" x2="406.976" y2="458.315" gradientUnits="userSpaceOnUse">
<stop stop-color="#13BECF"/>
<stop offset="1" stop-color="#455869"/>
</linearGradient>
<linearGradient id="paint11_linear_932_8560" x1="418.964" y1="466.622" x2="418.964" y2="458.369" gradientUnits="userSpaceOnUse">
<stop stop-color="#13BECF"/>
<stop offset="1" stop-color="#455869"/>
</linearGradient>
<linearGradient id="paint12_linear_932_8560" x1="430.953" y1="466.677" x2="430.953" y2="458.425" gradientUnits="userSpaceOnUse">
<stop stop-color="#13BECF"/>
<stop offset="1" stop-color="#455869"/>
</linearGradient>
<linearGradient id="paint13_linear_932_8560" x1="442.941" y1="466.732" x2="442.941" y2="458.48" gradientUnits="userSpaceOnUse">
<stop stop-color="#13BECF"/>
<stop offset="1" stop-color="#455869"/>
</linearGradient>
<linearGradient id="paint14_linear_932_8560" x1="454.929" y1="466.789" x2="454.929" y2="458.537" gradientUnits="userSpaceOnUse">
<stop stop-color="#13BECF"/>
<stop offset="1" stop-color="#455869"/>
</linearGradient>
<linearGradient id="paint15_linear_932_8560" x1="466.916" y1="466.845" x2="466.916" y2="458.592" gradientUnits="userSpaceOnUse">
<stop stop-color="#13BECF"/>
<stop offset="1" stop-color="#455869"/>
</linearGradient>
<linearGradient id="paint16_linear_932_8560" x1="478.906" y1="466.9" x2="478.906" y2="458.647" gradientUnits="userSpaceOnUse">
<stop stop-color="#13BECF"/>
<stop offset="1" stop-color="#455869"/>
</linearGradient>
<linearGradient id="paint17_linear_932_8560" x1="463.17" y1="204.365" x2="463.17" y2="177.145" gradientUnits="userSpaceOnUse">
<stop stop-color="#13BECF"/>
<stop offset="1" stop-color="#455869"/>
</linearGradient>
<linearGradient id="paint18_linear_932_8560" x1="461.791" y1="222.469" x2="461.791" y2="211.445" gradientUnits="userSpaceOnUse">
<stop stop-color="#13BECF"/>
<stop offset="1" stop-color="#455869"/>
</linearGradient>
<linearGradient id="paint19_linear_932_8560" x1="179.855" y1="377.018" x2="179.855" y2="266.774" gradientUnits="userSpaceOnUse">
<stop stop-color="#13BECF"/>
<stop offset="1" stop-color="#455869"/>
</linearGradient>
<linearGradient id="paint20_linear_932_8560" x1="175.92" y1="334.831" x2="175.92" y2="293.194" gradientUnits="userSpaceOnUse">
<stop stop-color="#13BECF"/>
<stop offset="1" stop-color="#455869"/>
</linearGradient>
<linearGradient id="paint21_linear_932_8560" x1="196.494" y1="332.582" x2="196.494" y2="308.804" gradientUnits="userSpaceOnUse">
<stop stop-color="#13BECF"/>
<stop offset="1" stop-color="#455869"/>
</linearGradient>
<linearGradient id="paint22_linear_932_8560" x1="266.63" y1="801.651" x2="266.63" y2="776.581" gradientUnits="userSpaceOnUse">
<stop stop-color="#13BECF"/>
<stop offset="1" stop-color="#455869"/>
</linearGradient>
<linearGradient id="paint23_linear_932_8560" x1="337.645" y1="801.551" x2="337.645" y2="776.581" gradientUnits="userSpaceOnUse">
<stop stop-color="#13BECF"/>
<stop offset="1" stop-color="#455869"/>
</linearGradient>
<linearGradient id="paint24_linear_932_8560" x1="290.832" y1="480.283" x2="290.832" y2="348.631" gradientUnits="userSpaceOnUse">
<stop stop-color="#13BECF"/>
<stop offset="1" stop-color="#455869"/>
</linearGradient>
<linearGradient id="paint25_linear_932_8560" x1="300.507" y1="329.338" x2="300.507" y2="321.895" gradientUnits="userSpaceOnUse">
<stop stop-color="#13BECF"/>
<stop offset="1" stop-color="#455869"/>
</linearGradient>
<linearGradient id="paint26_linear_932_8560" x1="456.5" y1="534" x2="456.5" y2="578" gradientUnits="userSpaceOnUse">
<stop stop-color="#13BECF"/>
<stop offset="1" stop-color="#455869"/>
</linearGradient>
<clipPath id="clip0_932_8560">
<rect width="840" height="840" fill="white"/>
</clipPath>
</defs>
</svg>
