<svg width="501" height="86" viewBox="0 0 501 86" fill="none" xmlns="http://www.w3.org/2000/svg">
<rect x="1" width="500" height="86" rx="10" fill="white"/>
<rect x="1.5" y="0.5" width="499" height="85" rx="9.5" stroke="#445A68" stroke-opacity="0.2"/>
<rect x="1" width="500" height="86" rx="10" fill="url(#paint0_linear_1048_6305)"/>
<path d="M212.168 31.6719H219.712C221.333 31.6719 222.715 31.916 223.857 32.4043C225 32.8926 225.874 33.6152 226.479 34.5723C227.095 35.5195 227.402 36.6914 227.402 38.0879C227.402 39.1523 227.207 40.0898 226.816 40.9004C226.426 41.7109 225.874 42.3945 225.161 42.9512C224.448 43.498 223.599 43.9229 222.612 44.2256L221.499 44.7676H214.717L214.688 41.8525H219.771C220.649 41.8525 221.382 41.6963 221.968 41.3838C222.554 41.0713 222.993 40.6465 223.286 40.1094C223.589 39.5625 223.74 38.9473 223.74 38.2637C223.74 37.5215 223.594 36.877 223.301 36.3301C223.018 35.7734 222.578 35.3486 221.982 35.0557C221.387 34.7529 220.63 34.6016 219.712 34.6016H215.845V53H212.168V31.6719ZM224.341 53L219.331 43.4199L223.184 43.4053L228.267 52.8096V53H224.341ZM237.7 53.293C236.528 53.293 235.469 53.1025 234.521 52.7217C233.584 52.3311 232.783 51.7891 232.119 51.0957C231.465 50.4023 230.962 49.5869 230.61 48.6494C230.259 47.7119 230.083 46.7012 230.083 45.6172V45.0312C230.083 43.791 230.264 42.668 230.625 41.6621C230.986 40.6562 231.489 39.7969 232.134 39.084C232.778 38.3613 233.54 37.8096 234.419 37.4287C235.298 37.0479 236.25 36.8574 237.275 36.8574C238.408 36.8574 239.399 37.0479 240.249 37.4287C241.099 37.8096 241.802 38.3467 242.358 39.04C242.925 39.7236 243.345 40.5391 243.618 41.4863C243.901 42.4336 244.043 43.4785 244.043 44.6211V46.1299H231.797V43.5957H240.557V43.3174C240.537 42.6826 240.41 42.0869 240.176 41.5303C239.951 40.9736 239.604 40.5244 239.136 40.1826C238.667 39.8408 238.042 39.6699 237.261 39.6699C236.675 39.6699 236.152 39.7969 235.693 40.0508C235.244 40.2949 234.868 40.6514 234.565 41.1201C234.263 41.5889 234.028 42.1553 233.862 42.8193C233.706 43.4736 233.628 44.2109 233.628 45.0312V45.6172C233.628 46.3105 233.721 46.9551 233.906 47.5508C234.102 48.1367 234.385 48.6494 234.756 49.0889C235.127 49.5283 235.576 49.875 236.104 50.1289C236.631 50.373 237.231 50.4951 237.905 50.4951C238.755 50.4951 239.512 50.3242 240.176 49.9824C240.84 49.6406 241.416 49.1572 241.904 48.5322L243.765 50.334C243.423 50.832 242.979 51.3105 242.432 51.7695C241.885 52.2188 241.216 52.585 240.425 52.8682C239.644 53.1514 238.735 53.293 237.7 53.293ZM246.973 37.1504H250.518V54.377C250.518 55.4609 250.332 56.374 249.961 57.1162C249.59 57.8682 249.043 58.4346 248.32 58.8154C247.598 59.2061 246.714 59.4014 245.669 59.4014C245.356 59.4014 245.034 59.377 244.702 59.3281C244.36 59.2891 244.038 59.2305 243.735 59.1523L243.75 56.3984C243.955 56.4375 244.175 56.4668 244.409 56.4863C244.634 56.5156 244.849 56.5303 245.054 56.5303C245.474 56.5303 245.825 56.457 246.108 56.3105C246.392 56.1641 246.606 55.9346 246.753 55.6221C246.899 55.3096 246.973 54.8945 246.973 54.377V37.1504ZM246.665 32.9902C246.665 32.4531 246.846 32.0088 247.207 31.6572C247.568 31.2959 248.062 31.1152 248.687 31.1152C249.321 31.1152 249.814 31.2959 250.166 31.6572C250.527 32.0088 250.708 32.4531 250.708 32.9902C250.708 33.5176 250.527 33.957 250.166 34.3086C249.814 34.6602 249.321 34.8359 248.687 34.8359C248.062 34.8359 247.568 34.6602 247.207 34.3086C246.846 33.957 246.665 33.5176 246.665 32.9902ZM261.313 53.293C260.142 53.293 259.082 53.1025 258.135 52.7217C257.197 52.3311 256.396 51.7891 255.732 51.0957C255.078 50.4023 254.575 49.5869 254.224 48.6494C253.872 47.7119 253.696 46.7012 253.696 45.6172V45.0312C253.696 43.791 253.877 42.668 254.238 41.6621C254.6 40.6562 255.103 39.7969 255.747 39.084C256.392 38.3613 257.153 37.8096 258.032 37.4287C258.911 37.0479 259.863 36.8574 260.889 36.8574C262.021 36.8574 263.013 37.0479 263.862 37.4287C264.712 37.8096 265.415 38.3467 265.972 39.04C266.538 39.7236 266.958 40.5391 267.231 41.4863C267.515 42.4336 267.656 43.4785 267.656 44.6211V46.1299H255.41V43.5957H264.17V43.3174C264.15 42.6826 264.023 42.0869 263.789 41.5303C263.564 40.9736 263.218 40.5244 262.749 40.1826C262.28 39.8408 261.655 39.6699 260.874 39.6699C260.288 39.6699 259.766 39.7969 259.307 40.0508C258.857 40.2949 258.481 40.6514 258.179 41.1201C257.876 41.5889 257.642 42.1553 257.476 42.8193C257.319 43.4736 257.241 44.2109 257.241 45.0312V45.6172C257.241 46.3105 257.334 46.9551 257.52 47.5508C257.715 48.1367 257.998 48.6494 258.369 49.0889C258.74 49.5283 259.189 49.875 259.717 50.1289C260.244 50.373 260.845 50.4951 261.519 50.4951C262.368 50.4951 263.125 50.3242 263.789 49.9824C264.453 49.6406 265.029 49.1572 265.518 48.5322L267.378 50.334C267.036 50.832 266.592 51.3105 266.045 51.7695C265.498 52.2188 264.829 52.585 264.038 52.8682C263.257 53.1514 262.349 53.293 261.313 53.293ZM276.885 50.4805C277.461 50.4805 277.979 50.3682 278.438 50.1436C278.906 49.9092 279.282 49.5869 279.565 49.1768C279.858 48.7666 280.02 48.293 280.049 47.7559H283.374C283.354 48.7812 283.052 49.7139 282.466 50.5537C281.88 51.3936 281.104 52.0625 280.137 52.5605C279.17 53.0488 278.101 53.293 276.929 53.293C275.718 53.293 274.663 53.0879 273.765 52.6777C272.866 52.2578 272.119 51.6816 271.523 50.9492C270.928 50.2168 270.479 49.3721 270.176 48.415C269.883 47.458 269.736 46.4326 269.736 45.3389V44.8262C269.736 43.7324 269.883 42.707 270.176 41.75C270.479 40.7832 270.928 39.9336 271.523 39.2012C272.119 38.4688 272.866 37.8975 273.765 37.4873C274.663 37.0674 275.713 36.8574 276.914 36.8574C278.184 36.8574 279.297 37.1113 280.254 37.6191C281.211 38.1172 281.963 38.8154 282.51 39.7139C283.066 40.6025 283.354 41.6377 283.374 42.8193H280.049C280.02 42.2334 279.873 41.7061 279.609 41.2373C279.355 40.7588 278.994 40.3779 278.525 40.0947C278.066 39.8115 277.515 39.6699 276.87 39.6699C276.157 39.6699 275.566 39.8164 275.098 40.1094C274.629 40.3926 274.263 40.7832 273.999 41.2812C273.735 41.7695 273.545 42.3213 273.428 42.9365C273.32 43.542 273.267 44.1719 273.267 44.8262V45.3389C273.267 45.9932 273.32 46.6279 273.428 47.2432C273.535 47.8584 273.721 48.4102 273.984 48.8984C274.258 49.377 274.629 49.7627 275.098 50.0557C275.566 50.3389 276.162 50.4805 276.885 50.4805ZM293.35 37.1504V39.7285H284.414V37.1504H293.35ZM286.992 33.2686H290.522V48.6201C290.522 49.1084 290.591 49.4844 290.728 49.748C290.874 50.002 291.074 50.1729 291.328 50.2607C291.582 50.3486 291.88 50.3926 292.222 50.3926C292.466 50.3926 292.7 50.3779 292.925 50.3486C293.149 50.3193 293.33 50.29 293.467 50.2607L293.481 52.9561C293.188 53.0439 292.847 53.1221 292.456 53.1904C292.075 53.2588 291.636 53.293 291.138 53.293C290.327 53.293 289.609 53.1514 288.984 52.8682C288.359 52.5752 287.871 52.1016 287.52 51.4473C287.168 50.793 286.992 49.9238 286.992 48.8398V33.2686Z" fill="#445D6B"/>
<rect width="474" height="83" rx="10" fill="white"/>
<rect x="0.5" y="0.5" width="473" height="82" rx="9.5" stroke="#445A68" stroke-opacity="0.2"/>
<path d="M206.269 45.0459H200.717V42.1309H206.269C207.235 42.1309 208.017 41.9746 208.612 41.6621C209.208 41.3496 209.643 40.9199 209.916 40.373C210.199 39.8164 210.341 39.1816 210.341 38.4688C210.341 37.7949 210.199 37.165 209.916 36.5791C209.643 35.9834 209.208 35.5049 208.612 35.1436C208.017 34.7822 207.235 34.6016 206.269 34.6016H201.845V53H198.168V31.6719H206.269C207.919 31.6719 209.32 31.9648 210.473 32.5508C211.635 33.127 212.519 33.9277 213.124 34.9531C213.729 35.9688 214.032 37.1309 214.032 38.4395C214.032 39.8164 213.729 40.998 213.124 41.9844C212.519 42.9707 211.635 43.7275 210.473 44.2549C209.32 44.7822 207.919 45.0459 206.269 45.0459ZM223.759 53.293C222.587 53.293 221.527 53.1025 220.58 52.7217C219.643 52.3311 218.842 51.7891 218.178 51.0957C217.523 50.4023 217.021 49.5869 216.669 48.6494C216.317 47.7119 216.142 46.7012 216.142 45.6172V45.0312C216.142 43.791 216.322 42.668 216.684 41.6621C217.045 40.6562 217.548 39.7969 218.192 39.084C218.837 38.3613 219.599 37.8096 220.478 37.4287C221.356 37.0479 222.309 36.8574 223.334 36.8574C224.467 36.8574 225.458 37.0479 226.308 37.4287C227.157 37.8096 227.86 38.3467 228.417 39.04C228.983 39.7236 229.403 40.5391 229.677 41.4863C229.96 42.4336 230.102 43.4785 230.102 44.6211V46.1299H217.855V43.5957H226.615V43.3174C226.596 42.6826 226.469 42.0869 226.234 41.5303C226.01 40.9736 225.663 40.5244 225.194 40.1826C224.726 39.8408 224.101 39.6699 223.319 39.6699C222.733 39.6699 222.211 39.7969 221.752 40.0508C221.303 40.2949 220.927 40.6514 220.624 41.1201C220.321 41.5889 220.087 42.1553 219.921 42.8193C219.765 43.4736 219.687 44.2109 219.687 45.0312V45.6172C219.687 46.3105 219.779 46.9551 219.965 47.5508C220.16 48.1367 220.443 48.6494 220.814 49.0889C221.186 49.5283 221.635 49.875 222.162 50.1289C222.689 50.373 223.29 50.4951 223.964 50.4951C224.813 50.4951 225.57 50.3242 226.234 49.9824C226.898 49.6406 227.475 49.1572 227.963 48.5322L229.823 50.334C229.481 50.832 229.037 51.3105 228.49 51.7695C227.943 52.2188 227.274 52.585 226.483 52.8682C225.702 53.1514 224.794 53.293 223.759 53.293ZM236.356 40.5342V53H232.826V37.1504H236.151L236.356 40.5342ZM235.727 44.4893L234.584 44.4746C234.594 43.3516 234.75 42.3213 235.053 41.3838C235.365 40.4463 235.795 39.6406 236.342 38.9668C236.898 38.293 237.562 37.7754 238.334 37.4141C239.105 37.043 239.965 36.8574 240.912 36.8574C241.674 36.8574 242.362 36.9648 242.978 37.1797C243.603 37.3848 244.135 37.7217 244.574 38.1904C245.023 38.6592 245.365 39.2695 245.6 40.0215C245.834 40.7637 245.951 41.6768 245.951 42.7607V53H242.406V42.7461C242.406 41.9844 242.294 41.3838 242.069 40.9443C241.854 40.4951 241.537 40.1777 241.117 39.9922C240.707 39.7969 240.194 39.6992 239.579 39.6992C238.974 39.6992 238.432 39.8262 237.953 40.0801C237.475 40.334 237.069 40.6807 236.737 41.1201C236.415 41.5596 236.166 42.0674 235.99 42.6436C235.814 43.2197 235.727 43.835 235.727 44.4893ZM259.223 49.7188V30.5H262.768V53H259.56L259.223 49.7188ZM248.91 45.251V44.9434C248.91 43.7422 249.052 42.6484 249.335 41.6621C249.618 40.666 250.028 39.8115 250.565 39.0986C251.103 38.376 251.757 37.8242 252.528 37.4434C253.3 37.0527 254.169 36.8574 255.136 36.8574C256.093 36.8574 256.933 37.043 257.655 37.4141C258.378 37.7852 258.993 38.3174 259.501 39.0107C260.009 39.6943 260.414 40.5146 260.717 41.4717C261.02 42.4189 261.234 43.4736 261.361 44.6357V45.6172C261.234 46.75 261.02 47.7852 260.717 48.7227C260.414 49.6602 260.009 50.4707 259.501 51.1543C258.993 51.8379 258.373 52.3652 257.641 52.7363C256.918 53.1074 256.073 53.293 255.106 53.293C254.149 53.293 253.285 53.0928 252.514 52.6924C251.752 52.292 251.103 51.7305 250.565 51.0078C250.028 50.2852 249.618 49.4355 249.335 48.459C249.052 47.4727 248.91 46.4033 248.91 45.251ZM252.44 44.9434V45.251C252.44 45.9736 252.504 46.6475 252.631 47.2725C252.768 47.8975 252.978 48.4492 253.261 48.9277C253.544 49.3965 253.91 49.7676 254.359 50.041C254.818 50.3047 255.365 50.4365 256 50.4365C256.801 50.4365 257.46 50.2607 257.978 49.9092C258.495 49.5576 258.9 49.084 259.193 48.4883C259.496 47.8828 259.701 47.209 259.809 46.4668V43.8154C259.75 43.2393 259.628 42.7021 259.442 42.2041C259.267 41.7061 259.027 41.2715 258.725 40.9004C258.422 40.5195 258.046 40.2266 257.597 40.0215C257.157 39.8066 256.635 39.6992 256.029 39.6992C255.385 39.6992 254.838 39.8359 254.389 40.1094C253.939 40.3828 253.568 40.7588 253.275 41.2373C252.992 41.7158 252.782 42.2725 252.646 42.9072C252.509 43.542 252.44 44.2207 252.44 44.9434ZM270.238 37.1504V53H266.693V37.1504H270.238ZM266.459 32.9902C266.459 32.4531 266.635 32.0088 266.986 31.6572C267.348 31.2959 267.846 31.1152 268.48 31.1152C269.105 31.1152 269.599 31.2959 269.96 31.6572C270.321 32.0088 270.502 32.4531 270.502 32.9902C270.502 33.5176 270.321 33.957 269.96 34.3086C269.599 34.6602 269.105 34.8359 268.48 34.8359C267.846 34.8359 267.348 34.6602 266.986 34.3086C266.635 33.957 266.459 33.5176 266.459 32.9902ZM277.606 40.5342V53H274.076V37.1504H277.401L277.606 40.5342ZM276.977 44.4893L275.834 44.4746C275.844 43.3516 276 42.3213 276.303 41.3838C276.615 40.4463 277.045 39.6406 277.592 38.9668C278.148 38.293 278.812 37.7754 279.584 37.4141C280.355 37.043 281.215 36.8574 282.162 36.8574C282.924 36.8574 283.612 36.9648 284.228 37.1797C284.853 37.3848 285.385 37.7217 285.824 38.1904C286.273 38.6592 286.615 39.2695 286.85 40.0215C287.084 40.7637 287.201 41.6768 287.201 42.7607V53H283.656V42.7461C283.656 41.9844 283.544 41.3838 283.319 40.9443C283.104 40.4951 282.787 40.1777 282.367 39.9922C281.957 39.7969 281.444 39.6992 280.829 39.6992C280.224 39.6992 279.682 39.8262 279.203 40.0801C278.725 40.334 278.319 40.6807 277.987 41.1201C277.665 41.5596 277.416 42.0674 277.24 42.6436C277.064 43.2197 276.977 43.835 276.977 44.4893ZM300.956 37.1504H304.164V52.5605C304.164 53.9863 303.861 55.1973 303.256 56.1934C302.65 57.1895 301.806 57.9463 300.722 58.4639C299.638 58.9912 298.383 59.2549 296.957 59.2549C296.352 59.2549 295.678 59.167 294.936 58.9912C294.203 58.8154 293.49 58.5322 292.797 58.1416C292.113 57.7607 291.542 57.2578 291.083 56.6328L292.738 54.5527C293.305 55.2266 293.93 55.7197 294.613 56.0322C295.297 56.3447 296.015 56.501 296.767 56.501C297.577 56.501 298.266 56.3496 298.832 56.0469C299.408 55.7539 299.853 55.3193 300.165 54.7432C300.478 54.167 300.634 53.4639 300.634 52.6338V40.7393L300.956 37.1504ZM290.189 45.251V44.9434C290.189 43.7422 290.336 42.6484 290.629 41.6621C290.922 40.666 291.342 39.8115 291.889 39.0986C292.436 38.376 293.1 37.8242 293.881 37.4434C294.662 37.0527 295.546 36.8574 296.532 36.8574C297.558 36.8574 298.432 37.043 299.154 37.4141C299.887 37.7852 300.497 38.3174 300.985 39.0107C301.474 39.6943 301.854 40.5146 302.128 41.4717C302.411 42.4189 302.621 43.4736 302.758 44.6357V45.6172C302.631 46.75 302.416 47.7852 302.113 48.7227C301.811 49.6602 301.41 50.4707 300.912 51.1543C300.414 51.8379 299.799 52.3652 299.066 52.7363C298.344 53.1074 297.489 53.293 296.503 53.293C295.536 53.293 294.662 53.0928 293.881 52.6924C293.109 52.292 292.445 51.7305 291.889 51.0078C291.342 50.2852 290.922 49.4355 290.629 48.459C290.336 47.4727 290.189 46.4033 290.189 45.251ZM293.72 44.9434V45.251C293.72 45.9736 293.788 46.6475 293.925 47.2725C294.071 47.8975 294.291 48.4492 294.584 48.9277C294.887 49.3965 295.268 49.7676 295.727 50.041C296.195 50.3047 296.747 50.4365 297.382 50.4365C298.212 50.4365 298.891 50.2607 299.418 49.9092C299.955 49.5576 300.365 49.084 300.648 48.4883C300.941 47.8828 301.146 47.209 301.264 46.4668V43.8154C301.205 43.2393 301.083 42.7021 300.897 42.2041C300.722 41.7061 300.482 41.2715 300.18 40.9004C299.877 40.5195 299.496 40.2266 299.037 40.0215C298.578 39.8066 298.036 39.6992 297.411 39.6992C296.776 39.6992 296.225 39.8359 295.756 40.1094C295.287 40.3828 294.901 40.7588 294.599 41.2373C294.306 41.7158 294.086 42.2725 293.939 42.9072C293.793 43.542 293.72 44.2207 293.72 44.9434Z" fill="#445D6B"/>
<defs>
<linearGradient id="paint0_linear_1048_6305" x1="256.5" y1="5.54551e-07" x2="256.5" y2="86" gradientUnits="userSpaceOnUse">
<stop stop-color="#FFB700"/>
<stop offset="1" stop-color="#794D01"/>
</linearGradient>
</defs>
</svg>
