<svg width="518" height="104" viewBox="0 0 518 104" fill="none" xmlns="http://www.w3.org/2000/svg">
<rect x="9" y="5" width="500" height="86" rx="10" fill="white"/>
<rect x="9.5" y="5.5" width="499" height="85" rx="9.5" stroke="#445A68" stroke-opacity="0.2"/>
<g filter="url(#filter0_d_1100_3177)">
<rect x="9" y="5" width="500" height="86" rx="10" fill="url(#paint0_linear_1100_3177)"/>
</g>
<path d="M220.168 36.6719H227.712C229.333 36.6719 230.715 36.916 231.857 37.4043C233 37.8926 233.874 38.6152 234.479 39.5723C235.095 40.5195 235.402 41.6914 235.402 43.0879C235.402 44.1523 235.207 45.0898 234.816 45.9004C234.426 46.7109 233.874 47.3945 233.161 47.9512C232.448 48.498 231.599 48.9229 230.612 49.2256L229.499 49.7676H222.717L222.688 46.8525H227.771C228.649 46.8525 229.382 46.6963 229.968 46.3838C230.554 46.0713 230.993 45.6465 231.286 45.1094C231.589 44.5625 231.74 43.9473 231.74 43.2637C231.74 42.5215 231.594 41.877 231.301 41.3301C231.018 40.7734 230.578 40.3486 229.982 40.0557C229.387 39.7529 228.63 39.6016 227.712 39.6016H223.845V58H220.168V36.6719ZM232.341 58L227.331 48.4199L231.184 48.4053L236.267 57.8096V58H232.341ZM245.7 58.293C244.528 58.293 243.469 58.1025 242.521 57.7217C241.584 57.3311 240.783 56.7891 240.119 56.0957C239.465 55.4023 238.962 54.5869 238.61 53.6494C238.259 52.7119 238.083 51.7012 238.083 50.6172V50.0312C238.083 48.791 238.264 47.668 238.625 46.6621C238.986 45.6562 239.489 44.7969 240.134 44.084C240.778 43.3613 241.54 42.8096 242.419 42.4287C243.298 42.0479 244.25 41.8574 245.275 41.8574C246.408 41.8574 247.399 42.0479 248.249 42.4287C249.099 42.8096 249.802 43.3467 250.358 44.04C250.925 44.7236 251.345 45.5391 251.618 46.4863C251.901 47.4336 252.043 48.4785 252.043 49.6211V51.1299H239.797V48.5957H248.557V48.3174C248.537 47.6826 248.41 47.0869 248.176 46.5303C247.951 45.9736 247.604 45.5244 247.136 45.1826C246.667 44.8408 246.042 44.6699 245.261 44.6699C244.675 44.6699 244.152 44.7969 243.693 45.0508C243.244 45.2949 242.868 45.6514 242.565 46.1201C242.263 46.5889 242.028 47.1553 241.862 47.8193C241.706 48.4736 241.628 49.2109 241.628 50.0312V50.6172C241.628 51.3105 241.721 51.9551 241.906 52.5508C242.102 53.1367 242.385 53.6494 242.756 54.0889C243.127 54.5283 243.576 54.875 244.104 55.1289C244.631 55.373 245.231 55.4951 245.905 55.4951C246.755 55.4951 247.512 55.3242 248.176 54.9824C248.84 54.6406 249.416 54.1572 249.904 53.5322L251.765 55.334C251.423 55.832 250.979 56.3105 250.432 56.7695C249.885 57.2188 249.216 57.585 248.425 57.8682C247.644 58.1514 246.735 58.293 245.7 58.293ZM254.973 42.1504H258.518V59.377C258.518 60.4609 258.332 61.374 257.961 62.1162C257.59 62.8682 257.043 63.4346 256.32 63.8154C255.598 64.2061 254.714 64.4014 253.669 64.4014C253.356 64.4014 253.034 64.377 252.702 64.3281C252.36 64.2891 252.038 64.2305 251.735 64.1523L251.75 61.3984C251.955 61.4375 252.175 61.4668 252.409 61.4863C252.634 61.5156 252.849 61.5303 253.054 61.5303C253.474 61.5303 253.825 61.457 254.108 61.3105C254.392 61.1641 254.606 60.9346 254.753 60.6221C254.899 60.3096 254.973 59.8945 254.973 59.377V42.1504ZM254.665 37.9902C254.665 37.4531 254.846 37.0088 255.207 36.6572C255.568 36.2959 256.062 36.1152 256.687 36.1152C257.321 36.1152 257.814 36.2959 258.166 36.6572C258.527 37.0088 258.708 37.4531 258.708 37.9902C258.708 38.5176 258.527 38.957 258.166 39.3086C257.814 39.6602 257.321 39.8359 256.687 39.8359C256.062 39.8359 255.568 39.6602 255.207 39.3086C254.846 38.957 254.665 38.5176 254.665 37.9902ZM269.313 58.293C268.142 58.293 267.082 58.1025 266.135 57.7217C265.197 57.3311 264.396 56.7891 263.732 56.0957C263.078 55.4023 262.575 54.5869 262.224 53.6494C261.872 52.7119 261.696 51.7012 261.696 50.6172V50.0312C261.696 48.791 261.877 47.668 262.238 46.6621C262.6 45.6562 263.103 44.7969 263.747 44.084C264.392 43.3613 265.153 42.8096 266.032 42.4287C266.911 42.0479 267.863 41.8574 268.889 41.8574C270.021 41.8574 271.013 42.0479 271.862 42.4287C272.712 42.8096 273.415 43.3467 273.972 44.04C274.538 44.7236 274.958 45.5391 275.231 46.4863C275.515 47.4336 275.656 48.4785 275.656 49.6211V51.1299H263.41V48.5957H272.17V48.3174C272.15 47.6826 272.023 47.0869 271.789 46.5303C271.564 45.9736 271.218 45.5244 270.749 45.1826C270.28 44.8408 269.655 44.6699 268.874 44.6699C268.288 44.6699 267.766 44.7969 267.307 45.0508C266.857 45.2949 266.481 45.6514 266.179 46.1201C265.876 46.5889 265.642 47.1553 265.476 47.8193C265.319 48.4736 265.241 49.2109 265.241 50.0312V50.6172C265.241 51.3105 265.334 51.9551 265.52 52.5508C265.715 53.1367 265.998 53.6494 266.369 54.0889C266.74 54.5283 267.189 54.875 267.717 55.1289C268.244 55.373 268.845 55.4951 269.519 55.4951C270.368 55.4951 271.125 55.3242 271.789 54.9824C272.453 54.6406 273.029 54.1572 273.518 53.5322L275.378 55.334C275.036 55.832 274.592 56.3105 274.045 56.7695C273.498 57.2188 272.829 57.585 272.038 57.8682C271.257 58.1514 270.349 58.293 269.313 58.293ZM284.885 55.4805C285.461 55.4805 285.979 55.3682 286.438 55.1436C286.906 54.9092 287.282 54.5869 287.565 54.1768C287.858 53.7666 288.02 53.293 288.049 52.7559H291.374C291.354 53.7812 291.052 54.7139 290.466 55.5537C289.88 56.3936 289.104 57.0625 288.137 57.5605C287.17 58.0488 286.101 58.293 284.929 58.293C283.718 58.293 282.663 58.0879 281.765 57.6777C280.866 57.2578 280.119 56.6816 279.523 55.9492C278.928 55.2168 278.479 54.3721 278.176 53.415C277.883 52.458 277.736 51.4326 277.736 50.3389V49.8262C277.736 48.7324 277.883 47.707 278.176 46.75C278.479 45.7832 278.928 44.9336 279.523 44.2012C280.119 43.4688 280.866 42.8975 281.765 42.4873C282.663 42.0674 283.713 41.8574 284.914 41.8574C286.184 41.8574 287.297 42.1113 288.254 42.6191C289.211 43.1172 289.963 43.8154 290.51 44.7139C291.066 45.6025 291.354 46.6377 291.374 47.8193H288.049C288.02 47.2334 287.873 46.7061 287.609 46.2373C287.355 45.7588 286.994 45.3779 286.525 45.0947C286.066 44.8115 285.515 44.6699 284.87 44.6699C284.157 44.6699 283.566 44.8164 283.098 45.1094C282.629 45.3926 282.263 45.7832 281.999 46.2812C281.735 46.7695 281.545 47.3213 281.428 47.9365C281.32 48.542 281.267 49.1719 281.267 49.8262V50.3389C281.267 50.9932 281.32 51.6279 281.428 52.2432C281.535 52.8584 281.721 53.4102 281.984 53.8984C282.258 54.377 282.629 54.7627 283.098 55.0557C283.566 55.3389 284.162 55.4805 284.885 55.4805ZM301.35 42.1504V44.7285H292.414V42.1504H301.35ZM294.992 38.2686H298.522V53.6201C298.522 54.1084 298.591 54.4844 298.728 54.748C298.874 55.002 299.074 55.1729 299.328 55.2607C299.582 55.3486 299.88 55.3926 300.222 55.3926C300.466 55.3926 300.7 55.3779 300.925 55.3486C301.149 55.3193 301.33 55.29 301.467 55.2607L301.481 57.9561C301.188 58.0439 300.847 58.1221 300.456 58.1904C300.075 58.2588 299.636 58.293 299.138 58.293C298.327 58.293 297.609 58.1514 296.984 57.8682C296.359 57.5752 295.871 57.1016 295.52 56.4473C295.168 55.793 294.992 54.9238 294.992 53.8398V38.2686Z" fill="#445D6B"/>
<rect x="9" y="5" width="474" height="83" rx="10" fill="white"/>
<path d="M213.269 50.0459H207.717V47.1309H213.269C214.235 47.1309 215.017 46.9746 215.612 46.6621C216.208 46.3496 216.643 45.9199 216.916 45.373C217.199 44.8164 217.341 44.1816 217.341 43.4688C217.341 42.7949 217.199 42.165 216.916 41.5791C216.643 40.9834 216.208 40.5049 215.612 40.1436C215.017 39.7822 214.235 39.6016 213.269 39.6016H208.845V58H205.168V36.6719H213.269C214.919 36.6719 216.32 36.9648 217.473 37.5508C218.635 38.127 219.519 38.9277 220.124 39.9531C220.729 40.9688 221.032 42.1309 221.032 43.4395C221.032 44.8164 220.729 45.998 220.124 46.9844C219.519 47.9707 218.635 48.7275 217.473 49.2549C216.32 49.7822 214.919 50.0459 213.269 50.0459ZM230.759 58.293C229.587 58.293 228.527 58.1025 227.58 57.7217C226.643 57.3311 225.842 56.7891 225.178 56.0957C224.523 55.4023 224.021 54.5869 223.669 53.6494C223.317 52.7119 223.142 51.7012 223.142 50.6172V50.0312C223.142 48.791 223.322 47.668 223.684 46.6621C224.045 45.6562 224.548 44.7969 225.192 44.084C225.837 43.3613 226.599 42.8096 227.478 42.4287C228.356 42.0479 229.309 41.8574 230.334 41.8574C231.467 41.8574 232.458 42.0479 233.308 42.4287C234.157 42.8096 234.86 43.3467 235.417 44.04C235.983 44.7236 236.403 45.5391 236.677 46.4863C236.96 47.4336 237.102 48.4785 237.102 49.6211V51.1299H224.855V48.5957H233.615V48.3174C233.596 47.6826 233.469 47.0869 233.234 46.5303C233.01 45.9736 232.663 45.5244 232.194 45.1826C231.726 44.8408 231.101 44.6699 230.319 44.6699C229.733 44.6699 229.211 44.7969 228.752 45.0508C228.303 45.2949 227.927 45.6514 227.624 46.1201C227.321 46.5889 227.087 47.1553 226.921 47.8193C226.765 48.4736 226.687 49.2109 226.687 50.0312V50.6172C226.687 51.3105 226.779 51.9551 226.965 52.5508C227.16 53.1367 227.443 53.6494 227.814 54.0889C228.186 54.5283 228.635 54.875 229.162 55.1289C229.689 55.373 230.29 55.4951 230.964 55.4951C231.813 55.4951 232.57 55.3242 233.234 54.9824C233.898 54.6406 234.475 54.1572 234.963 53.5322L236.823 55.334C236.481 55.832 236.037 56.3105 235.49 56.7695C234.943 57.2188 234.274 57.585 233.483 57.8682C232.702 58.1514 231.794 58.293 230.759 58.293ZM243.356 45.5342V58H239.826V42.1504H243.151L243.356 45.5342ZM242.727 49.4893L241.584 49.4746C241.594 48.3516 241.75 47.3213 242.053 46.3838C242.365 45.4463 242.795 44.6406 243.342 43.9668C243.898 43.293 244.562 42.7754 245.334 42.4141C246.105 42.043 246.965 41.8574 247.912 41.8574C248.674 41.8574 249.362 41.9648 249.978 42.1797C250.603 42.3848 251.135 42.7217 251.574 43.1904C252.023 43.6592 252.365 44.2695 252.6 45.0215C252.834 45.7637 252.951 46.6768 252.951 47.7607V58H249.406V47.7461C249.406 46.9844 249.294 46.3838 249.069 45.9443C248.854 45.4951 248.537 45.1777 248.117 44.9922C247.707 44.7969 247.194 44.6992 246.579 44.6992C245.974 44.6992 245.432 44.8262 244.953 45.0801C244.475 45.334 244.069 45.6807 243.737 46.1201C243.415 46.5596 243.166 47.0674 242.99 47.6436C242.814 48.2197 242.727 48.835 242.727 49.4893ZM266.223 54.7188V35.5H269.768V58H266.56L266.223 54.7188ZM255.91 50.251V49.9434C255.91 48.7422 256.052 47.6484 256.335 46.6621C256.618 45.666 257.028 44.8115 257.565 44.0986C258.103 43.376 258.757 42.8242 259.528 42.4434C260.3 42.0527 261.169 41.8574 262.136 41.8574C263.093 41.8574 263.933 42.043 264.655 42.4141C265.378 42.7852 265.993 43.3174 266.501 44.0107C267.009 44.6943 267.414 45.5146 267.717 46.4717C268.02 47.4189 268.234 48.4736 268.361 49.6357V50.6172C268.234 51.75 268.02 52.7852 267.717 53.7227C267.414 54.6602 267.009 55.4707 266.501 56.1543C265.993 56.8379 265.373 57.3652 264.641 57.7363C263.918 58.1074 263.073 58.293 262.106 58.293C261.149 58.293 260.285 58.0928 259.514 57.6924C258.752 57.292 258.103 56.7305 257.565 56.0078C257.028 55.2852 256.618 54.4355 256.335 53.459C256.052 52.4727 255.91 51.4033 255.91 50.251ZM259.44 49.9434V50.251C259.44 50.9736 259.504 51.6475 259.631 52.2725C259.768 52.8975 259.978 53.4492 260.261 53.9277C260.544 54.3965 260.91 54.7676 261.359 55.041C261.818 55.3047 262.365 55.4365 263 55.4365C263.801 55.4365 264.46 55.2607 264.978 54.9092C265.495 54.5576 265.9 54.084 266.193 53.4883C266.496 52.8828 266.701 52.209 266.809 51.4668V48.8154C266.75 48.2393 266.628 47.7021 266.442 47.2041C266.267 46.7061 266.027 46.2715 265.725 45.9004C265.422 45.5195 265.046 45.2266 264.597 45.0215C264.157 44.8066 263.635 44.6992 263.029 44.6992C262.385 44.6992 261.838 44.8359 261.389 45.1094C260.939 45.3828 260.568 45.7588 260.275 46.2373C259.992 46.7158 259.782 47.2725 259.646 47.9072C259.509 48.542 259.44 49.2207 259.44 49.9434ZM277.238 42.1504V58H273.693V42.1504H277.238ZM273.459 37.9902C273.459 37.4531 273.635 37.0088 273.986 36.6572C274.348 36.2959 274.846 36.1152 275.48 36.1152C276.105 36.1152 276.599 36.2959 276.96 36.6572C277.321 37.0088 277.502 37.4531 277.502 37.9902C277.502 38.5176 277.321 38.957 276.96 39.3086C276.599 39.6602 276.105 39.8359 275.48 39.8359C274.846 39.8359 274.348 39.6602 273.986 39.3086C273.635 38.957 273.459 38.5176 273.459 37.9902ZM284.606 45.5342V58H281.076V42.1504H284.401L284.606 45.5342ZM283.977 49.4893L282.834 49.4746C282.844 48.3516 283 47.3213 283.303 46.3838C283.615 45.4463 284.045 44.6406 284.592 43.9668C285.148 43.293 285.812 42.7754 286.584 42.4141C287.355 42.043 288.215 41.8574 289.162 41.8574C289.924 41.8574 290.612 41.9648 291.228 42.1797C291.853 42.3848 292.385 42.7217 292.824 43.1904C293.273 43.6592 293.615 44.2695 293.85 45.0215C294.084 45.7637 294.201 46.6768 294.201 47.7607V58H290.656V47.7461C290.656 46.9844 290.544 46.3838 290.319 45.9443C290.104 45.4951 289.787 45.1777 289.367 44.9922C288.957 44.7969 288.444 44.6992 287.829 44.6992C287.224 44.6992 286.682 44.8262 286.203 45.0801C285.725 45.334 285.319 45.6807 284.987 46.1201C284.665 46.5596 284.416 47.0674 284.24 47.6436C284.064 48.2197 283.977 48.835 283.977 49.4893ZM307.956 42.1504H311.164V57.5605C311.164 58.9863 310.861 60.1973 310.256 61.1934C309.65 62.1895 308.806 62.9463 307.722 63.4639C306.638 63.9912 305.383 64.2549 303.957 64.2549C303.352 64.2549 302.678 64.167 301.936 63.9912C301.203 63.8154 300.49 63.5322 299.797 63.1416C299.113 62.7607 298.542 62.2578 298.083 61.6328L299.738 59.5527C300.305 60.2266 300.93 60.7197 301.613 61.0322C302.297 61.3447 303.015 61.501 303.767 61.501C304.577 61.501 305.266 61.3496 305.832 61.0469C306.408 60.7539 306.853 60.3193 307.165 59.7432C307.478 59.167 307.634 58.4639 307.634 57.6338V45.7393L307.956 42.1504ZM297.189 50.251V49.9434C297.189 48.7422 297.336 47.6484 297.629 46.6621C297.922 45.666 298.342 44.8115 298.889 44.0986C299.436 43.376 300.1 42.8242 300.881 42.4434C301.662 42.0527 302.546 41.8574 303.532 41.8574C304.558 41.8574 305.432 42.043 306.154 42.4141C306.887 42.7852 307.497 43.3174 307.985 44.0107C308.474 44.6943 308.854 45.5146 309.128 46.4717C309.411 47.4189 309.621 48.4736 309.758 49.6357V50.6172C309.631 51.75 309.416 52.7852 309.113 53.7227C308.811 54.6602 308.41 55.4707 307.912 56.1543C307.414 56.8379 306.799 57.3652 306.066 57.7363C305.344 58.1074 304.489 58.293 303.503 58.293C302.536 58.293 301.662 58.0928 300.881 57.6924C300.109 57.292 299.445 56.7305 298.889 56.0078C298.342 55.2852 297.922 54.4355 297.629 53.459C297.336 52.4727 297.189 51.4033 297.189 50.251ZM300.72 49.9434V50.251C300.72 50.9736 300.788 51.6475 300.925 52.2725C301.071 52.8975 301.291 53.4492 301.584 53.9277C301.887 54.3965 302.268 54.7676 302.727 55.041C303.195 55.3047 303.747 55.4365 304.382 55.4365C305.212 55.4365 305.891 55.2607 306.418 54.9092C306.955 54.5576 307.365 54.084 307.648 53.4883C307.941 52.8828 308.146 52.209 308.264 51.4668V48.8154C308.205 48.2393 308.083 47.7021 307.897 47.2041C307.722 46.7061 307.482 46.2715 307.18 45.9004C306.877 45.5195 306.496 45.2266 306.037 45.0215C305.578 44.8066 305.036 44.6992 304.411 44.6992C303.776 44.6992 303.225 44.8359 302.756 45.1094C302.287 45.3828 301.901 45.7588 301.599 46.2373C301.306 46.7158 301.086 47.2725 300.939 47.9072C300.793 48.542 300.72 49.2207 300.72 49.9434Z" fill="#445D6B"/>
<defs>
<filter id="filter0_d_1100_3177" x="0" y="0" width="518" height="104" filterUnits="userSpaceOnUse" color-interpolation-filters="sRGB">
<feFlood flood-opacity="0" result="BackgroundImageFix"/>
<feColorMatrix in="SourceAlpha" type="matrix" values="0 0 0 0 0 0 0 0 0 0 0 0 0 0 0 0 0 0 127 0" result="hardAlpha"/>
<feMorphology radius="2" operator="dilate" in="SourceAlpha" result="effect1_dropShadow_1100_3177"/>
<feOffset dy="4"/>
<feGaussianBlur stdDeviation="3.5"/>
<feComposite in2="hardAlpha" operator="out"/>
<feColorMatrix type="matrix" values="0 0 0 0 0 0 0 0 0 0 0 0 0 0 0 0 0 0 0.17 0"/>
<feBlend mode="normal" in2="BackgroundImageFix" result="effect1_dropShadow_1100_3177"/>
<feBlend mode="normal" in="SourceGraphic" in2="effect1_dropShadow_1100_3177" result="shape"/>
</filter>
<linearGradient id="paint0_linear_1100_3177" x1="264.5" y1="5" x2="264.5" y2="91" gradientUnits="userSpaceOnUse">
<stop stop-color="#FFB700"/>
<stop offset="1" stop-color="#794D01"/>
</linearGradient>
</defs>
</svg>
