<svg width="500" height="86" viewBox="0 0 500 86" fill="none" xmlns="http://www.w3.org/2000/svg">
<rect width="500" height="86" rx="10" fill="white"/>
<rect x="0.5" y="0.5" width="499" height="85" rx="9.5" stroke="#445A68" stroke-opacity="0.2"/>
<path d="M207.269 45.0459H201.717V42.1309H207.269C208.235 42.1309 209.017 41.9746 209.612 41.6621C210.208 41.3496 210.643 40.9199 210.916 40.373C211.199 39.8164 211.341 39.1816 211.341 38.4688C211.341 37.7949 211.199 37.165 210.916 36.5791C210.643 35.9834 210.208 35.5049 209.612 35.1436C209.017 34.7822 208.235 34.6016 207.269 34.6016H202.845V53H199.168V31.6719H207.269C208.919 31.6719 210.32 31.9648 211.473 32.5508C212.635 33.127 213.519 33.9277 214.124 34.9531C214.729 35.9688 215.032 37.1309 215.032 38.4395C215.032 39.8164 214.729 40.998 214.124 41.9844C213.519 42.9707 212.635 43.7275 211.473 44.2549C210.32 44.7822 208.919 45.0459 207.269 45.0459ZM224.759 53.293C223.587 53.293 222.527 53.1025 221.58 52.7217C220.643 52.3311 219.842 51.7891 219.178 51.0957C218.523 50.4023 218.021 49.5869 217.669 48.6494C217.317 47.7119 217.142 46.7012 217.142 45.6172V45.0312C217.142 43.791 217.322 42.668 217.684 41.6621C218.045 40.6562 218.548 39.7969 219.192 39.084C219.837 38.3613 220.599 37.8096 221.478 37.4287C222.356 37.0479 223.309 36.8574 224.334 36.8574C225.467 36.8574 226.458 37.0479 227.308 37.4287C228.157 37.8096 228.86 38.3467 229.417 39.04C229.983 39.7236 230.403 40.5391 230.677 41.4863C230.96 42.4336 231.102 43.4785 231.102 44.6211V46.1299H218.855V43.5957H227.615V43.3174C227.596 42.6826 227.469 42.0869 227.234 41.5303C227.01 40.9736 226.663 40.5244 226.194 40.1826C225.726 39.8408 225.101 39.6699 224.319 39.6699C223.733 39.6699 223.211 39.7969 222.752 40.0508C222.303 40.2949 221.927 40.6514 221.624 41.1201C221.321 41.5889 221.087 42.1553 220.921 42.8193C220.765 43.4736 220.687 44.2109 220.687 45.0312V45.6172C220.687 46.3105 220.779 46.9551 220.965 47.5508C221.16 48.1367 221.443 48.6494 221.814 49.0889C222.186 49.5283 222.635 49.875 223.162 50.1289C223.689 50.373 224.29 50.4951 224.964 50.4951C225.813 50.4951 226.57 50.3242 227.234 49.9824C227.898 49.6406 228.475 49.1572 228.963 48.5322L230.823 50.334C230.481 50.832 230.037 51.3105 229.49 51.7695C228.943 52.2188 228.274 52.585 227.483 52.8682C226.702 53.1514 225.794 53.293 224.759 53.293ZM237.356 40.5342V53H233.826V37.1504H237.151L237.356 40.5342ZM236.727 44.4893L235.584 44.4746C235.594 43.3516 235.75 42.3213 236.053 41.3838C236.365 40.4463 236.795 39.6406 237.342 38.9668C237.898 38.293 238.562 37.7754 239.334 37.4141C240.105 37.043 240.965 36.8574 241.912 36.8574C242.674 36.8574 243.362 36.9648 243.978 37.1797C244.603 37.3848 245.135 37.7217 245.574 38.1904C246.023 38.6592 246.365 39.2695 246.6 40.0215C246.834 40.7637 246.951 41.6768 246.951 42.7607V53H243.406V42.7461C243.406 41.9844 243.294 41.3838 243.069 40.9443C242.854 40.4951 242.537 40.1777 242.117 39.9922C241.707 39.7969 241.194 39.6992 240.579 39.6992C239.974 39.6992 239.432 39.8262 238.953 40.0801C238.475 40.334 238.069 40.6807 237.737 41.1201C237.415 41.5596 237.166 42.0674 236.99 42.6436C236.814 43.2197 236.727 43.835 236.727 44.4893ZM260.223 49.7188V30.5H263.768V53H260.56L260.223 49.7188ZM249.91 45.251V44.9434C249.91 43.7422 250.052 42.6484 250.335 41.6621C250.618 40.666 251.028 39.8115 251.565 39.0986C252.103 38.376 252.757 37.8242 253.528 37.4434C254.3 37.0527 255.169 36.8574 256.136 36.8574C257.093 36.8574 257.933 37.043 258.655 37.4141C259.378 37.7852 259.993 38.3174 260.501 39.0107C261.009 39.6943 261.414 40.5146 261.717 41.4717C262.02 42.4189 262.234 43.4736 262.361 44.6357V45.6172C262.234 46.75 262.02 47.7852 261.717 48.7227C261.414 49.6602 261.009 50.4707 260.501 51.1543C259.993 51.8379 259.373 52.3652 258.641 52.7363C257.918 53.1074 257.073 53.293 256.106 53.293C255.149 53.293 254.285 53.0928 253.514 52.6924C252.752 52.292 252.103 51.7305 251.565 51.0078C251.028 50.2852 250.618 49.4355 250.335 48.459C250.052 47.4727 249.91 46.4033 249.91 45.251ZM253.44 44.9434V45.251C253.44 45.9736 253.504 46.6475 253.631 47.2725C253.768 47.8975 253.978 48.4492 254.261 48.9277C254.544 49.3965 254.91 49.7676 255.359 50.041C255.818 50.3047 256.365 50.4365 257 50.4365C257.801 50.4365 258.46 50.2607 258.978 49.9092C259.495 49.5576 259.9 49.084 260.193 48.4883C260.496 47.8828 260.701 47.209 260.809 46.4668V43.8154C260.75 43.2393 260.628 42.7021 260.442 42.2041C260.267 41.7061 260.027 41.2715 259.725 40.9004C259.422 40.5195 259.046 40.2266 258.597 40.0215C258.157 39.8066 257.635 39.6992 257.029 39.6992C256.385 39.6992 255.838 39.8359 255.389 40.1094C254.939 40.3828 254.568 40.7588 254.275 41.2373C253.992 41.7158 253.782 42.2725 253.646 42.9072C253.509 43.542 253.44 44.2207 253.44 44.9434ZM271.238 37.1504V53H267.693V37.1504H271.238ZM267.459 32.9902C267.459 32.4531 267.635 32.0088 267.986 31.6572C268.348 31.2959 268.846 31.1152 269.48 31.1152C270.105 31.1152 270.599 31.2959 270.96 31.6572C271.321 32.0088 271.502 32.4531 271.502 32.9902C271.502 33.5176 271.321 33.957 270.96 34.3086C270.599 34.6602 270.105 34.8359 269.48 34.8359C268.846 34.8359 268.348 34.6602 267.986 34.3086C267.635 33.957 267.459 33.5176 267.459 32.9902ZM278.606 40.5342V53H275.076V37.1504H278.401L278.606 40.5342ZM277.977 44.4893L276.834 44.4746C276.844 43.3516 277 42.3213 277.303 41.3838C277.615 40.4463 278.045 39.6406 278.592 38.9668C279.148 38.293 279.812 37.7754 280.584 37.4141C281.355 37.043 282.215 36.8574 283.162 36.8574C283.924 36.8574 284.612 36.9648 285.228 37.1797C285.853 37.3848 286.385 37.7217 286.824 38.1904C287.273 38.6592 287.615 39.2695 287.85 40.0215C288.084 40.7637 288.201 41.6768 288.201 42.7607V53H284.656V42.7461C284.656 41.9844 284.544 41.3838 284.319 40.9443C284.104 40.4951 283.787 40.1777 283.367 39.9922C282.957 39.7969 282.444 39.6992 281.829 39.6992C281.224 39.6992 280.682 39.8262 280.203 40.0801C279.725 40.334 279.319 40.6807 278.987 41.1201C278.665 41.5596 278.416 42.0674 278.24 42.6436C278.064 43.2197 277.977 43.835 277.977 44.4893ZM301.956 37.1504H305.164V52.5605C305.164 53.9863 304.861 55.1973 304.256 56.1934C303.65 57.1895 302.806 57.9463 301.722 58.4639C300.638 58.9912 299.383 59.2549 297.957 59.2549C297.352 59.2549 296.678 59.167 295.936 58.9912C295.203 58.8154 294.49 58.5322 293.797 58.1416C293.113 57.7607 292.542 57.2578 292.083 56.6328L293.738 54.5527C294.305 55.2266 294.93 55.7197 295.613 56.0322C296.297 56.3447 297.015 56.501 297.767 56.501C298.577 56.501 299.266 56.3496 299.832 56.0469C300.408 55.7539 300.853 55.3193 301.165 54.7432C301.478 54.167 301.634 53.4639 301.634 52.6338V40.7393L301.956 37.1504ZM291.189 45.251V44.9434C291.189 43.7422 291.336 42.6484 291.629 41.6621C291.922 40.666 292.342 39.8115 292.889 39.0986C293.436 38.376 294.1 37.8242 294.881 37.4434C295.662 37.0527 296.546 36.8574 297.532 36.8574C298.558 36.8574 299.432 37.043 300.154 37.4141C300.887 37.7852 301.497 38.3174 301.985 39.0107C302.474 39.6943 302.854 40.5146 303.128 41.4717C303.411 42.4189 303.621 43.4736 303.758 44.6357V45.6172C303.631 46.75 303.416 47.7852 303.113 48.7227C302.811 49.6602 302.41 50.4707 301.912 51.1543C301.414 51.8379 300.799 52.3652 300.066 52.7363C299.344 53.1074 298.489 53.293 297.503 53.293C296.536 53.293 295.662 53.0928 294.881 52.6924C294.109 52.292 293.445 51.7305 292.889 51.0078C292.342 50.2852 291.922 49.4355 291.629 48.459C291.336 47.4727 291.189 46.4033 291.189 45.251ZM294.72 44.9434V45.251C294.72 45.9736 294.788 46.6475 294.925 47.2725C295.071 47.8975 295.291 48.4492 295.584 48.9277C295.887 49.3965 296.268 49.7676 296.727 50.041C297.195 50.3047 297.747 50.4365 298.382 50.4365C299.212 50.4365 299.891 50.2607 300.418 49.9092C300.955 49.5576 301.365 49.084 301.648 48.4883C301.941 47.8828 302.146 47.209 302.264 46.4668V43.8154C302.205 43.2393 302.083 42.7021 301.897 42.2041C301.722 41.7061 301.482 41.2715 301.18 40.9004C300.877 40.5195 300.496 40.2266 300.037 40.0215C299.578 39.8066 299.036 39.6992 298.411 39.6992C297.776 39.6992 297.225 39.8359 296.756 40.1094C296.287 40.3828 295.901 40.7588 295.599 41.2373C295.306 41.7158 295.086 42.2725 294.939 42.9072C294.793 43.542 294.72 44.2207 294.72 44.9434Z" fill="#445D6B"/>
</svg>
