<svg width="500" height="86" viewBox="0 0 500 86" fill="none" xmlns="http://www.w3.org/2000/svg">
<rect width="500" height="86" rx="10" fill="white"/>
<rect width="500" height="86" rx="10" fill="url(#paint0_linear_1100_3177)"/>
<path d="M211.168 31.6719H218.712C220.333 31.6719 221.715 31.916 222.857 32.4043C224 32.8926 224.874 33.6152 225.479 34.5723C226.095 35.5195 226.402 36.6914 226.402 38.0879C226.402 39.1523 226.207 40.0898 225.816 40.9004C225.426 41.7109 224.874 42.3945 224.161 42.9512C223.448 43.498 222.599 43.9229 221.612 44.2256L220.499 44.7676H213.717L213.688 41.8525H218.771C219.649 41.8525 220.382 41.6963 220.968 41.3838C221.554 41.0713 221.993 40.6465 222.286 40.1094C222.589 39.5625 222.74 38.9473 222.74 38.2637C222.74 37.5215 222.594 36.877 222.301 36.3301C222.018 35.7734 221.578 35.3486 220.982 35.0557C220.387 34.7529 219.63 34.6016 218.712 34.6016H214.845V53H211.168V31.6719ZM223.341 53L218.331 43.4199L222.184 43.4053L227.267 52.8096V53H223.341ZM236.7 53.293C235.528 53.293 234.469 53.1025 233.521 52.7217C232.584 52.3311 231.783 51.7891 231.119 51.0957C230.465 50.4023 229.962 49.5869 229.61 48.6494C229.259 47.7119 229.083 46.7012 229.083 45.6172V45.0312C229.083 43.791 229.264 42.668 229.625 41.6621C229.986 40.6562 230.489 39.7969 231.134 39.084C231.778 38.3613 232.54 37.8096 233.419 37.4287C234.298 37.0479 235.25 36.8574 236.275 36.8574C237.408 36.8574 238.399 37.0479 239.249 37.4287C240.099 37.8096 240.802 38.3467 241.358 39.04C241.925 39.7236 242.345 40.5391 242.618 41.4863C242.901 42.4336 243.043 43.4785 243.043 44.6211V46.1299H230.797V43.5957H239.557V43.3174C239.537 42.6826 239.41 42.0869 239.176 41.5303C238.951 40.9736 238.604 40.5244 238.136 40.1826C237.667 39.8408 237.042 39.6699 236.261 39.6699C235.675 39.6699 235.152 39.7969 234.693 40.0508C234.244 40.2949 233.868 40.6514 233.565 41.1201C233.263 41.5889 233.028 42.1553 232.862 42.8193C232.706 43.4736 232.628 44.2109 232.628 45.0312V45.6172C232.628 46.3105 232.721 46.9551 232.906 47.5508C233.102 48.1367 233.385 48.6494 233.756 49.0889C234.127 49.5283 234.576 49.875 235.104 50.1289C235.631 50.373 236.231 50.4951 236.905 50.4951C237.755 50.4951 238.512 50.3242 239.176 49.9824C239.84 49.6406 240.416 49.1572 240.904 48.5322L242.765 50.334C242.423 50.832 241.979 51.3105 241.432 51.7695C240.885 52.2188 240.216 52.585 239.425 52.8682C238.644 53.1514 237.735 53.293 236.7 53.293ZM245.973 37.1504H249.518V54.377C249.518 55.4609 249.332 56.374 248.961 57.1162C248.59 57.8682 248.043 58.4346 247.32 58.8154C246.598 59.2061 245.714 59.4014 244.669 59.4014C244.356 59.4014 244.034 59.377 243.702 59.3281C243.36 59.2891 243.038 59.2305 242.735 59.1523L242.75 56.3984C242.955 56.4375 243.175 56.4668 243.409 56.4863C243.634 56.5156 243.849 56.5303 244.054 56.5303C244.474 56.5303 244.825 56.457 245.108 56.3105C245.392 56.1641 245.606 55.9346 245.753 55.6221C245.899 55.3096 245.973 54.8945 245.973 54.377V37.1504ZM245.665 32.9902C245.665 32.4531 245.846 32.0088 246.207 31.6572C246.568 31.2959 247.062 31.1152 247.687 31.1152C248.321 31.1152 248.814 31.2959 249.166 31.6572C249.527 32.0088 249.708 32.4531 249.708 32.9902C249.708 33.5176 249.527 33.957 249.166 34.3086C248.814 34.6602 248.321 34.8359 247.687 34.8359C247.062 34.8359 246.568 34.6602 246.207 34.3086C245.846 33.957 245.665 33.5176 245.665 32.9902ZM260.313 53.293C259.142 53.293 258.082 53.1025 257.135 52.7217C256.197 52.3311 255.396 51.7891 254.732 51.0957C254.078 50.4023 253.575 49.5869 253.224 48.6494C252.872 47.7119 252.696 46.7012 252.696 45.6172V45.0312C252.696 43.791 252.877 42.668 253.238 41.6621C253.6 40.6562 254.103 39.7969 254.747 39.084C255.392 38.3613 256.153 37.8096 257.032 37.4287C257.911 37.0479 258.863 36.8574 259.889 36.8574C261.021 36.8574 262.013 37.0479 262.862 37.4287C263.712 37.8096 264.415 38.3467 264.972 39.04C265.538 39.7236 265.958 40.5391 266.231 41.4863C266.515 42.4336 266.656 43.4785 266.656 44.6211V46.1299H254.41V43.5957H263.17V43.3174C263.15 42.6826 263.023 42.0869 262.789 41.5303C262.564 40.9736 262.218 40.5244 261.749 40.1826C261.28 39.8408 260.655 39.6699 259.874 39.6699C259.288 39.6699 258.766 39.7969 258.307 40.0508C257.857 40.2949 257.481 40.6514 257.179 41.1201C256.876 41.5889 256.642 42.1553 256.476 42.8193C256.319 43.4736 256.241 44.2109 256.241 45.0312V45.6172C256.241 46.3105 256.334 46.9551 256.52 47.5508C256.715 48.1367 256.998 48.6494 257.369 49.0889C257.74 49.5283 258.189 49.875 258.717 50.1289C259.244 50.373 259.845 50.4951 260.519 50.4951C261.368 50.4951 262.125 50.3242 262.789 49.9824C263.453 49.6406 264.029 49.1572 264.518 48.5322L266.378 50.334C266.036 50.832 265.592 51.3105 265.045 51.7695C264.498 52.2188 263.829 52.585 263.038 52.8682C262.257 53.1514 261.349 53.293 260.313 53.293ZM275.885 50.4805C276.461 50.4805 276.979 50.3682 277.438 50.1436C277.906 49.9092 278.282 49.5869 278.565 49.1768C278.858 48.7666 279.02 48.293 279.049 47.7559H282.374C282.354 48.7812 282.052 49.7139 281.466 50.5537C280.88 51.3936 280.104 52.0625 279.137 52.5605C278.17 53.0488 277.101 53.293 275.929 53.293C274.718 53.293 273.663 53.0879 272.765 52.6777C271.866 52.2578 271.119 51.6816 270.523 50.9492C269.928 50.2168 269.479 49.3721 269.176 48.415C268.883 47.458 268.736 46.4326 268.736 45.3389V44.8262C268.736 43.7324 268.883 42.707 269.176 41.75C269.479 40.7832 269.928 39.9336 270.523 39.2012C271.119 38.4688 271.866 37.8975 272.765 37.4873C273.663 37.0674 274.713 36.8574 275.914 36.8574C277.184 36.8574 278.297 37.1113 279.254 37.6191C280.211 38.1172 280.963 38.8154 281.51 39.7139C282.066 40.6025 282.354 41.6377 282.374 42.8193H279.049C279.02 42.2334 278.873 41.7061 278.609 41.2373C278.355 40.7588 277.994 40.3779 277.525 40.0947C277.066 39.8115 276.515 39.6699 275.87 39.6699C275.157 39.6699 274.566 39.8164 274.098 40.1094C273.629 40.3926 273.263 40.7832 272.999 41.2812C272.735 41.7695 272.545 42.3213 272.428 42.9365C272.32 43.542 272.267 44.1719 272.267 44.8262V45.3389C272.267 45.9932 272.32 46.6279 272.428 47.2432C272.535 47.8584 272.721 48.4102 272.984 48.8984C273.258 49.377 273.629 49.7627 274.098 50.0557C274.566 50.3389 275.162 50.4805 275.885 50.4805ZM292.35 37.1504V39.7285H283.414V37.1504H292.35ZM285.992 33.2686H289.522V48.6201C289.522 49.1084 289.591 49.4844 289.728 49.748C289.874 50.002 290.074 50.1729 290.328 50.2607C290.582 50.3486 290.88 50.3926 291.222 50.3926C291.466 50.3926 291.7 50.3779 291.925 50.3486C292.149 50.3193 292.33 50.29 292.467 50.2607L292.481 52.9561C292.188 53.0439 291.847 53.1221 291.456 53.1904C291.075 53.2588 290.636 53.293 290.138 53.293C289.327 53.293 288.609 53.1514 287.984 52.8682C287.359 52.5752 286.871 52.1016 286.52 51.4473C286.168 50.793 285.992 49.9238 285.992 48.8398V33.2686Z" fill="#445D6B"/>
<rect width="474" height="83" rx="10" fill="white"/>
<path d="M204.269 45.0459H198.717V42.1309H204.269C205.235 42.1309 206.017 41.9746 206.612 41.6621C207.208 41.3496 207.643 40.9199 207.916 40.373C208.199 39.8164 208.341 39.1816 208.341 38.4688C208.341 37.7949 208.199 37.165 207.916 36.5791C207.643 35.9834 207.208 35.5049 206.612 35.1436C206.017 34.7822 205.235 34.6016 204.269 34.6016H199.845V53H196.168V31.6719H204.269C205.919 31.6719 207.32 31.9648 208.473 32.5508C209.635 33.127 210.519 33.9277 211.124 34.9531C211.729 35.9688 212.032 37.1309 212.032 38.4395C212.032 39.8164 211.729 40.998 211.124 41.9844C210.519 42.9707 209.635 43.7275 208.473 44.2549C207.32 44.7822 205.919 45.0459 204.269 45.0459ZM221.759 53.293C220.587 53.293 219.527 53.1025 218.58 52.7217C217.643 52.3311 216.842 51.7891 216.178 51.0957C215.523 50.4023 215.021 49.5869 214.669 48.6494C214.317 47.7119 214.142 46.7012 214.142 45.6172V45.0312C214.142 43.791 214.322 42.668 214.684 41.6621C215.045 40.6562 215.548 39.7969 216.192 39.084C216.837 38.3613 217.599 37.8096 218.478 37.4287C219.356 37.0479 220.309 36.8574 221.334 36.8574C222.467 36.8574 223.458 37.0479 224.308 37.4287C225.157 37.8096 225.86 38.3467 226.417 39.04C226.983 39.7236 227.403 40.5391 227.677 41.4863C227.96 42.4336 228.102 43.4785 228.102 44.6211V46.1299H215.855V43.5957H224.615V43.3174C224.596 42.6826 224.469 42.0869 224.234 41.5303C224.01 40.9736 223.663 40.5244 223.194 40.1826C222.726 39.8408 222.101 39.6699 221.319 39.6699C220.733 39.6699 220.211 39.7969 219.752 40.0508C219.303 40.2949 218.927 40.6514 218.624 41.1201C218.321 41.5889 218.087 42.1553 217.921 42.8193C217.765 43.4736 217.687 44.2109 217.687 45.0312V45.6172C217.687 46.3105 217.779 46.9551 217.965 47.5508C218.16 48.1367 218.443 48.6494 218.814 49.0889C219.186 49.5283 219.635 49.875 220.162 50.1289C220.689 50.373 221.29 50.4951 221.964 50.4951C222.813 50.4951 223.57 50.3242 224.234 49.9824C224.898 49.6406 225.475 49.1572 225.963 48.5322L227.823 50.334C227.481 50.832 227.037 51.3105 226.49 51.7695C225.943 52.2188 225.274 52.585 224.483 52.8682C223.702 53.1514 222.794 53.293 221.759 53.293ZM234.356 40.5342V53H230.826V37.1504H234.151L234.356 40.5342ZM233.727 44.4893L232.584 44.4746C232.594 43.3516 232.75 42.3213 233.053 41.3838C233.365 40.4463 233.795 39.6406 234.342 38.9668C234.898 38.293 235.562 37.7754 236.334 37.4141C237.105 37.043 237.965 36.8574 238.912 36.8574C239.674 36.8574 240.362 36.9648 240.978 37.1797C241.603 37.3848 242.135 37.7217 242.574 38.1904C243.023 38.6592 243.365 39.2695 243.6 40.0215C243.834 40.7637 243.951 41.6768 243.951 42.7607V53H240.406V42.7461C240.406 41.9844 240.294 41.3838 240.069 40.9443C239.854 40.4951 239.537 40.1777 239.117 39.9922C238.707 39.7969 238.194 39.6992 237.579 39.6992C236.974 39.6992 236.432 39.8262 235.953 40.0801C235.475 40.334 235.069 40.6807 234.737 41.1201C234.415 41.5596 234.166 42.0674 233.99 42.6436C233.814 43.2197 233.727 43.835 233.727 44.4893ZM257.223 49.7188V30.5H260.768V53H257.56L257.223 49.7188ZM246.91 45.251V44.9434C246.91 43.7422 247.052 42.6484 247.335 41.6621C247.618 40.666 248.028 39.8115 248.565 39.0986C249.103 38.376 249.757 37.8242 250.528 37.4434C251.3 37.0527 252.169 36.8574 253.136 36.8574C254.093 36.8574 254.933 37.043 255.655 37.4141C256.378 37.7852 256.993 38.3174 257.501 39.0107C258.009 39.6943 258.414 40.5146 258.717 41.4717C259.02 42.4189 259.234 43.4736 259.361 44.6357V45.6172C259.234 46.75 259.02 47.7852 258.717 48.7227C258.414 49.6602 258.009 50.4707 257.501 51.1543C256.993 51.8379 256.373 52.3652 255.641 52.7363C254.918 53.1074 254.073 53.293 253.106 53.293C252.149 53.293 251.285 53.0928 250.514 52.6924C249.752 52.292 249.103 51.7305 248.565 51.0078C248.028 50.2852 247.618 49.4355 247.335 48.459C247.052 47.4727 246.91 46.4033 246.91 45.251ZM250.44 44.9434V45.251C250.44 45.9736 250.504 46.6475 250.631 47.2725C250.768 47.8975 250.978 48.4492 251.261 48.9277C251.544 49.3965 251.91 49.7676 252.359 50.041C252.818 50.3047 253.365 50.4365 254 50.4365C254.801 50.4365 255.46 50.2607 255.978 49.9092C256.495 49.5576 256.9 49.084 257.193 48.4883C257.496 47.8828 257.701 47.209 257.809 46.4668V43.8154C257.75 43.2393 257.628 42.7021 257.442 42.2041C257.267 41.7061 257.027 41.2715 256.725 40.9004C256.422 40.5195 256.046 40.2266 255.597 40.0215C255.157 39.8066 254.635 39.6992 254.029 39.6992C253.385 39.6992 252.838 39.8359 252.389 40.1094C251.939 40.3828 251.568 40.7588 251.275 41.2373C250.992 41.7158 250.782 42.2725 250.646 42.9072C250.509 43.542 250.44 44.2207 250.44 44.9434ZM268.238 37.1504V53H264.693V37.1504H268.238ZM264.459 32.9902C264.459 32.4531 264.635 32.0088 264.986 31.6572C265.348 31.2959 265.846 31.1152 266.48 31.1152C267.105 31.1152 267.599 31.2959 267.96 31.6572C268.321 32.0088 268.502 32.4531 268.502 32.9902C268.502 33.5176 268.321 33.957 267.96 34.3086C267.599 34.6602 267.105 34.8359 266.48 34.8359C265.846 34.8359 265.348 34.6602 264.986 34.3086C264.635 33.957 264.459 33.5176 264.459 32.9902ZM275.606 40.5342V53H272.076V37.1504H275.401L275.606 40.5342ZM274.977 44.4893L273.834 44.4746C273.844 43.3516 274 42.3213 274.303 41.3838C274.615 40.4463 275.045 39.6406 275.592 38.9668C276.148 38.293 276.812 37.7754 277.584 37.4141C278.355 37.043 279.215 36.8574 280.162 36.8574C280.924 36.8574 281.612 36.9648 282.228 37.1797C282.853 37.3848 283.385 37.7217 283.824 38.1904C284.273 38.6592 284.615 39.2695 284.85 40.0215C285.084 40.7637 285.201 41.6768 285.201 42.7607V53H281.656V42.7461C281.656 41.9844 281.544 41.3838 281.319 40.9443C281.104 40.4951 280.787 40.1777 280.367 39.9922C279.957 39.7969 279.444 39.6992 278.829 39.6992C278.224 39.6992 277.682 39.8262 277.203 40.0801C276.725 40.334 276.319 40.6807 275.987 41.1201C275.665 41.5596 275.416 42.0674 275.24 42.6436C275.064 43.2197 274.977 43.835 274.977 44.4893ZM298.956 37.1504H302.164V52.5605C302.164 53.9863 301.861 55.1973 301.256 56.1934C300.65 57.1895 299.806 57.9463 298.722 58.4639C297.638 58.9912 296.383 59.2549 294.957 59.2549C294.352 59.2549 293.678 59.167 292.936 58.9912C292.203 58.8154 291.49 58.5322 290.797 58.1416C290.113 57.7607 289.542 57.2578 289.083 56.6328L290.738 54.5527C291.305 55.2266 291.93 55.7197 292.613 56.0322C293.297 56.3447 294.015 56.501 294.767 56.501C295.577 56.501 296.266 56.3496 296.832 56.0469C297.408 55.7539 297.853 55.3193 298.165 54.7432C298.478 54.167 298.634 53.4639 298.634 52.6338V40.7393L298.956 37.1504ZM288.189 45.251V44.9434C288.189 43.7422 288.336 42.6484 288.629 41.6621C288.922 40.666 289.342 39.8115 289.889 39.0986C290.436 38.376 291.1 37.8242 291.881 37.4434C292.662 37.0527 293.546 36.8574 294.532 36.8574C295.558 36.8574 296.432 37.043 297.154 37.4141C297.887 37.7852 298.497 38.3174 298.985 39.0107C299.474 39.6943 299.854 40.5146 300.128 41.4717C300.411 42.4189 300.621 43.4736 300.758 44.6357V45.6172C300.631 46.75 300.416 47.7852 300.113 48.7227C299.811 49.6602 299.41 50.4707 298.912 51.1543C298.414 51.8379 297.799 52.3652 297.066 52.7363C296.344 53.1074 295.489 53.293 294.503 53.293C293.536 53.293 292.662 53.0928 291.881 52.6924C291.109 52.292 290.445 51.7305 289.889 51.0078C289.342 50.2852 288.922 49.4355 288.629 48.459C288.336 47.4727 288.189 46.4033 288.189 45.251ZM291.72 44.9434V45.251C291.72 45.9736 291.788 46.6475 291.925 47.2725C292.071 47.8975 292.291 48.4492 292.584 48.9277C292.887 49.3965 293.268 49.7676 293.727 50.041C294.195 50.3047 294.747 50.4365 295.382 50.4365C296.212 50.4365 296.891 50.2607 297.418 49.9092C297.955 49.5576 298.365 49.084 298.648 48.4883C298.941 47.8828 299.146 47.209 299.264 46.4668V43.8154C299.205 43.2393 299.083 42.7021 298.897 42.2041C298.722 41.7061 298.482 41.2715 298.18 40.9004C297.877 40.5195 297.496 40.2266 297.037 40.0215C296.578 39.8066 296.036 39.6992 295.411 39.6992C294.776 39.6992 294.225 39.8359 293.756 40.1094C293.287 40.3828 292.901 40.7588 292.599 41.2373C292.306 41.7158 292.086 42.2725 291.939 42.9072C291.793 43.542 291.72 44.2207 291.72 44.9434Z" fill="#445D6B"/>
<defs>
<linearGradient id="paint0_linear_1100_3177" x1="255.5" y1="5.54551e-07" x2="255.5" y2="86" gradientUnits="userSpaceOnUse">
<stop stop-color="#FFB700"/>
<stop offset="1" stop-color="#794D01"/>
</linearGradient>
</defs>
</svg>
