<svg width="500" height="86" viewBox="0 0 500 86" fill="none" xmlns="http://www.w3.org/2000/svg">
<rect width="500" height="86" rx="10" fill="white"/>
<rect x="0.5" y="0.5" width="499" height="85" rx="9.5" stroke="#445A68" stroke-opacity="0.2"/>
<rect width="500" height="86" rx="10" fill="url(#paint0_linear_1100_3176)"/>
<path d="M211.168 31.6719H218.712C220.333 31.6719 221.715 31.916 222.857 32.4043C224 32.8926 224.874 33.6152 225.479 34.5723C226.095 35.5195 226.402 36.6914 226.402 38.0879C226.402 39.1523 226.207 40.0898 225.816 40.9004C225.426 41.7109 224.874 42.3945 224.161 42.9512C223.448 43.498 222.599 43.9229 221.612 44.2256L220.499 44.7676H213.717L213.688 41.8525H218.771C219.649 41.8525 220.382 41.6963 220.968 41.3838C221.554 41.0713 221.993 40.6465 222.286 40.1094C222.589 39.5625 222.74 38.9473 222.74 38.2637C222.74 37.5215 222.594 36.877 222.301 36.3301C222.018 35.7734 221.578 35.3486 220.982 35.0557C220.387 34.7529 219.63 34.6016 218.712 34.6016H214.845V53H211.168V31.6719ZM223.341 53L218.331 43.4199L222.184 43.4053L227.267 52.8096V53H223.341ZM236.7 53.293C235.528 53.293 234.469 53.1025 233.521 52.7217C232.584 52.3311 231.783 51.7891 231.119 51.0957C230.465 50.4023 229.962 49.5869 229.61 48.6494C229.259 47.7119 229.083 46.7012 229.083 45.6172V45.0312C229.083 43.791 229.264 42.668 229.625 41.6621C229.986 40.6562 230.489 39.7969 231.134 39.084C231.778 38.3613 232.54 37.8096 233.419 37.4287C234.298 37.0479 235.25 36.8574 236.275 36.8574C237.408 36.8574 238.399 37.0479 239.249 37.4287C240.099 37.8096 240.802 38.3467 241.358 39.04C241.925 39.7236 242.345 40.5391 242.618 41.4863C242.901 42.4336 243.043 43.4785 243.043 44.6211V46.1299H230.797V43.5957H239.557V43.3174C239.537 42.6826 239.41 42.0869 239.176 41.5303C238.951 40.9736 238.604 40.5244 238.136 40.1826C237.667 39.8408 237.042 39.6699 236.261 39.6699C235.675 39.6699 235.152 39.7969 234.693 40.0508C234.244 40.2949 233.868 40.6514 233.565 41.1201C233.263 41.5889 233.028 42.1553 232.862 42.8193C232.706 43.4736 232.628 44.2109 232.628 45.0312V45.6172C232.628 46.3105 232.721 46.9551 232.906 47.5508C233.102 48.1367 233.385 48.6494 233.756 49.0889C234.127 49.5283 234.576 49.875 235.104 50.1289C235.631 50.373 236.231 50.4951 236.905 50.4951C237.755 50.4951 238.512 50.3242 239.176 49.9824C239.84 49.6406 240.416 49.1572 240.904 48.5322L242.765 50.334C242.423 50.832 241.979 51.3105 241.432 51.7695C240.885 52.2188 240.216 52.585 239.425 52.8682C238.644 53.1514 237.735 53.293 236.7 53.293ZM245.973 37.1504H249.518V54.377C249.518 55.4609 249.332 56.374 248.961 57.1162C248.59 57.8682 248.043 58.4346 247.32 58.8154C246.598 59.2061 245.714 59.4014 244.669 59.4014C244.356 59.4014 244.034 59.377 243.702 59.3281C243.36 59.2891 243.038 59.2305 242.735 59.1523L242.75 56.3984C242.955 56.4375 243.175 56.4668 243.409 56.4863C243.634 56.5156 243.849 56.5303 244.054 56.5303C244.474 56.5303 244.825 56.457 245.108 56.3105C245.392 56.1641 245.606 55.9346 245.753 55.6221C245.899 55.3096 245.973 54.8945 245.973 54.377V37.1504ZM245.665 32.9902C245.665 32.4531 245.846 32.0088 246.207 31.6572C246.568 31.2959 247.062 31.1152 247.687 31.1152C248.321 31.1152 248.814 31.2959 249.166 31.6572C249.527 32.0088 249.708 32.4531 249.708 32.9902C249.708 33.5176 249.527 33.957 249.166 34.3086C248.814 34.6602 248.321 34.8359 247.687 34.8359C247.062 34.8359 246.568 34.6602 246.207 34.3086C245.846 33.957 245.665 33.5176 245.665 32.9902ZM260.313 53.293C259.142 53.293 258.082 53.1025 257.135 52.7217C256.197 52.3311 255.396 51.7891 254.732 51.0957C254.078 50.4023 253.575 49.5869 253.224 48.6494C252.872 47.7119 252.696 46.7012 252.696 45.6172V45.0312C252.696 43.791 252.877 42.668 253.238 41.6621C253.6 40.6562 254.103 39.7969 254.747 39.084C255.392 38.3613 256.153 37.8096 257.032 37.4287C257.911 37.0479 258.863 36.8574 259.889 36.8574C261.021 36.8574 262.013 37.0479 262.862 37.4287C263.712 37.8096 264.415 38.3467 264.972 39.04C265.538 39.7236 265.958 40.5391 266.231 41.4863C266.515 42.4336 266.656 43.4785 266.656 44.6211V46.1299H254.41V43.5957H263.17V43.3174C263.15 42.6826 263.023 42.0869 262.789 41.5303C262.564 40.9736 262.218 40.5244 261.749 40.1826C261.28 39.8408 260.655 39.6699 259.874 39.6699C259.288 39.6699 258.766 39.7969 258.307 40.0508C257.857 40.2949 257.481 40.6514 257.179 41.1201C256.876 41.5889 256.642 42.1553 256.476 42.8193C256.319 43.4736 256.241 44.2109 256.241 45.0312V45.6172C256.241 46.3105 256.334 46.9551 256.52 47.5508C256.715 48.1367 256.998 48.6494 257.369 49.0889C257.74 49.5283 258.189 49.875 258.717 50.1289C259.244 50.373 259.845 50.4951 260.519 50.4951C261.368 50.4951 262.125 50.3242 262.789 49.9824C263.453 49.6406 264.029 49.1572 264.518 48.5322L266.378 50.334C266.036 50.832 265.592 51.3105 265.045 51.7695C264.498 52.2188 263.829 52.585 263.038 52.8682C262.257 53.1514 261.349 53.293 260.313 53.293ZM275.885 50.4805C276.461 50.4805 276.979 50.3682 277.438 50.1436C277.906 49.9092 278.282 49.5869 278.565 49.1768C278.858 48.7666 279.02 48.293 279.049 47.7559H282.374C282.354 48.7812 282.052 49.7139 281.466 50.5537C280.88 51.3936 280.104 52.0625 279.137 52.5605C278.17 53.0488 277.101 53.293 275.929 53.293C274.718 53.293 273.663 53.0879 272.765 52.6777C271.866 52.2578 271.119 51.6816 270.523 50.9492C269.928 50.2168 269.479 49.3721 269.176 48.415C268.883 47.458 268.736 46.4326 268.736 45.3389V44.8262C268.736 43.7324 268.883 42.707 269.176 41.75C269.479 40.7832 269.928 39.9336 270.523 39.2012C271.119 38.4688 271.866 37.8975 272.765 37.4873C273.663 37.0674 274.713 36.8574 275.914 36.8574C277.184 36.8574 278.297 37.1113 279.254 37.6191C280.211 38.1172 280.963 38.8154 281.51 39.7139C282.066 40.6025 282.354 41.6377 282.374 42.8193H279.049C279.02 42.2334 278.873 41.7061 278.609 41.2373C278.355 40.7588 277.994 40.3779 277.525 40.0947C277.066 39.8115 276.515 39.6699 275.87 39.6699C275.157 39.6699 274.566 39.8164 274.098 40.1094C273.629 40.3926 273.263 40.7832 272.999 41.2812C272.735 41.7695 272.545 42.3213 272.428 42.9365C272.32 43.542 272.267 44.1719 272.267 44.8262V45.3389C272.267 45.9932 272.32 46.6279 272.428 47.2432C272.535 47.8584 272.721 48.4102 272.984 48.8984C273.258 49.377 273.629 49.7627 274.098 50.0557C274.566 50.3389 275.162 50.4805 275.885 50.4805ZM292.35 37.1504V39.7285H283.414V37.1504H292.35ZM285.992 33.2686H289.522V48.6201C289.522 49.1084 289.591 49.4844 289.728 49.748C289.874 50.002 290.074 50.1729 290.328 50.2607C290.582 50.3486 290.88 50.3926 291.222 50.3926C291.466 50.3926 291.7 50.3779 291.925 50.3486C292.149 50.3193 292.33 50.29 292.467 50.2607L292.481 52.9561C292.188 53.0439 291.847 53.1221 291.456 53.1904C291.075 53.2588 290.636 53.293 290.138 53.293C289.327 53.293 288.609 53.1514 287.984 52.8682C287.359 52.5752 286.871 52.1016 286.52 51.4473C286.168 50.793 285.992 49.9238 285.992 48.8398V33.2686Z" fill="#445D6B"/>
<rect width="474" height="83" rx="10" fill="white"/>
<path d="M193.168 32.6719H200.712C202.333 32.6719 203.715 32.916 204.857 33.4043C206 33.8926 206.874 34.6152 207.479 35.5723C208.095 36.5195 208.402 37.6914 208.402 39.0879C208.402 40.1523 208.207 41.0898 207.816 41.9004C207.426 42.7109 206.874 43.3945 206.161 43.9512C205.448 44.498 204.599 44.9229 203.612 45.2256L202.499 45.7676H195.717L195.688 42.8525H200.771C201.649 42.8525 202.382 42.6963 202.968 42.3838C203.554 42.0713 203.993 41.6465 204.286 41.1094C204.589 40.5625 204.74 39.9473 204.74 39.2637C204.74 38.5215 204.594 37.877 204.301 37.3301C204.018 36.7734 203.578 36.3486 202.982 36.0557C202.387 35.7529 201.63 35.6016 200.712 35.6016H196.845V54H193.168V32.6719ZM205.341 54L200.331 44.4199L204.184 44.4053L209.267 53.8096V54H205.341ZM218.7 54.293C217.528 54.293 216.469 54.1025 215.521 53.7217C214.584 53.3311 213.783 52.7891 213.119 52.0957C212.465 51.4023 211.962 50.5869 211.61 49.6494C211.259 48.7119 211.083 47.7012 211.083 46.6172V46.0312C211.083 44.791 211.264 43.668 211.625 42.6621C211.986 41.6562 212.489 40.7969 213.134 40.084C213.778 39.3613 214.54 38.8096 215.419 38.4287C216.298 38.0479 217.25 37.8574 218.275 37.8574C219.408 37.8574 220.399 38.0479 221.249 38.4287C222.099 38.8096 222.802 39.3467 223.358 40.04C223.925 40.7236 224.345 41.5391 224.618 42.4863C224.901 43.4336 225.043 44.4785 225.043 45.6211V47.1299H212.797V44.5957H221.557V44.3174C221.537 43.6826 221.41 43.0869 221.176 42.5303C220.951 41.9736 220.604 41.5244 220.136 41.1826C219.667 40.8408 219.042 40.6699 218.261 40.6699C217.675 40.6699 217.152 40.7969 216.693 41.0508C216.244 41.2949 215.868 41.6514 215.565 42.1201C215.263 42.5889 215.028 43.1553 214.862 43.8193C214.706 44.4736 214.628 45.2109 214.628 46.0312V46.6172C214.628 47.3105 214.721 47.9551 214.906 48.5508C215.102 49.1367 215.385 49.6494 215.756 50.0889C216.127 50.5283 216.576 50.875 217.104 51.1289C217.631 51.373 218.231 51.4951 218.905 51.4951C219.755 51.4951 220.512 51.3242 221.176 50.9824C221.84 50.6406 222.416 50.1572 222.904 49.5322L224.765 51.334C224.423 51.832 223.979 52.3105 223.432 52.7695C222.885 53.2188 222.216 53.585 221.425 53.8682C220.644 54.1514 219.735 54.293 218.7 54.293ZM227.973 38.1504H231.518V55.377C231.518 56.4609 231.332 57.374 230.961 58.1162C230.59 58.8682 230.043 59.4346 229.32 59.8154C228.598 60.2061 227.714 60.4014 226.669 60.4014C226.356 60.4014 226.034 60.377 225.702 60.3281C225.36 60.2891 225.038 60.2305 224.735 60.1523L224.75 57.3984C224.955 57.4375 225.175 57.4668 225.409 57.4863C225.634 57.5156 225.849 57.5303 226.054 57.5303C226.474 57.5303 226.825 57.457 227.108 57.3105C227.392 57.1641 227.606 56.9346 227.753 56.6221C227.899 56.3096 227.973 55.8945 227.973 55.377V38.1504ZM227.665 33.9902C227.665 33.4531 227.846 33.0088 228.207 32.6572C228.568 32.2959 229.062 32.1152 229.687 32.1152C230.321 32.1152 230.814 32.2959 231.166 32.6572C231.527 33.0088 231.708 33.4531 231.708 33.9902C231.708 34.5176 231.527 34.957 231.166 35.3086C230.814 35.6602 230.321 35.8359 229.687 35.8359C229.062 35.8359 228.568 35.6602 228.207 35.3086C227.846 34.957 227.665 34.5176 227.665 33.9902ZM242.313 54.293C241.142 54.293 240.082 54.1025 239.135 53.7217C238.197 53.3311 237.396 52.7891 236.732 52.0957C236.078 51.4023 235.575 50.5869 235.224 49.6494C234.872 48.7119 234.696 47.7012 234.696 46.6172V46.0312C234.696 44.791 234.877 43.668 235.238 42.6621C235.6 41.6562 236.103 40.7969 236.747 40.084C237.392 39.3613 238.153 38.8096 239.032 38.4287C239.911 38.0479 240.863 37.8574 241.889 37.8574C243.021 37.8574 244.013 38.0479 244.862 38.4287C245.712 38.8096 246.415 39.3467 246.972 40.04C247.538 40.7236 247.958 41.5391 248.231 42.4863C248.515 43.4336 248.656 44.4785 248.656 45.6211V47.1299H236.41V44.5957H245.17V44.3174C245.15 43.6826 245.023 43.0869 244.789 42.5303C244.564 41.9736 244.218 41.5244 243.749 41.1826C243.28 40.8408 242.655 40.6699 241.874 40.6699C241.288 40.6699 240.766 40.7969 240.307 41.0508C239.857 41.2949 239.481 41.6514 239.179 42.1201C238.876 42.5889 238.642 43.1553 238.476 43.8193C238.319 44.4736 238.241 45.2109 238.241 46.0312V46.6172C238.241 47.3105 238.334 47.9551 238.52 48.5508C238.715 49.1367 238.998 49.6494 239.369 50.0889C239.74 50.5283 240.189 50.875 240.717 51.1289C241.244 51.373 241.845 51.4951 242.519 51.4951C243.368 51.4951 244.125 51.3242 244.789 50.9824C245.453 50.6406 246.029 50.1572 246.518 49.5322L248.378 51.334C248.036 51.832 247.592 52.3105 247.045 52.7695C246.498 53.2188 245.829 53.585 245.038 53.8682C244.257 54.1514 243.349 54.293 242.313 54.293ZM257.885 51.4805C258.461 51.4805 258.979 51.3682 259.438 51.1436C259.906 50.9092 260.282 50.5869 260.565 50.1768C260.858 49.7666 261.02 49.293 261.049 48.7559H264.374C264.354 49.7812 264.052 50.7139 263.466 51.5537C262.88 52.3936 262.104 53.0625 261.137 53.5605C260.17 54.0488 259.101 54.293 257.929 54.293C256.718 54.293 255.663 54.0879 254.765 53.6777C253.866 53.2578 253.119 52.6816 252.523 51.9492C251.928 51.2168 251.479 50.3721 251.176 49.415C250.883 48.458 250.736 47.4326 250.736 46.3389V45.8262C250.736 44.7324 250.883 43.707 251.176 42.75C251.479 41.7832 251.928 40.9336 252.523 40.2012C253.119 39.4688 253.866 38.8975 254.765 38.4873C255.663 38.0674 256.713 37.8574 257.914 37.8574C259.184 37.8574 260.297 38.1113 261.254 38.6191C262.211 39.1172 262.963 39.8154 263.51 40.7139C264.066 41.6025 264.354 42.6377 264.374 43.8193H261.049C261.02 43.2334 260.873 42.7061 260.609 42.2373C260.355 41.7588 259.994 41.3779 259.525 41.0947C259.066 40.8115 258.515 40.6699 257.87 40.6699C257.157 40.6699 256.566 40.8164 256.098 41.1094C255.629 41.3926 255.263 41.7832 254.999 42.2812C254.735 42.7695 254.545 43.3213 254.428 43.9365C254.32 44.542 254.267 45.1719 254.267 45.8262V46.3389C254.267 46.9932 254.32 47.6279 254.428 48.2432C254.535 48.8584 254.721 49.4102 254.984 49.8984C255.258 50.377 255.629 50.7627 256.098 51.0557C256.566 51.3389 257.162 51.4805 257.885 51.4805ZM274.35 38.1504V40.7285H265.414V38.1504H274.35ZM267.992 34.2686H271.522V49.6201C271.522 50.1084 271.591 50.4844 271.728 50.748C271.874 51.002 272.074 51.1729 272.328 51.2607C272.582 51.3486 272.88 51.3926 273.222 51.3926C273.466 51.3926 273.7 51.3779 273.925 51.3486C274.149 51.3193 274.33 51.29 274.467 51.2607L274.481 53.9561C274.188 54.0439 273.847 54.1221 273.456 54.1904C273.075 54.2588 272.636 54.293 272.138 54.293C271.327 54.293 270.609 54.1514 269.984 53.8682C269.359 53.5752 268.871 53.1016 268.52 52.4473C268.168 51.793 267.992 50.9238 267.992 49.8398V34.2686ZM284.062 54.293C282.89 54.293 281.83 54.1025 280.883 53.7217C279.945 53.3311 279.145 52.7891 278.48 52.0957C277.826 51.4023 277.323 50.5869 276.972 49.6494C276.62 48.7119 276.444 47.7012 276.444 46.6172V46.0312C276.444 44.791 276.625 43.668 276.986 42.6621C277.348 41.6562 277.851 40.7969 278.495 40.084C279.14 39.3613 279.901 38.8096 280.78 38.4287C281.659 38.0479 282.611 37.8574 283.637 37.8574C284.77 37.8574 285.761 38.0479 286.61 38.4287C287.46 38.8096 288.163 39.3467 288.72 40.04C289.286 40.7236 289.706 41.5391 289.979 42.4863C290.263 43.4336 290.404 44.4785 290.404 45.6211V47.1299H278.158V44.5957H286.918V44.3174C286.898 43.6826 286.771 43.0869 286.537 42.5303C286.312 41.9736 285.966 41.5244 285.497 41.1826C285.028 40.8408 284.403 40.6699 283.622 40.6699C283.036 40.6699 282.514 40.7969 282.055 41.0508C281.605 41.2949 281.229 41.6514 280.927 42.1201C280.624 42.5889 280.39 43.1553 280.224 43.8193C280.067 44.4736 279.989 45.2109 279.989 46.0312V46.6172C279.989 47.3105 280.082 47.9551 280.268 48.5508C280.463 49.1367 280.746 49.6494 281.117 50.0889C281.488 50.5283 281.938 50.875 282.465 51.1289C282.992 51.373 283.593 51.4951 284.267 51.4951C285.116 51.4951 285.873 51.3242 286.537 50.9824C287.201 50.6406 287.777 50.1572 288.266 49.5322L290.126 51.334C289.784 51.832 289.34 52.3105 288.793 52.7695C288.246 53.2188 287.577 53.585 286.786 53.8682C286.005 54.1514 285.097 54.293 284.062 54.293ZM302.826 50.7188V31.5H306.371V54H303.163L302.826 50.7188ZM292.514 46.251V45.9434C292.514 44.7422 292.655 43.6484 292.938 42.6621C293.222 41.666 293.632 40.8115 294.169 40.0986C294.706 39.376 295.36 38.8242 296.132 38.4434C296.903 38.0527 297.772 37.8574 298.739 37.8574C299.696 37.8574 300.536 38.043 301.259 38.4141C301.981 38.7852 302.597 39.3174 303.104 40.0107C303.612 40.6943 304.018 41.5146 304.32 42.4717C304.623 43.4189 304.838 44.4736 304.965 45.6357V46.6172C304.838 47.75 304.623 48.7852 304.32 49.7227C304.018 50.6602 303.612 51.4707 303.104 52.1543C302.597 52.8379 301.977 53.3652 301.244 53.7363C300.521 54.1074 299.677 54.293 298.71 54.293C297.753 54.293 296.889 54.0928 296.117 53.6924C295.355 53.292 294.706 52.7305 294.169 52.0078C293.632 51.2852 293.222 50.4355 292.938 49.459C292.655 48.4727 292.514 47.4033 292.514 46.251ZM296.044 45.9434V46.251C296.044 46.9736 296.107 47.6475 296.234 48.2725C296.371 48.8975 296.581 49.4492 296.864 49.9277C297.147 50.3965 297.514 50.7676 297.963 51.041C298.422 51.3047 298.969 51.4365 299.604 51.4365C300.404 51.4365 301.063 51.2607 301.581 50.9092C302.099 50.5576 302.504 50.084 302.797 49.4883C303.1 48.8828 303.305 48.209 303.412 47.4668V44.8154C303.354 44.2393 303.231 43.7021 303.046 43.2041C302.87 42.7061 302.631 42.2715 302.328 41.9004C302.025 41.5195 301.649 41.2266 301.2 41.0215C300.761 40.8066 300.238 40.6992 299.633 40.6992C298.988 40.6992 298.441 40.8359 297.992 41.1094C297.543 41.3828 297.172 41.7588 296.879 42.2373C296.596 42.7158 296.386 43.2725 296.249 43.9072C296.112 44.542 296.044 45.2207 296.044 45.9434Z" fill="#445D6B"/>
<defs>
<linearGradient id="paint0_linear_1100_3176" x1="255.5" y1="5.54551e-07" x2="255.5" y2="86" gradientUnits="userSpaceOnUse">
<stop stop-color="#FF6060"/>
<stop offset="1" stop-color="#590001"/>
</linearGradient>
</defs>
</svg>
