<svg width="500" height="86" viewBox="0 0 500 86" fill="none" xmlns="http://www.w3.org/2000/svg">
<rect width="500" height="86" rx="10" fill="white"/>
<rect x="0.5" y="0.5" width="499" height="85" rx="9.5" stroke="#445A68" stroke-opacity="0.2"/>
<path d="M193.168 31.6719H200.712C202.333 31.6719 203.715 31.916 204.857 32.4043C206 32.8926 206.874 33.6152 207.479 34.5723C208.095 35.5195 208.402 36.6914 208.402 38.0879C208.402 39.1523 208.207 40.0898 207.816 40.9004C207.426 41.7109 206.874 42.3945 206.161 42.9512C205.448 43.498 204.599 43.9229 203.612 44.2256L202.499 44.7676H195.717L195.688 41.8525H200.771C201.649 41.8525 202.382 41.6963 202.968 41.3838C203.554 41.0713 203.993 40.6465 204.286 40.1094C204.589 39.5625 204.74 38.9473 204.74 38.2637C204.74 37.5215 204.594 36.877 204.301 36.3301C204.018 35.7734 203.578 35.3486 202.982 35.0557C202.387 34.7529 201.63 34.6016 200.712 34.6016H196.845V53H193.168V31.6719ZM205.341 53L200.331 43.4199L204.184 43.4053L209.267 52.8096V53H205.341ZM218.7 53.293C217.528 53.293 216.469 53.1025 215.521 52.7217C214.584 52.3311 213.783 51.7891 213.119 51.0957C212.465 50.4023 211.962 49.5869 211.61 48.6494C211.259 47.7119 211.083 46.7012 211.083 45.6172V45.0312C211.083 43.791 211.264 42.668 211.625 41.6621C211.986 40.6562 212.489 39.7969 213.134 39.084C213.778 38.3613 214.54 37.8096 215.419 37.4287C216.298 37.0479 217.25 36.8574 218.275 36.8574C219.408 36.8574 220.399 37.0479 221.249 37.4287C222.099 37.8096 222.802 38.3467 223.358 39.04C223.925 39.7236 224.345 40.5391 224.618 41.4863C224.901 42.4336 225.043 43.4785 225.043 44.6211V46.1299H212.797V43.5957H221.557V43.3174C221.537 42.6826 221.41 42.0869 221.176 41.5303C220.951 40.9736 220.604 40.5244 220.136 40.1826C219.667 39.8408 219.042 39.6699 218.261 39.6699C217.675 39.6699 217.152 39.7969 216.693 40.0508C216.244 40.2949 215.868 40.6514 215.565 41.1201C215.263 41.5889 215.028 42.1553 214.862 42.8193C214.706 43.4736 214.628 44.2109 214.628 45.0312V45.6172C214.628 46.3105 214.721 46.9551 214.906 47.5508C215.102 48.1367 215.385 48.6494 215.756 49.0889C216.127 49.5283 216.576 49.875 217.104 50.1289C217.631 50.373 218.231 50.4951 218.905 50.4951C219.755 50.4951 220.512 50.3242 221.176 49.9824C221.84 49.6406 222.416 49.1572 222.904 48.5322L224.765 50.334C224.423 50.832 223.979 51.3105 223.432 51.7695C222.885 52.2188 222.216 52.585 221.425 52.8682C220.644 53.1514 219.735 53.293 218.7 53.293ZM227.973 37.1504H231.518V54.377C231.518 55.4609 231.332 56.374 230.961 57.1162C230.59 57.8682 230.043 58.4346 229.32 58.8154C228.598 59.2061 227.714 59.4014 226.669 59.4014C226.356 59.4014 226.034 59.377 225.702 59.3281C225.36 59.2891 225.038 59.2305 224.735 59.1523L224.75 56.3984C224.955 56.4375 225.175 56.4668 225.409 56.4863C225.634 56.5156 225.849 56.5303 226.054 56.5303C226.474 56.5303 226.825 56.457 227.108 56.3105C227.392 56.1641 227.606 55.9346 227.753 55.6221C227.899 55.3096 227.973 54.8945 227.973 54.377V37.1504ZM227.665 32.9902C227.665 32.4531 227.846 32.0088 228.207 31.6572C228.568 31.2959 229.062 31.1152 229.687 31.1152C230.321 31.1152 230.814 31.2959 231.166 31.6572C231.527 32.0088 231.708 32.4531 231.708 32.9902C231.708 33.5176 231.527 33.957 231.166 34.3086C230.814 34.6602 230.321 34.8359 229.687 34.8359C229.062 34.8359 228.568 34.6602 228.207 34.3086C227.846 33.957 227.665 33.5176 227.665 32.9902ZM242.313 53.293C241.142 53.293 240.082 53.1025 239.135 52.7217C238.197 52.3311 237.396 51.7891 236.732 51.0957C236.078 50.4023 235.575 49.5869 235.224 48.6494C234.872 47.7119 234.696 46.7012 234.696 45.6172V45.0312C234.696 43.791 234.877 42.668 235.238 41.6621C235.6 40.6562 236.103 39.7969 236.747 39.084C237.392 38.3613 238.153 37.8096 239.032 37.4287C239.911 37.0479 240.863 36.8574 241.889 36.8574C243.021 36.8574 244.013 37.0479 244.862 37.4287C245.712 37.8096 246.415 38.3467 246.972 39.04C247.538 39.7236 247.958 40.5391 248.231 41.4863C248.515 42.4336 248.656 43.4785 248.656 44.6211V46.1299H236.41V43.5957H245.17V43.3174C245.15 42.6826 245.023 42.0869 244.789 41.5303C244.564 40.9736 244.218 40.5244 243.749 40.1826C243.28 39.8408 242.655 39.6699 241.874 39.6699C241.288 39.6699 240.766 39.7969 240.307 40.0508C239.857 40.2949 239.481 40.6514 239.179 41.1201C238.876 41.5889 238.642 42.1553 238.476 42.8193C238.319 43.4736 238.241 44.2109 238.241 45.0312V45.6172C238.241 46.3105 238.334 46.9551 238.52 47.5508C238.715 48.1367 238.998 48.6494 239.369 49.0889C239.74 49.5283 240.189 49.875 240.717 50.1289C241.244 50.373 241.845 50.4951 242.519 50.4951C243.368 50.4951 244.125 50.3242 244.789 49.9824C245.453 49.6406 246.029 49.1572 246.518 48.5322L248.378 50.334C248.036 50.832 247.592 51.3105 247.045 51.7695C246.498 52.2188 245.829 52.585 245.038 52.8682C244.257 53.1514 243.349 53.293 242.313 53.293ZM257.885 50.4805C258.461 50.4805 258.979 50.3682 259.438 50.1436C259.906 49.9092 260.282 49.5869 260.565 49.1768C260.858 48.7666 261.02 48.293 261.049 47.7559H264.374C264.354 48.7812 264.052 49.7139 263.466 50.5537C262.88 51.3936 262.104 52.0625 261.137 52.5605C260.17 53.0488 259.101 53.293 257.929 53.293C256.718 53.293 255.663 53.0879 254.765 52.6777C253.866 52.2578 253.119 51.6816 252.523 50.9492C251.928 50.2168 251.479 49.3721 251.176 48.415C250.883 47.458 250.736 46.4326 250.736 45.3389V44.8262C250.736 43.7324 250.883 42.707 251.176 41.75C251.479 40.7832 251.928 39.9336 252.523 39.2012C253.119 38.4688 253.866 37.8975 254.765 37.4873C255.663 37.0674 256.713 36.8574 257.914 36.8574C259.184 36.8574 260.297 37.1113 261.254 37.6191C262.211 38.1172 262.963 38.8154 263.51 39.7139C264.066 40.6025 264.354 41.6377 264.374 42.8193H261.049C261.02 42.2334 260.873 41.7061 260.609 41.2373C260.355 40.7588 259.994 40.3779 259.525 40.0947C259.066 39.8115 258.515 39.6699 257.87 39.6699C257.157 39.6699 256.566 39.8164 256.098 40.1094C255.629 40.3926 255.263 40.7832 254.999 41.2812C254.735 41.7695 254.545 42.3213 254.428 42.9365C254.32 43.542 254.267 44.1719 254.267 44.8262V45.3389C254.267 45.9932 254.32 46.6279 254.428 47.2432C254.535 47.8584 254.721 48.4102 254.984 48.8984C255.258 49.377 255.629 49.7627 256.098 50.0557C256.566 50.3389 257.162 50.4805 257.885 50.4805ZM274.35 37.1504V39.7285H265.414V37.1504H274.35ZM267.992 33.2686H271.522V48.6201C271.522 49.1084 271.591 49.4844 271.728 49.748C271.874 50.002 272.074 50.1729 272.328 50.2607C272.582 50.3486 272.88 50.3926 273.222 50.3926C273.466 50.3926 273.7 50.3779 273.925 50.3486C274.149 50.3193 274.33 50.29 274.467 50.2607L274.481 52.9561C274.188 53.0439 273.847 53.1221 273.456 53.1904C273.075 53.2588 272.636 53.293 272.138 53.293C271.327 53.293 270.609 53.1514 269.984 52.8682C269.359 52.5752 268.871 52.1016 268.52 51.4473C268.168 50.793 267.992 49.9238 267.992 48.8398V33.2686ZM284.062 53.293C282.89 53.293 281.83 53.1025 280.883 52.7217C279.945 52.3311 279.145 51.7891 278.48 51.0957C277.826 50.4023 277.323 49.5869 276.972 48.6494C276.62 47.7119 276.444 46.7012 276.444 45.6172V45.0312C276.444 43.791 276.625 42.668 276.986 41.6621C277.348 40.6562 277.851 39.7969 278.495 39.084C279.14 38.3613 279.901 37.8096 280.78 37.4287C281.659 37.0479 282.611 36.8574 283.637 36.8574C284.77 36.8574 285.761 37.0479 286.61 37.4287C287.46 37.8096 288.163 38.3467 288.72 39.04C289.286 39.7236 289.706 40.5391 289.979 41.4863C290.263 42.4336 290.404 43.4785 290.404 44.6211V46.1299H278.158V43.5957H286.918V43.3174C286.898 42.6826 286.771 42.0869 286.537 41.5303C286.312 40.9736 285.966 40.5244 285.497 40.1826C285.028 39.8408 284.403 39.6699 283.622 39.6699C283.036 39.6699 282.514 39.7969 282.055 40.0508C281.605 40.2949 281.229 40.6514 280.927 41.1201C280.624 41.5889 280.39 42.1553 280.224 42.8193C280.067 43.4736 279.989 44.2109 279.989 45.0312V45.6172C279.989 46.3105 280.082 46.9551 280.268 47.5508C280.463 48.1367 280.746 48.6494 281.117 49.0889C281.488 49.5283 281.938 49.875 282.465 50.1289C282.992 50.373 283.593 50.4951 284.267 50.4951C285.116 50.4951 285.873 50.3242 286.537 49.9824C287.201 49.6406 287.777 49.1572 288.266 48.5322L290.126 50.334C289.784 50.832 289.34 51.3105 288.793 51.7695C288.246 52.2188 287.577 52.585 286.786 52.8682C286.005 53.1514 285.097 53.293 284.062 53.293ZM302.826 49.7188V30.5H306.371V53H303.163L302.826 49.7188ZM292.514 45.251V44.9434C292.514 43.7422 292.655 42.6484 292.938 41.6621C293.222 40.666 293.632 39.8115 294.169 39.0986C294.706 38.376 295.36 37.8242 296.132 37.4434C296.903 37.0527 297.772 36.8574 298.739 36.8574C299.696 36.8574 300.536 37.043 301.259 37.4141C301.981 37.7852 302.597 38.3174 303.104 39.0107C303.612 39.6943 304.018 40.5146 304.32 41.4717C304.623 42.4189 304.838 43.4736 304.965 44.6357V45.6172C304.838 46.75 304.623 47.7852 304.32 48.7227C304.018 49.6602 303.612 50.4707 303.104 51.1543C302.597 51.8379 301.977 52.3652 301.244 52.7363C300.521 53.1074 299.677 53.293 298.71 53.293C297.753 53.293 296.889 53.0928 296.117 52.6924C295.355 52.292 294.706 51.7305 294.169 51.0078C293.632 50.2852 293.222 49.4355 292.938 48.459C292.655 47.4727 292.514 46.4033 292.514 45.251ZM296.044 44.9434V45.251C296.044 45.9736 296.107 46.6475 296.234 47.2725C296.371 47.8975 296.581 48.4492 296.864 48.9277C297.147 49.3965 297.514 49.7676 297.963 50.041C298.422 50.3047 298.969 50.4365 299.604 50.4365C300.404 50.4365 301.063 50.2607 301.581 49.9092C302.099 49.5576 302.504 49.084 302.797 48.4883C303.1 47.8828 303.305 47.209 303.412 46.4668V43.8154C303.354 43.2393 303.231 42.7021 303.046 42.2041C302.87 41.7061 302.631 41.2715 302.328 40.9004C302.025 40.5195 301.649 40.2266 301.2 40.0215C300.761 39.8066 300.238 39.6992 299.633 39.6992C298.988 39.6992 298.441 39.8359 297.992 40.1094C297.543 40.3828 297.172 40.7588 296.879 41.2373C296.596 41.7158 296.386 42.2725 296.249 42.9072C296.112 43.542 296.044 44.2207 296.044 44.9434Z" fill="#445D6B"/>
</svg>
