<svg width="518" height="104" viewBox="0 0 518 104" fill="none" xmlns="http://www.w3.org/2000/svg">
<rect x="9" y="5" width="500" height="86" rx="10" fill="white"/>
<rect x="9.5" y="5.5" width="499" height="85" rx="9.5" stroke="#445A68" stroke-opacity="0.2"/>
<g filter="url(#filter0_d_1100_3176)">
<rect x="9" y="5" width="500" height="86" rx="10" fill="url(#paint0_linear_1100_3176)"/>
</g>
<path d="M220.168 36.6719H227.712C229.333 36.6719 230.715 36.916 231.857 37.4043C233 37.8926 233.874 38.6152 234.479 39.5723C235.095 40.5195 235.402 41.6914 235.402 43.0879C235.402 44.1523 235.207 45.0898 234.816 45.9004C234.426 46.7109 233.874 47.3945 233.161 47.9512C232.448 48.498 231.599 48.9229 230.612 49.2256L229.499 49.7676H222.717L222.688 46.8525H227.771C228.649 46.8525 229.382 46.6963 229.968 46.3838C230.554 46.0713 230.993 45.6465 231.286 45.1094C231.589 44.5625 231.74 43.9473 231.74 43.2637C231.74 42.5215 231.594 41.877 231.301 41.3301C231.018 40.7734 230.578 40.3486 229.982 40.0557C229.387 39.7529 228.63 39.6016 227.712 39.6016H223.845V58H220.168V36.6719ZM232.341 58L227.331 48.4199L231.184 48.4053L236.267 57.8096V58H232.341ZM245.7 58.293C244.528 58.293 243.469 58.1025 242.521 57.7217C241.584 57.3311 240.783 56.7891 240.119 56.0957C239.465 55.4023 238.962 54.5869 238.61 53.6494C238.259 52.7119 238.083 51.7012 238.083 50.6172V50.0312C238.083 48.791 238.264 47.668 238.625 46.6621C238.986 45.6562 239.489 44.7969 240.134 44.084C240.778 43.3613 241.54 42.8096 242.419 42.4287C243.298 42.0479 244.25 41.8574 245.275 41.8574C246.408 41.8574 247.399 42.0479 248.249 42.4287C249.099 42.8096 249.802 43.3467 250.358 44.04C250.925 44.7236 251.345 45.5391 251.618 46.4863C251.901 47.4336 252.043 48.4785 252.043 49.6211V51.1299H239.797V48.5957H248.557V48.3174C248.537 47.6826 248.41 47.0869 248.176 46.5303C247.951 45.9736 247.604 45.5244 247.136 45.1826C246.667 44.8408 246.042 44.6699 245.261 44.6699C244.675 44.6699 244.152 44.7969 243.693 45.0508C243.244 45.2949 242.868 45.6514 242.565 46.1201C242.263 46.5889 242.028 47.1553 241.862 47.8193C241.706 48.4736 241.628 49.2109 241.628 50.0312V50.6172C241.628 51.3105 241.721 51.9551 241.906 52.5508C242.102 53.1367 242.385 53.6494 242.756 54.0889C243.127 54.5283 243.576 54.875 244.104 55.1289C244.631 55.373 245.231 55.4951 245.905 55.4951C246.755 55.4951 247.512 55.3242 248.176 54.9824C248.84 54.6406 249.416 54.1572 249.904 53.5322L251.765 55.334C251.423 55.832 250.979 56.3105 250.432 56.7695C249.885 57.2188 249.216 57.585 248.425 57.8682C247.644 58.1514 246.735 58.293 245.7 58.293ZM254.973 42.1504H258.518V59.377C258.518 60.4609 258.332 61.374 257.961 62.1162C257.59 62.8682 257.043 63.4346 256.32 63.8154C255.598 64.2061 254.714 64.4014 253.669 64.4014C253.356 64.4014 253.034 64.377 252.702 64.3281C252.36 64.2891 252.038 64.2305 251.735 64.1523L251.75 61.3984C251.955 61.4375 252.175 61.4668 252.409 61.4863C252.634 61.5156 252.849 61.5303 253.054 61.5303C253.474 61.5303 253.825 61.457 254.108 61.3105C254.392 61.1641 254.606 60.9346 254.753 60.6221C254.899 60.3096 254.973 59.8945 254.973 59.377V42.1504ZM254.665 37.9902C254.665 37.4531 254.846 37.0088 255.207 36.6572C255.568 36.2959 256.062 36.1152 256.687 36.1152C257.321 36.1152 257.814 36.2959 258.166 36.6572C258.527 37.0088 258.708 37.4531 258.708 37.9902C258.708 38.5176 258.527 38.957 258.166 39.3086C257.814 39.6602 257.321 39.8359 256.687 39.8359C256.062 39.8359 255.568 39.6602 255.207 39.3086C254.846 38.957 254.665 38.5176 254.665 37.9902ZM269.313 58.293C268.142 58.293 267.082 58.1025 266.135 57.7217C265.197 57.3311 264.396 56.7891 263.732 56.0957C263.078 55.4023 262.575 54.5869 262.224 53.6494C261.872 52.7119 261.696 51.7012 261.696 50.6172V50.0312C261.696 48.791 261.877 47.668 262.238 46.6621C262.6 45.6562 263.103 44.7969 263.747 44.084C264.392 43.3613 265.153 42.8096 266.032 42.4287C266.911 42.0479 267.863 41.8574 268.889 41.8574C270.021 41.8574 271.013 42.0479 271.862 42.4287C272.712 42.8096 273.415 43.3467 273.972 44.04C274.538 44.7236 274.958 45.5391 275.231 46.4863C275.515 47.4336 275.656 48.4785 275.656 49.6211V51.1299H263.41V48.5957H272.17V48.3174C272.15 47.6826 272.023 47.0869 271.789 46.5303C271.564 45.9736 271.218 45.5244 270.749 45.1826C270.28 44.8408 269.655 44.6699 268.874 44.6699C268.288 44.6699 267.766 44.7969 267.307 45.0508C266.857 45.2949 266.481 45.6514 266.179 46.1201C265.876 46.5889 265.642 47.1553 265.476 47.8193C265.319 48.4736 265.241 49.2109 265.241 50.0312V50.6172C265.241 51.3105 265.334 51.9551 265.52 52.5508C265.715 53.1367 265.998 53.6494 266.369 54.0889C266.74 54.5283 267.189 54.875 267.717 55.1289C268.244 55.373 268.845 55.4951 269.519 55.4951C270.368 55.4951 271.125 55.3242 271.789 54.9824C272.453 54.6406 273.029 54.1572 273.518 53.5322L275.378 55.334C275.036 55.832 274.592 56.3105 274.045 56.7695C273.498 57.2188 272.829 57.585 272.038 57.8682C271.257 58.1514 270.349 58.293 269.313 58.293ZM284.885 55.4805C285.461 55.4805 285.979 55.3682 286.438 55.1436C286.906 54.9092 287.282 54.5869 287.565 54.1768C287.858 53.7666 288.02 53.293 288.049 52.7559H291.374C291.354 53.7812 291.052 54.7139 290.466 55.5537C289.88 56.3936 289.104 57.0625 288.137 57.5605C287.17 58.0488 286.101 58.293 284.929 58.293C283.718 58.293 282.663 58.0879 281.765 57.6777C280.866 57.2578 280.119 56.6816 279.523 55.9492C278.928 55.2168 278.479 54.3721 278.176 53.415C277.883 52.458 277.736 51.4326 277.736 50.3389V49.8262C277.736 48.7324 277.883 47.707 278.176 46.75C278.479 45.7832 278.928 44.9336 279.523 44.2012C280.119 43.4688 280.866 42.8975 281.765 42.4873C282.663 42.0674 283.713 41.8574 284.914 41.8574C286.184 41.8574 287.297 42.1113 288.254 42.6191C289.211 43.1172 289.963 43.8154 290.51 44.7139C291.066 45.6025 291.354 46.6377 291.374 47.8193H288.049C288.02 47.2334 287.873 46.7061 287.609 46.2373C287.355 45.7588 286.994 45.3779 286.525 45.0947C286.066 44.8115 285.515 44.6699 284.87 44.6699C284.157 44.6699 283.566 44.8164 283.098 45.1094C282.629 45.3926 282.263 45.7832 281.999 46.2812C281.735 46.7695 281.545 47.3213 281.428 47.9365C281.32 48.542 281.267 49.1719 281.267 49.8262V50.3389C281.267 50.9932 281.32 51.6279 281.428 52.2432C281.535 52.8584 281.721 53.4102 281.984 53.8984C282.258 54.377 282.629 54.7627 283.098 55.0557C283.566 55.3389 284.162 55.4805 284.885 55.4805ZM301.35 42.1504V44.7285H292.414V42.1504H301.35ZM294.992 38.2686H298.522V53.6201C298.522 54.1084 298.591 54.4844 298.728 54.748C298.874 55.002 299.074 55.1729 299.328 55.2607C299.582 55.3486 299.88 55.3926 300.222 55.3926C300.466 55.3926 300.7 55.3779 300.925 55.3486C301.149 55.3193 301.33 55.29 301.467 55.2607L301.481 57.9561C301.188 58.0439 300.847 58.1221 300.456 58.1904C300.075 58.2588 299.636 58.293 299.138 58.293C298.327 58.293 297.609 58.1514 296.984 57.8682C296.359 57.5752 295.871 57.1016 295.52 56.4473C295.168 55.793 294.992 54.9238 294.992 53.8398V38.2686Z" fill="#445D6B"/>
<rect x="9" y="5" width="474" height="83" rx="10" fill="white"/>
<path d="M202.168 37.6719H209.712C211.333 37.6719 212.715 37.916 213.857 38.4043C215 38.8926 215.874 39.6152 216.479 40.5723C217.095 41.5195 217.402 42.6914 217.402 44.0879C217.402 45.1523 217.207 46.0898 216.816 46.9004C216.426 47.7109 215.874 48.3945 215.161 48.9512C214.448 49.498 213.599 49.9229 212.612 50.2256L211.499 50.7676H204.717L204.688 47.8525H209.771C210.649 47.8525 211.382 47.6963 211.968 47.3838C212.554 47.0713 212.993 46.6465 213.286 46.1094C213.589 45.5625 213.74 44.9473 213.74 44.2637C213.74 43.5215 213.594 42.877 213.301 42.3301C213.018 41.7734 212.578 41.3486 211.982 41.0557C211.387 40.7529 210.63 40.6016 209.712 40.6016H205.845V59H202.168V37.6719ZM214.341 59L209.331 49.4199L213.184 49.4053L218.267 58.8096V59H214.341ZM227.7 59.293C226.528 59.293 225.469 59.1025 224.521 58.7217C223.584 58.3311 222.783 57.7891 222.119 57.0957C221.465 56.4023 220.962 55.5869 220.61 54.6494C220.259 53.7119 220.083 52.7012 220.083 51.6172V51.0312C220.083 49.791 220.264 48.668 220.625 47.6621C220.986 46.6562 221.489 45.7969 222.134 45.084C222.778 44.3613 223.54 43.8096 224.419 43.4287C225.298 43.0479 226.25 42.8574 227.275 42.8574C228.408 42.8574 229.399 43.0479 230.249 43.4287C231.099 43.8096 231.802 44.3467 232.358 45.04C232.925 45.7236 233.345 46.5391 233.618 47.4863C233.901 48.4336 234.043 49.4785 234.043 50.6211V52.1299H221.797V49.5957H230.557V49.3174C230.537 48.6826 230.41 48.0869 230.176 47.5303C229.951 46.9736 229.604 46.5244 229.136 46.1826C228.667 45.8408 228.042 45.6699 227.261 45.6699C226.675 45.6699 226.152 45.7969 225.693 46.0508C225.244 46.2949 224.868 46.6514 224.565 47.1201C224.263 47.5889 224.028 48.1553 223.862 48.8193C223.706 49.4736 223.628 50.2109 223.628 51.0312V51.6172C223.628 52.3105 223.721 52.9551 223.906 53.5508C224.102 54.1367 224.385 54.6494 224.756 55.0889C225.127 55.5283 225.576 55.875 226.104 56.1289C226.631 56.373 227.231 56.4951 227.905 56.4951C228.755 56.4951 229.512 56.3242 230.176 55.9824C230.84 55.6406 231.416 55.1572 231.904 54.5322L233.765 56.334C233.423 56.832 232.979 57.3105 232.432 57.7695C231.885 58.2188 231.216 58.585 230.425 58.8682C229.644 59.1514 228.735 59.293 227.7 59.293ZM236.973 43.1504H240.518V60.377C240.518 61.4609 240.332 62.374 239.961 63.1162C239.59 63.8682 239.043 64.4346 238.32 64.8154C237.598 65.2061 236.714 65.4014 235.669 65.4014C235.356 65.4014 235.034 65.377 234.702 65.3281C234.36 65.2891 234.038 65.2305 233.735 65.1523L233.75 62.3984C233.955 62.4375 234.175 62.4668 234.409 62.4863C234.634 62.5156 234.849 62.5303 235.054 62.5303C235.474 62.5303 235.825 62.457 236.108 62.3105C236.392 62.1641 236.606 61.9346 236.753 61.6221C236.899 61.3096 236.973 60.8945 236.973 60.377V43.1504ZM236.665 38.9902C236.665 38.4531 236.846 38.0088 237.207 37.6572C237.568 37.2959 238.062 37.1152 238.687 37.1152C239.321 37.1152 239.814 37.2959 240.166 37.6572C240.527 38.0088 240.708 38.4531 240.708 38.9902C240.708 39.5176 240.527 39.957 240.166 40.3086C239.814 40.6602 239.321 40.8359 238.687 40.8359C238.062 40.8359 237.568 40.6602 237.207 40.3086C236.846 39.957 236.665 39.5176 236.665 38.9902ZM251.313 59.293C250.142 59.293 249.082 59.1025 248.135 58.7217C247.197 58.3311 246.396 57.7891 245.732 57.0957C245.078 56.4023 244.575 55.5869 244.224 54.6494C243.872 53.7119 243.696 52.7012 243.696 51.6172V51.0312C243.696 49.791 243.877 48.668 244.238 47.6621C244.6 46.6562 245.103 45.7969 245.747 45.084C246.392 44.3613 247.153 43.8096 248.032 43.4287C248.911 43.0479 249.863 42.8574 250.889 42.8574C252.021 42.8574 253.013 43.0479 253.862 43.4287C254.712 43.8096 255.415 44.3467 255.972 45.04C256.538 45.7236 256.958 46.5391 257.231 47.4863C257.515 48.4336 257.656 49.4785 257.656 50.6211V52.1299H245.41V49.5957H254.17V49.3174C254.15 48.6826 254.023 48.0869 253.789 47.5303C253.564 46.9736 253.218 46.5244 252.749 46.1826C252.28 45.8408 251.655 45.6699 250.874 45.6699C250.288 45.6699 249.766 45.7969 249.307 46.0508C248.857 46.2949 248.481 46.6514 248.179 47.1201C247.876 47.5889 247.642 48.1553 247.476 48.8193C247.319 49.4736 247.241 50.2109 247.241 51.0312V51.6172C247.241 52.3105 247.334 52.9551 247.52 53.5508C247.715 54.1367 247.998 54.6494 248.369 55.0889C248.74 55.5283 249.189 55.875 249.717 56.1289C250.244 56.373 250.845 56.4951 251.519 56.4951C252.368 56.4951 253.125 56.3242 253.789 55.9824C254.453 55.6406 255.029 55.1572 255.518 54.5322L257.378 56.334C257.036 56.832 256.592 57.3105 256.045 57.7695C255.498 58.2188 254.829 58.585 254.038 58.8682C253.257 59.1514 252.349 59.293 251.313 59.293ZM266.885 56.4805C267.461 56.4805 267.979 56.3682 268.438 56.1436C268.906 55.9092 269.282 55.5869 269.565 55.1768C269.858 54.7666 270.02 54.293 270.049 53.7559H273.374C273.354 54.7812 273.052 55.7139 272.466 56.5537C271.88 57.3936 271.104 58.0625 270.137 58.5605C269.17 59.0488 268.101 59.293 266.929 59.293C265.718 59.293 264.663 59.0879 263.765 58.6777C262.866 58.2578 262.119 57.6816 261.523 56.9492C260.928 56.2168 260.479 55.3721 260.176 54.415C259.883 53.458 259.736 52.4326 259.736 51.3389V50.8262C259.736 49.7324 259.883 48.707 260.176 47.75C260.479 46.7832 260.928 45.9336 261.523 45.2012C262.119 44.4688 262.866 43.8975 263.765 43.4873C264.663 43.0674 265.713 42.8574 266.914 42.8574C268.184 42.8574 269.297 43.1113 270.254 43.6191C271.211 44.1172 271.963 44.8154 272.51 45.7139C273.066 46.6025 273.354 47.6377 273.374 48.8193H270.049C270.02 48.2334 269.873 47.7061 269.609 47.2373C269.355 46.7588 268.994 46.3779 268.525 46.0947C268.066 45.8115 267.515 45.6699 266.87 45.6699C266.157 45.6699 265.566 45.8164 265.098 46.1094C264.629 46.3926 264.263 46.7832 263.999 47.2812C263.735 47.7695 263.545 48.3213 263.428 48.9365C263.32 49.542 263.267 50.1719 263.267 50.8262V51.3389C263.267 51.9932 263.32 52.6279 263.428 53.2432C263.535 53.8584 263.721 54.4102 263.984 54.8984C264.258 55.377 264.629 55.7627 265.098 56.0557C265.566 56.3389 266.162 56.4805 266.885 56.4805ZM283.35 43.1504V45.7285H274.414V43.1504H283.35ZM276.992 39.2686H280.522V54.6201C280.522 55.1084 280.591 55.4844 280.728 55.748C280.874 56.002 281.074 56.1729 281.328 56.2607C281.582 56.3486 281.88 56.3926 282.222 56.3926C282.466 56.3926 282.7 56.3779 282.925 56.3486C283.149 56.3193 283.33 56.29 283.467 56.2607L283.481 58.9561C283.188 59.0439 282.847 59.1221 282.456 59.1904C282.075 59.2588 281.636 59.293 281.138 59.293C280.327 59.293 279.609 59.1514 278.984 58.8682C278.359 58.5752 277.871 58.1016 277.52 57.4473C277.168 56.793 276.992 55.9238 276.992 54.8398V39.2686ZM293.062 59.293C291.89 59.293 290.83 59.1025 289.883 58.7217C288.945 58.3311 288.145 57.7891 287.48 57.0957C286.826 56.4023 286.323 55.5869 285.972 54.6494C285.62 53.7119 285.444 52.7012 285.444 51.6172V51.0312C285.444 49.791 285.625 48.668 285.986 47.6621C286.348 46.6562 286.851 45.7969 287.495 45.084C288.14 44.3613 288.901 43.8096 289.78 43.4287C290.659 43.0479 291.611 42.8574 292.637 42.8574C293.77 42.8574 294.761 43.0479 295.61 43.4287C296.46 43.8096 297.163 44.3467 297.72 45.04C298.286 45.7236 298.706 46.5391 298.979 47.4863C299.263 48.4336 299.404 49.4785 299.404 50.6211V52.1299H287.158V49.5957H295.918V49.3174C295.898 48.6826 295.771 48.0869 295.537 47.5303C295.312 46.9736 294.966 46.5244 294.497 46.1826C294.028 45.8408 293.403 45.6699 292.622 45.6699C292.036 45.6699 291.514 45.7969 291.055 46.0508C290.605 46.2949 290.229 46.6514 289.927 47.1201C289.624 47.5889 289.39 48.1553 289.224 48.8193C289.067 49.4736 288.989 50.2109 288.989 51.0312V51.6172C288.989 52.3105 289.082 52.9551 289.268 53.5508C289.463 54.1367 289.746 54.6494 290.117 55.0889C290.488 55.5283 290.938 55.875 291.465 56.1289C291.992 56.373 292.593 56.4951 293.267 56.4951C294.116 56.4951 294.873 56.3242 295.537 55.9824C296.201 55.6406 296.777 55.1572 297.266 54.5322L299.126 56.334C298.784 56.832 298.34 57.3105 297.793 57.7695C297.246 58.2188 296.577 58.585 295.786 58.8682C295.005 59.1514 294.097 59.293 293.062 59.293ZM311.826 55.7188V36.5H315.371V59H312.163L311.826 55.7188ZM301.514 51.251V50.9434C301.514 49.7422 301.655 48.6484 301.938 47.6621C302.222 46.666 302.632 45.8115 303.169 45.0986C303.706 44.376 304.36 43.8242 305.132 43.4434C305.903 43.0527 306.772 42.8574 307.739 42.8574C308.696 42.8574 309.536 43.043 310.259 43.4141C310.981 43.7852 311.597 44.3174 312.104 45.0107C312.612 45.6943 313.018 46.5146 313.32 47.4717C313.623 48.4189 313.838 49.4736 313.965 50.6357V51.6172C313.838 52.75 313.623 53.7852 313.32 54.7227C313.018 55.6602 312.612 56.4707 312.104 57.1543C311.597 57.8379 310.977 58.3652 310.244 58.7363C309.521 59.1074 308.677 59.293 307.71 59.293C306.753 59.293 305.889 59.0928 305.117 58.6924C304.355 58.292 303.706 57.7305 303.169 57.0078C302.632 56.2852 302.222 55.4355 301.938 54.459C301.655 53.4727 301.514 52.4033 301.514 51.251ZM305.044 50.9434V51.251C305.044 51.9736 305.107 52.6475 305.234 53.2725C305.371 53.8975 305.581 54.4492 305.864 54.9277C306.147 55.3965 306.514 55.7676 306.963 56.041C307.422 56.3047 307.969 56.4365 308.604 56.4365C309.404 56.4365 310.063 56.2607 310.581 55.9092C311.099 55.5576 311.504 55.084 311.797 54.4883C312.1 53.8828 312.305 53.209 312.412 52.4668V49.8154C312.354 49.2393 312.231 48.7021 312.046 48.2041C311.87 47.7061 311.631 47.2715 311.328 46.9004C311.025 46.5195 310.649 46.2266 310.2 46.0215C309.761 45.8066 309.238 45.6992 308.633 45.6992C307.988 45.6992 307.441 45.8359 306.992 46.1094C306.543 46.3828 306.172 46.7588 305.879 47.2373C305.596 47.7158 305.386 48.2725 305.249 48.9072C305.112 49.542 305.044 50.2207 305.044 50.9434Z" fill="#445D6B"/>
<defs>
<filter id="filter0_d_1100_3176" x="0" y="0" width="518" height="104" filterUnits="userSpaceOnUse" color-interpolation-filters="sRGB">
<feFlood flood-opacity="0" result="BackgroundImageFix"/>
<feColorMatrix in="SourceAlpha" type="matrix" values="0 0 0 0 0 0 0 0 0 0 0 0 0 0 0 0 0 0 127 0" result="hardAlpha"/>
<feMorphology radius="2" operator="dilate" in="SourceAlpha" result="effect1_dropShadow_1100_3176"/>
<feOffset dy="4"/>
<feGaussianBlur stdDeviation="3.5"/>
<feComposite in2="hardAlpha" operator="out"/>
<feColorMatrix type="matrix" values="0 0 0 0 0 0 0 0 0 0 0 0 0 0 0 0 0 0 0.17 0"/>
<feBlend mode="normal" in2="BackgroundImageFix" result="effect1_dropShadow_1100_3176"/>
<feBlend mode="normal" in="SourceGraphic" in2="effect1_dropShadow_1100_3176" result="shape"/>
</filter>
<linearGradient id="paint0_linear_1100_3176" x1="264.5" y1="5" x2="264.5" y2="91" gradientUnits="userSpaceOnUse">
<stop stop-color="#FF6060"/>
<stop offset="1" stop-color="#590001"/>
</linearGradient>
</defs>
</svg>
