<svg width="26" height="22" viewBox="0 0 26 22" fill="none" xmlns="http://www.w3.org/2000/svg">
<path fill-rule="evenodd" clip-rule="evenodd" d="M10.4 0.166626H15.6C20.5026 0.166626 22.9539 0.166626 24.477 1.75313C26 3.33964 26 5.89308 26 11C26 16.1068 26 18.6603 24.477 20.2468C22.9539 21.8333 20.5026 21.8333 15.6 21.8333H10.4C5.49739 21.8333 3.04609 21.8333 1.52304 20.2468C0 18.6603 0 16.1068 0 11C0 5.89308 0 3.33964 1.52304 1.75313C3.04609 0.166626 5.49739 0.166626 10.4 0.166626ZM14.625 6.93746C14.625 6.37654 15.0615 5.92183 15.6 5.92183H22.1C22.6385 5.92183 23.075 6.37654 23.075 6.93746C23.075 7.49837 22.6385 7.95308 22.1 7.95308H15.6C15.0615 7.95308 14.625 7.49837 14.625 6.93746ZM15.925 11C15.925 10.439 16.3615 9.98433 16.9 9.98433H22.1C22.6385 9.98433 23.075 10.439 23.075 11C23.075 11.5609 22.6385 12.0156 22.1 12.0156H16.9C16.3615 12.0156 15.925 11.5609 15.925 11ZM17.225 15.0625C17.225 14.5015 17.6615 14.0468 18.2 14.0468H22.1C22.6385 14.0468 23.075 14.5015 23.075 15.0625C23.075 15.6234 22.6385 16.0781 22.1 16.0781H18.2C17.6615 16.0781 17.225 15.6234 17.225 15.0625ZM11.7 6.93746C11.7 8.43323 10.5359 9.64579 9.1 9.64579C7.66406 9.64579 6.5 8.43323 6.5 6.93746C6.5 5.44169 7.66406 4.22913 9.1 4.22913C10.5359 4.22913 11.7 5.44169 11.7 6.93746ZM9.1 17.7708C14.3 17.7708 14.3 16.5582 14.3 15.0625C14.3 13.5667 11.9719 12.3541 9.1 12.3541C6.22812 12.3541 3.9 13.5667 3.9 15.0625C3.9 16.5582 3.9 17.7708 9.1 17.7708Z" fill="#333333"/>
</svg>
